<svg xmlns="http://www.w3.org/2000/svg" height="136" width="450.667"><path d="M77.333 67.167c0-8.837-7.163-16-16-16-8.836 0-16 7.163-16 16 0 8.836 7.164 16 16 16 8.837 0 16-7.164 16-16M61.333 35.167v16M61.333 99.167v-16" fill="none" stroke="#000" stroke-width="1.2999675" stroke-linecap="round" stroke-linejoin="bevel" stroke-miterlimit="6"/><text style="-inkscape-font-specification:Symbol" transform="matrix(1.33333 0 0 1.33333 56.052 65.489)" font-weight="400" font-size="15" font-family="Symbol"><tspan y="0" x="0">+</tspan><tspan y="11.71" x=".037">−</tspan></text><path d="M61.333 115.167v-16M77.333 115.167h-32M70.333 122.167h-18M63.333 129.167h-4M175.333 35.167h14M139.333 35.167h-14M175.333 35.167l-3-7-6 14-6-14-6 14-6-14-6 14-3-7M303.333 35.167h14M267.333 35.167h-14M303.333 35.167l-3-7-6 14-6-14-6 14-6-14-6 14-3-7M282.333 83.167h-29M288.333 83.167h29M288.333 99.167v-32M282.333 99.167v-32M117.333 35.167h-56M101.333 35.167h24M253.333 35.167h-64M365.333 35.167h-48M333.333 35.167v48h-16M237.333 35.167v48h16" fill="none" stroke="#000" stroke-width="1.2999675" stroke-linecap="round" stroke-linejoin="bevel" stroke-miterlimit="6"/><path d="M240.333 35.167a3 3 0 10-6 0 3 3 0 006 0M336.333 35.167a3 3 0 10-6 0 3 3 0 006 0" fill-rule="evenodd"/><path d="M376.333 35.167a3 3 0 10-6 0 3 3 0 006 0M370.333 35.167h-5" fill="none" stroke="#000" stroke-width="1.2999675" stroke-linecap="round" stroke-linejoin="bevel" stroke-miterlimit="6"/><g font-weight="400" font-family="Helvetica"><text style="-inkscape-font-specification:Helvetica" transform="matrix(1.33333 0 0 1.33333 4.733 67.167)" font-size="15"><tspan y="0" x="0">V</tspan></text><text style="-inkscape-font-specification:Helvetica" transform="matrix(1.33333 0 0 1.33333 18.073 71.589)" font-size="10.05"><tspan y="0" x="0 3.3466499 8.9344501">ref</tspan></text><text style="-inkscape-font-specification:Helvetica" transform="matrix(1.33333 0 0 1.33333 147.477 19.167)" font-size="15"><tspan y="0" x="0">R</tspan></text><text style="-inkscape-font-specification:Helvetica" transform="matrix(1.33333 0 0 1.33333 161.917 23.589)" font-size="10.05"><tspan y="0" x="0">a</tspan></text><text style="-inkscape-font-specification:Helvetica" transform="matrix(1.33333 0 0 1.33333 275.477 19.167)" font-size="15"><tspan y="0" x="0">R</tspan></text><text style="-inkscape-font-specification:Helvetica" transform="matrix(1.33333 0 0 1.33333 289.917 23.589)" font-size="10.05"><tspan y="0" x="0">b</tspan></text><text style="-inkscape-font-specification:Helvetica" transform="matrix(1.33333 0 0 1.33333 260.654 123.167)" font-size="15"><tspan y="0" x="0 8.3400002">2C</tspan></text><text style="-inkscape-font-specification:Helvetica" transform="matrix(1.33333 0 0 1.33333 286.214 127.589)" font-size="10.05"><tspan y="0" x="0 5.5878 11.1756 16.2006 21.788401">decap</tspan></text><text style="-inkscape-font-specification:Helvetica" transform="matrix(1.33333 0 0 1.33333 387.477 43.167)" font-size="15"><tspan y="0" x="0 10.83 20.834999 31.665001">RVDD</tspan></text></g></svg>