G04 #@! TF.GenerationSoftware,KiCad,Pcbnew,(5.1.6)-1*
G04 #@! TF.CreationDate,2020-10-21T16:40:03-04:00*
G04 #@! TF.ProjectId,SAR_pcb,5341525f-7063-4622-9e6b-696361645f70,rev?*
G04 #@! TF.SameCoordinates,Original*
G04 #@! TF.FileFunction,Copper,L2,Inr*
G04 #@! TF.FilePolarity,Positive*
%FSLAX46Y46*%
G04 Gerber Fmt 4.6, Leading zero omitted, Abs format (unit mm)*
G04 Created by KiCad (PCBNEW (5.1.6)-1) date 2020-10-21 16:40:03*
%MOMM*%
%LPD*%
G01*
G04 APERTURE LIST*
G04 #@! TA.AperFunction,ViaPad*
%ADD10C,3.810000*%
G04 #@! TD*
G04 #@! TA.AperFunction,ViaPad*
%ADD11C,3.556000*%
G04 #@! TD*
G04 #@! TA.AperFunction,ViaPad*
%ADD12R,1.700000X1.700000*%
G04 #@! TD*
G04 #@! TA.AperFunction,ViaPad*
%ADD13O,1.700000X1.700000*%
G04 #@! TD*
G04 #@! TA.AperFunction,ViaPad*
%ADD14R,1.600000X1.600000*%
G04 #@! TD*
G04 #@! TA.AperFunction,ViaPad*
%ADD15O,1.600000X1.600000*%
G04 #@! TD*
G04 #@! TA.AperFunction,ViaPad*
%ADD16C,0.500000*%
G04 #@! TD*
G04 #@! TA.AperFunction,ViaPad*
%ADD17C,0.457200*%
G04 #@! TD*
G04 #@! TA.AperFunction,Conductor*
%ADD18C,0.101600*%
G04 #@! TD*
G04 APERTURE END LIST*
D10*
G04 #@! TO.N,GND*
G04 #@! TO.C,J1*
X127635000Y-82715100D03*
D11*
G04 #@! TO.N,VIN-*
X130810000Y-85890100D03*
D10*
G04 #@! TO.N,GND*
X133985000Y-82715100D03*
X127635000Y-89065100D03*
X133985000Y-89065100D03*
G04 #@! TD*
G04 #@! TO.N,GND*
G04 #@! TO.C,J2*
X133985000Y-103505000D03*
X127635000Y-103505000D03*
X133985000Y-97155000D03*
D11*
G04 #@! TO.N,VIN+*
X130810000Y-100330000D03*
D10*
G04 #@! TO.N,GND*
X127635000Y-97155000D03*
G04 #@! TD*
D12*
G04 #@! TO.N,D0*
G04 #@! TO.C,J3*
X164592000Y-81788000D03*
D13*
G04 #@! TO.N,GND*
X167132000Y-81788000D03*
G04 #@! TO.N,D1*
X164592000Y-84328000D03*
G04 #@! TO.N,GND*
X167132000Y-84328000D03*
G04 #@! TO.N,D2*
X164592000Y-86868000D03*
G04 #@! TO.N,GND*
X167132000Y-86868000D03*
G04 #@! TO.N,D3*
X164592000Y-89408000D03*
G04 #@! TO.N,GND*
X167132000Y-89408000D03*
G04 #@! TO.N,D4*
X164592000Y-91948000D03*
G04 #@! TO.N,GND*
X167132000Y-91948000D03*
G04 #@! TO.N,D5*
X164592000Y-94488000D03*
G04 #@! TO.N,GND*
X167132000Y-94488000D03*
G04 #@! TO.N,D6*
X164592000Y-97028000D03*
G04 #@! TO.N,GND*
X167132000Y-97028000D03*
G04 #@! TO.N,D7*
X164592000Y-99568000D03*
G04 #@! TO.N,GND*
X167132000Y-99568000D03*
G04 #@! TO.N,D8*
X164592000Y-102108000D03*
G04 #@! TO.N,GND*
X167132000Y-102108000D03*
G04 #@! TO.N,D9*
X164592000Y-104648000D03*
G04 #@! TO.N,GND*
X167132000Y-104648000D03*
G04 #@! TD*
D12*
G04 #@! TO.N,VDD*
G04 #@! TO.C,J4*
X155194000Y-115570000D03*
D13*
G04 #@! TO.N,GND*
X152654000Y-115570000D03*
G04 #@! TO.N,VDDPST*
X150114000Y-115570000D03*
G04 #@! TO.N,GND*
X147574000Y-115570000D03*
G04 #@! TO.N,VREF*
X145034000Y-115570000D03*
G04 #@! TO.N,GND*
X142494000Y-115570000D03*
G04 #@! TD*
D14*
G04 #@! TO.N,RST*
G04 #@! TO.C,SW1*
X150114000Y-103886000D03*
D15*
G04 #@! TO.N,GND*
X157734000Y-106426000D03*
G04 #@! TO.N,RST*
X150114000Y-106426000D03*
G04 #@! TO.N,GND*
X157734000Y-103886000D03*
G04 #@! TD*
D16*
G04 #@! TO.N,GND*
G04 #@! TO.C,U2*
X148204680Y-92233240D03*
X149204680Y-92233240D03*
X150204680Y-92233240D03*
X148204680Y-93233240D03*
X149204680Y-93233240D03*
X150204680Y-93233240D03*
X148204680Y-94233240D03*
X149204680Y-94233240D03*
X150204680Y-94233240D03*
G04 #@! TD*
D17*
G04 #@! TO.N,VDD*
X145161000Y-96393000D03*
X149733000Y-97536000D03*
X153479500Y-90868500D03*
X145212000Y-91821000D03*
G04 #@! TO.N,GND*
X155321000Y-120396000D03*
X150114000Y-120396000D03*
X145669000Y-120396000D03*
X144907000Y-120396000D03*
X155067000Y-90805000D03*
X155956000Y-89027000D03*
X154432000Y-89027000D03*
X154432000Y-98552000D03*
X149733000Y-99314000D03*
X148209000Y-99314000D03*
X141859000Y-89535000D03*
X143510000Y-96520000D03*
X143510000Y-94742000D03*
X155448000Y-110744000D03*
X155448000Y-110109000D03*
X161544000Y-74676000D03*
X160274000Y-78232000D03*
X161544000Y-78232000D03*
X161544000Y-75692000D03*
X161544000Y-73660000D03*
X160274000Y-74676000D03*
X161544000Y-76962000D03*
X160274000Y-76962000D03*
X160274000Y-73660000D03*
X160274000Y-75692000D03*
X152908000Y-74676000D03*
X151638000Y-78232000D03*
X152908000Y-78232000D03*
X152908000Y-75692000D03*
X152908000Y-73660000D03*
X151638000Y-74676000D03*
X152908000Y-76962000D03*
X151638000Y-76962000D03*
X151638000Y-73660000D03*
X151638000Y-75692000D03*
X149098000Y-74676000D03*
X147828000Y-78232000D03*
X149098000Y-78232000D03*
X149098000Y-75692000D03*
X149098000Y-73660000D03*
X147828000Y-74676000D03*
X149098000Y-76962000D03*
X147828000Y-76962000D03*
X147828000Y-73660000D03*
X147828000Y-75692000D03*
X140462000Y-78232000D03*
X139192000Y-78232000D03*
X139192000Y-76962000D03*
X140462000Y-76962000D03*
X140462000Y-75692000D03*
X139192000Y-75692000D03*
X140462000Y-74676000D03*
X139192000Y-74676000D03*
X140462000Y-73660000D03*
X139192000Y-73660000D03*
X148463000Y-90805000D03*
X146812000Y-90678000D03*
X146812000Y-91313000D03*
X148463000Y-90170000D03*
X147320000Y-95758000D03*
X147320000Y-96266000D03*
X143510000Y-95631000D03*
X141859000Y-88646000D03*
X143129000Y-91186000D03*
X143129000Y-92075000D03*
X148971000Y-99314000D03*
X155194000Y-98552000D03*
X155194000Y-89027000D03*
X155702000Y-90805000D03*
X146558000Y-120396000D03*
X147701000Y-120396000D03*
X148971000Y-120396000D03*
X151384000Y-120396000D03*
X153035000Y-120396000D03*
X154178000Y-120396000D03*
X139065000Y-86995000D03*
X137795000Y-85090000D03*
X151765000Y-102235000D03*
X151765000Y-104140000D03*
X151765000Y-107315000D03*
X154305000Y-101600000D03*
X156845000Y-101600000D03*
X160020000Y-101600000D03*
X162560000Y-104140000D03*
X151765000Y-98425000D03*
X153035000Y-99695000D03*
X154305000Y-100330000D03*
X156845000Y-100330000D03*
X159385000Y-100330000D03*
X162560000Y-100965000D03*
X156845000Y-99060000D03*
X159385000Y-99060000D03*
X161925000Y-99060000D03*
X156845000Y-97790000D03*
X160020000Y-97790000D03*
X155575000Y-96520000D03*
X158115000Y-96520000D03*
X161290000Y-96520000D03*
X160020000Y-94615000D03*
X162560000Y-94615000D03*
X161290000Y-93345000D03*
X162560000Y-90805000D03*
X160655000Y-88900000D03*
X160655000Y-90170000D03*
X162560000Y-88900000D03*
X162560000Y-87630000D03*
X162560000Y-85090000D03*
X162560000Y-86360000D03*
X160020000Y-87630000D03*
X162560000Y-83185000D03*
X160020000Y-85090000D03*
X158750000Y-88265000D03*
X159512000Y-92964000D03*
X157734000Y-93218000D03*
X158115000Y-85090000D03*
X160020000Y-83185000D03*
X161925000Y-81280000D03*
X155575000Y-74295000D03*
X155575000Y-76200000D03*
X155575000Y-78105000D03*
X155575000Y-80010000D03*
X155575000Y-81915000D03*
X142875000Y-85090000D03*
X146050000Y-85090000D03*
X153670000Y-83820000D03*
X156210000Y-85090000D03*
X149225000Y-101600000D03*
X147955000Y-103505000D03*
X147955000Y-106045000D03*
X147955000Y-109855000D03*
X158115000Y-74295000D03*
X158115000Y-76200000D03*
X158115000Y-78105000D03*
X158115000Y-80010000D03*
X158115000Y-81915000D03*
X142875000Y-73660000D03*
X145415000Y-73660000D03*
X142875000Y-75565000D03*
X145415000Y-75565000D03*
X142875000Y-77470000D03*
X145415000Y-77470000D03*
X145415000Y-79375000D03*
X142875000Y-79375000D03*
X142875000Y-81280000D03*
X145415000Y-81280000D03*
X142875000Y-83185000D03*
X146050000Y-83185000D03*
X139065000Y-88900000D03*
X139065000Y-90805000D03*
X141605000Y-90805000D03*
X139065000Y-95250000D03*
X141605000Y-95250000D03*
X139065000Y-97155000D03*
X139065000Y-99060000D03*
X137795000Y-100330000D03*
X135890000Y-92075000D03*
X135890000Y-93980000D03*
G04 #@! TO.N,VDDPST*
X150495000Y-112268000D03*
X149733000Y-112268000D03*
X148082000Y-97536000D03*
X153212800Y-97434400D03*
X152781000Y-89154000D03*
G04 #@! TO.N,VREF*
X145188653Y-94587347D03*
G04 #@! TD*
D18*
G04 #@! TO.N,GND*
G36*
X170129200Y-121869200D02*
G01*
X138353800Y-121869200D01*
X138353800Y-115471272D01*
X144031600Y-115471272D01*
X144031600Y-115668728D01*
X144070122Y-115862389D01*
X144145685Y-116044814D01*
X144255385Y-116208993D01*
X144395007Y-116348615D01*
X144559186Y-116458315D01*
X144741611Y-116533878D01*
X144935272Y-116572400D01*
X145132728Y-116572400D01*
X145326389Y-116533878D01*
X145508814Y-116458315D01*
X145672993Y-116348615D01*
X145812615Y-116208993D01*
X145922315Y-116044814D01*
X145997878Y-115862389D01*
X146036400Y-115668728D01*
X146036400Y-115471272D01*
X149111600Y-115471272D01*
X149111600Y-115668728D01*
X149150122Y-115862389D01*
X149225685Y-116044814D01*
X149335385Y-116208993D01*
X149475007Y-116348615D01*
X149639186Y-116458315D01*
X149821611Y-116533878D01*
X150015272Y-116572400D01*
X150212728Y-116572400D01*
X150406389Y-116533878D01*
X150588814Y-116458315D01*
X150752993Y-116348615D01*
X150892615Y-116208993D01*
X151002315Y-116044814D01*
X151077878Y-115862389D01*
X151116400Y-115668728D01*
X151116400Y-115471272D01*
X151077878Y-115277611D01*
X151002315Y-115095186D01*
X150892615Y-114931007D01*
X150752993Y-114791385D01*
X150646157Y-114720000D01*
X154190863Y-114720000D01*
X154190863Y-116420000D01*
X154193805Y-116449876D01*
X154202520Y-116478603D01*
X154216671Y-116505078D01*
X154235716Y-116528284D01*
X154258922Y-116547329D01*
X154285397Y-116561480D01*
X154314124Y-116570195D01*
X154344000Y-116573137D01*
X156044000Y-116573137D01*
X156073876Y-116570195D01*
X156102603Y-116561480D01*
X156129078Y-116547329D01*
X156152284Y-116528284D01*
X156171329Y-116505078D01*
X156185480Y-116478603D01*
X156194195Y-116449876D01*
X156197137Y-116420000D01*
X156197137Y-114720000D01*
X156194195Y-114690124D01*
X156185480Y-114661397D01*
X156171329Y-114634922D01*
X156152284Y-114611716D01*
X156129078Y-114592671D01*
X156102603Y-114578520D01*
X156073876Y-114569805D01*
X156044000Y-114566863D01*
X154344000Y-114566863D01*
X154314124Y-114569805D01*
X154285397Y-114578520D01*
X154258922Y-114592671D01*
X154235716Y-114611716D01*
X154216671Y-114634922D01*
X154202520Y-114661397D01*
X154193805Y-114690124D01*
X154190863Y-114720000D01*
X150646157Y-114720000D01*
X150588814Y-114681685D01*
X150406389Y-114606122D01*
X150212728Y-114567600D01*
X150015272Y-114567600D01*
X149821611Y-114606122D01*
X149639186Y-114681685D01*
X149475007Y-114791385D01*
X149335385Y-114931007D01*
X149225685Y-115095186D01*
X149150122Y-115277611D01*
X149111600Y-115471272D01*
X146036400Y-115471272D01*
X145997878Y-115277611D01*
X145922315Y-115095186D01*
X145812615Y-114931007D01*
X145672993Y-114791385D01*
X145508814Y-114681685D01*
X145326389Y-114606122D01*
X145132728Y-114567600D01*
X144935272Y-114567600D01*
X144741611Y-114606122D01*
X144559186Y-114681685D01*
X144395007Y-114791385D01*
X144255385Y-114931007D01*
X144145685Y-115095186D01*
X144070122Y-115277611D01*
X144031600Y-115471272D01*
X138353800Y-115471272D01*
X138353800Y-112230475D01*
X149352000Y-112230475D01*
X149352000Y-112305525D01*
X149366642Y-112379133D01*
X149395363Y-112448471D01*
X149437058Y-112510873D01*
X149490127Y-112563942D01*
X149552529Y-112605637D01*
X149621867Y-112634358D01*
X149695475Y-112649000D01*
X149770525Y-112649000D01*
X149844133Y-112634358D01*
X149913471Y-112605637D01*
X149975873Y-112563942D01*
X150028942Y-112510873D01*
X150070637Y-112448471D01*
X150099358Y-112379133D01*
X150114000Y-112305525D01*
X150128642Y-112379133D01*
X150157363Y-112448471D01*
X150199058Y-112510873D01*
X150252127Y-112563942D01*
X150314529Y-112605637D01*
X150383867Y-112634358D01*
X150457475Y-112649000D01*
X150532525Y-112649000D01*
X150606133Y-112634358D01*
X150675471Y-112605637D01*
X150737873Y-112563942D01*
X150790942Y-112510873D01*
X150832637Y-112448471D01*
X150861358Y-112379133D01*
X150876000Y-112305525D01*
X150876000Y-112230475D01*
X150861358Y-112156867D01*
X150832637Y-112087529D01*
X150790942Y-112025127D01*
X150737873Y-111972058D01*
X150675471Y-111930363D01*
X150606133Y-111901642D01*
X150532525Y-111887000D01*
X150457475Y-111887000D01*
X150383867Y-111901642D01*
X150314529Y-111930363D01*
X150252127Y-111972058D01*
X150199058Y-112025127D01*
X150157363Y-112087529D01*
X150128642Y-112156867D01*
X150114000Y-112230475D01*
X150099358Y-112156867D01*
X150070637Y-112087529D01*
X150028942Y-112025127D01*
X149975873Y-111972058D01*
X149913471Y-111930363D01*
X149844133Y-111901642D01*
X149770525Y-111887000D01*
X149695475Y-111887000D01*
X149621867Y-111901642D01*
X149552529Y-111930363D01*
X149490127Y-111972058D01*
X149437058Y-112025127D01*
X149395363Y-112087529D01*
X149366642Y-112156867D01*
X149352000Y-112230475D01*
X138353800Y-112230475D01*
X138353800Y-106332197D01*
X149161600Y-106332197D01*
X149161600Y-106519803D01*
X149198200Y-106703805D01*
X149269994Y-106877130D01*
X149374223Y-107033119D01*
X149506881Y-107165777D01*
X149662870Y-107270006D01*
X149836195Y-107341800D01*
X150020197Y-107378400D01*
X150207803Y-107378400D01*
X150391805Y-107341800D01*
X150565130Y-107270006D01*
X150721119Y-107165777D01*
X150853777Y-107033119D01*
X150958006Y-106877130D01*
X151029800Y-106703805D01*
X151066400Y-106519803D01*
X151066400Y-106332197D01*
X151029800Y-106148195D01*
X150958006Y-105974870D01*
X150853777Y-105818881D01*
X150721119Y-105686223D01*
X150565130Y-105581994D01*
X150391805Y-105510200D01*
X150207803Y-105473600D01*
X150020197Y-105473600D01*
X149836195Y-105510200D01*
X149662870Y-105581994D01*
X149506881Y-105686223D01*
X149374223Y-105818881D01*
X149269994Y-105974870D01*
X149198200Y-106148195D01*
X149161600Y-106332197D01*
X138353800Y-106332197D01*
X138353800Y-103086000D01*
X149160863Y-103086000D01*
X149160863Y-104686000D01*
X149163805Y-104715876D01*
X149172520Y-104744603D01*
X149186671Y-104771078D01*
X149205716Y-104794284D01*
X149228922Y-104813329D01*
X149255397Y-104827480D01*
X149284124Y-104836195D01*
X149314000Y-104839137D01*
X150914000Y-104839137D01*
X150943876Y-104836195D01*
X150972603Y-104827480D01*
X150999078Y-104813329D01*
X151022284Y-104794284D01*
X151041329Y-104771078D01*
X151055480Y-104744603D01*
X151064195Y-104715876D01*
X151067137Y-104686000D01*
X151067137Y-104549272D01*
X163589600Y-104549272D01*
X163589600Y-104746728D01*
X163628122Y-104940389D01*
X163703685Y-105122814D01*
X163813385Y-105286993D01*
X163953007Y-105426615D01*
X164117186Y-105536315D01*
X164299611Y-105611878D01*
X164493272Y-105650400D01*
X164690728Y-105650400D01*
X164884389Y-105611878D01*
X165066814Y-105536315D01*
X165230993Y-105426615D01*
X165370615Y-105286993D01*
X165480315Y-105122814D01*
X165555878Y-104940389D01*
X165594400Y-104746728D01*
X165594400Y-104549272D01*
X165555878Y-104355611D01*
X165480315Y-104173186D01*
X165370615Y-104009007D01*
X165230993Y-103869385D01*
X165066814Y-103759685D01*
X164884389Y-103684122D01*
X164690728Y-103645600D01*
X164493272Y-103645600D01*
X164299611Y-103684122D01*
X164117186Y-103759685D01*
X163953007Y-103869385D01*
X163813385Y-104009007D01*
X163703685Y-104173186D01*
X163628122Y-104355611D01*
X163589600Y-104549272D01*
X151067137Y-104549272D01*
X151067137Y-103086000D01*
X151064195Y-103056124D01*
X151055480Y-103027397D01*
X151041329Y-103000922D01*
X151022284Y-102977716D01*
X150999078Y-102958671D01*
X150972603Y-102944520D01*
X150943876Y-102935805D01*
X150914000Y-102932863D01*
X149314000Y-102932863D01*
X149284124Y-102935805D01*
X149255397Y-102944520D01*
X149228922Y-102958671D01*
X149205716Y-102977716D01*
X149186671Y-103000922D01*
X149172520Y-103027397D01*
X149163805Y-103056124D01*
X149160863Y-103086000D01*
X138353800Y-103086000D01*
X138353800Y-102009272D01*
X163589600Y-102009272D01*
X163589600Y-102206728D01*
X163628122Y-102400389D01*
X163703685Y-102582814D01*
X163813385Y-102746993D01*
X163953007Y-102886615D01*
X164117186Y-102996315D01*
X164299611Y-103071878D01*
X164493272Y-103110400D01*
X164690728Y-103110400D01*
X164884389Y-103071878D01*
X165066814Y-102996315D01*
X165230993Y-102886615D01*
X165370615Y-102746993D01*
X165480315Y-102582814D01*
X165555878Y-102400389D01*
X165594400Y-102206728D01*
X165594400Y-102009272D01*
X165555878Y-101815611D01*
X165480315Y-101633186D01*
X165370615Y-101469007D01*
X165230993Y-101329385D01*
X165066814Y-101219685D01*
X164884389Y-101144122D01*
X164690728Y-101105600D01*
X164493272Y-101105600D01*
X164299611Y-101144122D01*
X164117186Y-101219685D01*
X163953007Y-101329385D01*
X163813385Y-101469007D01*
X163703685Y-101633186D01*
X163628122Y-101815611D01*
X163589600Y-102009272D01*
X138353800Y-102009272D01*
X138353800Y-99469272D01*
X163589600Y-99469272D01*
X163589600Y-99666728D01*
X163628122Y-99860389D01*
X163703685Y-100042814D01*
X163813385Y-100206993D01*
X163953007Y-100346615D01*
X164117186Y-100456315D01*
X164299611Y-100531878D01*
X164493272Y-100570400D01*
X164690728Y-100570400D01*
X164884389Y-100531878D01*
X165066814Y-100456315D01*
X165230993Y-100346615D01*
X165370615Y-100206993D01*
X165480315Y-100042814D01*
X165555878Y-99860389D01*
X165594400Y-99666728D01*
X165594400Y-99469272D01*
X165555878Y-99275611D01*
X165480315Y-99093186D01*
X165370615Y-98929007D01*
X165230993Y-98789385D01*
X165066814Y-98679685D01*
X164884389Y-98604122D01*
X164690728Y-98565600D01*
X164493272Y-98565600D01*
X164299611Y-98604122D01*
X164117186Y-98679685D01*
X163953007Y-98789385D01*
X163813385Y-98929007D01*
X163703685Y-99093186D01*
X163628122Y-99275611D01*
X163589600Y-99469272D01*
X138353800Y-99469272D01*
X138353800Y-97498475D01*
X147701000Y-97498475D01*
X147701000Y-97573525D01*
X147715642Y-97647133D01*
X147744363Y-97716471D01*
X147786058Y-97778873D01*
X147839127Y-97831942D01*
X147901529Y-97873637D01*
X147970867Y-97902358D01*
X148044475Y-97917000D01*
X148119525Y-97917000D01*
X148193133Y-97902358D01*
X148262471Y-97873637D01*
X148324873Y-97831942D01*
X148377942Y-97778873D01*
X148419637Y-97716471D01*
X148448358Y-97647133D01*
X148463000Y-97573525D01*
X148463000Y-97498475D01*
X149352000Y-97498475D01*
X149352000Y-97573525D01*
X149366642Y-97647133D01*
X149395363Y-97716471D01*
X149437058Y-97778873D01*
X149490127Y-97831942D01*
X149552529Y-97873637D01*
X149621867Y-97902358D01*
X149695475Y-97917000D01*
X149770525Y-97917000D01*
X149844133Y-97902358D01*
X149913471Y-97873637D01*
X149975873Y-97831942D01*
X150028942Y-97778873D01*
X150070637Y-97716471D01*
X150099358Y-97647133D01*
X150114000Y-97573525D01*
X150114000Y-97498475D01*
X150099358Y-97424867D01*
X150087764Y-97396875D01*
X152831800Y-97396875D01*
X152831800Y-97471925D01*
X152846442Y-97545533D01*
X152875163Y-97614871D01*
X152916858Y-97677273D01*
X152969927Y-97730342D01*
X153032329Y-97772037D01*
X153101667Y-97800758D01*
X153175275Y-97815400D01*
X153250325Y-97815400D01*
X153323933Y-97800758D01*
X153393271Y-97772037D01*
X153455673Y-97730342D01*
X153508742Y-97677273D01*
X153550437Y-97614871D01*
X153579158Y-97545533D01*
X153593800Y-97471925D01*
X153593800Y-97396875D01*
X153579158Y-97323267D01*
X153550437Y-97253929D01*
X153508742Y-97191527D01*
X153455673Y-97138458D01*
X153393271Y-97096763D01*
X153323933Y-97068042D01*
X153250325Y-97053400D01*
X153175275Y-97053400D01*
X153101667Y-97068042D01*
X153032329Y-97096763D01*
X152969927Y-97138458D01*
X152916858Y-97191527D01*
X152875163Y-97253929D01*
X152846442Y-97323267D01*
X152831800Y-97396875D01*
X150087764Y-97396875D01*
X150070637Y-97355529D01*
X150028942Y-97293127D01*
X149975873Y-97240058D01*
X149913471Y-97198363D01*
X149844133Y-97169642D01*
X149770525Y-97155000D01*
X149695475Y-97155000D01*
X149621867Y-97169642D01*
X149552529Y-97198363D01*
X149490127Y-97240058D01*
X149437058Y-97293127D01*
X149395363Y-97355529D01*
X149366642Y-97424867D01*
X149352000Y-97498475D01*
X148463000Y-97498475D01*
X148448358Y-97424867D01*
X148419637Y-97355529D01*
X148377942Y-97293127D01*
X148324873Y-97240058D01*
X148262471Y-97198363D01*
X148193133Y-97169642D01*
X148119525Y-97155000D01*
X148044475Y-97155000D01*
X147970867Y-97169642D01*
X147901529Y-97198363D01*
X147839127Y-97240058D01*
X147786058Y-97293127D01*
X147744363Y-97355529D01*
X147715642Y-97424867D01*
X147701000Y-97498475D01*
X138353800Y-97498475D01*
X138353800Y-96929272D01*
X163589600Y-96929272D01*
X163589600Y-97126728D01*
X163628122Y-97320389D01*
X163703685Y-97502814D01*
X163813385Y-97666993D01*
X163953007Y-97806615D01*
X164117186Y-97916315D01*
X164299611Y-97991878D01*
X164493272Y-98030400D01*
X164690728Y-98030400D01*
X164884389Y-97991878D01*
X165066814Y-97916315D01*
X165230993Y-97806615D01*
X165370615Y-97666993D01*
X165480315Y-97502814D01*
X165555878Y-97320389D01*
X165594400Y-97126728D01*
X165594400Y-96929272D01*
X165555878Y-96735611D01*
X165480315Y-96553186D01*
X165370615Y-96389007D01*
X165230993Y-96249385D01*
X165066814Y-96139685D01*
X164884389Y-96064122D01*
X164690728Y-96025600D01*
X164493272Y-96025600D01*
X164299611Y-96064122D01*
X164117186Y-96139685D01*
X163953007Y-96249385D01*
X163813385Y-96389007D01*
X163703685Y-96553186D01*
X163628122Y-96735611D01*
X163589600Y-96929272D01*
X138353800Y-96929272D01*
X138353800Y-96355475D01*
X144780000Y-96355475D01*
X144780000Y-96430525D01*
X144794642Y-96504133D01*
X144823363Y-96573471D01*
X144865058Y-96635873D01*
X144918127Y-96688942D01*
X144980529Y-96730637D01*
X145049867Y-96759358D01*
X145123475Y-96774000D01*
X145198525Y-96774000D01*
X145272133Y-96759358D01*
X145341471Y-96730637D01*
X145403873Y-96688942D01*
X145456942Y-96635873D01*
X145498637Y-96573471D01*
X145527358Y-96504133D01*
X145542000Y-96430525D01*
X145542000Y-96355475D01*
X145527358Y-96281867D01*
X145498637Y-96212529D01*
X145456942Y-96150127D01*
X145403873Y-96097058D01*
X145341471Y-96055363D01*
X145272133Y-96026642D01*
X145198525Y-96012000D01*
X145123475Y-96012000D01*
X145049867Y-96026642D01*
X144980529Y-96055363D01*
X144918127Y-96097058D01*
X144865058Y-96150127D01*
X144823363Y-96212529D01*
X144794642Y-96281867D01*
X144780000Y-96355475D01*
X138353800Y-96355475D01*
X138353800Y-94549822D01*
X144807653Y-94549822D01*
X144807653Y-94624872D01*
X144822295Y-94698480D01*
X144851016Y-94767818D01*
X144892711Y-94830220D01*
X144945780Y-94883289D01*
X145008182Y-94924984D01*
X145077520Y-94953705D01*
X145151128Y-94968347D01*
X145226178Y-94968347D01*
X145299786Y-94953705D01*
X145369124Y-94924984D01*
X145431526Y-94883289D01*
X145484595Y-94830220D01*
X145526290Y-94767818D01*
X145555011Y-94698480D01*
X145569653Y-94624872D01*
X145569653Y-94549822D01*
X145555011Y-94476214D01*
X145526290Y-94406876D01*
X145514528Y-94389272D01*
X163589600Y-94389272D01*
X163589600Y-94586728D01*
X163628122Y-94780389D01*
X163703685Y-94962814D01*
X163813385Y-95126993D01*
X163953007Y-95266615D01*
X164117186Y-95376315D01*
X164299611Y-95451878D01*
X164493272Y-95490400D01*
X164690728Y-95490400D01*
X164884389Y-95451878D01*
X165066814Y-95376315D01*
X165230993Y-95266615D01*
X165370615Y-95126993D01*
X165480315Y-94962814D01*
X165555878Y-94780389D01*
X165594400Y-94586728D01*
X165594400Y-94389272D01*
X165555878Y-94195611D01*
X165480315Y-94013186D01*
X165370615Y-93849007D01*
X165230993Y-93709385D01*
X165066814Y-93599685D01*
X164884389Y-93524122D01*
X164690728Y-93485600D01*
X164493272Y-93485600D01*
X164299611Y-93524122D01*
X164117186Y-93599685D01*
X163953007Y-93709385D01*
X163813385Y-93849007D01*
X163703685Y-94013186D01*
X163628122Y-94195611D01*
X163589600Y-94389272D01*
X145514528Y-94389272D01*
X145484595Y-94344474D01*
X145431526Y-94291405D01*
X145369124Y-94249710D01*
X145299786Y-94220989D01*
X145226178Y-94206347D01*
X145151128Y-94206347D01*
X145077520Y-94220989D01*
X145008182Y-94249710D01*
X144945780Y-94291405D01*
X144892711Y-94344474D01*
X144851016Y-94406876D01*
X144822295Y-94476214D01*
X144807653Y-94549822D01*
X138353800Y-94549822D01*
X138353800Y-91783475D01*
X144831000Y-91783475D01*
X144831000Y-91858525D01*
X144845642Y-91932133D01*
X144874363Y-92001471D01*
X144916058Y-92063873D01*
X144969127Y-92116942D01*
X145031529Y-92158637D01*
X145100867Y-92187358D01*
X145174475Y-92202000D01*
X145249525Y-92202000D01*
X145323133Y-92187358D01*
X145392471Y-92158637D01*
X145454873Y-92116942D01*
X145507942Y-92063873D01*
X145549637Y-92001471D01*
X145578358Y-91932133D01*
X145593000Y-91858525D01*
X145593000Y-91849272D01*
X163589600Y-91849272D01*
X163589600Y-92046728D01*
X163628122Y-92240389D01*
X163703685Y-92422814D01*
X163813385Y-92586993D01*
X163953007Y-92726615D01*
X164117186Y-92836315D01*
X164299611Y-92911878D01*
X164493272Y-92950400D01*
X164690728Y-92950400D01*
X164884389Y-92911878D01*
X165066814Y-92836315D01*
X165230993Y-92726615D01*
X165370615Y-92586993D01*
X165480315Y-92422814D01*
X165555878Y-92240389D01*
X165594400Y-92046728D01*
X165594400Y-91849272D01*
X165555878Y-91655611D01*
X165480315Y-91473186D01*
X165370615Y-91309007D01*
X165230993Y-91169385D01*
X165066814Y-91059685D01*
X164884389Y-90984122D01*
X164690728Y-90945600D01*
X164493272Y-90945600D01*
X164299611Y-90984122D01*
X164117186Y-91059685D01*
X163953007Y-91169385D01*
X163813385Y-91309007D01*
X163703685Y-91473186D01*
X163628122Y-91655611D01*
X163589600Y-91849272D01*
X145593000Y-91849272D01*
X145593000Y-91783475D01*
X145578358Y-91709867D01*
X145549637Y-91640529D01*
X145507942Y-91578127D01*
X145454873Y-91525058D01*
X145392471Y-91483363D01*
X145323133Y-91454642D01*
X145249525Y-91440000D01*
X145174475Y-91440000D01*
X145100867Y-91454642D01*
X145031529Y-91483363D01*
X144969127Y-91525058D01*
X144916058Y-91578127D01*
X144874363Y-91640529D01*
X144845642Y-91709867D01*
X144831000Y-91783475D01*
X138353800Y-91783475D01*
X138353800Y-90830975D01*
X153098500Y-90830975D01*
X153098500Y-90906025D01*
X153113142Y-90979633D01*
X153141863Y-91048971D01*
X153183558Y-91111373D01*
X153236627Y-91164442D01*
X153299029Y-91206137D01*
X153368367Y-91234858D01*
X153441975Y-91249500D01*
X153517025Y-91249500D01*
X153590633Y-91234858D01*
X153659971Y-91206137D01*
X153722373Y-91164442D01*
X153775442Y-91111373D01*
X153817137Y-91048971D01*
X153845858Y-90979633D01*
X153860500Y-90906025D01*
X153860500Y-90830975D01*
X153845858Y-90757367D01*
X153817137Y-90688029D01*
X153775442Y-90625627D01*
X153722373Y-90572558D01*
X153659971Y-90530863D01*
X153590633Y-90502142D01*
X153517025Y-90487500D01*
X153441975Y-90487500D01*
X153368367Y-90502142D01*
X153299029Y-90530863D01*
X153236627Y-90572558D01*
X153183558Y-90625627D01*
X153141863Y-90688029D01*
X153113142Y-90757367D01*
X153098500Y-90830975D01*
X138353800Y-90830975D01*
X138353800Y-89116475D01*
X152400000Y-89116475D01*
X152400000Y-89191525D01*
X152414642Y-89265133D01*
X152443363Y-89334471D01*
X152485058Y-89396873D01*
X152538127Y-89449942D01*
X152600529Y-89491637D01*
X152669867Y-89520358D01*
X152743475Y-89535000D01*
X152818525Y-89535000D01*
X152892133Y-89520358D01*
X152961471Y-89491637D01*
X153023873Y-89449942D01*
X153076942Y-89396873D01*
X153118637Y-89334471D01*
X153129074Y-89309272D01*
X163589600Y-89309272D01*
X163589600Y-89506728D01*
X163628122Y-89700389D01*
X163703685Y-89882814D01*
X163813385Y-90046993D01*
X163953007Y-90186615D01*
X164117186Y-90296315D01*
X164299611Y-90371878D01*
X164493272Y-90410400D01*
X164690728Y-90410400D01*
X164884389Y-90371878D01*
X165066814Y-90296315D01*
X165230993Y-90186615D01*
X165370615Y-90046993D01*
X165480315Y-89882814D01*
X165555878Y-89700389D01*
X165594400Y-89506728D01*
X165594400Y-89309272D01*
X165555878Y-89115611D01*
X165480315Y-88933186D01*
X165370615Y-88769007D01*
X165230993Y-88629385D01*
X165066814Y-88519685D01*
X164884389Y-88444122D01*
X164690728Y-88405600D01*
X164493272Y-88405600D01*
X164299611Y-88444122D01*
X164117186Y-88519685D01*
X163953007Y-88629385D01*
X163813385Y-88769007D01*
X163703685Y-88933186D01*
X163628122Y-89115611D01*
X163589600Y-89309272D01*
X153129074Y-89309272D01*
X153147358Y-89265133D01*
X153162000Y-89191525D01*
X153162000Y-89116475D01*
X153147358Y-89042867D01*
X153118637Y-88973529D01*
X153076942Y-88911127D01*
X153023873Y-88858058D01*
X152961471Y-88816363D01*
X152892133Y-88787642D01*
X152818525Y-88773000D01*
X152743475Y-88773000D01*
X152669867Y-88787642D01*
X152600529Y-88816363D01*
X152538127Y-88858058D01*
X152485058Y-88911127D01*
X152443363Y-88973529D01*
X152414642Y-89042867D01*
X152400000Y-89116475D01*
X138353800Y-89116475D01*
X138353800Y-86769272D01*
X163589600Y-86769272D01*
X163589600Y-86966728D01*
X163628122Y-87160389D01*
X163703685Y-87342814D01*
X163813385Y-87506993D01*
X163953007Y-87646615D01*
X164117186Y-87756315D01*
X164299611Y-87831878D01*
X164493272Y-87870400D01*
X164690728Y-87870400D01*
X164884389Y-87831878D01*
X165066814Y-87756315D01*
X165230993Y-87646615D01*
X165370615Y-87506993D01*
X165480315Y-87342814D01*
X165555878Y-87160389D01*
X165594400Y-86966728D01*
X165594400Y-86769272D01*
X165555878Y-86575611D01*
X165480315Y-86393186D01*
X165370615Y-86229007D01*
X165230993Y-86089385D01*
X165066814Y-85979685D01*
X164884389Y-85904122D01*
X164690728Y-85865600D01*
X164493272Y-85865600D01*
X164299611Y-85904122D01*
X164117186Y-85979685D01*
X163953007Y-86089385D01*
X163813385Y-86229007D01*
X163703685Y-86393186D01*
X163628122Y-86575611D01*
X163589600Y-86769272D01*
X138353800Y-86769272D01*
X138353800Y-84229272D01*
X163589600Y-84229272D01*
X163589600Y-84426728D01*
X163628122Y-84620389D01*
X163703685Y-84802814D01*
X163813385Y-84966993D01*
X163953007Y-85106615D01*
X164117186Y-85216315D01*
X164299611Y-85291878D01*
X164493272Y-85330400D01*
X164690728Y-85330400D01*
X164884389Y-85291878D01*
X165066814Y-85216315D01*
X165230993Y-85106615D01*
X165370615Y-84966993D01*
X165480315Y-84802814D01*
X165555878Y-84620389D01*
X165594400Y-84426728D01*
X165594400Y-84229272D01*
X165555878Y-84035611D01*
X165480315Y-83853186D01*
X165370615Y-83689007D01*
X165230993Y-83549385D01*
X165066814Y-83439685D01*
X164884389Y-83364122D01*
X164690728Y-83325600D01*
X164493272Y-83325600D01*
X164299611Y-83364122D01*
X164117186Y-83439685D01*
X163953007Y-83549385D01*
X163813385Y-83689007D01*
X163703685Y-83853186D01*
X163628122Y-84035611D01*
X163589600Y-84229272D01*
X138353800Y-84229272D01*
X138353800Y-80938000D01*
X163588863Y-80938000D01*
X163588863Y-82638000D01*
X163591805Y-82667876D01*
X163600520Y-82696603D01*
X163614671Y-82723078D01*
X163633716Y-82746284D01*
X163656922Y-82765329D01*
X163683397Y-82779480D01*
X163712124Y-82788195D01*
X163742000Y-82791137D01*
X165442000Y-82791137D01*
X165471876Y-82788195D01*
X165500603Y-82779480D01*
X165527078Y-82765329D01*
X165550284Y-82746284D01*
X165569329Y-82723078D01*
X165583480Y-82696603D01*
X165592195Y-82667876D01*
X165595137Y-82638000D01*
X165595137Y-80938000D01*
X165592195Y-80908124D01*
X165583480Y-80879397D01*
X165569329Y-80852922D01*
X165550284Y-80829716D01*
X165527078Y-80810671D01*
X165500603Y-80796520D01*
X165471876Y-80787805D01*
X165442000Y-80784863D01*
X163742000Y-80784863D01*
X163712124Y-80787805D01*
X163683397Y-80796520D01*
X163656922Y-80810671D01*
X163633716Y-80829716D01*
X163614671Y-80852922D01*
X163600520Y-80879397D01*
X163591805Y-80908124D01*
X163588863Y-80938000D01*
X138353800Y-80938000D01*
X138353800Y-73075800D01*
X170129200Y-73075800D01*
X170129200Y-121869200D01*
G37*
X170129200Y-121869200D02*
X138353800Y-121869200D01*
X138353800Y-115471272D01*
X144031600Y-115471272D01*
X144031600Y-115668728D01*
X144070122Y-115862389D01*
X144145685Y-116044814D01*
X144255385Y-116208993D01*
X144395007Y-116348615D01*
X144559186Y-116458315D01*
X144741611Y-116533878D01*
X144935272Y-116572400D01*
X145132728Y-116572400D01*
X145326389Y-116533878D01*
X145508814Y-116458315D01*
X145672993Y-116348615D01*
X145812615Y-116208993D01*
X145922315Y-116044814D01*
X145997878Y-115862389D01*
X146036400Y-115668728D01*
X146036400Y-115471272D01*
X149111600Y-115471272D01*
X149111600Y-115668728D01*
X149150122Y-115862389D01*
X149225685Y-116044814D01*
X149335385Y-116208993D01*
X149475007Y-116348615D01*
X149639186Y-116458315D01*
X149821611Y-116533878D01*
X150015272Y-116572400D01*
X150212728Y-116572400D01*
X150406389Y-116533878D01*
X150588814Y-116458315D01*
X150752993Y-116348615D01*
X150892615Y-116208993D01*
X151002315Y-116044814D01*
X151077878Y-115862389D01*
X151116400Y-115668728D01*
X151116400Y-115471272D01*
X151077878Y-115277611D01*
X151002315Y-115095186D01*
X150892615Y-114931007D01*
X150752993Y-114791385D01*
X150646157Y-114720000D01*
X154190863Y-114720000D01*
X154190863Y-116420000D01*
X154193805Y-116449876D01*
X154202520Y-116478603D01*
X154216671Y-116505078D01*
X154235716Y-116528284D01*
X154258922Y-116547329D01*
X154285397Y-116561480D01*
X154314124Y-116570195D01*
X154344000Y-116573137D01*
X156044000Y-116573137D01*
X156073876Y-116570195D01*
X156102603Y-116561480D01*
X156129078Y-116547329D01*
X156152284Y-116528284D01*
X156171329Y-116505078D01*
X156185480Y-116478603D01*
X156194195Y-116449876D01*
X156197137Y-116420000D01*
X156197137Y-114720000D01*
X156194195Y-114690124D01*
X156185480Y-114661397D01*
X156171329Y-114634922D01*
X156152284Y-114611716D01*
X156129078Y-114592671D01*
X156102603Y-114578520D01*
X156073876Y-114569805D01*
X156044000Y-114566863D01*
X154344000Y-114566863D01*
X154314124Y-114569805D01*
X154285397Y-114578520D01*
X154258922Y-114592671D01*
X154235716Y-114611716D01*
X154216671Y-114634922D01*
X154202520Y-114661397D01*
X154193805Y-114690124D01*
X154190863Y-114720000D01*
X150646157Y-114720000D01*
X150588814Y-114681685D01*
X150406389Y-114606122D01*
X150212728Y-114567600D01*
X150015272Y-114567600D01*
X149821611Y-114606122D01*
X149639186Y-114681685D01*
X149475007Y-114791385D01*
X149335385Y-114931007D01*
X149225685Y-115095186D01*
X149150122Y-115277611D01*
X149111600Y-115471272D01*
X146036400Y-115471272D01*
X145997878Y-115277611D01*
X145922315Y-115095186D01*
X145812615Y-114931007D01*
X145672993Y-114791385D01*
X145508814Y-114681685D01*
X145326389Y-114606122D01*
X145132728Y-114567600D01*
X144935272Y-114567600D01*
X144741611Y-114606122D01*
X144559186Y-114681685D01*
X144395007Y-114791385D01*
X144255385Y-114931007D01*
X144145685Y-115095186D01*
X144070122Y-115277611D01*
X144031600Y-115471272D01*
X138353800Y-115471272D01*
X138353800Y-112230475D01*
X149352000Y-112230475D01*
X149352000Y-112305525D01*
X149366642Y-112379133D01*
X149395363Y-112448471D01*
X149437058Y-112510873D01*
X149490127Y-112563942D01*
X149552529Y-112605637D01*
X149621867Y-112634358D01*
X149695475Y-112649000D01*
X149770525Y-112649000D01*
X149844133Y-112634358D01*
X149913471Y-112605637D01*
X149975873Y-112563942D01*
X150028942Y-112510873D01*
X150070637Y-112448471D01*
X150099358Y-112379133D01*
X150114000Y-112305525D01*
X150128642Y-112379133D01*
X150157363Y-112448471D01*
X150199058Y-112510873D01*
X150252127Y-112563942D01*
X150314529Y-112605637D01*
X150383867Y-112634358D01*
X150457475Y-112649000D01*
X150532525Y-112649000D01*
X150606133Y-112634358D01*
X150675471Y-112605637D01*
X150737873Y-112563942D01*
X150790942Y-112510873D01*
X150832637Y-112448471D01*
X150861358Y-112379133D01*
X150876000Y-112305525D01*
X150876000Y-112230475D01*
X150861358Y-112156867D01*
X150832637Y-112087529D01*
X150790942Y-112025127D01*
X150737873Y-111972058D01*
X150675471Y-111930363D01*
X150606133Y-111901642D01*
X150532525Y-111887000D01*
X150457475Y-111887000D01*
X150383867Y-111901642D01*
X150314529Y-111930363D01*
X150252127Y-111972058D01*
X150199058Y-112025127D01*
X150157363Y-112087529D01*
X150128642Y-112156867D01*
X150114000Y-112230475D01*
X150099358Y-112156867D01*
X150070637Y-112087529D01*
X150028942Y-112025127D01*
X149975873Y-111972058D01*
X149913471Y-111930363D01*
X149844133Y-111901642D01*
X149770525Y-111887000D01*
X149695475Y-111887000D01*
X149621867Y-111901642D01*
X149552529Y-111930363D01*
X149490127Y-111972058D01*
X149437058Y-112025127D01*
X149395363Y-112087529D01*
X149366642Y-112156867D01*
X149352000Y-112230475D01*
X138353800Y-112230475D01*
X138353800Y-106332197D01*
X149161600Y-106332197D01*
X149161600Y-106519803D01*
X149198200Y-106703805D01*
X149269994Y-106877130D01*
X149374223Y-107033119D01*
X149506881Y-107165777D01*
X149662870Y-107270006D01*
X149836195Y-107341800D01*
X150020197Y-107378400D01*
X150207803Y-107378400D01*
X150391805Y-107341800D01*
X150565130Y-107270006D01*
X150721119Y-107165777D01*
X150853777Y-107033119D01*
X150958006Y-106877130D01*
X151029800Y-106703805D01*
X151066400Y-106519803D01*
X151066400Y-106332197D01*
X151029800Y-106148195D01*
X150958006Y-105974870D01*
X150853777Y-105818881D01*
X150721119Y-105686223D01*
X150565130Y-105581994D01*
X150391805Y-105510200D01*
X150207803Y-105473600D01*
X150020197Y-105473600D01*
X149836195Y-105510200D01*
X149662870Y-105581994D01*
X149506881Y-105686223D01*
X149374223Y-105818881D01*
X149269994Y-105974870D01*
X149198200Y-106148195D01*
X149161600Y-106332197D01*
X138353800Y-106332197D01*
X138353800Y-103086000D01*
X149160863Y-103086000D01*
X149160863Y-104686000D01*
X149163805Y-104715876D01*
X149172520Y-104744603D01*
X149186671Y-104771078D01*
X149205716Y-104794284D01*
X149228922Y-104813329D01*
X149255397Y-104827480D01*
X149284124Y-104836195D01*
X149314000Y-104839137D01*
X150914000Y-104839137D01*
X150943876Y-104836195D01*
X150972603Y-104827480D01*
X150999078Y-104813329D01*
X151022284Y-104794284D01*
X151041329Y-104771078D01*
X151055480Y-104744603D01*
X151064195Y-104715876D01*
X151067137Y-104686000D01*
X151067137Y-104549272D01*
X163589600Y-104549272D01*
X163589600Y-104746728D01*
X163628122Y-104940389D01*
X163703685Y-105122814D01*
X163813385Y-105286993D01*
X163953007Y-105426615D01*
X164117186Y-105536315D01*
X164299611Y-105611878D01*
X164493272Y-105650400D01*
X164690728Y-105650400D01*
X164884389Y-105611878D01*
X165066814Y-105536315D01*
X165230993Y-105426615D01*
X165370615Y-105286993D01*
X165480315Y-105122814D01*
X165555878Y-104940389D01*
X165594400Y-104746728D01*
X165594400Y-104549272D01*
X165555878Y-104355611D01*
X165480315Y-104173186D01*
X165370615Y-104009007D01*
X165230993Y-103869385D01*
X165066814Y-103759685D01*
X164884389Y-103684122D01*
X164690728Y-103645600D01*
X164493272Y-103645600D01*
X164299611Y-103684122D01*
X164117186Y-103759685D01*
X163953007Y-103869385D01*
X163813385Y-104009007D01*
X163703685Y-104173186D01*
X163628122Y-104355611D01*
X163589600Y-104549272D01*
X151067137Y-104549272D01*
X151067137Y-103086000D01*
X151064195Y-103056124D01*
X151055480Y-103027397D01*
X151041329Y-103000922D01*
X151022284Y-102977716D01*
X150999078Y-102958671D01*
X150972603Y-102944520D01*
X150943876Y-102935805D01*
X150914000Y-102932863D01*
X149314000Y-102932863D01*
X149284124Y-102935805D01*
X149255397Y-102944520D01*
X149228922Y-102958671D01*
X149205716Y-102977716D01*
X149186671Y-103000922D01*
X149172520Y-103027397D01*
X149163805Y-103056124D01*
X149160863Y-103086000D01*
X138353800Y-103086000D01*
X138353800Y-102009272D01*
X163589600Y-102009272D01*
X163589600Y-102206728D01*
X163628122Y-102400389D01*
X163703685Y-102582814D01*
X163813385Y-102746993D01*
X163953007Y-102886615D01*
X164117186Y-102996315D01*
X164299611Y-103071878D01*
X164493272Y-103110400D01*
X164690728Y-103110400D01*
X164884389Y-103071878D01*
X165066814Y-102996315D01*
X165230993Y-102886615D01*
X165370615Y-102746993D01*
X165480315Y-102582814D01*
X165555878Y-102400389D01*
X165594400Y-102206728D01*
X165594400Y-102009272D01*
X165555878Y-101815611D01*
X165480315Y-101633186D01*
X165370615Y-101469007D01*
X165230993Y-101329385D01*
X165066814Y-101219685D01*
X164884389Y-101144122D01*
X164690728Y-101105600D01*
X164493272Y-101105600D01*
X164299611Y-101144122D01*
X164117186Y-101219685D01*
X163953007Y-101329385D01*
X163813385Y-101469007D01*
X163703685Y-101633186D01*
X163628122Y-101815611D01*
X163589600Y-102009272D01*
X138353800Y-102009272D01*
X138353800Y-99469272D01*
X163589600Y-99469272D01*
X163589600Y-99666728D01*
X163628122Y-99860389D01*
X163703685Y-100042814D01*
X163813385Y-100206993D01*
X163953007Y-100346615D01*
X164117186Y-100456315D01*
X164299611Y-100531878D01*
X164493272Y-100570400D01*
X164690728Y-100570400D01*
X164884389Y-100531878D01*
X165066814Y-100456315D01*
X165230993Y-100346615D01*
X165370615Y-100206993D01*
X165480315Y-100042814D01*
X165555878Y-99860389D01*
X165594400Y-99666728D01*
X165594400Y-99469272D01*
X165555878Y-99275611D01*
X165480315Y-99093186D01*
X165370615Y-98929007D01*
X165230993Y-98789385D01*
X165066814Y-98679685D01*
X164884389Y-98604122D01*
X164690728Y-98565600D01*
X164493272Y-98565600D01*
X164299611Y-98604122D01*
X164117186Y-98679685D01*
X163953007Y-98789385D01*
X163813385Y-98929007D01*
X163703685Y-99093186D01*
X163628122Y-99275611D01*
X163589600Y-99469272D01*
X138353800Y-99469272D01*
X138353800Y-97498475D01*
X147701000Y-97498475D01*
X147701000Y-97573525D01*
X147715642Y-97647133D01*
X147744363Y-97716471D01*
X147786058Y-97778873D01*
X147839127Y-97831942D01*
X147901529Y-97873637D01*
X147970867Y-97902358D01*
X148044475Y-97917000D01*
X148119525Y-97917000D01*
X148193133Y-97902358D01*
X148262471Y-97873637D01*
X148324873Y-97831942D01*
X148377942Y-97778873D01*
X148419637Y-97716471D01*
X148448358Y-97647133D01*
X148463000Y-97573525D01*
X148463000Y-97498475D01*
X149352000Y-97498475D01*
X149352000Y-97573525D01*
X149366642Y-97647133D01*
X149395363Y-97716471D01*
X149437058Y-97778873D01*
X149490127Y-97831942D01*
X149552529Y-97873637D01*
X149621867Y-97902358D01*
X149695475Y-97917000D01*
X149770525Y-97917000D01*
X149844133Y-97902358D01*
X149913471Y-97873637D01*
X149975873Y-97831942D01*
X150028942Y-97778873D01*
X150070637Y-97716471D01*
X150099358Y-97647133D01*
X150114000Y-97573525D01*
X150114000Y-97498475D01*
X150099358Y-97424867D01*
X150087764Y-97396875D01*
X152831800Y-97396875D01*
X152831800Y-97471925D01*
X152846442Y-97545533D01*
X152875163Y-97614871D01*
X152916858Y-97677273D01*
X152969927Y-97730342D01*
X153032329Y-97772037D01*
X153101667Y-97800758D01*
X153175275Y-97815400D01*
X153250325Y-97815400D01*
X153323933Y-97800758D01*
X153393271Y-97772037D01*
X153455673Y-97730342D01*
X153508742Y-97677273D01*
X153550437Y-97614871D01*
X153579158Y-97545533D01*
X153593800Y-97471925D01*
X153593800Y-97396875D01*
X153579158Y-97323267D01*
X153550437Y-97253929D01*
X153508742Y-97191527D01*
X153455673Y-97138458D01*
X153393271Y-97096763D01*
X153323933Y-97068042D01*
X153250325Y-97053400D01*
X153175275Y-97053400D01*
X153101667Y-97068042D01*
X153032329Y-97096763D01*
X152969927Y-97138458D01*
X152916858Y-97191527D01*
X152875163Y-97253929D01*
X152846442Y-97323267D01*
X152831800Y-97396875D01*
X150087764Y-97396875D01*
X150070637Y-97355529D01*
X150028942Y-97293127D01*
X149975873Y-97240058D01*
X149913471Y-97198363D01*
X149844133Y-97169642D01*
X149770525Y-97155000D01*
X149695475Y-97155000D01*
X149621867Y-97169642D01*
X149552529Y-97198363D01*
X149490127Y-97240058D01*
X149437058Y-97293127D01*
X149395363Y-97355529D01*
X149366642Y-97424867D01*
X149352000Y-97498475D01*
X148463000Y-97498475D01*
X148448358Y-97424867D01*
X148419637Y-97355529D01*
X148377942Y-97293127D01*
X148324873Y-97240058D01*
X148262471Y-97198363D01*
X148193133Y-97169642D01*
X148119525Y-97155000D01*
X148044475Y-97155000D01*
X147970867Y-97169642D01*
X147901529Y-97198363D01*
X147839127Y-97240058D01*
X147786058Y-97293127D01*
X147744363Y-97355529D01*
X147715642Y-97424867D01*
X147701000Y-97498475D01*
X138353800Y-97498475D01*
X138353800Y-96929272D01*
X163589600Y-96929272D01*
X163589600Y-97126728D01*
X163628122Y-97320389D01*
X163703685Y-97502814D01*
X163813385Y-97666993D01*
X163953007Y-97806615D01*
X164117186Y-97916315D01*
X164299611Y-97991878D01*
X164493272Y-98030400D01*
X164690728Y-98030400D01*
X164884389Y-97991878D01*
X165066814Y-97916315D01*
X165230993Y-97806615D01*
X165370615Y-97666993D01*
X165480315Y-97502814D01*
X165555878Y-97320389D01*
X165594400Y-97126728D01*
X165594400Y-96929272D01*
X165555878Y-96735611D01*
X165480315Y-96553186D01*
X165370615Y-96389007D01*
X165230993Y-96249385D01*
X165066814Y-96139685D01*
X164884389Y-96064122D01*
X164690728Y-96025600D01*
X164493272Y-96025600D01*
X164299611Y-96064122D01*
X164117186Y-96139685D01*
X163953007Y-96249385D01*
X163813385Y-96389007D01*
X163703685Y-96553186D01*
X163628122Y-96735611D01*
X163589600Y-96929272D01*
X138353800Y-96929272D01*
X138353800Y-96355475D01*
X144780000Y-96355475D01*
X144780000Y-96430525D01*
X144794642Y-96504133D01*
X144823363Y-96573471D01*
X144865058Y-96635873D01*
X144918127Y-96688942D01*
X144980529Y-96730637D01*
X145049867Y-96759358D01*
X145123475Y-96774000D01*
X145198525Y-96774000D01*
X145272133Y-96759358D01*
X145341471Y-96730637D01*
X145403873Y-96688942D01*
X145456942Y-96635873D01*
X145498637Y-96573471D01*
X145527358Y-96504133D01*
X145542000Y-96430525D01*
X145542000Y-96355475D01*
X145527358Y-96281867D01*
X145498637Y-96212529D01*
X145456942Y-96150127D01*
X145403873Y-96097058D01*
X145341471Y-96055363D01*
X145272133Y-96026642D01*
X145198525Y-96012000D01*
X145123475Y-96012000D01*
X145049867Y-96026642D01*
X144980529Y-96055363D01*
X144918127Y-96097058D01*
X144865058Y-96150127D01*
X144823363Y-96212529D01*
X144794642Y-96281867D01*
X144780000Y-96355475D01*
X138353800Y-96355475D01*
X138353800Y-94549822D01*
X144807653Y-94549822D01*
X144807653Y-94624872D01*
X144822295Y-94698480D01*
X144851016Y-94767818D01*
X144892711Y-94830220D01*
X144945780Y-94883289D01*
X145008182Y-94924984D01*
X145077520Y-94953705D01*
X145151128Y-94968347D01*
X145226178Y-94968347D01*
X145299786Y-94953705D01*
X145369124Y-94924984D01*
X145431526Y-94883289D01*
X145484595Y-94830220D01*
X145526290Y-94767818D01*
X145555011Y-94698480D01*
X145569653Y-94624872D01*
X145569653Y-94549822D01*
X145555011Y-94476214D01*
X145526290Y-94406876D01*
X145514528Y-94389272D01*
X163589600Y-94389272D01*
X163589600Y-94586728D01*
X163628122Y-94780389D01*
X163703685Y-94962814D01*
X163813385Y-95126993D01*
X163953007Y-95266615D01*
X164117186Y-95376315D01*
X164299611Y-95451878D01*
X164493272Y-95490400D01*
X164690728Y-95490400D01*
X164884389Y-95451878D01*
X165066814Y-95376315D01*
X165230993Y-95266615D01*
X165370615Y-95126993D01*
X165480315Y-94962814D01*
X165555878Y-94780389D01*
X165594400Y-94586728D01*
X165594400Y-94389272D01*
X165555878Y-94195611D01*
X165480315Y-94013186D01*
X165370615Y-93849007D01*
X165230993Y-93709385D01*
X165066814Y-93599685D01*
X164884389Y-93524122D01*
X164690728Y-93485600D01*
X164493272Y-93485600D01*
X164299611Y-93524122D01*
X164117186Y-93599685D01*
X163953007Y-93709385D01*
X163813385Y-93849007D01*
X163703685Y-94013186D01*
X163628122Y-94195611D01*
X163589600Y-94389272D01*
X145514528Y-94389272D01*
X145484595Y-94344474D01*
X145431526Y-94291405D01*
X145369124Y-94249710D01*
X145299786Y-94220989D01*
X145226178Y-94206347D01*
X145151128Y-94206347D01*
X145077520Y-94220989D01*
X145008182Y-94249710D01*
X144945780Y-94291405D01*
X144892711Y-94344474D01*
X144851016Y-94406876D01*
X144822295Y-94476214D01*
X144807653Y-94549822D01*
X138353800Y-94549822D01*
X138353800Y-91783475D01*
X144831000Y-91783475D01*
X144831000Y-91858525D01*
X144845642Y-91932133D01*
X144874363Y-92001471D01*
X144916058Y-92063873D01*
X144969127Y-92116942D01*
X145031529Y-92158637D01*
X145100867Y-92187358D01*
X145174475Y-92202000D01*
X145249525Y-92202000D01*
X145323133Y-92187358D01*
X145392471Y-92158637D01*
X145454873Y-92116942D01*
X145507942Y-92063873D01*
X145549637Y-92001471D01*
X145578358Y-91932133D01*
X145593000Y-91858525D01*
X145593000Y-91849272D01*
X163589600Y-91849272D01*
X163589600Y-92046728D01*
X163628122Y-92240389D01*
X163703685Y-92422814D01*
X163813385Y-92586993D01*
X163953007Y-92726615D01*
X164117186Y-92836315D01*
X164299611Y-92911878D01*
X164493272Y-92950400D01*
X164690728Y-92950400D01*
X164884389Y-92911878D01*
X165066814Y-92836315D01*
X165230993Y-92726615D01*
X165370615Y-92586993D01*
X165480315Y-92422814D01*
X165555878Y-92240389D01*
X165594400Y-92046728D01*
X165594400Y-91849272D01*
X165555878Y-91655611D01*
X165480315Y-91473186D01*
X165370615Y-91309007D01*
X165230993Y-91169385D01*
X165066814Y-91059685D01*
X164884389Y-90984122D01*
X164690728Y-90945600D01*
X164493272Y-90945600D01*
X164299611Y-90984122D01*
X164117186Y-91059685D01*
X163953007Y-91169385D01*
X163813385Y-91309007D01*
X163703685Y-91473186D01*
X163628122Y-91655611D01*
X163589600Y-91849272D01*
X145593000Y-91849272D01*
X145593000Y-91783475D01*
X145578358Y-91709867D01*
X145549637Y-91640529D01*
X145507942Y-91578127D01*
X145454873Y-91525058D01*
X145392471Y-91483363D01*
X145323133Y-91454642D01*
X145249525Y-91440000D01*
X145174475Y-91440000D01*
X145100867Y-91454642D01*
X145031529Y-91483363D01*
X144969127Y-91525058D01*
X144916058Y-91578127D01*
X144874363Y-91640529D01*
X144845642Y-91709867D01*
X144831000Y-91783475D01*
X138353800Y-91783475D01*
X138353800Y-90830975D01*
X153098500Y-90830975D01*
X153098500Y-90906025D01*
X153113142Y-90979633D01*
X153141863Y-91048971D01*
X153183558Y-91111373D01*
X153236627Y-91164442D01*
X153299029Y-91206137D01*
X153368367Y-91234858D01*
X153441975Y-91249500D01*
X153517025Y-91249500D01*
X153590633Y-91234858D01*
X153659971Y-91206137D01*
X153722373Y-91164442D01*
X153775442Y-91111373D01*
X153817137Y-91048971D01*
X153845858Y-90979633D01*
X153860500Y-90906025D01*
X153860500Y-90830975D01*
X153845858Y-90757367D01*
X153817137Y-90688029D01*
X153775442Y-90625627D01*
X153722373Y-90572558D01*
X153659971Y-90530863D01*
X153590633Y-90502142D01*
X153517025Y-90487500D01*
X153441975Y-90487500D01*
X153368367Y-90502142D01*
X153299029Y-90530863D01*
X153236627Y-90572558D01*
X153183558Y-90625627D01*
X153141863Y-90688029D01*
X153113142Y-90757367D01*
X153098500Y-90830975D01*
X138353800Y-90830975D01*
X138353800Y-89116475D01*
X152400000Y-89116475D01*
X152400000Y-89191525D01*
X152414642Y-89265133D01*
X152443363Y-89334471D01*
X152485058Y-89396873D01*
X152538127Y-89449942D01*
X152600529Y-89491637D01*
X152669867Y-89520358D01*
X152743475Y-89535000D01*
X152818525Y-89535000D01*
X152892133Y-89520358D01*
X152961471Y-89491637D01*
X153023873Y-89449942D01*
X153076942Y-89396873D01*
X153118637Y-89334471D01*
X153129074Y-89309272D01*
X163589600Y-89309272D01*
X163589600Y-89506728D01*
X163628122Y-89700389D01*
X163703685Y-89882814D01*
X163813385Y-90046993D01*
X163953007Y-90186615D01*
X164117186Y-90296315D01*
X164299611Y-90371878D01*
X164493272Y-90410400D01*
X164690728Y-90410400D01*
X164884389Y-90371878D01*
X165066814Y-90296315D01*
X165230993Y-90186615D01*
X165370615Y-90046993D01*
X165480315Y-89882814D01*
X165555878Y-89700389D01*
X165594400Y-89506728D01*
X165594400Y-89309272D01*
X165555878Y-89115611D01*
X165480315Y-88933186D01*
X165370615Y-88769007D01*
X165230993Y-88629385D01*
X165066814Y-88519685D01*
X164884389Y-88444122D01*
X164690728Y-88405600D01*
X164493272Y-88405600D01*
X164299611Y-88444122D01*
X164117186Y-88519685D01*
X163953007Y-88629385D01*
X163813385Y-88769007D01*
X163703685Y-88933186D01*
X163628122Y-89115611D01*
X163589600Y-89309272D01*
X153129074Y-89309272D01*
X153147358Y-89265133D01*
X153162000Y-89191525D01*
X153162000Y-89116475D01*
X153147358Y-89042867D01*
X153118637Y-88973529D01*
X153076942Y-88911127D01*
X153023873Y-88858058D01*
X152961471Y-88816363D01*
X152892133Y-88787642D01*
X152818525Y-88773000D01*
X152743475Y-88773000D01*
X152669867Y-88787642D01*
X152600529Y-88816363D01*
X152538127Y-88858058D01*
X152485058Y-88911127D01*
X152443363Y-88973529D01*
X152414642Y-89042867D01*
X152400000Y-89116475D01*
X138353800Y-89116475D01*
X138353800Y-86769272D01*
X163589600Y-86769272D01*
X163589600Y-86966728D01*
X163628122Y-87160389D01*
X163703685Y-87342814D01*
X163813385Y-87506993D01*
X163953007Y-87646615D01*
X164117186Y-87756315D01*
X164299611Y-87831878D01*
X164493272Y-87870400D01*
X164690728Y-87870400D01*
X164884389Y-87831878D01*
X165066814Y-87756315D01*
X165230993Y-87646615D01*
X165370615Y-87506993D01*
X165480315Y-87342814D01*
X165555878Y-87160389D01*
X165594400Y-86966728D01*
X165594400Y-86769272D01*
X165555878Y-86575611D01*
X165480315Y-86393186D01*
X165370615Y-86229007D01*
X165230993Y-86089385D01*
X165066814Y-85979685D01*
X164884389Y-85904122D01*
X164690728Y-85865600D01*
X164493272Y-85865600D01*
X164299611Y-85904122D01*
X164117186Y-85979685D01*
X163953007Y-86089385D01*
X163813385Y-86229007D01*
X163703685Y-86393186D01*
X163628122Y-86575611D01*
X163589600Y-86769272D01*
X138353800Y-86769272D01*
X138353800Y-84229272D01*
X163589600Y-84229272D01*
X163589600Y-84426728D01*
X163628122Y-84620389D01*
X163703685Y-84802814D01*
X163813385Y-84966993D01*
X163953007Y-85106615D01*
X164117186Y-85216315D01*
X164299611Y-85291878D01*
X164493272Y-85330400D01*
X164690728Y-85330400D01*
X164884389Y-85291878D01*
X165066814Y-85216315D01*
X165230993Y-85106615D01*
X165370615Y-84966993D01*
X165480315Y-84802814D01*
X165555878Y-84620389D01*
X165594400Y-84426728D01*
X165594400Y-84229272D01*
X165555878Y-84035611D01*
X165480315Y-83853186D01*
X165370615Y-83689007D01*
X165230993Y-83549385D01*
X165066814Y-83439685D01*
X164884389Y-83364122D01*
X164690728Y-83325600D01*
X164493272Y-83325600D01*
X164299611Y-83364122D01*
X164117186Y-83439685D01*
X163953007Y-83549385D01*
X163813385Y-83689007D01*
X163703685Y-83853186D01*
X163628122Y-84035611D01*
X163589600Y-84229272D01*
X138353800Y-84229272D01*
X138353800Y-80938000D01*
X163588863Y-80938000D01*
X163588863Y-82638000D01*
X163591805Y-82667876D01*
X163600520Y-82696603D01*
X163614671Y-82723078D01*
X163633716Y-82746284D01*
X163656922Y-82765329D01*
X163683397Y-82779480D01*
X163712124Y-82788195D01*
X163742000Y-82791137D01*
X165442000Y-82791137D01*
X165471876Y-82788195D01*
X165500603Y-82779480D01*
X165527078Y-82765329D01*
X165550284Y-82746284D01*
X165569329Y-82723078D01*
X165583480Y-82696603D01*
X165592195Y-82667876D01*
X165595137Y-82638000D01*
X165595137Y-80938000D01*
X165592195Y-80908124D01*
X165583480Y-80879397D01*
X165569329Y-80852922D01*
X165550284Y-80829716D01*
X165527078Y-80810671D01*
X165500603Y-80796520D01*
X165471876Y-80787805D01*
X165442000Y-80784863D01*
X163742000Y-80784863D01*
X163712124Y-80787805D01*
X163683397Y-80796520D01*
X163656922Y-80810671D01*
X163633716Y-80829716D01*
X163614671Y-80852922D01*
X163600520Y-80879397D01*
X163591805Y-80908124D01*
X163588863Y-80938000D01*
X138353800Y-80938000D01*
X138353800Y-73075800D01*
X170129200Y-73075800D01*
X170129200Y-121869200D01*
G36*
X138379200Y-121869200D02*
G01*
X123240800Y-121869200D01*
X123240800Y-105154263D01*
X126452710Y-105154263D01*
X126702576Y-105350141D01*
X127080461Y-105496594D01*
X127479656Y-105566511D01*
X127884822Y-105557206D01*
X128280388Y-105469036D01*
X128567424Y-105350141D01*
X128817290Y-105154263D01*
X132802710Y-105154263D01*
X133052576Y-105350141D01*
X133430461Y-105496594D01*
X133829656Y-105566511D01*
X134234822Y-105557206D01*
X134630388Y-105469036D01*
X134917424Y-105350141D01*
X135167290Y-105154263D01*
X133985000Y-103971973D01*
X132802710Y-105154263D01*
X128817290Y-105154263D01*
X127635000Y-103971973D01*
X126452710Y-105154263D01*
X123240800Y-105154263D01*
X123240800Y-103349656D01*
X125573489Y-103349656D01*
X125582794Y-103754822D01*
X125670964Y-104150388D01*
X125789859Y-104437424D01*
X125985737Y-104687290D01*
X127168027Y-103505000D01*
X128101973Y-103505000D01*
X129284263Y-104687290D01*
X129480141Y-104437424D01*
X129626594Y-104059539D01*
X129696511Y-103660344D01*
X129689376Y-103349656D01*
X131923489Y-103349656D01*
X131932794Y-103754822D01*
X132020964Y-104150388D01*
X132139859Y-104437424D01*
X132335737Y-104687290D01*
X133518027Y-103505000D01*
X134451973Y-103505000D01*
X135634263Y-104687290D01*
X135830141Y-104437424D01*
X135976594Y-104059539D01*
X136046511Y-103660344D01*
X136037206Y-103255178D01*
X135949036Y-102859612D01*
X135830141Y-102572576D01*
X135634263Y-102322710D01*
X134451973Y-103505000D01*
X133518027Y-103505000D01*
X132335737Y-102322710D01*
X132139859Y-102572576D01*
X131993406Y-102950461D01*
X131923489Y-103349656D01*
X129689376Y-103349656D01*
X129687206Y-103255178D01*
X129599036Y-102859612D01*
X129480141Y-102572576D01*
X129284263Y-102322710D01*
X128101973Y-103505000D01*
X127168027Y-103505000D01*
X125985737Y-102322710D01*
X125789859Y-102572576D01*
X125643406Y-102950461D01*
X125573489Y-103349656D01*
X123240800Y-103349656D01*
X123240800Y-101855737D01*
X126452710Y-101855737D01*
X127635000Y-103038027D01*
X128817290Y-101855737D01*
X128567424Y-101659859D01*
X128189539Y-101513406D01*
X127790344Y-101443489D01*
X127385178Y-101452794D01*
X126989612Y-101540964D01*
X126702576Y-101659859D01*
X126452710Y-101855737D01*
X123240800Y-101855737D01*
X123240800Y-100139872D01*
X128879600Y-100139872D01*
X128879600Y-100520128D01*
X128953785Y-100893077D01*
X129099302Y-101244387D01*
X129310561Y-101560558D01*
X129579442Y-101829439D01*
X129895613Y-102040698D01*
X130246923Y-102186215D01*
X130619872Y-102260400D01*
X131000128Y-102260400D01*
X131373077Y-102186215D01*
X131724387Y-102040698D01*
X132001200Y-101855737D01*
X132802710Y-101855737D01*
X133985000Y-103038027D01*
X135167290Y-101855737D01*
X134917424Y-101659859D01*
X134539539Y-101513406D01*
X134140344Y-101443489D01*
X133735178Y-101452794D01*
X133339612Y-101540964D01*
X133052576Y-101659859D01*
X132802710Y-101855737D01*
X132001200Y-101855737D01*
X132040558Y-101829439D01*
X132309439Y-101560558D01*
X132520698Y-101244387D01*
X132666215Y-100893077D01*
X132740400Y-100520128D01*
X132740400Y-100139872D01*
X132666215Y-99766923D01*
X132520698Y-99415613D01*
X132309439Y-99099442D01*
X132040558Y-98830561D01*
X132001201Y-98804263D01*
X132802710Y-98804263D01*
X133052576Y-99000141D01*
X133430461Y-99146594D01*
X133829656Y-99216511D01*
X134234822Y-99207206D01*
X134630388Y-99119036D01*
X134917424Y-99000141D01*
X135167290Y-98804263D01*
X133985000Y-97621973D01*
X132802710Y-98804263D01*
X132001201Y-98804263D01*
X131724387Y-98619302D01*
X131373077Y-98473785D01*
X131000128Y-98399600D01*
X130619872Y-98399600D01*
X130246923Y-98473785D01*
X129895613Y-98619302D01*
X129579442Y-98830561D01*
X129310561Y-99099442D01*
X129099302Y-99415613D01*
X128953785Y-99766923D01*
X128879600Y-100139872D01*
X123240800Y-100139872D01*
X123240800Y-98804263D01*
X126452710Y-98804263D01*
X126702576Y-99000141D01*
X127080461Y-99146594D01*
X127479656Y-99216511D01*
X127884822Y-99207206D01*
X128280388Y-99119036D01*
X128567424Y-99000141D01*
X128817290Y-98804263D01*
X127635000Y-97621973D01*
X126452710Y-98804263D01*
X123240800Y-98804263D01*
X123240800Y-96999656D01*
X125573489Y-96999656D01*
X125582794Y-97404822D01*
X125670964Y-97800388D01*
X125789859Y-98087424D01*
X125985737Y-98337290D01*
X127168027Y-97155000D01*
X128101973Y-97155000D01*
X129284263Y-98337290D01*
X129480141Y-98087424D01*
X129626594Y-97709539D01*
X129696511Y-97310344D01*
X129689376Y-96999656D01*
X131923489Y-96999656D01*
X131932794Y-97404822D01*
X132020964Y-97800388D01*
X132139859Y-98087424D01*
X132335737Y-98337290D01*
X133518027Y-97155000D01*
X134451973Y-97155000D01*
X135634263Y-98337290D01*
X135830141Y-98087424D01*
X135976594Y-97709539D01*
X136046511Y-97310344D01*
X136037206Y-96905178D01*
X135949036Y-96509612D01*
X135830141Y-96222576D01*
X135634263Y-95972710D01*
X134451973Y-97155000D01*
X133518027Y-97155000D01*
X132335737Y-95972710D01*
X132139859Y-96222576D01*
X131993406Y-96600461D01*
X131923489Y-96999656D01*
X129689376Y-96999656D01*
X129687206Y-96905178D01*
X129599036Y-96509612D01*
X129480141Y-96222576D01*
X129284263Y-95972710D01*
X128101973Y-97155000D01*
X127168027Y-97155000D01*
X125985737Y-95972710D01*
X125789859Y-96222576D01*
X125643406Y-96600461D01*
X125573489Y-96999656D01*
X123240800Y-96999656D01*
X123240800Y-95505737D01*
X126452710Y-95505737D01*
X127635000Y-96688027D01*
X128817290Y-95505737D01*
X132802710Y-95505737D01*
X133985000Y-96688027D01*
X135167290Y-95505737D01*
X134917424Y-95309859D01*
X134539539Y-95163406D01*
X134140344Y-95093489D01*
X133735178Y-95102794D01*
X133339612Y-95190964D01*
X133052576Y-95309859D01*
X132802710Y-95505737D01*
X128817290Y-95505737D01*
X128567424Y-95309859D01*
X128189539Y-95163406D01*
X127790344Y-95093489D01*
X127385178Y-95102794D01*
X126989612Y-95190964D01*
X126702576Y-95309859D01*
X126452710Y-95505737D01*
X123240800Y-95505737D01*
X123240800Y-90714363D01*
X126452710Y-90714363D01*
X126702576Y-90910241D01*
X127080461Y-91056694D01*
X127479656Y-91126611D01*
X127884822Y-91117306D01*
X128280388Y-91029136D01*
X128567424Y-90910241D01*
X128817290Y-90714363D01*
X132802710Y-90714363D01*
X133052576Y-90910241D01*
X133430461Y-91056694D01*
X133829656Y-91126611D01*
X134234822Y-91117306D01*
X134630388Y-91029136D01*
X134917424Y-90910241D01*
X135167290Y-90714363D01*
X133985000Y-89532073D01*
X132802710Y-90714363D01*
X128817290Y-90714363D01*
X127635000Y-89532073D01*
X126452710Y-90714363D01*
X123240800Y-90714363D01*
X123240800Y-88909756D01*
X125573489Y-88909756D01*
X125582794Y-89314922D01*
X125670964Y-89710488D01*
X125789859Y-89997524D01*
X125985737Y-90247390D01*
X127168027Y-89065100D01*
X128101973Y-89065100D01*
X129284263Y-90247390D01*
X129480141Y-89997524D01*
X129626594Y-89619639D01*
X129696511Y-89220444D01*
X129689376Y-88909756D01*
X131923489Y-88909756D01*
X131932794Y-89314922D01*
X132020964Y-89710488D01*
X132139859Y-89997524D01*
X132335737Y-90247390D01*
X133518027Y-89065100D01*
X134451973Y-89065100D01*
X135634263Y-90247390D01*
X135830141Y-89997524D01*
X135976594Y-89619639D01*
X136046511Y-89220444D01*
X136037206Y-88815278D01*
X135949036Y-88419712D01*
X135830141Y-88132676D01*
X135634263Y-87882810D01*
X134451973Y-89065100D01*
X133518027Y-89065100D01*
X132335737Y-87882810D01*
X132139859Y-88132676D01*
X131993406Y-88510561D01*
X131923489Y-88909756D01*
X129689376Y-88909756D01*
X129687206Y-88815278D01*
X129599036Y-88419712D01*
X129480141Y-88132676D01*
X129284263Y-87882810D01*
X128101973Y-89065100D01*
X127168027Y-89065100D01*
X125985737Y-87882810D01*
X125789859Y-88132676D01*
X125643406Y-88510561D01*
X125573489Y-88909756D01*
X123240800Y-88909756D01*
X123240800Y-87415837D01*
X126452710Y-87415837D01*
X127635000Y-88598127D01*
X128817290Y-87415837D01*
X128567424Y-87219959D01*
X128189539Y-87073506D01*
X127790344Y-87003589D01*
X127385178Y-87012894D01*
X126989612Y-87101064D01*
X126702576Y-87219959D01*
X126452710Y-87415837D01*
X123240800Y-87415837D01*
X123240800Y-85699972D01*
X128879600Y-85699972D01*
X128879600Y-86080228D01*
X128953785Y-86453177D01*
X129099302Y-86804487D01*
X129310561Y-87120658D01*
X129579442Y-87389539D01*
X129895613Y-87600798D01*
X130246923Y-87746315D01*
X130619872Y-87820500D01*
X131000128Y-87820500D01*
X131373077Y-87746315D01*
X131724387Y-87600798D01*
X132001200Y-87415837D01*
X132802710Y-87415837D01*
X133985000Y-88598127D01*
X135167290Y-87415837D01*
X134917424Y-87219959D01*
X134539539Y-87073506D01*
X134140344Y-87003589D01*
X133735178Y-87012894D01*
X133339612Y-87101064D01*
X133052576Y-87219959D01*
X132802710Y-87415837D01*
X132001200Y-87415837D01*
X132040558Y-87389539D01*
X132309439Y-87120658D01*
X132520698Y-86804487D01*
X132666215Y-86453177D01*
X132740400Y-86080228D01*
X132740400Y-85699972D01*
X132666215Y-85327023D01*
X132520698Y-84975713D01*
X132309439Y-84659542D01*
X132040558Y-84390661D01*
X132001201Y-84364363D01*
X132802710Y-84364363D01*
X133052576Y-84560241D01*
X133430461Y-84706694D01*
X133829656Y-84776611D01*
X134234822Y-84767306D01*
X134630388Y-84679136D01*
X134917424Y-84560241D01*
X135167290Y-84364363D01*
X133985000Y-83182073D01*
X132802710Y-84364363D01*
X132001201Y-84364363D01*
X131724387Y-84179402D01*
X131373077Y-84033885D01*
X131000128Y-83959700D01*
X130619872Y-83959700D01*
X130246923Y-84033885D01*
X129895613Y-84179402D01*
X129579442Y-84390661D01*
X129310561Y-84659542D01*
X129099302Y-84975713D01*
X128953785Y-85327023D01*
X128879600Y-85699972D01*
X123240800Y-85699972D01*
X123240800Y-84364363D01*
X126452710Y-84364363D01*
X126702576Y-84560241D01*
X127080461Y-84706694D01*
X127479656Y-84776611D01*
X127884822Y-84767306D01*
X128280388Y-84679136D01*
X128567424Y-84560241D01*
X128817290Y-84364363D01*
X127635000Y-83182073D01*
X126452710Y-84364363D01*
X123240800Y-84364363D01*
X123240800Y-82559756D01*
X125573489Y-82559756D01*
X125582794Y-82964922D01*
X125670964Y-83360488D01*
X125789859Y-83647524D01*
X125985737Y-83897390D01*
X127168027Y-82715100D01*
X128101973Y-82715100D01*
X129284263Y-83897390D01*
X129480141Y-83647524D01*
X129626594Y-83269639D01*
X129696511Y-82870444D01*
X129689376Y-82559756D01*
X131923489Y-82559756D01*
X131932794Y-82964922D01*
X132020964Y-83360488D01*
X132139859Y-83647524D01*
X132335737Y-83897390D01*
X133518027Y-82715100D01*
X134451973Y-82715100D01*
X135634263Y-83897390D01*
X135830141Y-83647524D01*
X135976594Y-83269639D01*
X136046511Y-82870444D01*
X136037206Y-82465278D01*
X135949036Y-82069712D01*
X135830141Y-81782676D01*
X135634263Y-81532810D01*
X134451973Y-82715100D01*
X133518027Y-82715100D01*
X132335737Y-81532810D01*
X132139859Y-81782676D01*
X131993406Y-82160561D01*
X131923489Y-82559756D01*
X129689376Y-82559756D01*
X129687206Y-82465278D01*
X129599036Y-82069712D01*
X129480141Y-81782676D01*
X129284263Y-81532810D01*
X128101973Y-82715100D01*
X127168027Y-82715100D01*
X125985737Y-81532810D01*
X125789859Y-81782676D01*
X125643406Y-82160561D01*
X125573489Y-82559756D01*
X123240800Y-82559756D01*
X123240800Y-81065837D01*
X126452710Y-81065837D01*
X127635000Y-82248127D01*
X128817290Y-81065837D01*
X132802710Y-81065837D01*
X133985000Y-82248127D01*
X135167290Y-81065837D01*
X134917424Y-80869959D01*
X134539539Y-80723506D01*
X134140344Y-80653589D01*
X133735178Y-80662894D01*
X133339612Y-80751064D01*
X133052576Y-80869959D01*
X132802710Y-81065837D01*
X128817290Y-81065837D01*
X128567424Y-80869959D01*
X128189539Y-80723506D01*
X127790344Y-80653589D01*
X127385178Y-80662894D01*
X126989612Y-80751064D01*
X126702576Y-80869959D01*
X126452710Y-81065837D01*
X123240800Y-81065837D01*
X123240800Y-73075800D01*
X138379200Y-73075800D01*
X138379200Y-121869200D01*
G37*
X138379200Y-121869200D02*
X123240800Y-121869200D01*
X123240800Y-105154263D01*
X126452710Y-105154263D01*
X126702576Y-105350141D01*
X127080461Y-105496594D01*
X127479656Y-105566511D01*
X127884822Y-105557206D01*
X128280388Y-105469036D01*
X128567424Y-105350141D01*
X128817290Y-105154263D01*
X132802710Y-105154263D01*
X133052576Y-105350141D01*
X133430461Y-105496594D01*
X133829656Y-105566511D01*
X134234822Y-105557206D01*
X134630388Y-105469036D01*
X134917424Y-105350141D01*
X135167290Y-105154263D01*
X133985000Y-103971973D01*
X132802710Y-105154263D01*
X128817290Y-105154263D01*
X127635000Y-103971973D01*
X126452710Y-105154263D01*
X123240800Y-105154263D01*
X123240800Y-103349656D01*
X125573489Y-103349656D01*
X125582794Y-103754822D01*
X125670964Y-104150388D01*
X125789859Y-104437424D01*
X125985737Y-104687290D01*
X127168027Y-103505000D01*
X128101973Y-103505000D01*
X129284263Y-104687290D01*
X129480141Y-104437424D01*
X129626594Y-104059539D01*
X129696511Y-103660344D01*
X129689376Y-103349656D01*
X131923489Y-103349656D01*
X131932794Y-103754822D01*
X132020964Y-104150388D01*
X132139859Y-104437424D01*
X132335737Y-104687290D01*
X133518027Y-103505000D01*
X134451973Y-103505000D01*
X135634263Y-104687290D01*
X135830141Y-104437424D01*
X135976594Y-104059539D01*
X136046511Y-103660344D01*
X136037206Y-103255178D01*
X135949036Y-102859612D01*
X135830141Y-102572576D01*
X135634263Y-102322710D01*
X134451973Y-103505000D01*
X133518027Y-103505000D01*
X132335737Y-102322710D01*
X132139859Y-102572576D01*
X131993406Y-102950461D01*
X131923489Y-103349656D01*
X129689376Y-103349656D01*
X129687206Y-103255178D01*
X129599036Y-102859612D01*
X129480141Y-102572576D01*
X129284263Y-102322710D01*
X128101973Y-103505000D01*
X127168027Y-103505000D01*
X125985737Y-102322710D01*
X125789859Y-102572576D01*
X125643406Y-102950461D01*
X125573489Y-103349656D01*
X123240800Y-103349656D01*
X123240800Y-101855737D01*
X126452710Y-101855737D01*
X127635000Y-103038027D01*
X128817290Y-101855737D01*
X128567424Y-101659859D01*
X128189539Y-101513406D01*
X127790344Y-101443489D01*
X127385178Y-101452794D01*
X126989612Y-101540964D01*
X126702576Y-101659859D01*
X126452710Y-101855737D01*
X123240800Y-101855737D01*
X123240800Y-100139872D01*
X128879600Y-100139872D01*
X128879600Y-100520128D01*
X128953785Y-100893077D01*
X129099302Y-101244387D01*
X129310561Y-101560558D01*
X129579442Y-101829439D01*
X129895613Y-102040698D01*
X130246923Y-102186215D01*
X130619872Y-102260400D01*
X131000128Y-102260400D01*
X131373077Y-102186215D01*
X131724387Y-102040698D01*
X132001200Y-101855737D01*
X132802710Y-101855737D01*
X133985000Y-103038027D01*
X135167290Y-101855737D01*
X134917424Y-101659859D01*
X134539539Y-101513406D01*
X134140344Y-101443489D01*
X133735178Y-101452794D01*
X133339612Y-101540964D01*
X133052576Y-101659859D01*
X132802710Y-101855737D01*
X132001200Y-101855737D01*
X132040558Y-101829439D01*
X132309439Y-101560558D01*
X132520698Y-101244387D01*
X132666215Y-100893077D01*
X132740400Y-100520128D01*
X132740400Y-100139872D01*
X132666215Y-99766923D01*
X132520698Y-99415613D01*
X132309439Y-99099442D01*
X132040558Y-98830561D01*
X132001201Y-98804263D01*
X132802710Y-98804263D01*
X133052576Y-99000141D01*
X133430461Y-99146594D01*
X133829656Y-99216511D01*
X134234822Y-99207206D01*
X134630388Y-99119036D01*
X134917424Y-99000141D01*
X135167290Y-98804263D01*
X133985000Y-97621973D01*
X132802710Y-98804263D01*
X132001201Y-98804263D01*
X131724387Y-98619302D01*
X131373077Y-98473785D01*
X131000128Y-98399600D01*
X130619872Y-98399600D01*
X130246923Y-98473785D01*
X129895613Y-98619302D01*
X129579442Y-98830561D01*
X129310561Y-99099442D01*
X129099302Y-99415613D01*
X128953785Y-99766923D01*
X128879600Y-100139872D01*
X123240800Y-100139872D01*
X123240800Y-98804263D01*
X126452710Y-98804263D01*
X126702576Y-99000141D01*
X127080461Y-99146594D01*
X127479656Y-99216511D01*
X127884822Y-99207206D01*
X128280388Y-99119036D01*
X128567424Y-99000141D01*
X128817290Y-98804263D01*
X127635000Y-97621973D01*
X126452710Y-98804263D01*
X123240800Y-98804263D01*
X123240800Y-96999656D01*
X125573489Y-96999656D01*
X125582794Y-97404822D01*
X125670964Y-97800388D01*
X125789859Y-98087424D01*
X125985737Y-98337290D01*
X127168027Y-97155000D01*
X128101973Y-97155000D01*
X129284263Y-98337290D01*
X129480141Y-98087424D01*
X129626594Y-97709539D01*
X129696511Y-97310344D01*
X129689376Y-96999656D01*
X131923489Y-96999656D01*
X131932794Y-97404822D01*
X132020964Y-97800388D01*
X132139859Y-98087424D01*
X132335737Y-98337290D01*
X133518027Y-97155000D01*
X134451973Y-97155000D01*
X135634263Y-98337290D01*
X135830141Y-98087424D01*
X135976594Y-97709539D01*
X136046511Y-97310344D01*
X136037206Y-96905178D01*
X135949036Y-96509612D01*
X135830141Y-96222576D01*
X135634263Y-95972710D01*
X134451973Y-97155000D01*
X133518027Y-97155000D01*
X132335737Y-95972710D01*
X132139859Y-96222576D01*
X131993406Y-96600461D01*
X131923489Y-96999656D01*
X129689376Y-96999656D01*
X129687206Y-96905178D01*
X129599036Y-96509612D01*
X129480141Y-96222576D01*
X129284263Y-95972710D01*
X128101973Y-97155000D01*
X127168027Y-97155000D01*
X125985737Y-95972710D01*
X125789859Y-96222576D01*
X125643406Y-96600461D01*
X125573489Y-96999656D01*
X123240800Y-96999656D01*
X123240800Y-95505737D01*
X126452710Y-95505737D01*
X127635000Y-96688027D01*
X128817290Y-95505737D01*
X132802710Y-95505737D01*
X133985000Y-96688027D01*
X135167290Y-95505737D01*
X134917424Y-95309859D01*
X134539539Y-95163406D01*
X134140344Y-95093489D01*
X133735178Y-95102794D01*
X133339612Y-95190964D01*
X133052576Y-95309859D01*
X132802710Y-95505737D01*
X128817290Y-95505737D01*
X128567424Y-95309859D01*
X128189539Y-95163406D01*
X127790344Y-95093489D01*
X127385178Y-95102794D01*
X126989612Y-95190964D01*
X126702576Y-95309859D01*
X126452710Y-95505737D01*
X123240800Y-95505737D01*
X123240800Y-90714363D01*
X126452710Y-90714363D01*
X126702576Y-90910241D01*
X127080461Y-91056694D01*
X127479656Y-91126611D01*
X127884822Y-91117306D01*
X128280388Y-91029136D01*
X128567424Y-90910241D01*
X128817290Y-90714363D01*
X132802710Y-90714363D01*
X133052576Y-90910241D01*
X133430461Y-91056694D01*
X133829656Y-91126611D01*
X134234822Y-91117306D01*
X134630388Y-91029136D01*
X134917424Y-90910241D01*
X135167290Y-90714363D01*
X133985000Y-89532073D01*
X132802710Y-90714363D01*
X128817290Y-90714363D01*
X127635000Y-89532073D01*
X126452710Y-90714363D01*
X123240800Y-90714363D01*
X123240800Y-88909756D01*
X125573489Y-88909756D01*
X125582794Y-89314922D01*
X125670964Y-89710488D01*
X125789859Y-89997524D01*
X125985737Y-90247390D01*
X127168027Y-89065100D01*
X128101973Y-89065100D01*
X129284263Y-90247390D01*
X129480141Y-89997524D01*
X129626594Y-89619639D01*
X129696511Y-89220444D01*
X129689376Y-88909756D01*
X131923489Y-88909756D01*
X131932794Y-89314922D01*
X132020964Y-89710488D01*
X132139859Y-89997524D01*
X132335737Y-90247390D01*
X133518027Y-89065100D01*
X134451973Y-89065100D01*
X135634263Y-90247390D01*
X135830141Y-89997524D01*
X135976594Y-89619639D01*
X136046511Y-89220444D01*
X136037206Y-88815278D01*
X135949036Y-88419712D01*
X135830141Y-88132676D01*
X135634263Y-87882810D01*
X134451973Y-89065100D01*
X133518027Y-89065100D01*
X132335737Y-87882810D01*
X132139859Y-88132676D01*
X131993406Y-88510561D01*
X131923489Y-88909756D01*
X129689376Y-88909756D01*
X129687206Y-88815278D01*
X129599036Y-88419712D01*
X129480141Y-88132676D01*
X129284263Y-87882810D01*
X128101973Y-89065100D01*
X127168027Y-89065100D01*
X125985737Y-87882810D01*
X125789859Y-88132676D01*
X125643406Y-88510561D01*
X125573489Y-88909756D01*
X123240800Y-88909756D01*
X123240800Y-87415837D01*
X126452710Y-87415837D01*
X127635000Y-88598127D01*
X128817290Y-87415837D01*
X128567424Y-87219959D01*
X128189539Y-87073506D01*
X127790344Y-87003589D01*
X127385178Y-87012894D01*
X126989612Y-87101064D01*
X126702576Y-87219959D01*
X126452710Y-87415837D01*
X123240800Y-87415837D01*
X123240800Y-85699972D01*
X128879600Y-85699972D01*
X128879600Y-86080228D01*
X128953785Y-86453177D01*
X129099302Y-86804487D01*
X129310561Y-87120658D01*
X129579442Y-87389539D01*
X129895613Y-87600798D01*
X130246923Y-87746315D01*
X130619872Y-87820500D01*
X131000128Y-87820500D01*
X131373077Y-87746315D01*
X131724387Y-87600798D01*
X132001200Y-87415837D01*
X132802710Y-87415837D01*
X133985000Y-88598127D01*
X135167290Y-87415837D01*
X134917424Y-87219959D01*
X134539539Y-87073506D01*
X134140344Y-87003589D01*
X133735178Y-87012894D01*
X133339612Y-87101064D01*
X133052576Y-87219959D01*
X132802710Y-87415837D01*
X132001200Y-87415837D01*
X132040558Y-87389539D01*
X132309439Y-87120658D01*
X132520698Y-86804487D01*
X132666215Y-86453177D01*
X132740400Y-86080228D01*
X132740400Y-85699972D01*
X132666215Y-85327023D01*
X132520698Y-84975713D01*
X132309439Y-84659542D01*
X132040558Y-84390661D01*
X132001201Y-84364363D01*
X132802710Y-84364363D01*
X133052576Y-84560241D01*
X133430461Y-84706694D01*
X133829656Y-84776611D01*
X134234822Y-84767306D01*
X134630388Y-84679136D01*
X134917424Y-84560241D01*
X135167290Y-84364363D01*
X133985000Y-83182073D01*
X132802710Y-84364363D01*
X132001201Y-84364363D01*
X131724387Y-84179402D01*
X131373077Y-84033885D01*
X131000128Y-83959700D01*
X130619872Y-83959700D01*
X130246923Y-84033885D01*
X129895613Y-84179402D01*
X129579442Y-84390661D01*
X129310561Y-84659542D01*
X129099302Y-84975713D01*
X128953785Y-85327023D01*
X128879600Y-85699972D01*
X123240800Y-85699972D01*
X123240800Y-84364363D01*
X126452710Y-84364363D01*
X126702576Y-84560241D01*
X127080461Y-84706694D01*
X127479656Y-84776611D01*
X127884822Y-84767306D01*
X128280388Y-84679136D01*
X128567424Y-84560241D01*
X128817290Y-84364363D01*
X127635000Y-83182073D01*
X126452710Y-84364363D01*
X123240800Y-84364363D01*
X123240800Y-82559756D01*
X125573489Y-82559756D01*
X125582794Y-82964922D01*
X125670964Y-83360488D01*
X125789859Y-83647524D01*
X125985737Y-83897390D01*
X127168027Y-82715100D01*
X128101973Y-82715100D01*
X129284263Y-83897390D01*
X129480141Y-83647524D01*
X129626594Y-83269639D01*
X129696511Y-82870444D01*
X129689376Y-82559756D01*
X131923489Y-82559756D01*
X131932794Y-82964922D01*
X132020964Y-83360488D01*
X132139859Y-83647524D01*
X132335737Y-83897390D01*
X133518027Y-82715100D01*
X134451973Y-82715100D01*
X135634263Y-83897390D01*
X135830141Y-83647524D01*
X135976594Y-83269639D01*
X136046511Y-82870444D01*
X136037206Y-82465278D01*
X135949036Y-82069712D01*
X135830141Y-81782676D01*
X135634263Y-81532810D01*
X134451973Y-82715100D01*
X133518027Y-82715100D01*
X132335737Y-81532810D01*
X132139859Y-81782676D01*
X131993406Y-82160561D01*
X131923489Y-82559756D01*
X129689376Y-82559756D01*
X129687206Y-82465278D01*
X129599036Y-82069712D01*
X129480141Y-81782676D01*
X129284263Y-81532810D01*
X128101973Y-82715100D01*
X127168027Y-82715100D01*
X125985737Y-81532810D01*
X125789859Y-81782676D01*
X125643406Y-82160561D01*
X125573489Y-82559756D01*
X123240800Y-82559756D01*
X123240800Y-81065837D01*
X126452710Y-81065837D01*
X127635000Y-82248127D01*
X128817290Y-81065837D01*
X132802710Y-81065837D01*
X133985000Y-82248127D01*
X135167290Y-81065837D01*
X134917424Y-80869959D01*
X134539539Y-80723506D01*
X134140344Y-80653589D01*
X133735178Y-80662894D01*
X133339612Y-80751064D01*
X133052576Y-80869959D01*
X132802710Y-81065837D01*
X128817290Y-81065837D01*
X128567424Y-80869959D01*
X128189539Y-80723506D01*
X127790344Y-80653589D01*
X127385178Y-80662894D01*
X126989612Y-80751064D01*
X126702576Y-80869959D01*
X126452710Y-81065837D01*
X123240800Y-81065837D01*
X123240800Y-73075800D01*
X138379200Y-73075800D01*
X138379200Y-121869200D01*
G04 #@! TD*
M02*
