G04 #@! TF.GenerationSoftware,KiCad,Pcbnew,5.1.5+dfsg1-2build2*
G04 #@! TF.CreationDate,2020-11-26T02:38:28-05:00*
G04 #@! TF.ProjectId,SAR_pcb,5341525f-7063-4622-9e6b-696361645f70,rev?*
G04 #@! TF.SameCoordinates,Original*
G04 #@! TF.FileFunction,Copper,L2,Inr*
G04 #@! TF.FilePolarity,Positive*
%FSLAX46Y46*%
G04 Gerber Fmt 4.6, Leading zero omitted, Abs format (unit mm)*
G04 Created by KiCad (PCBNEW 5.1.5+dfsg1-2build2) date 2020-11-26 02:38:28*
%MOMM*%
%LPD*%
G04 APERTURE LIST*
G04 #@! TA.AperFunction,ViaPad*
%ADD10C,3.810000*%
G04 #@! TD*
G04 #@! TA.AperFunction,ViaPad*
%ADD11C,3.556000*%
G04 #@! TD*
G04 #@! TA.AperFunction,ViaPad*
%ADD12R,1.700000X1.700000*%
G04 #@! TD*
G04 #@! TA.AperFunction,ViaPad*
%ADD13O,1.700000X1.700000*%
G04 #@! TD*
G04 #@! TA.AperFunction,ViaPad*
%ADD14R,1.600000X1.600000*%
G04 #@! TD*
G04 #@! TA.AperFunction,ViaPad*
%ADD15O,1.600000X1.600000*%
G04 #@! TD*
G04 #@! TA.AperFunction,ViaPad*
%ADD16C,0.500000*%
G04 #@! TD*
G04 #@! TA.AperFunction,ViaPad*
%ADD17C,0.457200*%
G04 #@! TD*
G04 #@! TA.AperFunction,Conductor*
%ADD18C,0.101600*%
G04 #@! TD*
G04 APERTURE END LIST*
D10*
G04 #@! TO.N,GND*
G04 #@! TO.C,J1*
X127635000Y-82715100D03*
D11*
G04 #@! TO.N,VIN-*
X130810000Y-85890100D03*
D10*
G04 #@! TO.N,GND*
X133985000Y-82715100D03*
X127635000Y-89065100D03*
X133985000Y-89065100D03*
G04 #@! TD*
G04 #@! TO.N,GND*
G04 #@! TO.C,J2*
X133985000Y-103505000D03*
X127635000Y-103505000D03*
X133985000Y-97155000D03*
D11*
G04 #@! TO.N,VIN+*
X130810000Y-100330000D03*
D10*
G04 #@! TO.N,GND*
X127635000Y-97155000D03*
G04 #@! TD*
D12*
G04 #@! TO.N,D0*
G04 #@! TO.C,J3*
X164592000Y-81788000D03*
D13*
G04 #@! TO.N,GND*
X167132000Y-81788000D03*
G04 #@! TO.N,D1*
X164592000Y-84328000D03*
G04 #@! TO.N,GND*
X167132000Y-84328000D03*
G04 #@! TO.N,D2*
X164592000Y-86868000D03*
G04 #@! TO.N,GND*
X167132000Y-86868000D03*
G04 #@! TO.N,D3*
X164592000Y-89408000D03*
G04 #@! TO.N,GND*
X167132000Y-89408000D03*
G04 #@! TO.N,D4*
X164592000Y-91948000D03*
G04 #@! TO.N,GND*
X167132000Y-91948000D03*
G04 #@! TO.N,D5*
X164592000Y-94488000D03*
G04 #@! TO.N,GND*
X167132000Y-94488000D03*
G04 #@! TO.N,D6*
X164592000Y-97028000D03*
G04 #@! TO.N,GND*
X167132000Y-97028000D03*
G04 #@! TO.N,D7*
X164592000Y-99568000D03*
G04 #@! TO.N,GND*
X167132000Y-99568000D03*
G04 #@! TO.N,D8*
X164592000Y-102108000D03*
G04 #@! TO.N,GND*
X167132000Y-102108000D03*
G04 #@! TO.N,D9*
X164592000Y-104648000D03*
G04 #@! TO.N,GND*
X167132000Y-104648000D03*
G04 #@! TD*
D12*
G04 #@! TO.N,VDD*
G04 #@! TO.C,J4*
X155194000Y-115570000D03*
D13*
G04 #@! TO.N,GND*
X152654000Y-115570000D03*
G04 #@! TO.N,VDDPST*
X150114000Y-115570000D03*
G04 #@! TO.N,GND*
X147574000Y-115570000D03*
G04 #@! TO.N,VREF*
X145034000Y-115570000D03*
G04 #@! TO.N,GND*
X142494000Y-115570000D03*
G04 #@! TD*
D14*
G04 #@! TO.N,RST*
G04 #@! TO.C,SW1*
X150114000Y-103886000D03*
D15*
G04 #@! TO.N,GND*
X157734000Y-106426000D03*
G04 #@! TO.N,RST*
X150114000Y-106426000D03*
G04 #@! TO.N,GND*
X157734000Y-103886000D03*
G04 #@! TD*
D16*
G04 #@! TO.N,GND*
G04 #@! TO.C,U2*
X148204680Y-92233240D03*
X149204680Y-92233240D03*
X150204680Y-92233240D03*
X148204680Y-93233240D03*
X149204680Y-93233240D03*
X150204680Y-93233240D03*
X148204680Y-94233240D03*
X149204680Y-94233240D03*
X150204680Y-94233240D03*
G04 #@! TD*
D17*
G04 #@! TO.N,VDD*
X145161000Y-96393000D03*
X149733000Y-97536000D03*
X153479500Y-90868500D03*
X145212000Y-91821000D03*
G04 #@! TO.N,GND*
X155321000Y-120396000D03*
X150114000Y-120396000D03*
X145669000Y-120396000D03*
X144907000Y-120396000D03*
X155067000Y-90805000D03*
X155956000Y-89027000D03*
X154432000Y-89027000D03*
X154432000Y-98552000D03*
X149733000Y-99314000D03*
X148209000Y-99314000D03*
X141859000Y-89535000D03*
X143510000Y-96520000D03*
X143510000Y-94742000D03*
X155448000Y-110744000D03*
X155448000Y-110109000D03*
X161544000Y-74676000D03*
X160274000Y-78232000D03*
X161544000Y-78232000D03*
X161544000Y-75692000D03*
X161544000Y-73660000D03*
X160274000Y-74676000D03*
X161544000Y-76962000D03*
X160274000Y-76962000D03*
X160274000Y-73660000D03*
X160274000Y-75692000D03*
X152908000Y-74676000D03*
X151638000Y-78232000D03*
X152908000Y-78232000D03*
X152908000Y-75692000D03*
X152908000Y-73660000D03*
X151638000Y-74676000D03*
X152908000Y-76962000D03*
X151638000Y-76962000D03*
X151638000Y-73660000D03*
X151638000Y-75692000D03*
X149098000Y-74676000D03*
X147828000Y-78232000D03*
X149098000Y-78232000D03*
X149098000Y-75692000D03*
X149098000Y-73660000D03*
X147828000Y-74676000D03*
X149098000Y-76962000D03*
X147828000Y-76962000D03*
X147828000Y-73660000D03*
X147828000Y-75692000D03*
X140462000Y-78232000D03*
X139192000Y-78232000D03*
X139192000Y-76962000D03*
X140462000Y-76962000D03*
X140462000Y-75692000D03*
X139192000Y-75692000D03*
X140462000Y-74676000D03*
X139192000Y-74676000D03*
X140462000Y-73660000D03*
X139192000Y-73660000D03*
X148463000Y-90805000D03*
X146812000Y-90678000D03*
X146812000Y-91313000D03*
X148463000Y-90170000D03*
X147320000Y-95758000D03*
X147320000Y-96266000D03*
X143510000Y-95631000D03*
X141859000Y-88646000D03*
X143129000Y-91186000D03*
X143129000Y-92075000D03*
X148971000Y-99314000D03*
X155194000Y-98552000D03*
X155194000Y-89027000D03*
X155702000Y-90805000D03*
X146558000Y-120396000D03*
X147701000Y-120396000D03*
X148971000Y-120396000D03*
X151384000Y-120396000D03*
X153035000Y-120396000D03*
X154178000Y-120396000D03*
X139065000Y-86995000D03*
X137795000Y-85090000D03*
X151765000Y-102235000D03*
X151765000Y-104140000D03*
X151765000Y-107315000D03*
X154305000Y-101600000D03*
X156845000Y-101600000D03*
X160020000Y-101600000D03*
X162560000Y-104140000D03*
X151765000Y-98425000D03*
X153035000Y-99695000D03*
X154305000Y-100330000D03*
X156845000Y-100330000D03*
X159385000Y-100330000D03*
X162560000Y-100965000D03*
X156845000Y-99060000D03*
X159385000Y-99060000D03*
X161925000Y-99060000D03*
X156845000Y-97790000D03*
X160020000Y-97790000D03*
X155575000Y-96520000D03*
X158115000Y-96520000D03*
X161290000Y-96520000D03*
X160020000Y-94615000D03*
X162560000Y-94615000D03*
X161290000Y-93345000D03*
X162560000Y-90805000D03*
X160655000Y-88900000D03*
X160655000Y-90170000D03*
X162560000Y-88900000D03*
X162560000Y-87630000D03*
X162560000Y-85090000D03*
X162560000Y-86360000D03*
X160020000Y-87630000D03*
X162560000Y-83185000D03*
X160020000Y-85090000D03*
X158750000Y-88265000D03*
X159512000Y-92964000D03*
X157734000Y-93218000D03*
X158115000Y-85090000D03*
X160020000Y-83185000D03*
X161925000Y-81280000D03*
X155575000Y-74295000D03*
X155575000Y-76200000D03*
X155575000Y-78105000D03*
X155575000Y-80010000D03*
X155575000Y-81915000D03*
X142875000Y-85090000D03*
X146050000Y-85090000D03*
X153670000Y-83820000D03*
X156210000Y-85090000D03*
X149225000Y-101600000D03*
X147955000Y-103505000D03*
X147955000Y-106045000D03*
X147955000Y-109855000D03*
X158115000Y-74295000D03*
X158115000Y-76200000D03*
X158115000Y-78105000D03*
X158115000Y-80010000D03*
X158115000Y-81915000D03*
X142875000Y-73660000D03*
X145415000Y-73660000D03*
X142875000Y-75565000D03*
X145415000Y-75565000D03*
X142875000Y-77470000D03*
X145415000Y-77470000D03*
X145415000Y-79375000D03*
X142875000Y-79375000D03*
X142875000Y-81280000D03*
X145415000Y-81280000D03*
X142875000Y-83185000D03*
X146050000Y-83185000D03*
X139065000Y-88900000D03*
X139065000Y-90805000D03*
X141605000Y-90805000D03*
X139065000Y-95250000D03*
X141605000Y-95250000D03*
X139065000Y-97155000D03*
X139065000Y-99060000D03*
X137795000Y-100330000D03*
X135890000Y-92075000D03*
X135890000Y-93980000D03*
G04 #@! TO.N,VDDPST*
X150495000Y-112268000D03*
X149733000Y-112268000D03*
X148082000Y-97536000D03*
X153212800Y-97434400D03*
X152781000Y-89154000D03*
G04 #@! TO.N,VREF*
X145188653Y-94587347D03*
G04 #@! TD*
D18*
G04 #@! TO.N,GND*
G36*
X170129200Y-121869200D02*
G01*
X138353800Y-121869200D01*
X138353800Y-115468771D01*
X144006200Y-115468771D01*
X144006200Y-115671229D01*
X144045698Y-115869798D01*
X144123176Y-116056846D01*
X144235656Y-116225184D01*
X144378816Y-116368344D01*
X144547154Y-116480824D01*
X144734202Y-116558302D01*
X144932771Y-116597800D01*
X145135229Y-116597800D01*
X145333798Y-116558302D01*
X145520846Y-116480824D01*
X145689184Y-116368344D01*
X145832344Y-116225184D01*
X145944824Y-116056846D01*
X146022302Y-115869798D01*
X146061800Y-115671229D01*
X146061800Y-115468771D01*
X149086200Y-115468771D01*
X149086200Y-115671229D01*
X149125698Y-115869798D01*
X149203176Y-116056846D01*
X149315656Y-116225184D01*
X149458816Y-116368344D01*
X149627154Y-116480824D01*
X149814202Y-116558302D01*
X150012771Y-116597800D01*
X150215229Y-116597800D01*
X150413798Y-116558302D01*
X150600846Y-116480824D01*
X150769184Y-116368344D01*
X150912344Y-116225184D01*
X151024824Y-116056846D01*
X151102302Y-115869798D01*
X151141800Y-115671229D01*
X151141800Y-115468771D01*
X151102302Y-115270202D01*
X151024824Y-115083154D01*
X150912344Y-114914816D01*
X150769184Y-114771656D01*
X150691876Y-114720000D01*
X154165340Y-114720000D01*
X154165340Y-116420000D01*
X154168773Y-116454855D01*
X154178940Y-116488370D01*
X154195450Y-116519258D01*
X154217668Y-116546332D01*
X154244742Y-116568550D01*
X154275630Y-116585060D01*
X154309145Y-116595227D01*
X154344000Y-116598660D01*
X156044000Y-116598660D01*
X156078855Y-116595227D01*
X156112370Y-116585060D01*
X156143258Y-116568550D01*
X156170332Y-116546332D01*
X156192550Y-116519258D01*
X156209060Y-116488370D01*
X156219227Y-116454855D01*
X156222660Y-116420000D01*
X156222660Y-114720000D01*
X156219227Y-114685145D01*
X156209060Y-114651630D01*
X156192550Y-114620742D01*
X156170332Y-114593668D01*
X156143258Y-114571450D01*
X156112370Y-114554940D01*
X156078855Y-114544773D01*
X156044000Y-114541340D01*
X154344000Y-114541340D01*
X154309145Y-114544773D01*
X154275630Y-114554940D01*
X154244742Y-114571450D01*
X154217668Y-114593668D01*
X154195450Y-114620742D01*
X154178940Y-114651630D01*
X154168773Y-114685145D01*
X154165340Y-114720000D01*
X150691876Y-114720000D01*
X150600846Y-114659176D01*
X150413798Y-114581698D01*
X150215229Y-114542200D01*
X150012771Y-114542200D01*
X149814202Y-114581698D01*
X149627154Y-114659176D01*
X149458816Y-114771656D01*
X149315656Y-114914816D01*
X149203176Y-115083154D01*
X149125698Y-115270202D01*
X149086200Y-115468771D01*
X146061800Y-115468771D01*
X146022302Y-115270202D01*
X145944824Y-115083154D01*
X145832344Y-114914816D01*
X145689184Y-114771656D01*
X145520846Y-114659176D01*
X145333798Y-114581698D01*
X145135229Y-114542200D01*
X144932771Y-114542200D01*
X144734202Y-114581698D01*
X144547154Y-114659176D01*
X144378816Y-114771656D01*
X144235656Y-114914816D01*
X144123176Y-115083154D01*
X144045698Y-115270202D01*
X144006200Y-115468771D01*
X138353800Y-115468771D01*
X138353800Y-112227973D01*
X149326600Y-112227973D01*
X149326600Y-112308027D01*
X149342218Y-112386542D01*
X149372853Y-112460502D01*
X149417329Y-112527065D01*
X149473935Y-112583671D01*
X149540498Y-112628147D01*
X149614458Y-112658782D01*
X149692973Y-112674400D01*
X149773027Y-112674400D01*
X149851542Y-112658782D01*
X149925502Y-112628147D01*
X149992065Y-112583671D01*
X150048671Y-112527065D01*
X150093147Y-112460502D01*
X150114000Y-112410158D01*
X150134853Y-112460502D01*
X150179329Y-112527065D01*
X150235935Y-112583671D01*
X150302498Y-112628147D01*
X150376458Y-112658782D01*
X150454973Y-112674400D01*
X150535027Y-112674400D01*
X150613542Y-112658782D01*
X150687502Y-112628147D01*
X150754065Y-112583671D01*
X150810671Y-112527065D01*
X150855147Y-112460502D01*
X150885782Y-112386542D01*
X150901400Y-112308027D01*
X150901400Y-112227973D01*
X150885782Y-112149458D01*
X150855147Y-112075498D01*
X150810671Y-112008935D01*
X150754065Y-111952329D01*
X150687502Y-111907853D01*
X150613542Y-111877218D01*
X150535027Y-111861600D01*
X150454973Y-111861600D01*
X150376458Y-111877218D01*
X150302498Y-111907853D01*
X150235935Y-111952329D01*
X150179329Y-112008935D01*
X150134853Y-112075498D01*
X150114000Y-112125842D01*
X150093147Y-112075498D01*
X150048671Y-112008935D01*
X149992065Y-111952329D01*
X149925502Y-111907853D01*
X149851542Y-111877218D01*
X149773027Y-111861600D01*
X149692973Y-111861600D01*
X149614458Y-111877218D01*
X149540498Y-111907853D01*
X149473935Y-111952329D01*
X149417329Y-112008935D01*
X149372853Y-112075498D01*
X149342218Y-112149458D01*
X149326600Y-112227973D01*
X138353800Y-112227973D01*
X138353800Y-106329695D01*
X149136200Y-106329695D01*
X149136200Y-106522305D01*
X149173776Y-106711214D01*
X149247485Y-106889162D01*
X149354493Y-107049311D01*
X149490689Y-107185507D01*
X149650838Y-107292515D01*
X149828786Y-107366224D01*
X150017695Y-107403800D01*
X150210305Y-107403800D01*
X150399214Y-107366224D01*
X150577162Y-107292515D01*
X150737311Y-107185507D01*
X150873507Y-107049311D01*
X150980515Y-106889162D01*
X151054224Y-106711214D01*
X151091800Y-106522305D01*
X151091800Y-106329695D01*
X151054224Y-106140786D01*
X150980515Y-105962838D01*
X150873507Y-105802689D01*
X150737311Y-105666493D01*
X150577162Y-105559485D01*
X150399214Y-105485776D01*
X150210305Y-105448200D01*
X150017695Y-105448200D01*
X149828786Y-105485776D01*
X149650838Y-105559485D01*
X149490689Y-105666493D01*
X149354493Y-105802689D01*
X149247485Y-105962838D01*
X149173776Y-106140786D01*
X149136200Y-106329695D01*
X138353800Y-106329695D01*
X138353800Y-103086000D01*
X149135340Y-103086000D01*
X149135340Y-104686000D01*
X149138773Y-104720855D01*
X149148940Y-104754370D01*
X149165450Y-104785258D01*
X149187668Y-104812332D01*
X149214742Y-104834550D01*
X149245630Y-104851060D01*
X149279145Y-104861227D01*
X149314000Y-104864660D01*
X150914000Y-104864660D01*
X150948855Y-104861227D01*
X150982370Y-104851060D01*
X151013258Y-104834550D01*
X151040332Y-104812332D01*
X151062550Y-104785258D01*
X151079060Y-104754370D01*
X151089227Y-104720855D01*
X151092660Y-104686000D01*
X151092660Y-104546771D01*
X163564200Y-104546771D01*
X163564200Y-104749229D01*
X163603698Y-104947798D01*
X163681176Y-105134846D01*
X163793656Y-105303184D01*
X163936816Y-105446344D01*
X164105154Y-105558824D01*
X164292202Y-105636302D01*
X164490771Y-105675800D01*
X164693229Y-105675800D01*
X164891798Y-105636302D01*
X165078846Y-105558824D01*
X165247184Y-105446344D01*
X165390344Y-105303184D01*
X165502824Y-105134846D01*
X165580302Y-104947798D01*
X165619800Y-104749229D01*
X165619800Y-104546771D01*
X165580302Y-104348202D01*
X165502824Y-104161154D01*
X165390344Y-103992816D01*
X165247184Y-103849656D01*
X165078846Y-103737176D01*
X164891798Y-103659698D01*
X164693229Y-103620200D01*
X164490771Y-103620200D01*
X164292202Y-103659698D01*
X164105154Y-103737176D01*
X163936816Y-103849656D01*
X163793656Y-103992816D01*
X163681176Y-104161154D01*
X163603698Y-104348202D01*
X163564200Y-104546771D01*
X151092660Y-104546771D01*
X151092660Y-103086000D01*
X151089227Y-103051145D01*
X151079060Y-103017630D01*
X151062550Y-102986742D01*
X151040332Y-102959668D01*
X151013258Y-102937450D01*
X150982370Y-102920940D01*
X150948855Y-102910773D01*
X150914000Y-102907340D01*
X149314000Y-102907340D01*
X149279145Y-102910773D01*
X149245630Y-102920940D01*
X149214742Y-102937450D01*
X149187668Y-102959668D01*
X149165450Y-102986742D01*
X149148940Y-103017630D01*
X149138773Y-103051145D01*
X149135340Y-103086000D01*
X138353800Y-103086000D01*
X138353800Y-102006771D01*
X163564200Y-102006771D01*
X163564200Y-102209229D01*
X163603698Y-102407798D01*
X163681176Y-102594846D01*
X163793656Y-102763184D01*
X163936816Y-102906344D01*
X164105154Y-103018824D01*
X164292202Y-103096302D01*
X164490771Y-103135800D01*
X164693229Y-103135800D01*
X164891798Y-103096302D01*
X165078846Y-103018824D01*
X165247184Y-102906344D01*
X165390344Y-102763184D01*
X165502824Y-102594846D01*
X165580302Y-102407798D01*
X165619800Y-102209229D01*
X165619800Y-102006771D01*
X165580302Y-101808202D01*
X165502824Y-101621154D01*
X165390344Y-101452816D01*
X165247184Y-101309656D01*
X165078846Y-101197176D01*
X164891798Y-101119698D01*
X164693229Y-101080200D01*
X164490771Y-101080200D01*
X164292202Y-101119698D01*
X164105154Y-101197176D01*
X163936816Y-101309656D01*
X163793656Y-101452816D01*
X163681176Y-101621154D01*
X163603698Y-101808202D01*
X163564200Y-102006771D01*
X138353800Y-102006771D01*
X138353800Y-99466771D01*
X163564200Y-99466771D01*
X163564200Y-99669229D01*
X163603698Y-99867798D01*
X163681176Y-100054846D01*
X163793656Y-100223184D01*
X163936816Y-100366344D01*
X164105154Y-100478824D01*
X164292202Y-100556302D01*
X164490771Y-100595800D01*
X164693229Y-100595800D01*
X164891798Y-100556302D01*
X165078846Y-100478824D01*
X165247184Y-100366344D01*
X165390344Y-100223184D01*
X165502824Y-100054846D01*
X165580302Y-99867798D01*
X165619800Y-99669229D01*
X165619800Y-99466771D01*
X165580302Y-99268202D01*
X165502824Y-99081154D01*
X165390344Y-98912816D01*
X165247184Y-98769656D01*
X165078846Y-98657176D01*
X164891798Y-98579698D01*
X164693229Y-98540200D01*
X164490771Y-98540200D01*
X164292202Y-98579698D01*
X164105154Y-98657176D01*
X163936816Y-98769656D01*
X163793656Y-98912816D01*
X163681176Y-99081154D01*
X163603698Y-99268202D01*
X163564200Y-99466771D01*
X138353800Y-99466771D01*
X138353800Y-97495973D01*
X147675600Y-97495973D01*
X147675600Y-97576027D01*
X147691218Y-97654542D01*
X147721853Y-97728502D01*
X147766329Y-97795065D01*
X147822935Y-97851671D01*
X147889498Y-97896147D01*
X147963458Y-97926782D01*
X148041973Y-97942400D01*
X148122027Y-97942400D01*
X148200542Y-97926782D01*
X148274502Y-97896147D01*
X148341065Y-97851671D01*
X148397671Y-97795065D01*
X148442147Y-97728502D01*
X148472782Y-97654542D01*
X148488400Y-97576027D01*
X148488400Y-97495973D01*
X149326600Y-97495973D01*
X149326600Y-97576027D01*
X149342218Y-97654542D01*
X149372853Y-97728502D01*
X149417329Y-97795065D01*
X149473935Y-97851671D01*
X149540498Y-97896147D01*
X149614458Y-97926782D01*
X149692973Y-97942400D01*
X149773027Y-97942400D01*
X149851542Y-97926782D01*
X149925502Y-97896147D01*
X149992065Y-97851671D01*
X150048671Y-97795065D01*
X150093147Y-97728502D01*
X150123782Y-97654542D01*
X150139400Y-97576027D01*
X150139400Y-97495973D01*
X150123782Y-97417458D01*
X150114220Y-97394373D01*
X152806400Y-97394373D01*
X152806400Y-97474427D01*
X152822018Y-97552942D01*
X152852653Y-97626902D01*
X152897129Y-97693465D01*
X152953735Y-97750071D01*
X153020298Y-97794547D01*
X153094258Y-97825182D01*
X153172773Y-97840800D01*
X153252827Y-97840800D01*
X153331342Y-97825182D01*
X153405302Y-97794547D01*
X153471865Y-97750071D01*
X153528471Y-97693465D01*
X153572947Y-97626902D01*
X153603582Y-97552942D01*
X153619200Y-97474427D01*
X153619200Y-97394373D01*
X153603582Y-97315858D01*
X153572947Y-97241898D01*
X153528471Y-97175335D01*
X153471865Y-97118729D01*
X153405302Y-97074253D01*
X153331342Y-97043618D01*
X153252827Y-97028000D01*
X153172773Y-97028000D01*
X153094258Y-97043618D01*
X153020298Y-97074253D01*
X152953735Y-97118729D01*
X152897129Y-97175335D01*
X152852653Y-97241898D01*
X152822018Y-97315858D01*
X152806400Y-97394373D01*
X150114220Y-97394373D01*
X150093147Y-97343498D01*
X150048671Y-97276935D01*
X149992065Y-97220329D01*
X149925502Y-97175853D01*
X149851542Y-97145218D01*
X149773027Y-97129600D01*
X149692973Y-97129600D01*
X149614458Y-97145218D01*
X149540498Y-97175853D01*
X149473935Y-97220329D01*
X149417329Y-97276935D01*
X149372853Y-97343498D01*
X149342218Y-97417458D01*
X149326600Y-97495973D01*
X148488400Y-97495973D01*
X148472782Y-97417458D01*
X148442147Y-97343498D01*
X148397671Y-97276935D01*
X148341065Y-97220329D01*
X148274502Y-97175853D01*
X148200542Y-97145218D01*
X148122027Y-97129600D01*
X148041973Y-97129600D01*
X147963458Y-97145218D01*
X147889498Y-97175853D01*
X147822935Y-97220329D01*
X147766329Y-97276935D01*
X147721853Y-97343498D01*
X147691218Y-97417458D01*
X147675600Y-97495973D01*
X138353800Y-97495973D01*
X138353800Y-96926771D01*
X163564200Y-96926771D01*
X163564200Y-97129229D01*
X163603698Y-97327798D01*
X163681176Y-97514846D01*
X163793656Y-97683184D01*
X163936816Y-97826344D01*
X164105154Y-97938824D01*
X164292202Y-98016302D01*
X164490771Y-98055800D01*
X164693229Y-98055800D01*
X164891798Y-98016302D01*
X165078846Y-97938824D01*
X165247184Y-97826344D01*
X165390344Y-97683184D01*
X165502824Y-97514846D01*
X165580302Y-97327798D01*
X165619800Y-97129229D01*
X165619800Y-96926771D01*
X165580302Y-96728202D01*
X165502824Y-96541154D01*
X165390344Y-96372816D01*
X165247184Y-96229656D01*
X165078846Y-96117176D01*
X164891798Y-96039698D01*
X164693229Y-96000200D01*
X164490771Y-96000200D01*
X164292202Y-96039698D01*
X164105154Y-96117176D01*
X163936816Y-96229656D01*
X163793656Y-96372816D01*
X163681176Y-96541154D01*
X163603698Y-96728202D01*
X163564200Y-96926771D01*
X138353800Y-96926771D01*
X138353800Y-96352973D01*
X144754600Y-96352973D01*
X144754600Y-96433027D01*
X144770218Y-96511542D01*
X144800853Y-96585502D01*
X144845329Y-96652065D01*
X144901935Y-96708671D01*
X144968498Y-96753147D01*
X145042458Y-96783782D01*
X145120973Y-96799400D01*
X145201027Y-96799400D01*
X145279542Y-96783782D01*
X145353502Y-96753147D01*
X145420065Y-96708671D01*
X145476671Y-96652065D01*
X145521147Y-96585502D01*
X145551782Y-96511542D01*
X145567400Y-96433027D01*
X145567400Y-96352973D01*
X145551782Y-96274458D01*
X145521147Y-96200498D01*
X145476671Y-96133935D01*
X145420065Y-96077329D01*
X145353502Y-96032853D01*
X145279542Y-96002218D01*
X145201027Y-95986600D01*
X145120973Y-95986600D01*
X145042458Y-96002218D01*
X144968498Y-96032853D01*
X144901935Y-96077329D01*
X144845329Y-96133935D01*
X144800853Y-96200498D01*
X144770218Y-96274458D01*
X144754600Y-96352973D01*
X138353800Y-96352973D01*
X138353800Y-94547320D01*
X144782253Y-94547320D01*
X144782253Y-94627374D01*
X144797871Y-94705889D01*
X144828506Y-94779849D01*
X144872982Y-94846412D01*
X144929588Y-94903018D01*
X144996151Y-94947494D01*
X145070111Y-94978129D01*
X145148626Y-94993747D01*
X145228680Y-94993747D01*
X145307195Y-94978129D01*
X145381155Y-94947494D01*
X145447718Y-94903018D01*
X145504324Y-94846412D01*
X145548800Y-94779849D01*
X145579435Y-94705889D01*
X145595053Y-94627374D01*
X145595053Y-94547320D01*
X145579435Y-94468805D01*
X145548800Y-94394845D01*
X145543406Y-94386771D01*
X163564200Y-94386771D01*
X163564200Y-94589229D01*
X163603698Y-94787798D01*
X163681176Y-94974846D01*
X163793656Y-95143184D01*
X163936816Y-95286344D01*
X164105154Y-95398824D01*
X164292202Y-95476302D01*
X164490771Y-95515800D01*
X164693229Y-95515800D01*
X164891798Y-95476302D01*
X165078846Y-95398824D01*
X165247184Y-95286344D01*
X165390344Y-95143184D01*
X165502824Y-94974846D01*
X165580302Y-94787798D01*
X165619800Y-94589229D01*
X165619800Y-94386771D01*
X165580302Y-94188202D01*
X165502824Y-94001154D01*
X165390344Y-93832816D01*
X165247184Y-93689656D01*
X165078846Y-93577176D01*
X164891798Y-93499698D01*
X164693229Y-93460200D01*
X164490771Y-93460200D01*
X164292202Y-93499698D01*
X164105154Y-93577176D01*
X163936816Y-93689656D01*
X163793656Y-93832816D01*
X163681176Y-94001154D01*
X163603698Y-94188202D01*
X163564200Y-94386771D01*
X145543406Y-94386771D01*
X145504324Y-94328282D01*
X145447718Y-94271676D01*
X145381155Y-94227200D01*
X145307195Y-94196565D01*
X145228680Y-94180947D01*
X145148626Y-94180947D01*
X145070111Y-94196565D01*
X144996151Y-94227200D01*
X144929588Y-94271676D01*
X144872982Y-94328282D01*
X144828506Y-94394845D01*
X144797871Y-94468805D01*
X144782253Y-94547320D01*
X138353800Y-94547320D01*
X138353800Y-91780973D01*
X144805600Y-91780973D01*
X144805600Y-91861027D01*
X144821218Y-91939542D01*
X144851853Y-92013502D01*
X144896329Y-92080065D01*
X144952935Y-92136671D01*
X145019498Y-92181147D01*
X145093458Y-92211782D01*
X145171973Y-92227400D01*
X145252027Y-92227400D01*
X145330542Y-92211782D01*
X145404502Y-92181147D01*
X145471065Y-92136671D01*
X145527671Y-92080065D01*
X145572147Y-92013502D01*
X145602782Y-91939542D01*
X145618400Y-91861027D01*
X145618400Y-91846771D01*
X163564200Y-91846771D01*
X163564200Y-92049229D01*
X163603698Y-92247798D01*
X163681176Y-92434846D01*
X163793656Y-92603184D01*
X163936816Y-92746344D01*
X164105154Y-92858824D01*
X164292202Y-92936302D01*
X164490771Y-92975800D01*
X164693229Y-92975800D01*
X164891798Y-92936302D01*
X165078846Y-92858824D01*
X165247184Y-92746344D01*
X165390344Y-92603184D01*
X165502824Y-92434846D01*
X165580302Y-92247798D01*
X165619800Y-92049229D01*
X165619800Y-91846771D01*
X165580302Y-91648202D01*
X165502824Y-91461154D01*
X165390344Y-91292816D01*
X165247184Y-91149656D01*
X165078846Y-91037176D01*
X164891798Y-90959698D01*
X164693229Y-90920200D01*
X164490771Y-90920200D01*
X164292202Y-90959698D01*
X164105154Y-91037176D01*
X163936816Y-91149656D01*
X163793656Y-91292816D01*
X163681176Y-91461154D01*
X163603698Y-91648202D01*
X163564200Y-91846771D01*
X145618400Y-91846771D01*
X145618400Y-91780973D01*
X145602782Y-91702458D01*
X145572147Y-91628498D01*
X145527671Y-91561935D01*
X145471065Y-91505329D01*
X145404502Y-91460853D01*
X145330542Y-91430218D01*
X145252027Y-91414600D01*
X145171973Y-91414600D01*
X145093458Y-91430218D01*
X145019498Y-91460853D01*
X144952935Y-91505329D01*
X144896329Y-91561935D01*
X144851853Y-91628498D01*
X144821218Y-91702458D01*
X144805600Y-91780973D01*
X138353800Y-91780973D01*
X138353800Y-90828473D01*
X153073100Y-90828473D01*
X153073100Y-90908527D01*
X153088718Y-90987042D01*
X153119353Y-91061002D01*
X153163829Y-91127565D01*
X153220435Y-91184171D01*
X153286998Y-91228647D01*
X153360958Y-91259282D01*
X153439473Y-91274900D01*
X153519527Y-91274900D01*
X153598042Y-91259282D01*
X153672002Y-91228647D01*
X153738565Y-91184171D01*
X153795171Y-91127565D01*
X153839647Y-91061002D01*
X153870282Y-90987042D01*
X153885900Y-90908527D01*
X153885900Y-90828473D01*
X153870282Y-90749958D01*
X153839647Y-90675998D01*
X153795171Y-90609435D01*
X153738565Y-90552829D01*
X153672002Y-90508353D01*
X153598042Y-90477718D01*
X153519527Y-90462100D01*
X153439473Y-90462100D01*
X153360958Y-90477718D01*
X153286998Y-90508353D01*
X153220435Y-90552829D01*
X153163829Y-90609435D01*
X153119353Y-90675998D01*
X153088718Y-90749958D01*
X153073100Y-90828473D01*
X138353800Y-90828473D01*
X138353800Y-89113973D01*
X152374600Y-89113973D01*
X152374600Y-89194027D01*
X152390218Y-89272542D01*
X152420853Y-89346502D01*
X152465329Y-89413065D01*
X152521935Y-89469671D01*
X152588498Y-89514147D01*
X152662458Y-89544782D01*
X152740973Y-89560400D01*
X152821027Y-89560400D01*
X152899542Y-89544782D01*
X152973502Y-89514147D01*
X153040065Y-89469671D01*
X153096671Y-89413065D01*
X153141147Y-89346502D01*
X153157603Y-89306771D01*
X163564200Y-89306771D01*
X163564200Y-89509229D01*
X163603698Y-89707798D01*
X163681176Y-89894846D01*
X163793656Y-90063184D01*
X163936816Y-90206344D01*
X164105154Y-90318824D01*
X164292202Y-90396302D01*
X164490771Y-90435800D01*
X164693229Y-90435800D01*
X164891798Y-90396302D01*
X165078846Y-90318824D01*
X165247184Y-90206344D01*
X165390344Y-90063184D01*
X165502824Y-89894846D01*
X165580302Y-89707798D01*
X165619800Y-89509229D01*
X165619800Y-89306771D01*
X165580302Y-89108202D01*
X165502824Y-88921154D01*
X165390344Y-88752816D01*
X165247184Y-88609656D01*
X165078846Y-88497176D01*
X164891798Y-88419698D01*
X164693229Y-88380200D01*
X164490771Y-88380200D01*
X164292202Y-88419698D01*
X164105154Y-88497176D01*
X163936816Y-88609656D01*
X163793656Y-88752816D01*
X163681176Y-88921154D01*
X163603698Y-89108202D01*
X163564200Y-89306771D01*
X153157603Y-89306771D01*
X153171782Y-89272542D01*
X153187400Y-89194027D01*
X153187400Y-89113973D01*
X153171782Y-89035458D01*
X153141147Y-88961498D01*
X153096671Y-88894935D01*
X153040065Y-88838329D01*
X152973502Y-88793853D01*
X152899542Y-88763218D01*
X152821027Y-88747600D01*
X152740973Y-88747600D01*
X152662458Y-88763218D01*
X152588498Y-88793853D01*
X152521935Y-88838329D01*
X152465329Y-88894935D01*
X152420853Y-88961498D01*
X152390218Y-89035458D01*
X152374600Y-89113973D01*
X138353800Y-89113973D01*
X138353800Y-86766771D01*
X163564200Y-86766771D01*
X163564200Y-86969229D01*
X163603698Y-87167798D01*
X163681176Y-87354846D01*
X163793656Y-87523184D01*
X163936816Y-87666344D01*
X164105154Y-87778824D01*
X164292202Y-87856302D01*
X164490771Y-87895800D01*
X164693229Y-87895800D01*
X164891798Y-87856302D01*
X165078846Y-87778824D01*
X165247184Y-87666344D01*
X165390344Y-87523184D01*
X165502824Y-87354846D01*
X165580302Y-87167798D01*
X165619800Y-86969229D01*
X165619800Y-86766771D01*
X165580302Y-86568202D01*
X165502824Y-86381154D01*
X165390344Y-86212816D01*
X165247184Y-86069656D01*
X165078846Y-85957176D01*
X164891798Y-85879698D01*
X164693229Y-85840200D01*
X164490771Y-85840200D01*
X164292202Y-85879698D01*
X164105154Y-85957176D01*
X163936816Y-86069656D01*
X163793656Y-86212816D01*
X163681176Y-86381154D01*
X163603698Y-86568202D01*
X163564200Y-86766771D01*
X138353800Y-86766771D01*
X138353800Y-84226771D01*
X163564200Y-84226771D01*
X163564200Y-84429229D01*
X163603698Y-84627798D01*
X163681176Y-84814846D01*
X163793656Y-84983184D01*
X163936816Y-85126344D01*
X164105154Y-85238824D01*
X164292202Y-85316302D01*
X164490771Y-85355800D01*
X164693229Y-85355800D01*
X164891798Y-85316302D01*
X165078846Y-85238824D01*
X165247184Y-85126344D01*
X165390344Y-84983184D01*
X165502824Y-84814846D01*
X165580302Y-84627798D01*
X165619800Y-84429229D01*
X165619800Y-84226771D01*
X165580302Y-84028202D01*
X165502824Y-83841154D01*
X165390344Y-83672816D01*
X165247184Y-83529656D01*
X165078846Y-83417176D01*
X164891798Y-83339698D01*
X164693229Y-83300200D01*
X164490771Y-83300200D01*
X164292202Y-83339698D01*
X164105154Y-83417176D01*
X163936816Y-83529656D01*
X163793656Y-83672816D01*
X163681176Y-83841154D01*
X163603698Y-84028202D01*
X163564200Y-84226771D01*
X138353800Y-84226771D01*
X138353800Y-80938000D01*
X163563340Y-80938000D01*
X163563340Y-82638000D01*
X163566773Y-82672855D01*
X163576940Y-82706370D01*
X163593450Y-82737258D01*
X163615668Y-82764332D01*
X163642742Y-82786550D01*
X163673630Y-82803060D01*
X163707145Y-82813227D01*
X163742000Y-82816660D01*
X165442000Y-82816660D01*
X165476855Y-82813227D01*
X165510370Y-82803060D01*
X165541258Y-82786550D01*
X165568332Y-82764332D01*
X165590550Y-82737258D01*
X165607060Y-82706370D01*
X165617227Y-82672855D01*
X165620660Y-82638000D01*
X165620660Y-80938000D01*
X165617227Y-80903145D01*
X165607060Y-80869630D01*
X165590550Y-80838742D01*
X165568332Y-80811668D01*
X165541258Y-80789450D01*
X165510370Y-80772940D01*
X165476855Y-80762773D01*
X165442000Y-80759340D01*
X163742000Y-80759340D01*
X163707145Y-80762773D01*
X163673630Y-80772940D01*
X163642742Y-80789450D01*
X163615668Y-80811668D01*
X163593450Y-80838742D01*
X163576940Y-80869630D01*
X163566773Y-80903145D01*
X163563340Y-80938000D01*
X138353800Y-80938000D01*
X138353800Y-73075800D01*
X170129200Y-73075800D01*
X170129200Y-121869200D01*
G37*
X170129200Y-121869200D02*
X138353800Y-121869200D01*
X138353800Y-115468771D01*
X144006200Y-115468771D01*
X144006200Y-115671229D01*
X144045698Y-115869798D01*
X144123176Y-116056846D01*
X144235656Y-116225184D01*
X144378816Y-116368344D01*
X144547154Y-116480824D01*
X144734202Y-116558302D01*
X144932771Y-116597800D01*
X145135229Y-116597800D01*
X145333798Y-116558302D01*
X145520846Y-116480824D01*
X145689184Y-116368344D01*
X145832344Y-116225184D01*
X145944824Y-116056846D01*
X146022302Y-115869798D01*
X146061800Y-115671229D01*
X146061800Y-115468771D01*
X149086200Y-115468771D01*
X149086200Y-115671229D01*
X149125698Y-115869798D01*
X149203176Y-116056846D01*
X149315656Y-116225184D01*
X149458816Y-116368344D01*
X149627154Y-116480824D01*
X149814202Y-116558302D01*
X150012771Y-116597800D01*
X150215229Y-116597800D01*
X150413798Y-116558302D01*
X150600846Y-116480824D01*
X150769184Y-116368344D01*
X150912344Y-116225184D01*
X151024824Y-116056846D01*
X151102302Y-115869798D01*
X151141800Y-115671229D01*
X151141800Y-115468771D01*
X151102302Y-115270202D01*
X151024824Y-115083154D01*
X150912344Y-114914816D01*
X150769184Y-114771656D01*
X150691876Y-114720000D01*
X154165340Y-114720000D01*
X154165340Y-116420000D01*
X154168773Y-116454855D01*
X154178940Y-116488370D01*
X154195450Y-116519258D01*
X154217668Y-116546332D01*
X154244742Y-116568550D01*
X154275630Y-116585060D01*
X154309145Y-116595227D01*
X154344000Y-116598660D01*
X156044000Y-116598660D01*
X156078855Y-116595227D01*
X156112370Y-116585060D01*
X156143258Y-116568550D01*
X156170332Y-116546332D01*
X156192550Y-116519258D01*
X156209060Y-116488370D01*
X156219227Y-116454855D01*
X156222660Y-116420000D01*
X156222660Y-114720000D01*
X156219227Y-114685145D01*
X156209060Y-114651630D01*
X156192550Y-114620742D01*
X156170332Y-114593668D01*
X156143258Y-114571450D01*
X156112370Y-114554940D01*
X156078855Y-114544773D01*
X156044000Y-114541340D01*
X154344000Y-114541340D01*
X154309145Y-114544773D01*
X154275630Y-114554940D01*
X154244742Y-114571450D01*
X154217668Y-114593668D01*
X154195450Y-114620742D01*
X154178940Y-114651630D01*
X154168773Y-114685145D01*
X154165340Y-114720000D01*
X150691876Y-114720000D01*
X150600846Y-114659176D01*
X150413798Y-114581698D01*
X150215229Y-114542200D01*
X150012771Y-114542200D01*
X149814202Y-114581698D01*
X149627154Y-114659176D01*
X149458816Y-114771656D01*
X149315656Y-114914816D01*
X149203176Y-115083154D01*
X149125698Y-115270202D01*
X149086200Y-115468771D01*
X146061800Y-115468771D01*
X146022302Y-115270202D01*
X145944824Y-115083154D01*
X145832344Y-114914816D01*
X145689184Y-114771656D01*
X145520846Y-114659176D01*
X145333798Y-114581698D01*
X145135229Y-114542200D01*
X144932771Y-114542200D01*
X144734202Y-114581698D01*
X144547154Y-114659176D01*
X144378816Y-114771656D01*
X144235656Y-114914816D01*
X144123176Y-115083154D01*
X144045698Y-115270202D01*
X144006200Y-115468771D01*
X138353800Y-115468771D01*
X138353800Y-112227973D01*
X149326600Y-112227973D01*
X149326600Y-112308027D01*
X149342218Y-112386542D01*
X149372853Y-112460502D01*
X149417329Y-112527065D01*
X149473935Y-112583671D01*
X149540498Y-112628147D01*
X149614458Y-112658782D01*
X149692973Y-112674400D01*
X149773027Y-112674400D01*
X149851542Y-112658782D01*
X149925502Y-112628147D01*
X149992065Y-112583671D01*
X150048671Y-112527065D01*
X150093147Y-112460502D01*
X150114000Y-112410158D01*
X150134853Y-112460502D01*
X150179329Y-112527065D01*
X150235935Y-112583671D01*
X150302498Y-112628147D01*
X150376458Y-112658782D01*
X150454973Y-112674400D01*
X150535027Y-112674400D01*
X150613542Y-112658782D01*
X150687502Y-112628147D01*
X150754065Y-112583671D01*
X150810671Y-112527065D01*
X150855147Y-112460502D01*
X150885782Y-112386542D01*
X150901400Y-112308027D01*
X150901400Y-112227973D01*
X150885782Y-112149458D01*
X150855147Y-112075498D01*
X150810671Y-112008935D01*
X150754065Y-111952329D01*
X150687502Y-111907853D01*
X150613542Y-111877218D01*
X150535027Y-111861600D01*
X150454973Y-111861600D01*
X150376458Y-111877218D01*
X150302498Y-111907853D01*
X150235935Y-111952329D01*
X150179329Y-112008935D01*
X150134853Y-112075498D01*
X150114000Y-112125842D01*
X150093147Y-112075498D01*
X150048671Y-112008935D01*
X149992065Y-111952329D01*
X149925502Y-111907853D01*
X149851542Y-111877218D01*
X149773027Y-111861600D01*
X149692973Y-111861600D01*
X149614458Y-111877218D01*
X149540498Y-111907853D01*
X149473935Y-111952329D01*
X149417329Y-112008935D01*
X149372853Y-112075498D01*
X149342218Y-112149458D01*
X149326600Y-112227973D01*
X138353800Y-112227973D01*
X138353800Y-106329695D01*
X149136200Y-106329695D01*
X149136200Y-106522305D01*
X149173776Y-106711214D01*
X149247485Y-106889162D01*
X149354493Y-107049311D01*
X149490689Y-107185507D01*
X149650838Y-107292515D01*
X149828786Y-107366224D01*
X150017695Y-107403800D01*
X150210305Y-107403800D01*
X150399214Y-107366224D01*
X150577162Y-107292515D01*
X150737311Y-107185507D01*
X150873507Y-107049311D01*
X150980515Y-106889162D01*
X151054224Y-106711214D01*
X151091800Y-106522305D01*
X151091800Y-106329695D01*
X151054224Y-106140786D01*
X150980515Y-105962838D01*
X150873507Y-105802689D01*
X150737311Y-105666493D01*
X150577162Y-105559485D01*
X150399214Y-105485776D01*
X150210305Y-105448200D01*
X150017695Y-105448200D01*
X149828786Y-105485776D01*
X149650838Y-105559485D01*
X149490689Y-105666493D01*
X149354493Y-105802689D01*
X149247485Y-105962838D01*
X149173776Y-106140786D01*
X149136200Y-106329695D01*
X138353800Y-106329695D01*
X138353800Y-103086000D01*
X149135340Y-103086000D01*
X149135340Y-104686000D01*
X149138773Y-104720855D01*
X149148940Y-104754370D01*
X149165450Y-104785258D01*
X149187668Y-104812332D01*
X149214742Y-104834550D01*
X149245630Y-104851060D01*
X149279145Y-104861227D01*
X149314000Y-104864660D01*
X150914000Y-104864660D01*
X150948855Y-104861227D01*
X150982370Y-104851060D01*
X151013258Y-104834550D01*
X151040332Y-104812332D01*
X151062550Y-104785258D01*
X151079060Y-104754370D01*
X151089227Y-104720855D01*
X151092660Y-104686000D01*
X151092660Y-104546771D01*
X163564200Y-104546771D01*
X163564200Y-104749229D01*
X163603698Y-104947798D01*
X163681176Y-105134846D01*
X163793656Y-105303184D01*
X163936816Y-105446344D01*
X164105154Y-105558824D01*
X164292202Y-105636302D01*
X164490771Y-105675800D01*
X164693229Y-105675800D01*
X164891798Y-105636302D01*
X165078846Y-105558824D01*
X165247184Y-105446344D01*
X165390344Y-105303184D01*
X165502824Y-105134846D01*
X165580302Y-104947798D01*
X165619800Y-104749229D01*
X165619800Y-104546771D01*
X165580302Y-104348202D01*
X165502824Y-104161154D01*
X165390344Y-103992816D01*
X165247184Y-103849656D01*
X165078846Y-103737176D01*
X164891798Y-103659698D01*
X164693229Y-103620200D01*
X164490771Y-103620200D01*
X164292202Y-103659698D01*
X164105154Y-103737176D01*
X163936816Y-103849656D01*
X163793656Y-103992816D01*
X163681176Y-104161154D01*
X163603698Y-104348202D01*
X163564200Y-104546771D01*
X151092660Y-104546771D01*
X151092660Y-103086000D01*
X151089227Y-103051145D01*
X151079060Y-103017630D01*
X151062550Y-102986742D01*
X151040332Y-102959668D01*
X151013258Y-102937450D01*
X150982370Y-102920940D01*
X150948855Y-102910773D01*
X150914000Y-102907340D01*
X149314000Y-102907340D01*
X149279145Y-102910773D01*
X149245630Y-102920940D01*
X149214742Y-102937450D01*
X149187668Y-102959668D01*
X149165450Y-102986742D01*
X149148940Y-103017630D01*
X149138773Y-103051145D01*
X149135340Y-103086000D01*
X138353800Y-103086000D01*
X138353800Y-102006771D01*
X163564200Y-102006771D01*
X163564200Y-102209229D01*
X163603698Y-102407798D01*
X163681176Y-102594846D01*
X163793656Y-102763184D01*
X163936816Y-102906344D01*
X164105154Y-103018824D01*
X164292202Y-103096302D01*
X164490771Y-103135800D01*
X164693229Y-103135800D01*
X164891798Y-103096302D01*
X165078846Y-103018824D01*
X165247184Y-102906344D01*
X165390344Y-102763184D01*
X165502824Y-102594846D01*
X165580302Y-102407798D01*
X165619800Y-102209229D01*
X165619800Y-102006771D01*
X165580302Y-101808202D01*
X165502824Y-101621154D01*
X165390344Y-101452816D01*
X165247184Y-101309656D01*
X165078846Y-101197176D01*
X164891798Y-101119698D01*
X164693229Y-101080200D01*
X164490771Y-101080200D01*
X164292202Y-101119698D01*
X164105154Y-101197176D01*
X163936816Y-101309656D01*
X163793656Y-101452816D01*
X163681176Y-101621154D01*
X163603698Y-101808202D01*
X163564200Y-102006771D01*
X138353800Y-102006771D01*
X138353800Y-99466771D01*
X163564200Y-99466771D01*
X163564200Y-99669229D01*
X163603698Y-99867798D01*
X163681176Y-100054846D01*
X163793656Y-100223184D01*
X163936816Y-100366344D01*
X164105154Y-100478824D01*
X164292202Y-100556302D01*
X164490771Y-100595800D01*
X164693229Y-100595800D01*
X164891798Y-100556302D01*
X165078846Y-100478824D01*
X165247184Y-100366344D01*
X165390344Y-100223184D01*
X165502824Y-100054846D01*
X165580302Y-99867798D01*
X165619800Y-99669229D01*
X165619800Y-99466771D01*
X165580302Y-99268202D01*
X165502824Y-99081154D01*
X165390344Y-98912816D01*
X165247184Y-98769656D01*
X165078846Y-98657176D01*
X164891798Y-98579698D01*
X164693229Y-98540200D01*
X164490771Y-98540200D01*
X164292202Y-98579698D01*
X164105154Y-98657176D01*
X163936816Y-98769656D01*
X163793656Y-98912816D01*
X163681176Y-99081154D01*
X163603698Y-99268202D01*
X163564200Y-99466771D01*
X138353800Y-99466771D01*
X138353800Y-97495973D01*
X147675600Y-97495973D01*
X147675600Y-97576027D01*
X147691218Y-97654542D01*
X147721853Y-97728502D01*
X147766329Y-97795065D01*
X147822935Y-97851671D01*
X147889498Y-97896147D01*
X147963458Y-97926782D01*
X148041973Y-97942400D01*
X148122027Y-97942400D01*
X148200542Y-97926782D01*
X148274502Y-97896147D01*
X148341065Y-97851671D01*
X148397671Y-97795065D01*
X148442147Y-97728502D01*
X148472782Y-97654542D01*
X148488400Y-97576027D01*
X148488400Y-97495973D01*
X149326600Y-97495973D01*
X149326600Y-97576027D01*
X149342218Y-97654542D01*
X149372853Y-97728502D01*
X149417329Y-97795065D01*
X149473935Y-97851671D01*
X149540498Y-97896147D01*
X149614458Y-97926782D01*
X149692973Y-97942400D01*
X149773027Y-97942400D01*
X149851542Y-97926782D01*
X149925502Y-97896147D01*
X149992065Y-97851671D01*
X150048671Y-97795065D01*
X150093147Y-97728502D01*
X150123782Y-97654542D01*
X150139400Y-97576027D01*
X150139400Y-97495973D01*
X150123782Y-97417458D01*
X150114220Y-97394373D01*
X152806400Y-97394373D01*
X152806400Y-97474427D01*
X152822018Y-97552942D01*
X152852653Y-97626902D01*
X152897129Y-97693465D01*
X152953735Y-97750071D01*
X153020298Y-97794547D01*
X153094258Y-97825182D01*
X153172773Y-97840800D01*
X153252827Y-97840800D01*
X153331342Y-97825182D01*
X153405302Y-97794547D01*
X153471865Y-97750071D01*
X153528471Y-97693465D01*
X153572947Y-97626902D01*
X153603582Y-97552942D01*
X153619200Y-97474427D01*
X153619200Y-97394373D01*
X153603582Y-97315858D01*
X153572947Y-97241898D01*
X153528471Y-97175335D01*
X153471865Y-97118729D01*
X153405302Y-97074253D01*
X153331342Y-97043618D01*
X153252827Y-97028000D01*
X153172773Y-97028000D01*
X153094258Y-97043618D01*
X153020298Y-97074253D01*
X152953735Y-97118729D01*
X152897129Y-97175335D01*
X152852653Y-97241898D01*
X152822018Y-97315858D01*
X152806400Y-97394373D01*
X150114220Y-97394373D01*
X150093147Y-97343498D01*
X150048671Y-97276935D01*
X149992065Y-97220329D01*
X149925502Y-97175853D01*
X149851542Y-97145218D01*
X149773027Y-97129600D01*
X149692973Y-97129600D01*
X149614458Y-97145218D01*
X149540498Y-97175853D01*
X149473935Y-97220329D01*
X149417329Y-97276935D01*
X149372853Y-97343498D01*
X149342218Y-97417458D01*
X149326600Y-97495973D01*
X148488400Y-97495973D01*
X148472782Y-97417458D01*
X148442147Y-97343498D01*
X148397671Y-97276935D01*
X148341065Y-97220329D01*
X148274502Y-97175853D01*
X148200542Y-97145218D01*
X148122027Y-97129600D01*
X148041973Y-97129600D01*
X147963458Y-97145218D01*
X147889498Y-97175853D01*
X147822935Y-97220329D01*
X147766329Y-97276935D01*
X147721853Y-97343498D01*
X147691218Y-97417458D01*
X147675600Y-97495973D01*
X138353800Y-97495973D01*
X138353800Y-96926771D01*
X163564200Y-96926771D01*
X163564200Y-97129229D01*
X163603698Y-97327798D01*
X163681176Y-97514846D01*
X163793656Y-97683184D01*
X163936816Y-97826344D01*
X164105154Y-97938824D01*
X164292202Y-98016302D01*
X164490771Y-98055800D01*
X164693229Y-98055800D01*
X164891798Y-98016302D01*
X165078846Y-97938824D01*
X165247184Y-97826344D01*
X165390344Y-97683184D01*
X165502824Y-97514846D01*
X165580302Y-97327798D01*
X165619800Y-97129229D01*
X165619800Y-96926771D01*
X165580302Y-96728202D01*
X165502824Y-96541154D01*
X165390344Y-96372816D01*
X165247184Y-96229656D01*
X165078846Y-96117176D01*
X164891798Y-96039698D01*
X164693229Y-96000200D01*
X164490771Y-96000200D01*
X164292202Y-96039698D01*
X164105154Y-96117176D01*
X163936816Y-96229656D01*
X163793656Y-96372816D01*
X163681176Y-96541154D01*
X163603698Y-96728202D01*
X163564200Y-96926771D01*
X138353800Y-96926771D01*
X138353800Y-96352973D01*
X144754600Y-96352973D01*
X144754600Y-96433027D01*
X144770218Y-96511542D01*
X144800853Y-96585502D01*
X144845329Y-96652065D01*
X144901935Y-96708671D01*
X144968498Y-96753147D01*
X145042458Y-96783782D01*
X145120973Y-96799400D01*
X145201027Y-96799400D01*
X145279542Y-96783782D01*
X145353502Y-96753147D01*
X145420065Y-96708671D01*
X145476671Y-96652065D01*
X145521147Y-96585502D01*
X145551782Y-96511542D01*
X145567400Y-96433027D01*
X145567400Y-96352973D01*
X145551782Y-96274458D01*
X145521147Y-96200498D01*
X145476671Y-96133935D01*
X145420065Y-96077329D01*
X145353502Y-96032853D01*
X145279542Y-96002218D01*
X145201027Y-95986600D01*
X145120973Y-95986600D01*
X145042458Y-96002218D01*
X144968498Y-96032853D01*
X144901935Y-96077329D01*
X144845329Y-96133935D01*
X144800853Y-96200498D01*
X144770218Y-96274458D01*
X144754600Y-96352973D01*
X138353800Y-96352973D01*
X138353800Y-94547320D01*
X144782253Y-94547320D01*
X144782253Y-94627374D01*
X144797871Y-94705889D01*
X144828506Y-94779849D01*
X144872982Y-94846412D01*
X144929588Y-94903018D01*
X144996151Y-94947494D01*
X145070111Y-94978129D01*
X145148626Y-94993747D01*
X145228680Y-94993747D01*
X145307195Y-94978129D01*
X145381155Y-94947494D01*
X145447718Y-94903018D01*
X145504324Y-94846412D01*
X145548800Y-94779849D01*
X145579435Y-94705889D01*
X145595053Y-94627374D01*
X145595053Y-94547320D01*
X145579435Y-94468805D01*
X145548800Y-94394845D01*
X145543406Y-94386771D01*
X163564200Y-94386771D01*
X163564200Y-94589229D01*
X163603698Y-94787798D01*
X163681176Y-94974846D01*
X163793656Y-95143184D01*
X163936816Y-95286344D01*
X164105154Y-95398824D01*
X164292202Y-95476302D01*
X164490771Y-95515800D01*
X164693229Y-95515800D01*
X164891798Y-95476302D01*
X165078846Y-95398824D01*
X165247184Y-95286344D01*
X165390344Y-95143184D01*
X165502824Y-94974846D01*
X165580302Y-94787798D01*
X165619800Y-94589229D01*
X165619800Y-94386771D01*
X165580302Y-94188202D01*
X165502824Y-94001154D01*
X165390344Y-93832816D01*
X165247184Y-93689656D01*
X165078846Y-93577176D01*
X164891798Y-93499698D01*
X164693229Y-93460200D01*
X164490771Y-93460200D01*
X164292202Y-93499698D01*
X164105154Y-93577176D01*
X163936816Y-93689656D01*
X163793656Y-93832816D01*
X163681176Y-94001154D01*
X163603698Y-94188202D01*
X163564200Y-94386771D01*
X145543406Y-94386771D01*
X145504324Y-94328282D01*
X145447718Y-94271676D01*
X145381155Y-94227200D01*
X145307195Y-94196565D01*
X145228680Y-94180947D01*
X145148626Y-94180947D01*
X145070111Y-94196565D01*
X144996151Y-94227200D01*
X144929588Y-94271676D01*
X144872982Y-94328282D01*
X144828506Y-94394845D01*
X144797871Y-94468805D01*
X144782253Y-94547320D01*
X138353800Y-94547320D01*
X138353800Y-91780973D01*
X144805600Y-91780973D01*
X144805600Y-91861027D01*
X144821218Y-91939542D01*
X144851853Y-92013502D01*
X144896329Y-92080065D01*
X144952935Y-92136671D01*
X145019498Y-92181147D01*
X145093458Y-92211782D01*
X145171973Y-92227400D01*
X145252027Y-92227400D01*
X145330542Y-92211782D01*
X145404502Y-92181147D01*
X145471065Y-92136671D01*
X145527671Y-92080065D01*
X145572147Y-92013502D01*
X145602782Y-91939542D01*
X145618400Y-91861027D01*
X145618400Y-91846771D01*
X163564200Y-91846771D01*
X163564200Y-92049229D01*
X163603698Y-92247798D01*
X163681176Y-92434846D01*
X163793656Y-92603184D01*
X163936816Y-92746344D01*
X164105154Y-92858824D01*
X164292202Y-92936302D01*
X164490771Y-92975800D01*
X164693229Y-92975800D01*
X164891798Y-92936302D01*
X165078846Y-92858824D01*
X165247184Y-92746344D01*
X165390344Y-92603184D01*
X165502824Y-92434846D01*
X165580302Y-92247798D01*
X165619800Y-92049229D01*
X165619800Y-91846771D01*
X165580302Y-91648202D01*
X165502824Y-91461154D01*
X165390344Y-91292816D01*
X165247184Y-91149656D01*
X165078846Y-91037176D01*
X164891798Y-90959698D01*
X164693229Y-90920200D01*
X164490771Y-90920200D01*
X164292202Y-90959698D01*
X164105154Y-91037176D01*
X163936816Y-91149656D01*
X163793656Y-91292816D01*
X163681176Y-91461154D01*
X163603698Y-91648202D01*
X163564200Y-91846771D01*
X145618400Y-91846771D01*
X145618400Y-91780973D01*
X145602782Y-91702458D01*
X145572147Y-91628498D01*
X145527671Y-91561935D01*
X145471065Y-91505329D01*
X145404502Y-91460853D01*
X145330542Y-91430218D01*
X145252027Y-91414600D01*
X145171973Y-91414600D01*
X145093458Y-91430218D01*
X145019498Y-91460853D01*
X144952935Y-91505329D01*
X144896329Y-91561935D01*
X144851853Y-91628498D01*
X144821218Y-91702458D01*
X144805600Y-91780973D01*
X138353800Y-91780973D01*
X138353800Y-90828473D01*
X153073100Y-90828473D01*
X153073100Y-90908527D01*
X153088718Y-90987042D01*
X153119353Y-91061002D01*
X153163829Y-91127565D01*
X153220435Y-91184171D01*
X153286998Y-91228647D01*
X153360958Y-91259282D01*
X153439473Y-91274900D01*
X153519527Y-91274900D01*
X153598042Y-91259282D01*
X153672002Y-91228647D01*
X153738565Y-91184171D01*
X153795171Y-91127565D01*
X153839647Y-91061002D01*
X153870282Y-90987042D01*
X153885900Y-90908527D01*
X153885900Y-90828473D01*
X153870282Y-90749958D01*
X153839647Y-90675998D01*
X153795171Y-90609435D01*
X153738565Y-90552829D01*
X153672002Y-90508353D01*
X153598042Y-90477718D01*
X153519527Y-90462100D01*
X153439473Y-90462100D01*
X153360958Y-90477718D01*
X153286998Y-90508353D01*
X153220435Y-90552829D01*
X153163829Y-90609435D01*
X153119353Y-90675998D01*
X153088718Y-90749958D01*
X153073100Y-90828473D01*
X138353800Y-90828473D01*
X138353800Y-89113973D01*
X152374600Y-89113973D01*
X152374600Y-89194027D01*
X152390218Y-89272542D01*
X152420853Y-89346502D01*
X152465329Y-89413065D01*
X152521935Y-89469671D01*
X152588498Y-89514147D01*
X152662458Y-89544782D01*
X152740973Y-89560400D01*
X152821027Y-89560400D01*
X152899542Y-89544782D01*
X152973502Y-89514147D01*
X153040065Y-89469671D01*
X153096671Y-89413065D01*
X153141147Y-89346502D01*
X153157603Y-89306771D01*
X163564200Y-89306771D01*
X163564200Y-89509229D01*
X163603698Y-89707798D01*
X163681176Y-89894846D01*
X163793656Y-90063184D01*
X163936816Y-90206344D01*
X164105154Y-90318824D01*
X164292202Y-90396302D01*
X164490771Y-90435800D01*
X164693229Y-90435800D01*
X164891798Y-90396302D01*
X165078846Y-90318824D01*
X165247184Y-90206344D01*
X165390344Y-90063184D01*
X165502824Y-89894846D01*
X165580302Y-89707798D01*
X165619800Y-89509229D01*
X165619800Y-89306771D01*
X165580302Y-89108202D01*
X165502824Y-88921154D01*
X165390344Y-88752816D01*
X165247184Y-88609656D01*
X165078846Y-88497176D01*
X164891798Y-88419698D01*
X164693229Y-88380200D01*
X164490771Y-88380200D01*
X164292202Y-88419698D01*
X164105154Y-88497176D01*
X163936816Y-88609656D01*
X163793656Y-88752816D01*
X163681176Y-88921154D01*
X163603698Y-89108202D01*
X163564200Y-89306771D01*
X153157603Y-89306771D01*
X153171782Y-89272542D01*
X153187400Y-89194027D01*
X153187400Y-89113973D01*
X153171782Y-89035458D01*
X153141147Y-88961498D01*
X153096671Y-88894935D01*
X153040065Y-88838329D01*
X152973502Y-88793853D01*
X152899542Y-88763218D01*
X152821027Y-88747600D01*
X152740973Y-88747600D01*
X152662458Y-88763218D01*
X152588498Y-88793853D01*
X152521935Y-88838329D01*
X152465329Y-88894935D01*
X152420853Y-88961498D01*
X152390218Y-89035458D01*
X152374600Y-89113973D01*
X138353800Y-89113973D01*
X138353800Y-86766771D01*
X163564200Y-86766771D01*
X163564200Y-86969229D01*
X163603698Y-87167798D01*
X163681176Y-87354846D01*
X163793656Y-87523184D01*
X163936816Y-87666344D01*
X164105154Y-87778824D01*
X164292202Y-87856302D01*
X164490771Y-87895800D01*
X164693229Y-87895800D01*
X164891798Y-87856302D01*
X165078846Y-87778824D01*
X165247184Y-87666344D01*
X165390344Y-87523184D01*
X165502824Y-87354846D01*
X165580302Y-87167798D01*
X165619800Y-86969229D01*
X165619800Y-86766771D01*
X165580302Y-86568202D01*
X165502824Y-86381154D01*
X165390344Y-86212816D01*
X165247184Y-86069656D01*
X165078846Y-85957176D01*
X164891798Y-85879698D01*
X164693229Y-85840200D01*
X164490771Y-85840200D01*
X164292202Y-85879698D01*
X164105154Y-85957176D01*
X163936816Y-86069656D01*
X163793656Y-86212816D01*
X163681176Y-86381154D01*
X163603698Y-86568202D01*
X163564200Y-86766771D01*
X138353800Y-86766771D01*
X138353800Y-84226771D01*
X163564200Y-84226771D01*
X163564200Y-84429229D01*
X163603698Y-84627798D01*
X163681176Y-84814846D01*
X163793656Y-84983184D01*
X163936816Y-85126344D01*
X164105154Y-85238824D01*
X164292202Y-85316302D01*
X164490771Y-85355800D01*
X164693229Y-85355800D01*
X164891798Y-85316302D01*
X165078846Y-85238824D01*
X165247184Y-85126344D01*
X165390344Y-84983184D01*
X165502824Y-84814846D01*
X165580302Y-84627798D01*
X165619800Y-84429229D01*
X165619800Y-84226771D01*
X165580302Y-84028202D01*
X165502824Y-83841154D01*
X165390344Y-83672816D01*
X165247184Y-83529656D01*
X165078846Y-83417176D01*
X164891798Y-83339698D01*
X164693229Y-83300200D01*
X164490771Y-83300200D01*
X164292202Y-83339698D01*
X164105154Y-83417176D01*
X163936816Y-83529656D01*
X163793656Y-83672816D01*
X163681176Y-83841154D01*
X163603698Y-84028202D01*
X163564200Y-84226771D01*
X138353800Y-84226771D01*
X138353800Y-80938000D01*
X163563340Y-80938000D01*
X163563340Y-82638000D01*
X163566773Y-82672855D01*
X163576940Y-82706370D01*
X163593450Y-82737258D01*
X163615668Y-82764332D01*
X163642742Y-82786550D01*
X163673630Y-82803060D01*
X163707145Y-82813227D01*
X163742000Y-82816660D01*
X165442000Y-82816660D01*
X165476855Y-82813227D01*
X165510370Y-82803060D01*
X165541258Y-82786550D01*
X165568332Y-82764332D01*
X165590550Y-82737258D01*
X165607060Y-82706370D01*
X165617227Y-82672855D01*
X165620660Y-82638000D01*
X165620660Y-80938000D01*
X165617227Y-80903145D01*
X165607060Y-80869630D01*
X165590550Y-80838742D01*
X165568332Y-80811668D01*
X165541258Y-80789450D01*
X165510370Y-80772940D01*
X165476855Y-80762773D01*
X165442000Y-80759340D01*
X163742000Y-80759340D01*
X163707145Y-80762773D01*
X163673630Y-80772940D01*
X163642742Y-80789450D01*
X163615668Y-80811668D01*
X163593450Y-80838742D01*
X163576940Y-80869630D01*
X163566773Y-80903145D01*
X163563340Y-80938000D01*
X138353800Y-80938000D01*
X138353800Y-73075800D01*
X170129200Y-73075800D01*
X170129200Y-121869200D01*
G36*
X138379200Y-121869200D02*
G01*
X123240800Y-121869200D01*
X123240800Y-105154263D01*
X126452710Y-105154263D01*
X126702576Y-105350141D01*
X127080461Y-105496594D01*
X127479656Y-105566511D01*
X127884822Y-105557206D01*
X128280388Y-105469036D01*
X128567424Y-105350141D01*
X128817290Y-105154263D01*
X132802710Y-105154263D01*
X133052576Y-105350141D01*
X133430461Y-105496594D01*
X133829656Y-105566511D01*
X134234822Y-105557206D01*
X134630388Y-105469036D01*
X134917424Y-105350141D01*
X135167290Y-105154263D01*
X133985000Y-103971973D01*
X132802710Y-105154263D01*
X128817290Y-105154263D01*
X127635000Y-103971973D01*
X126452710Y-105154263D01*
X123240800Y-105154263D01*
X123240800Y-103349656D01*
X125573489Y-103349656D01*
X125582794Y-103754822D01*
X125670964Y-104150388D01*
X125789859Y-104437424D01*
X125985737Y-104687290D01*
X127168027Y-103505000D01*
X128101973Y-103505000D01*
X129284263Y-104687290D01*
X129480141Y-104437424D01*
X129626594Y-104059539D01*
X129696511Y-103660344D01*
X129689376Y-103349656D01*
X131923489Y-103349656D01*
X131932794Y-103754822D01*
X132020964Y-104150388D01*
X132139859Y-104437424D01*
X132335737Y-104687290D01*
X133518027Y-103505000D01*
X134451973Y-103505000D01*
X135634263Y-104687290D01*
X135830141Y-104437424D01*
X135976594Y-104059539D01*
X136046511Y-103660344D01*
X136037206Y-103255178D01*
X135949036Y-102859612D01*
X135830141Y-102572576D01*
X135634263Y-102322710D01*
X134451973Y-103505000D01*
X133518027Y-103505000D01*
X132335737Y-102322710D01*
X132139859Y-102572576D01*
X131993406Y-102950461D01*
X131923489Y-103349656D01*
X129689376Y-103349656D01*
X129687206Y-103255178D01*
X129599036Y-102859612D01*
X129480141Y-102572576D01*
X129284263Y-102322710D01*
X128101973Y-103505000D01*
X127168027Y-103505000D01*
X125985737Y-102322710D01*
X125789859Y-102572576D01*
X125643406Y-102950461D01*
X125573489Y-103349656D01*
X123240800Y-103349656D01*
X123240800Y-101855737D01*
X126452710Y-101855737D01*
X127635000Y-103038027D01*
X128817290Y-101855737D01*
X128567424Y-101659859D01*
X128189539Y-101513406D01*
X127790344Y-101443489D01*
X127385178Y-101452794D01*
X126989612Y-101540964D01*
X126702576Y-101659859D01*
X126452710Y-101855737D01*
X123240800Y-101855737D01*
X123240800Y-100139872D01*
X128879600Y-100139872D01*
X128879600Y-100520128D01*
X128953785Y-100893077D01*
X129099302Y-101244387D01*
X129310561Y-101560558D01*
X129579442Y-101829439D01*
X129895613Y-102040698D01*
X130246923Y-102186215D01*
X130619872Y-102260400D01*
X131000128Y-102260400D01*
X131373077Y-102186215D01*
X131724387Y-102040698D01*
X132001200Y-101855737D01*
X132802710Y-101855737D01*
X133985000Y-103038027D01*
X135167290Y-101855737D01*
X134917424Y-101659859D01*
X134539539Y-101513406D01*
X134140344Y-101443489D01*
X133735178Y-101452794D01*
X133339612Y-101540964D01*
X133052576Y-101659859D01*
X132802710Y-101855737D01*
X132001200Y-101855737D01*
X132040558Y-101829439D01*
X132309439Y-101560558D01*
X132520698Y-101244387D01*
X132666215Y-100893077D01*
X132740400Y-100520128D01*
X132740400Y-100139872D01*
X132666215Y-99766923D01*
X132520698Y-99415613D01*
X132309439Y-99099442D01*
X132040558Y-98830561D01*
X132001201Y-98804263D01*
X132802710Y-98804263D01*
X133052576Y-99000141D01*
X133430461Y-99146594D01*
X133829656Y-99216511D01*
X134234822Y-99207206D01*
X134630388Y-99119036D01*
X134917424Y-99000141D01*
X135167290Y-98804263D01*
X133985000Y-97621973D01*
X132802710Y-98804263D01*
X132001201Y-98804263D01*
X131724387Y-98619302D01*
X131373077Y-98473785D01*
X131000128Y-98399600D01*
X130619872Y-98399600D01*
X130246923Y-98473785D01*
X129895613Y-98619302D01*
X129579442Y-98830561D01*
X129310561Y-99099442D01*
X129099302Y-99415613D01*
X128953785Y-99766923D01*
X128879600Y-100139872D01*
X123240800Y-100139872D01*
X123240800Y-98804263D01*
X126452710Y-98804263D01*
X126702576Y-99000141D01*
X127080461Y-99146594D01*
X127479656Y-99216511D01*
X127884822Y-99207206D01*
X128280388Y-99119036D01*
X128567424Y-99000141D01*
X128817290Y-98804263D01*
X127635000Y-97621973D01*
X126452710Y-98804263D01*
X123240800Y-98804263D01*
X123240800Y-96999656D01*
X125573489Y-96999656D01*
X125582794Y-97404822D01*
X125670964Y-97800388D01*
X125789859Y-98087424D01*
X125985737Y-98337290D01*
X127168027Y-97155000D01*
X128101973Y-97155000D01*
X129284263Y-98337290D01*
X129480141Y-98087424D01*
X129626594Y-97709539D01*
X129696511Y-97310344D01*
X129689376Y-96999656D01*
X131923489Y-96999656D01*
X131932794Y-97404822D01*
X132020964Y-97800388D01*
X132139859Y-98087424D01*
X132335737Y-98337290D01*
X133518027Y-97155000D01*
X134451973Y-97155000D01*
X135634263Y-98337290D01*
X135830141Y-98087424D01*
X135976594Y-97709539D01*
X136046511Y-97310344D01*
X136037206Y-96905178D01*
X135949036Y-96509612D01*
X135830141Y-96222576D01*
X135634263Y-95972710D01*
X134451973Y-97155000D01*
X133518027Y-97155000D01*
X132335737Y-95972710D01*
X132139859Y-96222576D01*
X131993406Y-96600461D01*
X131923489Y-96999656D01*
X129689376Y-96999656D01*
X129687206Y-96905178D01*
X129599036Y-96509612D01*
X129480141Y-96222576D01*
X129284263Y-95972710D01*
X128101973Y-97155000D01*
X127168027Y-97155000D01*
X125985737Y-95972710D01*
X125789859Y-96222576D01*
X125643406Y-96600461D01*
X125573489Y-96999656D01*
X123240800Y-96999656D01*
X123240800Y-95505737D01*
X126452710Y-95505737D01*
X127635000Y-96688027D01*
X128817290Y-95505737D01*
X132802710Y-95505737D01*
X133985000Y-96688027D01*
X135167290Y-95505737D01*
X134917424Y-95309859D01*
X134539539Y-95163406D01*
X134140344Y-95093489D01*
X133735178Y-95102794D01*
X133339612Y-95190964D01*
X133052576Y-95309859D01*
X132802710Y-95505737D01*
X128817290Y-95505737D01*
X128567424Y-95309859D01*
X128189539Y-95163406D01*
X127790344Y-95093489D01*
X127385178Y-95102794D01*
X126989612Y-95190964D01*
X126702576Y-95309859D01*
X126452710Y-95505737D01*
X123240800Y-95505737D01*
X123240800Y-90714363D01*
X126452710Y-90714363D01*
X126702576Y-90910241D01*
X127080461Y-91056694D01*
X127479656Y-91126611D01*
X127884822Y-91117306D01*
X128280388Y-91029136D01*
X128567424Y-90910241D01*
X128817290Y-90714363D01*
X132802710Y-90714363D01*
X133052576Y-90910241D01*
X133430461Y-91056694D01*
X133829656Y-91126611D01*
X134234822Y-91117306D01*
X134630388Y-91029136D01*
X134917424Y-90910241D01*
X135167290Y-90714363D01*
X133985000Y-89532073D01*
X132802710Y-90714363D01*
X128817290Y-90714363D01*
X127635000Y-89532073D01*
X126452710Y-90714363D01*
X123240800Y-90714363D01*
X123240800Y-88909756D01*
X125573489Y-88909756D01*
X125582794Y-89314922D01*
X125670964Y-89710488D01*
X125789859Y-89997524D01*
X125985737Y-90247390D01*
X127168027Y-89065100D01*
X128101973Y-89065100D01*
X129284263Y-90247390D01*
X129480141Y-89997524D01*
X129626594Y-89619639D01*
X129696511Y-89220444D01*
X129689376Y-88909756D01*
X131923489Y-88909756D01*
X131932794Y-89314922D01*
X132020964Y-89710488D01*
X132139859Y-89997524D01*
X132335737Y-90247390D01*
X133518027Y-89065100D01*
X134451973Y-89065100D01*
X135634263Y-90247390D01*
X135830141Y-89997524D01*
X135976594Y-89619639D01*
X136046511Y-89220444D01*
X136037206Y-88815278D01*
X135949036Y-88419712D01*
X135830141Y-88132676D01*
X135634263Y-87882810D01*
X134451973Y-89065100D01*
X133518027Y-89065100D01*
X132335737Y-87882810D01*
X132139859Y-88132676D01*
X131993406Y-88510561D01*
X131923489Y-88909756D01*
X129689376Y-88909756D01*
X129687206Y-88815278D01*
X129599036Y-88419712D01*
X129480141Y-88132676D01*
X129284263Y-87882810D01*
X128101973Y-89065100D01*
X127168027Y-89065100D01*
X125985737Y-87882810D01*
X125789859Y-88132676D01*
X125643406Y-88510561D01*
X125573489Y-88909756D01*
X123240800Y-88909756D01*
X123240800Y-87415837D01*
X126452710Y-87415837D01*
X127635000Y-88598127D01*
X128817290Y-87415837D01*
X128567424Y-87219959D01*
X128189539Y-87073506D01*
X127790344Y-87003589D01*
X127385178Y-87012894D01*
X126989612Y-87101064D01*
X126702576Y-87219959D01*
X126452710Y-87415837D01*
X123240800Y-87415837D01*
X123240800Y-85699972D01*
X128879600Y-85699972D01*
X128879600Y-86080228D01*
X128953785Y-86453177D01*
X129099302Y-86804487D01*
X129310561Y-87120658D01*
X129579442Y-87389539D01*
X129895613Y-87600798D01*
X130246923Y-87746315D01*
X130619872Y-87820500D01*
X131000128Y-87820500D01*
X131373077Y-87746315D01*
X131724387Y-87600798D01*
X132001200Y-87415837D01*
X132802710Y-87415837D01*
X133985000Y-88598127D01*
X135167290Y-87415837D01*
X134917424Y-87219959D01*
X134539539Y-87073506D01*
X134140344Y-87003589D01*
X133735178Y-87012894D01*
X133339612Y-87101064D01*
X133052576Y-87219959D01*
X132802710Y-87415837D01*
X132001200Y-87415837D01*
X132040558Y-87389539D01*
X132309439Y-87120658D01*
X132520698Y-86804487D01*
X132666215Y-86453177D01*
X132740400Y-86080228D01*
X132740400Y-85699972D01*
X132666215Y-85327023D01*
X132520698Y-84975713D01*
X132309439Y-84659542D01*
X132040558Y-84390661D01*
X132001201Y-84364363D01*
X132802710Y-84364363D01*
X133052576Y-84560241D01*
X133430461Y-84706694D01*
X133829656Y-84776611D01*
X134234822Y-84767306D01*
X134630388Y-84679136D01*
X134917424Y-84560241D01*
X135167290Y-84364363D01*
X133985000Y-83182073D01*
X132802710Y-84364363D01*
X132001201Y-84364363D01*
X131724387Y-84179402D01*
X131373077Y-84033885D01*
X131000128Y-83959700D01*
X130619872Y-83959700D01*
X130246923Y-84033885D01*
X129895613Y-84179402D01*
X129579442Y-84390661D01*
X129310561Y-84659542D01*
X129099302Y-84975713D01*
X128953785Y-85327023D01*
X128879600Y-85699972D01*
X123240800Y-85699972D01*
X123240800Y-84364363D01*
X126452710Y-84364363D01*
X126702576Y-84560241D01*
X127080461Y-84706694D01*
X127479656Y-84776611D01*
X127884822Y-84767306D01*
X128280388Y-84679136D01*
X128567424Y-84560241D01*
X128817290Y-84364363D01*
X127635000Y-83182073D01*
X126452710Y-84364363D01*
X123240800Y-84364363D01*
X123240800Y-82559756D01*
X125573489Y-82559756D01*
X125582794Y-82964922D01*
X125670964Y-83360488D01*
X125789859Y-83647524D01*
X125985737Y-83897390D01*
X127168027Y-82715100D01*
X128101973Y-82715100D01*
X129284263Y-83897390D01*
X129480141Y-83647524D01*
X129626594Y-83269639D01*
X129696511Y-82870444D01*
X129689376Y-82559756D01*
X131923489Y-82559756D01*
X131932794Y-82964922D01*
X132020964Y-83360488D01*
X132139859Y-83647524D01*
X132335737Y-83897390D01*
X133518027Y-82715100D01*
X134451973Y-82715100D01*
X135634263Y-83897390D01*
X135830141Y-83647524D01*
X135976594Y-83269639D01*
X136046511Y-82870444D01*
X136037206Y-82465278D01*
X135949036Y-82069712D01*
X135830141Y-81782676D01*
X135634263Y-81532810D01*
X134451973Y-82715100D01*
X133518027Y-82715100D01*
X132335737Y-81532810D01*
X132139859Y-81782676D01*
X131993406Y-82160561D01*
X131923489Y-82559756D01*
X129689376Y-82559756D01*
X129687206Y-82465278D01*
X129599036Y-82069712D01*
X129480141Y-81782676D01*
X129284263Y-81532810D01*
X128101973Y-82715100D01*
X127168027Y-82715100D01*
X125985737Y-81532810D01*
X125789859Y-81782676D01*
X125643406Y-82160561D01*
X125573489Y-82559756D01*
X123240800Y-82559756D01*
X123240800Y-81065837D01*
X126452710Y-81065837D01*
X127635000Y-82248127D01*
X128817290Y-81065837D01*
X132802710Y-81065837D01*
X133985000Y-82248127D01*
X135167290Y-81065837D01*
X134917424Y-80869959D01*
X134539539Y-80723506D01*
X134140344Y-80653589D01*
X133735178Y-80662894D01*
X133339612Y-80751064D01*
X133052576Y-80869959D01*
X132802710Y-81065837D01*
X128817290Y-81065837D01*
X128567424Y-80869959D01*
X128189539Y-80723506D01*
X127790344Y-80653589D01*
X127385178Y-80662894D01*
X126989612Y-80751064D01*
X126702576Y-80869959D01*
X126452710Y-81065837D01*
X123240800Y-81065837D01*
X123240800Y-73075800D01*
X138379200Y-73075800D01*
X138379200Y-121869200D01*
G37*
X138379200Y-121869200D02*
X123240800Y-121869200D01*
X123240800Y-105154263D01*
X126452710Y-105154263D01*
X126702576Y-105350141D01*
X127080461Y-105496594D01*
X127479656Y-105566511D01*
X127884822Y-105557206D01*
X128280388Y-105469036D01*
X128567424Y-105350141D01*
X128817290Y-105154263D01*
X132802710Y-105154263D01*
X133052576Y-105350141D01*
X133430461Y-105496594D01*
X133829656Y-105566511D01*
X134234822Y-105557206D01*
X134630388Y-105469036D01*
X134917424Y-105350141D01*
X135167290Y-105154263D01*
X133985000Y-103971973D01*
X132802710Y-105154263D01*
X128817290Y-105154263D01*
X127635000Y-103971973D01*
X126452710Y-105154263D01*
X123240800Y-105154263D01*
X123240800Y-103349656D01*
X125573489Y-103349656D01*
X125582794Y-103754822D01*
X125670964Y-104150388D01*
X125789859Y-104437424D01*
X125985737Y-104687290D01*
X127168027Y-103505000D01*
X128101973Y-103505000D01*
X129284263Y-104687290D01*
X129480141Y-104437424D01*
X129626594Y-104059539D01*
X129696511Y-103660344D01*
X129689376Y-103349656D01*
X131923489Y-103349656D01*
X131932794Y-103754822D01*
X132020964Y-104150388D01*
X132139859Y-104437424D01*
X132335737Y-104687290D01*
X133518027Y-103505000D01*
X134451973Y-103505000D01*
X135634263Y-104687290D01*
X135830141Y-104437424D01*
X135976594Y-104059539D01*
X136046511Y-103660344D01*
X136037206Y-103255178D01*
X135949036Y-102859612D01*
X135830141Y-102572576D01*
X135634263Y-102322710D01*
X134451973Y-103505000D01*
X133518027Y-103505000D01*
X132335737Y-102322710D01*
X132139859Y-102572576D01*
X131993406Y-102950461D01*
X131923489Y-103349656D01*
X129689376Y-103349656D01*
X129687206Y-103255178D01*
X129599036Y-102859612D01*
X129480141Y-102572576D01*
X129284263Y-102322710D01*
X128101973Y-103505000D01*
X127168027Y-103505000D01*
X125985737Y-102322710D01*
X125789859Y-102572576D01*
X125643406Y-102950461D01*
X125573489Y-103349656D01*
X123240800Y-103349656D01*
X123240800Y-101855737D01*
X126452710Y-101855737D01*
X127635000Y-103038027D01*
X128817290Y-101855737D01*
X128567424Y-101659859D01*
X128189539Y-101513406D01*
X127790344Y-101443489D01*
X127385178Y-101452794D01*
X126989612Y-101540964D01*
X126702576Y-101659859D01*
X126452710Y-101855737D01*
X123240800Y-101855737D01*
X123240800Y-100139872D01*
X128879600Y-100139872D01*
X128879600Y-100520128D01*
X128953785Y-100893077D01*
X129099302Y-101244387D01*
X129310561Y-101560558D01*
X129579442Y-101829439D01*
X129895613Y-102040698D01*
X130246923Y-102186215D01*
X130619872Y-102260400D01*
X131000128Y-102260400D01*
X131373077Y-102186215D01*
X131724387Y-102040698D01*
X132001200Y-101855737D01*
X132802710Y-101855737D01*
X133985000Y-103038027D01*
X135167290Y-101855737D01*
X134917424Y-101659859D01*
X134539539Y-101513406D01*
X134140344Y-101443489D01*
X133735178Y-101452794D01*
X133339612Y-101540964D01*
X133052576Y-101659859D01*
X132802710Y-101855737D01*
X132001200Y-101855737D01*
X132040558Y-101829439D01*
X132309439Y-101560558D01*
X132520698Y-101244387D01*
X132666215Y-100893077D01*
X132740400Y-100520128D01*
X132740400Y-100139872D01*
X132666215Y-99766923D01*
X132520698Y-99415613D01*
X132309439Y-99099442D01*
X132040558Y-98830561D01*
X132001201Y-98804263D01*
X132802710Y-98804263D01*
X133052576Y-99000141D01*
X133430461Y-99146594D01*
X133829656Y-99216511D01*
X134234822Y-99207206D01*
X134630388Y-99119036D01*
X134917424Y-99000141D01*
X135167290Y-98804263D01*
X133985000Y-97621973D01*
X132802710Y-98804263D01*
X132001201Y-98804263D01*
X131724387Y-98619302D01*
X131373077Y-98473785D01*
X131000128Y-98399600D01*
X130619872Y-98399600D01*
X130246923Y-98473785D01*
X129895613Y-98619302D01*
X129579442Y-98830561D01*
X129310561Y-99099442D01*
X129099302Y-99415613D01*
X128953785Y-99766923D01*
X128879600Y-100139872D01*
X123240800Y-100139872D01*
X123240800Y-98804263D01*
X126452710Y-98804263D01*
X126702576Y-99000141D01*
X127080461Y-99146594D01*
X127479656Y-99216511D01*
X127884822Y-99207206D01*
X128280388Y-99119036D01*
X128567424Y-99000141D01*
X128817290Y-98804263D01*
X127635000Y-97621973D01*
X126452710Y-98804263D01*
X123240800Y-98804263D01*
X123240800Y-96999656D01*
X125573489Y-96999656D01*
X125582794Y-97404822D01*
X125670964Y-97800388D01*
X125789859Y-98087424D01*
X125985737Y-98337290D01*
X127168027Y-97155000D01*
X128101973Y-97155000D01*
X129284263Y-98337290D01*
X129480141Y-98087424D01*
X129626594Y-97709539D01*
X129696511Y-97310344D01*
X129689376Y-96999656D01*
X131923489Y-96999656D01*
X131932794Y-97404822D01*
X132020964Y-97800388D01*
X132139859Y-98087424D01*
X132335737Y-98337290D01*
X133518027Y-97155000D01*
X134451973Y-97155000D01*
X135634263Y-98337290D01*
X135830141Y-98087424D01*
X135976594Y-97709539D01*
X136046511Y-97310344D01*
X136037206Y-96905178D01*
X135949036Y-96509612D01*
X135830141Y-96222576D01*
X135634263Y-95972710D01*
X134451973Y-97155000D01*
X133518027Y-97155000D01*
X132335737Y-95972710D01*
X132139859Y-96222576D01*
X131993406Y-96600461D01*
X131923489Y-96999656D01*
X129689376Y-96999656D01*
X129687206Y-96905178D01*
X129599036Y-96509612D01*
X129480141Y-96222576D01*
X129284263Y-95972710D01*
X128101973Y-97155000D01*
X127168027Y-97155000D01*
X125985737Y-95972710D01*
X125789859Y-96222576D01*
X125643406Y-96600461D01*
X125573489Y-96999656D01*
X123240800Y-96999656D01*
X123240800Y-95505737D01*
X126452710Y-95505737D01*
X127635000Y-96688027D01*
X128817290Y-95505737D01*
X132802710Y-95505737D01*
X133985000Y-96688027D01*
X135167290Y-95505737D01*
X134917424Y-95309859D01*
X134539539Y-95163406D01*
X134140344Y-95093489D01*
X133735178Y-95102794D01*
X133339612Y-95190964D01*
X133052576Y-95309859D01*
X132802710Y-95505737D01*
X128817290Y-95505737D01*
X128567424Y-95309859D01*
X128189539Y-95163406D01*
X127790344Y-95093489D01*
X127385178Y-95102794D01*
X126989612Y-95190964D01*
X126702576Y-95309859D01*
X126452710Y-95505737D01*
X123240800Y-95505737D01*
X123240800Y-90714363D01*
X126452710Y-90714363D01*
X126702576Y-90910241D01*
X127080461Y-91056694D01*
X127479656Y-91126611D01*
X127884822Y-91117306D01*
X128280388Y-91029136D01*
X128567424Y-90910241D01*
X128817290Y-90714363D01*
X132802710Y-90714363D01*
X133052576Y-90910241D01*
X133430461Y-91056694D01*
X133829656Y-91126611D01*
X134234822Y-91117306D01*
X134630388Y-91029136D01*
X134917424Y-90910241D01*
X135167290Y-90714363D01*
X133985000Y-89532073D01*
X132802710Y-90714363D01*
X128817290Y-90714363D01*
X127635000Y-89532073D01*
X126452710Y-90714363D01*
X123240800Y-90714363D01*
X123240800Y-88909756D01*
X125573489Y-88909756D01*
X125582794Y-89314922D01*
X125670964Y-89710488D01*
X125789859Y-89997524D01*
X125985737Y-90247390D01*
X127168027Y-89065100D01*
X128101973Y-89065100D01*
X129284263Y-90247390D01*
X129480141Y-89997524D01*
X129626594Y-89619639D01*
X129696511Y-89220444D01*
X129689376Y-88909756D01*
X131923489Y-88909756D01*
X131932794Y-89314922D01*
X132020964Y-89710488D01*
X132139859Y-89997524D01*
X132335737Y-90247390D01*
X133518027Y-89065100D01*
X134451973Y-89065100D01*
X135634263Y-90247390D01*
X135830141Y-89997524D01*
X135976594Y-89619639D01*
X136046511Y-89220444D01*
X136037206Y-88815278D01*
X135949036Y-88419712D01*
X135830141Y-88132676D01*
X135634263Y-87882810D01*
X134451973Y-89065100D01*
X133518027Y-89065100D01*
X132335737Y-87882810D01*
X132139859Y-88132676D01*
X131993406Y-88510561D01*
X131923489Y-88909756D01*
X129689376Y-88909756D01*
X129687206Y-88815278D01*
X129599036Y-88419712D01*
X129480141Y-88132676D01*
X129284263Y-87882810D01*
X128101973Y-89065100D01*
X127168027Y-89065100D01*
X125985737Y-87882810D01*
X125789859Y-88132676D01*
X125643406Y-88510561D01*
X125573489Y-88909756D01*
X123240800Y-88909756D01*
X123240800Y-87415837D01*
X126452710Y-87415837D01*
X127635000Y-88598127D01*
X128817290Y-87415837D01*
X128567424Y-87219959D01*
X128189539Y-87073506D01*
X127790344Y-87003589D01*
X127385178Y-87012894D01*
X126989612Y-87101064D01*
X126702576Y-87219959D01*
X126452710Y-87415837D01*
X123240800Y-87415837D01*
X123240800Y-85699972D01*
X128879600Y-85699972D01*
X128879600Y-86080228D01*
X128953785Y-86453177D01*
X129099302Y-86804487D01*
X129310561Y-87120658D01*
X129579442Y-87389539D01*
X129895613Y-87600798D01*
X130246923Y-87746315D01*
X130619872Y-87820500D01*
X131000128Y-87820500D01*
X131373077Y-87746315D01*
X131724387Y-87600798D01*
X132001200Y-87415837D01*
X132802710Y-87415837D01*
X133985000Y-88598127D01*
X135167290Y-87415837D01*
X134917424Y-87219959D01*
X134539539Y-87073506D01*
X134140344Y-87003589D01*
X133735178Y-87012894D01*
X133339612Y-87101064D01*
X133052576Y-87219959D01*
X132802710Y-87415837D01*
X132001200Y-87415837D01*
X132040558Y-87389539D01*
X132309439Y-87120658D01*
X132520698Y-86804487D01*
X132666215Y-86453177D01*
X132740400Y-86080228D01*
X132740400Y-85699972D01*
X132666215Y-85327023D01*
X132520698Y-84975713D01*
X132309439Y-84659542D01*
X132040558Y-84390661D01*
X132001201Y-84364363D01*
X132802710Y-84364363D01*
X133052576Y-84560241D01*
X133430461Y-84706694D01*
X133829656Y-84776611D01*
X134234822Y-84767306D01*
X134630388Y-84679136D01*
X134917424Y-84560241D01*
X135167290Y-84364363D01*
X133985000Y-83182073D01*
X132802710Y-84364363D01*
X132001201Y-84364363D01*
X131724387Y-84179402D01*
X131373077Y-84033885D01*
X131000128Y-83959700D01*
X130619872Y-83959700D01*
X130246923Y-84033885D01*
X129895613Y-84179402D01*
X129579442Y-84390661D01*
X129310561Y-84659542D01*
X129099302Y-84975713D01*
X128953785Y-85327023D01*
X128879600Y-85699972D01*
X123240800Y-85699972D01*
X123240800Y-84364363D01*
X126452710Y-84364363D01*
X126702576Y-84560241D01*
X127080461Y-84706694D01*
X127479656Y-84776611D01*
X127884822Y-84767306D01*
X128280388Y-84679136D01*
X128567424Y-84560241D01*
X128817290Y-84364363D01*
X127635000Y-83182073D01*
X126452710Y-84364363D01*
X123240800Y-84364363D01*
X123240800Y-82559756D01*
X125573489Y-82559756D01*
X125582794Y-82964922D01*
X125670964Y-83360488D01*
X125789859Y-83647524D01*
X125985737Y-83897390D01*
X127168027Y-82715100D01*
X128101973Y-82715100D01*
X129284263Y-83897390D01*
X129480141Y-83647524D01*
X129626594Y-83269639D01*
X129696511Y-82870444D01*
X129689376Y-82559756D01*
X131923489Y-82559756D01*
X131932794Y-82964922D01*
X132020964Y-83360488D01*
X132139859Y-83647524D01*
X132335737Y-83897390D01*
X133518027Y-82715100D01*
X134451973Y-82715100D01*
X135634263Y-83897390D01*
X135830141Y-83647524D01*
X135976594Y-83269639D01*
X136046511Y-82870444D01*
X136037206Y-82465278D01*
X135949036Y-82069712D01*
X135830141Y-81782676D01*
X135634263Y-81532810D01*
X134451973Y-82715100D01*
X133518027Y-82715100D01*
X132335737Y-81532810D01*
X132139859Y-81782676D01*
X131993406Y-82160561D01*
X131923489Y-82559756D01*
X129689376Y-82559756D01*
X129687206Y-82465278D01*
X129599036Y-82069712D01*
X129480141Y-81782676D01*
X129284263Y-81532810D01*
X128101973Y-82715100D01*
X127168027Y-82715100D01*
X125985737Y-81532810D01*
X125789859Y-81782676D01*
X125643406Y-82160561D01*
X125573489Y-82559756D01*
X123240800Y-82559756D01*
X123240800Y-81065837D01*
X126452710Y-81065837D01*
X127635000Y-82248127D01*
X128817290Y-81065837D01*
X132802710Y-81065837D01*
X133985000Y-82248127D01*
X135167290Y-81065837D01*
X134917424Y-80869959D01*
X134539539Y-80723506D01*
X134140344Y-80653589D01*
X133735178Y-80662894D01*
X133339612Y-80751064D01*
X133052576Y-80869959D01*
X132802710Y-81065837D01*
X128817290Y-81065837D01*
X128567424Y-80869959D01*
X128189539Y-80723506D01*
X127790344Y-80653589D01*
X127385178Y-80662894D01*
X126989612Y-80751064D01*
X126702576Y-80869959D01*
X126452710Y-81065837D01*
X123240800Y-81065837D01*
X123240800Y-73075800D01*
X138379200Y-73075800D01*
X138379200Y-121869200D01*
G04 #@! TD*
M02*
