G04 #@! TF.GenerationSoftware,KiCad,Pcbnew,(5.1.6)-1*
G04 #@! TF.CreationDate,2020-10-21T16:53:57-04:00*
G04 #@! TF.ProjectId,SAR_pcb,5341525f-7063-4622-9e6b-696361645f70,rev?*
G04 #@! TF.SameCoordinates,Original*
G04 #@! TF.FileFunction,Soldermask,Top*
G04 #@! TF.FilePolarity,Negative*
%FSLAX46Y46*%
G04 Gerber Fmt 4.6, Leading zero omitted, Abs format (unit mm)*
G04 Created by KiCad (PCBNEW (5.1.6)-1) date 2020-10-21 16:53:57*
%MOMM*%
%LPD*%
G01*
G04 APERTURE LIST*
%ADD10R,2.386000X5.942000*%
%ADD11R,0.241224X5.942000*%
%ADD12C,3.100000*%
%ADD13C,3.910000*%
%ADD14C,3.656000*%
%ADD15R,1.800000X1.800000*%
%ADD16O,1.800000X1.800000*%
%ADD17R,1.700000X1.700000*%
%ADD18O,1.700000X1.700000*%
G04 APERTURE END LIST*
G04 #@! TO.C,R7*
G36*
G01*
X141708450Y-93019700D02*
X141145950Y-93019700D01*
G75*
G02*
X140902200Y-92775950I0J243750D01*
G01*
X140902200Y-92288450D01*
G75*
G02*
X141145950Y-92044700I243750J0D01*
G01*
X141708450Y-92044700D01*
G75*
G02*
X141952200Y-92288450I0J-243750D01*
G01*
X141952200Y-92775950D01*
G75*
G02*
X141708450Y-93019700I-243750J0D01*
G01*
G37*
G36*
G01*
X141708450Y-94594700D02*
X141145950Y-94594700D01*
G75*
G02*
X140902200Y-94350950I0J243750D01*
G01*
X140902200Y-93863450D01*
G75*
G02*
X141145950Y-93619700I243750J0D01*
G01*
X141708450Y-93619700D01*
G75*
G02*
X141952200Y-93863450I0J-243750D01*
G01*
X141952200Y-94350950D01*
G75*
G02*
X141708450Y-94594700I-243750J0D01*
G01*
G37*
G04 #@! TD*
G04 #@! TO.C,R5*
G36*
G01*
X147347250Y-88066500D02*
X146784750Y-88066500D01*
G75*
G02*
X146541000Y-87822750I0J243750D01*
G01*
X146541000Y-87335250D01*
G75*
G02*
X146784750Y-87091500I243750J0D01*
G01*
X147347250Y-87091500D01*
G75*
G02*
X147591000Y-87335250I0J-243750D01*
G01*
X147591000Y-87822750D01*
G75*
G02*
X147347250Y-88066500I-243750J0D01*
G01*
G37*
G36*
G01*
X147347250Y-89641500D02*
X146784750Y-89641500D01*
G75*
G02*
X146541000Y-89397750I0J243750D01*
G01*
X146541000Y-88910250D01*
G75*
G02*
X146784750Y-88666500I243750J0D01*
G01*
X147347250Y-88666500D01*
G75*
G02*
X147591000Y-88910250I0J-243750D01*
G01*
X147591000Y-89397750D01*
G75*
G02*
X147347250Y-89641500I-243750J0D01*
G01*
G37*
G04 #@! TD*
G04 #@! TO.C,R4*
G36*
G01*
X145133750Y-88666500D02*
X145696250Y-88666500D01*
G75*
G02*
X145940000Y-88910250I0J-243750D01*
G01*
X145940000Y-89397750D01*
G75*
G02*
X145696250Y-89641500I-243750J0D01*
G01*
X145133750Y-89641500D01*
G75*
G02*
X144890000Y-89397750I0J243750D01*
G01*
X144890000Y-88910250D01*
G75*
G02*
X145133750Y-88666500I243750J0D01*
G01*
G37*
G36*
G01*
X145133750Y-87091500D02*
X145696250Y-87091500D01*
G75*
G02*
X145940000Y-87335250I0J-243750D01*
G01*
X145940000Y-87822750D01*
G75*
G02*
X145696250Y-88066500I-243750J0D01*
G01*
X145133750Y-88066500D01*
G75*
G02*
X144890000Y-87822750I0J243750D01*
G01*
X144890000Y-87335250D01*
G75*
G02*
X145133750Y-87091500I243750J0D01*
G01*
G37*
G04 #@! TD*
G04 #@! TO.C,R3*
G36*
G01*
X150668000Y-87784250D02*
X150668000Y-87221750D01*
G75*
G02*
X150911750Y-86978000I243750J0D01*
G01*
X151399250Y-86978000D01*
G75*
G02*
X151643000Y-87221750I0J-243750D01*
G01*
X151643000Y-87784250D01*
G75*
G02*
X151399250Y-88028000I-243750J0D01*
G01*
X150911750Y-88028000D01*
G75*
G02*
X150668000Y-87784250I0J243750D01*
G01*
G37*
G36*
G01*
X149093000Y-87784250D02*
X149093000Y-87221750D01*
G75*
G02*
X149336750Y-86978000I243750J0D01*
G01*
X149824250Y-86978000D01*
G75*
G02*
X150068000Y-87221750I0J-243750D01*
G01*
X150068000Y-87784250D01*
G75*
G02*
X149824250Y-88028000I-243750J0D01*
G01*
X149336750Y-88028000D01*
G75*
G02*
X149093000Y-87784250I0J243750D01*
G01*
G37*
G04 #@! TD*
G04 #@! TO.C,R2*
G36*
G01*
X153817500Y-87784250D02*
X153817500Y-87221750D01*
G75*
G02*
X154061250Y-86978000I243750J0D01*
G01*
X154548750Y-86978000D01*
G75*
G02*
X154792500Y-87221750I0J-243750D01*
G01*
X154792500Y-87784250D01*
G75*
G02*
X154548750Y-88028000I-243750J0D01*
G01*
X154061250Y-88028000D01*
G75*
G02*
X153817500Y-87784250I0J243750D01*
G01*
G37*
G36*
G01*
X152242500Y-87784250D02*
X152242500Y-87221750D01*
G75*
G02*
X152486250Y-86978000I243750J0D01*
G01*
X152973750Y-86978000D01*
G75*
G02*
X153217500Y-87221750I0J-243750D01*
G01*
X153217500Y-87784250D01*
G75*
G02*
X152973750Y-88028000I-243750J0D01*
G01*
X152486250Y-88028000D01*
G75*
G02*
X152242500Y-87784250I0J243750D01*
G01*
G37*
G04 #@! TD*
G04 #@! TO.C,R1*
G36*
G01*
X149730500Y-89435250D02*
X149730500Y-88872750D01*
G75*
G02*
X149974250Y-88629000I243750J0D01*
G01*
X150461750Y-88629000D01*
G75*
G02*
X150705500Y-88872750I0J-243750D01*
G01*
X150705500Y-89435250D01*
G75*
G02*
X150461750Y-89679000I-243750J0D01*
G01*
X149974250Y-89679000D01*
G75*
G02*
X149730500Y-89435250I0J243750D01*
G01*
G37*
G36*
G01*
X148155500Y-89435250D02*
X148155500Y-88872750D01*
G75*
G02*
X148399250Y-88629000I243750J0D01*
G01*
X148886750Y-88629000D01*
G75*
G02*
X149130500Y-88872750I0J-243750D01*
G01*
X149130500Y-89435250D01*
G75*
G02*
X148886750Y-89679000I-243750J0D01*
G01*
X148399250Y-89679000D01*
G75*
G02*
X148155500Y-89435250I0J243750D01*
G01*
G37*
G04 #@! TD*
G04 #@! TO.C,L2*
G36*
G01*
X142676500Y-88872750D02*
X142676500Y-89435250D01*
G75*
G02*
X142432750Y-89679000I-243750J0D01*
G01*
X141945250Y-89679000D01*
G75*
G02*
X141701500Y-89435250I0J243750D01*
G01*
X141701500Y-88872750D01*
G75*
G02*
X141945250Y-88629000I243750J0D01*
G01*
X142432750Y-88629000D01*
G75*
G02*
X142676500Y-88872750I0J-243750D01*
G01*
G37*
G36*
G01*
X144251500Y-88872750D02*
X144251500Y-89435250D01*
G75*
G02*
X144007750Y-89679000I-243750J0D01*
G01*
X143520250Y-89679000D01*
G75*
G02*
X143276500Y-89435250I0J243750D01*
G01*
X143276500Y-88872750D01*
G75*
G02*
X143520250Y-88629000I243750J0D01*
G01*
X144007750Y-88629000D01*
G75*
G02*
X144251500Y-88872750I0J-243750D01*
G01*
G37*
G04 #@! TD*
G04 #@! TO.C,C21*
G36*
G01*
X149451750Y-98623500D02*
X150014250Y-98623500D01*
G75*
G02*
X150258000Y-98867250I0J-243750D01*
G01*
X150258000Y-99354750D01*
G75*
G02*
X150014250Y-99598500I-243750J0D01*
G01*
X149451750Y-99598500D01*
G75*
G02*
X149208000Y-99354750I0J243750D01*
G01*
X149208000Y-98867250D01*
G75*
G02*
X149451750Y-98623500I243750J0D01*
G01*
G37*
G36*
G01*
X149451750Y-97048500D02*
X150014250Y-97048500D01*
G75*
G02*
X150258000Y-97292250I0J-243750D01*
G01*
X150258000Y-97779750D01*
G75*
G02*
X150014250Y-98023500I-243750J0D01*
G01*
X149451750Y-98023500D01*
G75*
G02*
X149208000Y-97779750I0J243750D01*
G01*
X149208000Y-97292250D01*
G75*
G02*
X149451750Y-97048500I243750J0D01*
G01*
G37*
G04 #@! TD*
G04 #@! TO.C,C20*
G36*
G01*
X153782906Y-98402253D02*
X154180654Y-98004506D01*
G75*
G02*
X154525368Y-98004506I172357J-172357D01*
G01*
X154870082Y-98349220D01*
G75*
G02*
X154870082Y-98693934I-172357J-172357D01*
G01*
X154472334Y-99091682D01*
G75*
G02*
X154127620Y-99091682I-172357J172357D01*
G01*
X153782906Y-98746968D01*
G75*
G02*
X153782906Y-98402254I172357J172357D01*
G01*
G37*
G36*
G01*
X152669212Y-97288559D02*
X153066960Y-96890812D01*
G75*
G02*
X153411674Y-96890812I172357J-172357D01*
G01*
X153756388Y-97235526D01*
G75*
G02*
X153756388Y-97580240I-172357J-172357D01*
G01*
X153358640Y-97977988D01*
G75*
G02*
X153013926Y-97977988I-172357J172357D01*
G01*
X152669212Y-97633274D01*
G75*
G02*
X152669212Y-97288560I172357J172357D01*
G01*
G37*
G04 #@! TD*
G04 #@! TO.C,C19*
G36*
G01*
X147800750Y-98623500D02*
X148363250Y-98623500D01*
G75*
G02*
X148607000Y-98867250I0J-243750D01*
G01*
X148607000Y-99354750D01*
G75*
G02*
X148363250Y-99598500I-243750J0D01*
G01*
X147800750Y-99598500D01*
G75*
G02*
X147557000Y-99354750I0J243750D01*
G01*
X147557000Y-98867250D01*
G75*
G02*
X147800750Y-98623500I243750J0D01*
G01*
G37*
G36*
G01*
X147800750Y-97048500D02*
X148363250Y-97048500D01*
G75*
G02*
X148607000Y-97292250I0J-243750D01*
G01*
X148607000Y-97779750D01*
G75*
G02*
X148363250Y-98023500I-243750J0D01*
G01*
X147800750Y-98023500D01*
G75*
G02*
X147557000Y-97779750I0J243750D01*
G01*
X147557000Y-97292250D01*
G75*
G02*
X147800750Y-97048500I243750J0D01*
G01*
G37*
G04 #@! TD*
G04 #@! TO.C,C18*
G36*
G01*
X144073500Y-96111750D02*
X144073500Y-96674250D01*
G75*
G02*
X143829750Y-96918000I-243750J0D01*
G01*
X143342250Y-96918000D01*
G75*
G02*
X143098500Y-96674250I0J243750D01*
G01*
X143098500Y-96111750D01*
G75*
G02*
X143342250Y-95868000I243750J0D01*
G01*
X143829750Y-95868000D01*
G75*
G02*
X144073500Y-96111750I0J-243750D01*
G01*
G37*
G36*
G01*
X145648500Y-96111750D02*
X145648500Y-96674250D01*
G75*
G02*
X145404750Y-96918000I-243750J0D01*
G01*
X144917250Y-96918000D01*
G75*
G02*
X144673500Y-96674250I0J243750D01*
G01*
X144673500Y-96111750D01*
G75*
G02*
X144917250Y-95868000I243750J0D01*
G01*
X145404750Y-95868000D01*
G75*
G02*
X145648500Y-96111750I0J-243750D01*
G01*
G37*
G04 #@! TD*
G04 #@! TO.C,C17*
G36*
G01*
X154630500Y-91213250D02*
X154630500Y-90650750D01*
G75*
G02*
X154874250Y-90407000I243750J0D01*
G01*
X155361750Y-90407000D01*
G75*
G02*
X155605500Y-90650750I0J-243750D01*
G01*
X155605500Y-91213250D01*
G75*
G02*
X155361750Y-91457000I-243750J0D01*
G01*
X154874250Y-91457000D01*
G75*
G02*
X154630500Y-91213250I0J243750D01*
G01*
G37*
G36*
G01*
X153055500Y-91213250D02*
X153055500Y-90650750D01*
G75*
G02*
X153299250Y-90407000I243750J0D01*
G01*
X153786750Y-90407000D01*
G75*
G02*
X154030500Y-90650750I0J-243750D01*
G01*
X154030500Y-91213250D01*
G75*
G02*
X153786750Y-91457000I-243750J0D01*
G01*
X153299250Y-91457000D01*
G75*
G02*
X153055500Y-91213250I0J243750D01*
G01*
G37*
G04 #@! TD*
G04 #@! TO.C,C15*
G36*
G01*
X144101153Y-94333750D02*
X144101153Y-94896250D01*
G75*
G02*
X143857403Y-95140000I-243750J0D01*
G01*
X143369903Y-95140000D01*
G75*
G02*
X143126153Y-94896250I0J243750D01*
G01*
X143126153Y-94333750D01*
G75*
G02*
X143369903Y-94090000I243750J0D01*
G01*
X143857403Y-94090000D01*
G75*
G02*
X144101153Y-94333750I0J-243750D01*
G01*
G37*
G36*
G01*
X145676153Y-94333750D02*
X145676153Y-94896250D01*
G75*
G02*
X145432403Y-95140000I-243750J0D01*
G01*
X144944903Y-95140000D01*
G75*
G02*
X144701153Y-94896250I0J243750D01*
G01*
X144701153Y-94333750D01*
G75*
G02*
X144944903Y-94090000I243750J0D01*
G01*
X145432403Y-94090000D01*
G75*
G02*
X145676153Y-94333750I0J-243750D01*
G01*
G37*
G04 #@! TD*
G04 #@! TO.C,C14*
G36*
G01*
X153868500Y-89435250D02*
X153868500Y-88872750D01*
G75*
G02*
X154112250Y-88629000I243750J0D01*
G01*
X154599750Y-88629000D01*
G75*
G02*
X154843500Y-88872750I0J-243750D01*
G01*
X154843500Y-89435250D01*
G75*
G02*
X154599750Y-89679000I-243750J0D01*
G01*
X154112250Y-89679000D01*
G75*
G02*
X153868500Y-89435250I0J243750D01*
G01*
G37*
G36*
G01*
X152293500Y-89435250D02*
X152293500Y-88872750D01*
G75*
G02*
X152537250Y-88629000I243750J0D01*
G01*
X153024750Y-88629000D01*
G75*
G02*
X153268500Y-88872750I0J-243750D01*
G01*
X153268500Y-89435250D01*
G75*
G02*
X153024750Y-89679000I-243750J0D01*
G01*
X152537250Y-89679000D01*
G75*
G02*
X152293500Y-89435250I0J243750D01*
G01*
G37*
G04 #@! TD*
G04 #@! TO.C,C13*
G36*
G01*
X144124500Y-91539750D02*
X144124500Y-92102250D01*
G75*
G02*
X143880750Y-92346000I-243750J0D01*
G01*
X143393250Y-92346000D01*
G75*
G02*
X143149500Y-92102250I0J243750D01*
G01*
X143149500Y-91539750D01*
G75*
G02*
X143393250Y-91296000I243750J0D01*
G01*
X143880750Y-91296000D01*
G75*
G02*
X144124500Y-91539750I0J-243750D01*
G01*
G37*
G36*
G01*
X145699500Y-91539750D02*
X145699500Y-92102250D01*
G75*
G02*
X145455750Y-92346000I-243750J0D01*
G01*
X144968250Y-92346000D01*
G75*
G02*
X144724500Y-92102250I0J243750D01*
G01*
X144724500Y-91539750D01*
G75*
G02*
X144968250Y-91296000I243750J0D01*
G01*
X145455750Y-91296000D01*
G75*
G02*
X145699500Y-91539750I0J-243750D01*
G01*
G37*
G04 #@! TD*
D10*
G04 #@! TO.C,J10*
X152273000Y-75996021D03*
X160909000Y-75996021D03*
D11*
X156591000Y-75996021D03*
G04 #@! TD*
D10*
G04 #@! TO.C,J9*
X139827000Y-75984100D03*
X148463000Y-75984100D03*
D11*
X144145000Y-75984100D03*
G04 #@! TD*
G04 #@! TO.C,C1*
G36*
G01*
X154712750Y-117983500D02*
X155675250Y-117983500D01*
G75*
G02*
X155944000Y-118252250I0J-268750D01*
G01*
X155944000Y-118789750D01*
G75*
G02*
X155675250Y-119058500I-268750J0D01*
G01*
X154712750Y-119058500D01*
G75*
G02*
X154444000Y-118789750I0J268750D01*
G01*
X154444000Y-118252250D01*
G75*
G02*
X154712750Y-117983500I268750J0D01*
G01*
G37*
G36*
G01*
X154712750Y-119858500D02*
X155675250Y-119858500D01*
G75*
G02*
X155944000Y-120127250I0J-268750D01*
G01*
X155944000Y-120664750D01*
G75*
G02*
X155675250Y-120933500I-268750J0D01*
G01*
X154712750Y-120933500D01*
G75*
G02*
X154444000Y-120664750I0J268750D01*
G01*
X154444000Y-120127250D01*
G75*
G02*
X154712750Y-119858500I268750J0D01*
G01*
G37*
G04 #@! TD*
G04 #@! TO.C,C2*
G36*
G01*
X149632750Y-119858500D02*
X150595250Y-119858500D01*
G75*
G02*
X150864000Y-120127250I0J-268750D01*
G01*
X150864000Y-120664750D01*
G75*
G02*
X150595250Y-120933500I-268750J0D01*
G01*
X149632750Y-120933500D01*
G75*
G02*
X149364000Y-120664750I0J268750D01*
G01*
X149364000Y-120127250D01*
G75*
G02*
X149632750Y-119858500I268750J0D01*
G01*
G37*
G36*
G01*
X149632750Y-117983500D02*
X150595250Y-117983500D01*
G75*
G02*
X150864000Y-118252250I0J-268750D01*
G01*
X150864000Y-118789750D01*
G75*
G02*
X150595250Y-119058500I-268750J0D01*
G01*
X149632750Y-119058500D01*
G75*
G02*
X149364000Y-118789750I0J268750D01*
G01*
X149364000Y-118252250D01*
G75*
G02*
X149632750Y-117983500I268750J0D01*
G01*
G37*
G04 #@! TD*
G04 #@! TO.C,C3*
G36*
G01*
X144552750Y-119858500D02*
X145515250Y-119858500D01*
G75*
G02*
X145784000Y-120127250I0J-268750D01*
G01*
X145784000Y-120664750D01*
G75*
G02*
X145515250Y-120933500I-268750J0D01*
G01*
X144552750Y-120933500D01*
G75*
G02*
X144284000Y-120664750I0J268750D01*
G01*
X144284000Y-120127250D01*
G75*
G02*
X144552750Y-119858500I268750J0D01*
G01*
G37*
G36*
G01*
X144552750Y-117983500D02*
X145515250Y-117983500D01*
G75*
G02*
X145784000Y-118252250I0J-268750D01*
G01*
X145784000Y-118789750D01*
G75*
G02*
X145515250Y-119058500I-268750J0D01*
G01*
X144552750Y-119058500D01*
G75*
G02*
X144284000Y-118789750I0J268750D01*
G01*
X144284000Y-118252250D01*
G75*
G02*
X144552750Y-117983500I268750J0D01*
G01*
G37*
G04 #@! TD*
G04 #@! TO.C,C16*
G36*
G01*
X154832000Y-110971250D02*
X154832000Y-110008750D01*
G75*
G02*
X155100750Y-109740000I268750J0D01*
G01*
X155638250Y-109740000D01*
G75*
G02*
X155907000Y-110008750I0J-268750D01*
G01*
X155907000Y-110971250D01*
G75*
G02*
X155638250Y-111240000I-268750J0D01*
G01*
X155100750Y-111240000D01*
G75*
G02*
X154832000Y-110971250I0J268750D01*
G01*
G37*
G36*
G01*
X152957000Y-110971250D02*
X152957000Y-110008750D01*
G75*
G02*
X153225750Y-109740000I268750J0D01*
G01*
X153763250Y-109740000D01*
G75*
G02*
X154032000Y-110008750I0J-268750D01*
G01*
X154032000Y-110971250D01*
G75*
G02*
X153763250Y-111240000I-268750J0D01*
G01*
X153225750Y-111240000D01*
G75*
G02*
X152957000Y-110971250I0J268750D01*
G01*
G37*
G04 #@! TD*
D12*
G04 #@! TO.C,H1*
X117348000Y-77470000D03*
G04 #@! TD*
G04 #@! TO.C,H2*
X117348000Y-118110000D03*
G04 #@! TD*
G04 #@! TO.C,H3*
X175768000Y-76835000D03*
G04 #@! TD*
G04 #@! TO.C,H4*
X175768000Y-117475000D03*
G04 #@! TD*
D13*
G04 #@! TO.C,J1*
X127635000Y-82715100D03*
D14*
X130810000Y-85890100D03*
D13*
X133985000Y-82715100D03*
X127635000Y-89065100D03*
X133985000Y-89065100D03*
G04 #@! TD*
G04 #@! TO.C,J2*
X133985000Y-103505000D03*
X127635000Y-103505000D03*
X133985000Y-97155000D03*
D14*
X130810000Y-100330000D03*
D13*
X127635000Y-97155000D03*
G04 #@! TD*
D15*
G04 #@! TO.C,J3*
X164592000Y-81788000D03*
D16*
X167132000Y-81788000D03*
X164592000Y-84328000D03*
X167132000Y-84328000D03*
X164592000Y-86868000D03*
X167132000Y-86868000D03*
X164592000Y-89408000D03*
X167132000Y-89408000D03*
X164592000Y-91948000D03*
X167132000Y-91948000D03*
X164592000Y-94488000D03*
X167132000Y-94488000D03*
X164592000Y-97028000D03*
X167132000Y-97028000D03*
X164592000Y-99568000D03*
X167132000Y-99568000D03*
X164592000Y-102108000D03*
X167132000Y-102108000D03*
X164592000Y-104648000D03*
X167132000Y-104648000D03*
G04 #@! TD*
D15*
G04 #@! TO.C,J4*
X155194000Y-115570000D03*
D16*
X152654000Y-115570000D03*
X150114000Y-115570000D03*
X147574000Y-115570000D03*
X145034000Y-115570000D03*
X142494000Y-115570000D03*
G04 #@! TD*
G04 #@! TO.C,L1*
G36*
G01*
X155674750Y-87015500D02*
X156237250Y-87015500D01*
G75*
G02*
X156481000Y-87259250I0J-243750D01*
G01*
X156481000Y-87746750D01*
G75*
G02*
X156237250Y-87990500I-243750J0D01*
G01*
X155674750Y-87990500D01*
G75*
G02*
X155431000Y-87746750I0J243750D01*
G01*
X155431000Y-87259250D01*
G75*
G02*
X155674750Y-87015500I243750J0D01*
G01*
G37*
G36*
G01*
X155674750Y-88590500D02*
X156237250Y-88590500D01*
G75*
G02*
X156481000Y-88834250I0J-243750D01*
G01*
X156481000Y-89321750D01*
G75*
G02*
X156237250Y-89565500I-243750J0D01*
G01*
X155674750Y-89565500D01*
G75*
G02*
X155431000Y-89321750I0J243750D01*
G01*
X155431000Y-88834250D01*
G75*
G02*
X155674750Y-88590500I243750J0D01*
G01*
G37*
G04 #@! TD*
G04 #@! TO.C,R6*
G36*
G01*
X150595250Y-112805500D02*
X149632750Y-112805500D01*
G75*
G02*
X149364000Y-112536750I0J268750D01*
G01*
X149364000Y-111999250D01*
G75*
G02*
X149632750Y-111730500I268750J0D01*
G01*
X150595250Y-111730500D01*
G75*
G02*
X150864000Y-111999250I0J-268750D01*
G01*
X150864000Y-112536750D01*
G75*
G02*
X150595250Y-112805500I-268750J0D01*
G01*
G37*
G36*
G01*
X150595250Y-110930500D02*
X149632750Y-110930500D01*
G75*
G02*
X149364000Y-110661750I0J268750D01*
G01*
X149364000Y-110124250D01*
G75*
G02*
X149632750Y-109855500I268750J0D01*
G01*
X150595250Y-109855500D01*
G75*
G02*
X150864000Y-110124250I0J-268750D01*
G01*
X150864000Y-110661750D01*
G75*
G02*
X150595250Y-110930500I-268750J0D01*
G01*
G37*
G04 #@! TD*
D17*
G04 #@! TO.C,SW1*
X150114000Y-103886000D03*
D18*
X157734000Y-106426000D03*
X150114000Y-106426000D03*
X157734000Y-103886000D03*
G04 #@! TD*
G04 #@! TO.C,U2*
G36*
G01*
X147604680Y-94575177D02*
X147604680Y-91891303D01*
G75*
G02*
X147862743Y-91633240I258063J0D01*
G01*
X150546617Y-91633240D01*
G75*
G02*
X150804680Y-91891303I0J-258063D01*
G01*
X150804680Y-94575177D01*
G75*
G02*
X150546617Y-94833240I-258063J0D01*
G01*
X147862743Y-94833240D01*
G75*
G02*
X147604680Y-94575177I0J258063D01*
G01*
G37*
G36*
G01*
X146279680Y-91570740D02*
X146279680Y-91395740D01*
G75*
G02*
X146367180Y-91308240I87500J0D01*
G01*
X147167180Y-91308240D01*
G75*
G02*
X147254680Y-91395740I0J-87500D01*
G01*
X147254680Y-91570740D01*
G75*
G02*
X147167180Y-91658240I-87500J0D01*
G01*
X146367180Y-91658240D01*
G75*
G02*
X146279680Y-91570740I0J87500D01*
G01*
G37*
G36*
G01*
X146279680Y-92070740D02*
X146279680Y-91895740D01*
G75*
G02*
X146367180Y-91808240I87500J0D01*
G01*
X147167180Y-91808240D01*
G75*
G02*
X147254680Y-91895740I0J-87500D01*
G01*
X147254680Y-92070740D01*
G75*
G02*
X147167180Y-92158240I-87500J0D01*
G01*
X146367180Y-92158240D01*
G75*
G02*
X146279680Y-92070740I0J87500D01*
G01*
G37*
G36*
G01*
X146279680Y-92570740D02*
X146279680Y-92395740D01*
G75*
G02*
X146367180Y-92308240I87500J0D01*
G01*
X147167180Y-92308240D01*
G75*
G02*
X147254680Y-92395740I0J-87500D01*
G01*
X147254680Y-92570740D01*
G75*
G02*
X147167180Y-92658240I-87500J0D01*
G01*
X146367180Y-92658240D01*
G75*
G02*
X146279680Y-92570740I0J87500D01*
G01*
G37*
G36*
G01*
X146279680Y-93070740D02*
X146279680Y-92895740D01*
G75*
G02*
X146367180Y-92808240I87500J0D01*
G01*
X147167180Y-92808240D01*
G75*
G02*
X147254680Y-92895740I0J-87500D01*
G01*
X147254680Y-93070740D01*
G75*
G02*
X147167180Y-93158240I-87500J0D01*
G01*
X146367180Y-93158240D01*
G75*
G02*
X146279680Y-93070740I0J87500D01*
G01*
G37*
G36*
G01*
X146279680Y-93570740D02*
X146279680Y-93395740D01*
G75*
G02*
X146367180Y-93308240I87500J0D01*
G01*
X147167180Y-93308240D01*
G75*
G02*
X147254680Y-93395740I0J-87500D01*
G01*
X147254680Y-93570740D01*
G75*
G02*
X147167180Y-93658240I-87500J0D01*
G01*
X146367180Y-93658240D01*
G75*
G02*
X146279680Y-93570740I0J87500D01*
G01*
G37*
G36*
G01*
X146279680Y-94070740D02*
X146279680Y-93895740D01*
G75*
G02*
X146367180Y-93808240I87500J0D01*
G01*
X147167180Y-93808240D01*
G75*
G02*
X147254680Y-93895740I0J-87500D01*
G01*
X147254680Y-94070740D01*
G75*
G02*
X147167180Y-94158240I-87500J0D01*
G01*
X146367180Y-94158240D01*
G75*
G02*
X146279680Y-94070740I0J87500D01*
G01*
G37*
G36*
G01*
X146279680Y-94570740D02*
X146279680Y-94395740D01*
G75*
G02*
X146367180Y-94308240I87500J0D01*
G01*
X147167180Y-94308240D01*
G75*
G02*
X147254680Y-94395740I0J-87500D01*
G01*
X147254680Y-94570740D01*
G75*
G02*
X147167180Y-94658240I-87500J0D01*
G01*
X146367180Y-94658240D01*
G75*
G02*
X146279680Y-94570740I0J87500D01*
G01*
G37*
G36*
G01*
X146279680Y-95070740D02*
X146279680Y-94895740D01*
G75*
G02*
X146367180Y-94808240I87500J0D01*
G01*
X147167180Y-94808240D01*
G75*
G02*
X147254680Y-94895740I0J-87500D01*
G01*
X147254680Y-95070740D01*
G75*
G02*
X147167180Y-95158240I-87500J0D01*
G01*
X146367180Y-95158240D01*
G75*
G02*
X146279680Y-95070740I0J87500D01*
G01*
G37*
G36*
G01*
X147279680Y-96070740D02*
X147279680Y-95270740D01*
G75*
G02*
X147367180Y-95183240I87500J0D01*
G01*
X147542180Y-95183240D01*
G75*
G02*
X147629680Y-95270740I0J-87500D01*
G01*
X147629680Y-96070740D01*
G75*
G02*
X147542180Y-96158240I-87500J0D01*
G01*
X147367180Y-96158240D01*
G75*
G02*
X147279680Y-96070740I0J87500D01*
G01*
G37*
G36*
G01*
X147779680Y-96070740D02*
X147779680Y-95270740D01*
G75*
G02*
X147867180Y-95183240I87500J0D01*
G01*
X148042180Y-95183240D01*
G75*
G02*
X148129680Y-95270740I0J-87500D01*
G01*
X148129680Y-96070740D01*
G75*
G02*
X148042180Y-96158240I-87500J0D01*
G01*
X147867180Y-96158240D01*
G75*
G02*
X147779680Y-96070740I0J87500D01*
G01*
G37*
G36*
G01*
X148279680Y-96070740D02*
X148279680Y-95270740D01*
G75*
G02*
X148367180Y-95183240I87500J0D01*
G01*
X148542180Y-95183240D01*
G75*
G02*
X148629680Y-95270740I0J-87500D01*
G01*
X148629680Y-96070740D01*
G75*
G02*
X148542180Y-96158240I-87500J0D01*
G01*
X148367180Y-96158240D01*
G75*
G02*
X148279680Y-96070740I0J87500D01*
G01*
G37*
G36*
G01*
X148779680Y-96070740D02*
X148779680Y-95270740D01*
G75*
G02*
X148867180Y-95183240I87500J0D01*
G01*
X149042180Y-95183240D01*
G75*
G02*
X149129680Y-95270740I0J-87500D01*
G01*
X149129680Y-96070740D01*
G75*
G02*
X149042180Y-96158240I-87500J0D01*
G01*
X148867180Y-96158240D01*
G75*
G02*
X148779680Y-96070740I0J87500D01*
G01*
G37*
G36*
G01*
X149279680Y-96070740D02*
X149279680Y-95270740D01*
G75*
G02*
X149367180Y-95183240I87500J0D01*
G01*
X149542180Y-95183240D01*
G75*
G02*
X149629680Y-95270740I0J-87500D01*
G01*
X149629680Y-96070740D01*
G75*
G02*
X149542180Y-96158240I-87500J0D01*
G01*
X149367180Y-96158240D01*
G75*
G02*
X149279680Y-96070740I0J87500D01*
G01*
G37*
G36*
G01*
X149779680Y-96070740D02*
X149779680Y-95270740D01*
G75*
G02*
X149867180Y-95183240I87500J0D01*
G01*
X150042180Y-95183240D01*
G75*
G02*
X150129680Y-95270740I0J-87500D01*
G01*
X150129680Y-96070740D01*
G75*
G02*
X150042180Y-96158240I-87500J0D01*
G01*
X149867180Y-96158240D01*
G75*
G02*
X149779680Y-96070740I0J87500D01*
G01*
G37*
G36*
G01*
X150279680Y-96070740D02*
X150279680Y-95270740D01*
G75*
G02*
X150367180Y-95183240I87500J0D01*
G01*
X150542180Y-95183240D01*
G75*
G02*
X150629680Y-95270740I0J-87500D01*
G01*
X150629680Y-96070740D01*
G75*
G02*
X150542180Y-96158240I-87500J0D01*
G01*
X150367180Y-96158240D01*
G75*
G02*
X150279680Y-96070740I0J87500D01*
G01*
G37*
G36*
G01*
X150779680Y-96070740D02*
X150779680Y-95270740D01*
G75*
G02*
X150867180Y-95183240I87500J0D01*
G01*
X151042180Y-95183240D01*
G75*
G02*
X151129680Y-95270740I0J-87500D01*
G01*
X151129680Y-96070740D01*
G75*
G02*
X151042180Y-96158240I-87500J0D01*
G01*
X150867180Y-96158240D01*
G75*
G02*
X150779680Y-96070740I0J87500D01*
G01*
G37*
G36*
G01*
X151154680Y-95070740D02*
X151154680Y-94895740D01*
G75*
G02*
X151242180Y-94808240I87500J0D01*
G01*
X152042180Y-94808240D01*
G75*
G02*
X152129680Y-94895740I0J-87500D01*
G01*
X152129680Y-95070740D01*
G75*
G02*
X152042180Y-95158240I-87500J0D01*
G01*
X151242180Y-95158240D01*
G75*
G02*
X151154680Y-95070740I0J87500D01*
G01*
G37*
G36*
G01*
X151154680Y-94570740D02*
X151154680Y-94395740D01*
G75*
G02*
X151242180Y-94308240I87500J0D01*
G01*
X152042180Y-94308240D01*
G75*
G02*
X152129680Y-94395740I0J-87500D01*
G01*
X152129680Y-94570740D01*
G75*
G02*
X152042180Y-94658240I-87500J0D01*
G01*
X151242180Y-94658240D01*
G75*
G02*
X151154680Y-94570740I0J87500D01*
G01*
G37*
G36*
G01*
X151154680Y-94070740D02*
X151154680Y-93895740D01*
G75*
G02*
X151242180Y-93808240I87500J0D01*
G01*
X152042180Y-93808240D01*
G75*
G02*
X152129680Y-93895740I0J-87500D01*
G01*
X152129680Y-94070740D01*
G75*
G02*
X152042180Y-94158240I-87500J0D01*
G01*
X151242180Y-94158240D01*
G75*
G02*
X151154680Y-94070740I0J87500D01*
G01*
G37*
G36*
G01*
X151154680Y-93570740D02*
X151154680Y-93395740D01*
G75*
G02*
X151242180Y-93308240I87500J0D01*
G01*
X152042180Y-93308240D01*
G75*
G02*
X152129680Y-93395740I0J-87500D01*
G01*
X152129680Y-93570740D01*
G75*
G02*
X152042180Y-93658240I-87500J0D01*
G01*
X151242180Y-93658240D01*
G75*
G02*
X151154680Y-93570740I0J87500D01*
G01*
G37*
G36*
G01*
X151154680Y-93070740D02*
X151154680Y-92895740D01*
G75*
G02*
X151242180Y-92808240I87500J0D01*
G01*
X152042180Y-92808240D01*
G75*
G02*
X152129680Y-92895740I0J-87500D01*
G01*
X152129680Y-93070740D01*
G75*
G02*
X152042180Y-93158240I-87500J0D01*
G01*
X151242180Y-93158240D01*
G75*
G02*
X151154680Y-93070740I0J87500D01*
G01*
G37*
G36*
G01*
X151154680Y-92570740D02*
X151154680Y-92395740D01*
G75*
G02*
X151242180Y-92308240I87500J0D01*
G01*
X152042180Y-92308240D01*
G75*
G02*
X152129680Y-92395740I0J-87500D01*
G01*
X152129680Y-92570740D01*
G75*
G02*
X152042180Y-92658240I-87500J0D01*
G01*
X151242180Y-92658240D01*
G75*
G02*
X151154680Y-92570740I0J87500D01*
G01*
G37*
G36*
G01*
X151154680Y-92070740D02*
X151154680Y-91895740D01*
G75*
G02*
X151242180Y-91808240I87500J0D01*
G01*
X152042180Y-91808240D01*
G75*
G02*
X152129680Y-91895740I0J-87500D01*
G01*
X152129680Y-92070740D01*
G75*
G02*
X152042180Y-92158240I-87500J0D01*
G01*
X151242180Y-92158240D01*
G75*
G02*
X151154680Y-92070740I0J87500D01*
G01*
G37*
G36*
G01*
X151154680Y-91570740D02*
X151154680Y-91395740D01*
G75*
G02*
X151242180Y-91308240I87500J0D01*
G01*
X152042180Y-91308240D01*
G75*
G02*
X152129680Y-91395740I0J-87500D01*
G01*
X152129680Y-91570740D01*
G75*
G02*
X152042180Y-91658240I-87500J0D01*
G01*
X151242180Y-91658240D01*
G75*
G02*
X151154680Y-91570740I0J87500D01*
G01*
G37*
G36*
G01*
X150779680Y-91195740D02*
X150779680Y-90395740D01*
G75*
G02*
X150867180Y-90308240I87500J0D01*
G01*
X151042180Y-90308240D01*
G75*
G02*
X151129680Y-90395740I0J-87500D01*
G01*
X151129680Y-91195740D01*
G75*
G02*
X151042180Y-91283240I-87500J0D01*
G01*
X150867180Y-91283240D01*
G75*
G02*
X150779680Y-91195740I0J87500D01*
G01*
G37*
G36*
G01*
X150279680Y-91195740D02*
X150279680Y-90395740D01*
G75*
G02*
X150367180Y-90308240I87500J0D01*
G01*
X150542180Y-90308240D01*
G75*
G02*
X150629680Y-90395740I0J-87500D01*
G01*
X150629680Y-91195740D01*
G75*
G02*
X150542180Y-91283240I-87500J0D01*
G01*
X150367180Y-91283240D01*
G75*
G02*
X150279680Y-91195740I0J87500D01*
G01*
G37*
G36*
G01*
X149779680Y-91195740D02*
X149779680Y-90395740D01*
G75*
G02*
X149867180Y-90308240I87500J0D01*
G01*
X150042180Y-90308240D01*
G75*
G02*
X150129680Y-90395740I0J-87500D01*
G01*
X150129680Y-91195740D01*
G75*
G02*
X150042180Y-91283240I-87500J0D01*
G01*
X149867180Y-91283240D01*
G75*
G02*
X149779680Y-91195740I0J87500D01*
G01*
G37*
G36*
G01*
X149279680Y-91195740D02*
X149279680Y-90395740D01*
G75*
G02*
X149367180Y-90308240I87500J0D01*
G01*
X149542180Y-90308240D01*
G75*
G02*
X149629680Y-90395740I0J-87500D01*
G01*
X149629680Y-91195740D01*
G75*
G02*
X149542180Y-91283240I-87500J0D01*
G01*
X149367180Y-91283240D01*
G75*
G02*
X149279680Y-91195740I0J87500D01*
G01*
G37*
G36*
G01*
X148779680Y-91195740D02*
X148779680Y-90395740D01*
G75*
G02*
X148867180Y-90308240I87500J0D01*
G01*
X149042180Y-90308240D01*
G75*
G02*
X149129680Y-90395740I0J-87500D01*
G01*
X149129680Y-91195740D01*
G75*
G02*
X149042180Y-91283240I-87500J0D01*
G01*
X148867180Y-91283240D01*
G75*
G02*
X148779680Y-91195740I0J87500D01*
G01*
G37*
G36*
G01*
X148279680Y-91195740D02*
X148279680Y-90395740D01*
G75*
G02*
X148367180Y-90308240I87500J0D01*
G01*
X148542180Y-90308240D01*
G75*
G02*
X148629680Y-90395740I0J-87500D01*
G01*
X148629680Y-91195740D01*
G75*
G02*
X148542180Y-91283240I-87500J0D01*
G01*
X148367180Y-91283240D01*
G75*
G02*
X148279680Y-91195740I0J87500D01*
G01*
G37*
G36*
G01*
X147779680Y-91195740D02*
X147779680Y-90395740D01*
G75*
G02*
X147867180Y-90308240I87500J0D01*
G01*
X148042180Y-90308240D01*
G75*
G02*
X148129680Y-90395740I0J-87500D01*
G01*
X148129680Y-91195740D01*
G75*
G02*
X148042180Y-91283240I-87500J0D01*
G01*
X147867180Y-91283240D01*
G75*
G02*
X147779680Y-91195740I0J87500D01*
G01*
G37*
G36*
G01*
X147279680Y-91195740D02*
X147279680Y-90395740D01*
G75*
G02*
X147367180Y-90308240I87500J0D01*
G01*
X147542180Y-90308240D01*
G75*
G02*
X147629680Y-90395740I0J-87500D01*
G01*
X147629680Y-91195740D01*
G75*
G02*
X147542180Y-91283240I-87500J0D01*
G01*
X147367180Y-91283240D01*
G75*
G02*
X147279680Y-91195740I0J87500D01*
G01*
G37*
G04 #@! TD*
M02*
