G04 #@! TF.GenerationSoftware,KiCad,Pcbnew,5.1.5+dfsg1-2build2*
G04 #@! TF.CreationDate,2020-11-26T02:38:28-05:00*
G04 #@! TF.ProjectId,SAR_pcb,5341525f-7063-4622-9e6b-696361645f70,rev?*
G04 #@! TF.SameCoordinates,Original*
G04 #@! TF.FileFunction,Soldermask,Top*
G04 #@! TF.FilePolarity,Negative*
%FSLAX46Y46*%
G04 Gerber Fmt 4.6, Leading zero omitted, Abs format (unit mm)*
G04 Created by KiCad (PCBNEW 5.1.5+dfsg1-2build2) date 2020-11-26 02:38:28*
%MOMM*%
%LPD*%
G04 APERTURE LIST*
%ADD10C,0.100000*%
%ADD11R,2.386000X5.942000*%
%ADD12R,0.241224X5.942000*%
%ADD13C,3.100000*%
%ADD14C,3.910000*%
%ADD15C,3.656000*%
%ADD16R,1.800000X1.800000*%
%ADD17O,1.800000X1.800000*%
%ADD18R,1.700000X1.700000*%
%ADD19O,1.700000X1.700000*%
G04 APERTURE END LIST*
D10*
G04 #@! TO.C,R7*
G36*
X141732342Y-92045874D02*
G01*
X141756003Y-92049384D01*
X141779207Y-92055196D01*
X141801729Y-92063254D01*
X141823353Y-92073482D01*
X141843870Y-92085779D01*
X141863083Y-92100029D01*
X141880807Y-92116093D01*
X141896871Y-92133817D01*
X141911121Y-92153030D01*
X141923418Y-92173547D01*
X141933646Y-92195171D01*
X141941704Y-92217693D01*
X141947516Y-92240897D01*
X141951026Y-92264558D01*
X141952200Y-92288450D01*
X141952200Y-92775950D01*
X141951026Y-92799842D01*
X141947516Y-92823503D01*
X141941704Y-92846707D01*
X141933646Y-92869229D01*
X141923418Y-92890853D01*
X141911121Y-92911370D01*
X141896871Y-92930583D01*
X141880807Y-92948307D01*
X141863083Y-92964371D01*
X141843870Y-92978621D01*
X141823353Y-92990918D01*
X141801729Y-93001146D01*
X141779207Y-93009204D01*
X141756003Y-93015016D01*
X141732342Y-93018526D01*
X141708450Y-93019700D01*
X141145950Y-93019700D01*
X141122058Y-93018526D01*
X141098397Y-93015016D01*
X141075193Y-93009204D01*
X141052671Y-93001146D01*
X141031047Y-92990918D01*
X141010530Y-92978621D01*
X140991317Y-92964371D01*
X140973593Y-92948307D01*
X140957529Y-92930583D01*
X140943279Y-92911370D01*
X140930982Y-92890853D01*
X140920754Y-92869229D01*
X140912696Y-92846707D01*
X140906884Y-92823503D01*
X140903374Y-92799842D01*
X140902200Y-92775950D01*
X140902200Y-92288450D01*
X140903374Y-92264558D01*
X140906884Y-92240897D01*
X140912696Y-92217693D01*
X140920754Y-92195171D01*
X140930982Y-92173547D01*
X140943279Y-92153030D01*
X140957529Y-92133817D01*
X140973593Y-92116093D01*
X140991317Y-92100029D01*
X141010530Y-92085779D01*
X141031047Y-92073482D01*
X141052671Y-92063254D01*
X141075193Y-92055196D01*
X141098397Y-92049384D01*
X141122058Y-92045874D01*
X141145950Y-92044700D01*
X141708450Y-92044700D01*
X141732342Y-92045874D01*
G37*
G36*
X141732342Y-93620874D02*
G01*
X141756003Y-93624384D01*
X141779207Y-93630196D01*
X141801729Y-93638254D01*
X141823353Y-93648482D01*
X141843870Y-93660779D01*
X141863083Y-93675029D01*
X141880807Y-93691093D01*
X141896871Y-93708817D01*
X141911121Y-93728030D01*
X141923418Y-93748547D01*
X141933646Y-93770171D01*
X141941704Y-93792693D01*
X141947516Y-93815897D01*
X141951026Y-93839558D01*
X141952200Y-93863450D01*
X141952200Y-94350950D01*
X141951026Y-94374842D01*
X141947516Y-94398503D01*
X141941704Y-94421707D01*
X141933646Y-94444229D01*
X141923418Y-94465853D01*
X141911121Y-94486370D01*
X141896871Y-94505583D01*
X141880807Y-94523307D01*
X141863083Y-94539371D01*
X141843870Y-94553621D01*
X141823353Y-94565918D01*
X141801729Y-94576146D01*
X141779207Y-94584204D01*
X141756003Y-94590016D01*
X141732342Y-94593526D01*
X141708450Y-94594700D01*
X141145950Y-94594700D01*
X141122058Y-94593526D01*
X141098397Y-94590016D01*
X141075193Y-94584204D01*
X141052671Y-94576146D01*
X141031047Y-94565918D01*
X141010530Y-94553621D01*
X140991317Y-94539371D01*
X140973593Y-94523307D01*
X140957529Y-94505583D01*
X140943279Y-94486370D01*
X140930982Y-94465853D01*
X140920754Y-94444229D01*
X140912696Y-94421707D01*
X140906884Y-94398503D01*
X140903374Y-94374842D01*
X140902200Y-94350950D01*
X140902200Y-93863450D01*
X140903374Y-93839558D01*
X140906884Y-93815897D01*
X140912696Y-93792693D01*
X140920754Y-93770171D01*
X140930982Y-93748547D01*
X140943279Y-93728030D01*
X140957529Y-93708817D01*
X140973593Y-93691093D01*
X140991317Y-93675029D01*
X141010530Y-93660779D01*
X141031047Y-93648482D01*
X141052671Y-93638254D01*
X141075193Y-93630196D01*
X141098397Y-93624384D01*
X141122058Y-93620874D01*
X141145950Y-93619700D01*
X141708450Y-93619700D01*
X141732342Y-93620874D01*
G37*
G04 #@! TD*
G04 #@! TO.C,R5*
G36*
X147371142Y-87092674D02*
G01*
X147394803Y-87096184D01*
X147418007Y-87101996D01*
X147440529Y-87110054D01*
X147462153Y-87120282D01*
X147482670Y-87132579D01*
X147501883Y-87146829D01*
X147519607Y-87162893D01*
X147535671Y-87180617D01*
X147549921Y-87199830D01*
X147562218Y-87220347D01*
X147572446Y-87241971D01*
X147580504Y-87264493D01*
X147586316Y-87287697D01*
X147589826Y-87311358D01*
X147591000Y-87335250D01*
X147591000Y-87822750D01*
X147589826Y-87846642D01*
X147586316Y-87870303D01*
X147580504Y-87893507D01*
X147572446Y-87916029D01*
X147562218Y-87937653D01*
X147549921Y-87958170D01*
X147535671Y-87977383D01*
X147519607Y-87995107D01*
X147501883Y-88011171D01*
X147482670Y-88025421D01*
X147462153Y-88037718D01*
X147440529Y-88047946D01*
X147418007Y-88056004D01*
X147394803Y-88061816D01*
X147371142Y-88065326D01*
X147347250Y-88066500D01*
X146784750Y-88066500D01*
X146760858Y-88065326D01*
X146737197Y-88061816D01*
X146713993Y-88056004D01*
X146691471Y-88047946D01*
X146669847Y-88037718D01*
X146649330Y-88025421D01*
X146630117Y-88011171D01*
X146612393Y-87995107D01*
X146596329Y-87977383D01*
X146582079Y-87958170D01*
X146569782Y-87937653D01*
X146559554Y-87916029D01*
X146551496Y-87893507D01*
X146545684Y-87870303D01*
X146542174Y-87846642D01*
X146541000Y-87822750D01*
X146541000Y-87335250D01*
X146542174Y-87311358D01*
X146545684Y-87287697D01*
X146551496Y-87264493D01*
X146559554Y-87241971D01*
X146569782Y-87220347D01*
X146582079Y-87199830D01*
X146596329Y-87180617D01*
X146612393Y-87162893D01*
X146630117Y-87146829D01*
X146649330Y-87132579D01*
X146669847Y-87120282D01*
X146691471Y-87110054D01*
X146713993Y-87101996D01*
X146737197Y-87096184D01*
X146760858Y-87092674D01*
X146784750Y-87091500D01*
X147347250Y-87091500D01*
X147371142Y-87092674D01*
G37*
G36*
X147371142Y-88667674D02*
G01*
X147394803Y-88671184D01*
X147418007Y-88676996D01*
X147440529Y-88685054D01*
X147462153Y-88695282D01*
X147482670Y-88707579D01*
X147501883Y-88721829D01*
X147519607Y-88737893D01*
X147535671Y-88755617D01*
X147549921Y-88774830D01*
X147562218Y-88795347D01*
X147572446Y-88816971D01*
X147580504Y-88839493D01*
X147586316Y-88862697D01*
X147589826Y-88886358D01*
X147591000Y-88910250D01*
X147591000Y-89397750D01*
X147589826Y-89421642D01*
X147586316Y-89445303D01*
X147580504Y-89468507D01*
X147572446Y-89491029D01*
X147562218Y-89512653D01*
X147549921Y-89533170D01*
X147535671Y-89552383D01*
X147519607Y-89570107D01*
X147501883Y-89586171D01*
X147482670Y-89600421D01*
X147462153Y-89612718D01*
X147440529Y-89622946D01*
X147418007Y-89631004D01*
X147394803Y-89636816D01*
X147371142Y-89640326D01*
X147347250Y-89641500D01*
X146784750Y-89641500D01*
X146760858Y-89640326D01*
X146737197Y-89636816D01*
X146713993Y-89631004D01*
X146691471Y-89622946D01*
X146669847Y-89612718D01*
X146649330Y-89600421D01*
X146630117Y-89586171D01*
X146612393Y-89570107D01*
X146596329Y-89552383D01*
X146582079Y-89533170D01*
X146569782Y-89512653D01*
X146559554Y-89491029D01*
X146551496Y-89468507D01*
X146545684Y-89445303D01*
X146542174Y-89421642D01*
X146541000Y-89397750D01*
X146541000Y-88910250D01*
X146542174Y-88886358D01*
X146545684Y-88862697D01*
X146551496Y-88839493D01*
X146559554Y-88816971D01*
X146569782Y-88795347D01*
X146582079Y-88774830D01*
X146596329Y-88755617D01*
X146612393Y-88737893D01*
X146630117Y-88721829D01*
X146649330Y-88707579D01*
X146669847Y-88695282D01*
X146691471Y-88685054D01*
X146713993Y-88676996D01*
X146737197Y-88671184D01*
X146760858Y-88667674D01*
X146784750Y-88666500D01*
X147347250Y-88666500D01*
X147371142Y-88667674D01*
G37*
G04 #@! TD*
G04 #@! TO.C,R4*
G36*
X145720142Y-88667674D02*
G01*
X145743803Y-88671184D01*
X145767007Y-88676996D01*
X145789529Y-88685054D01*
X145811153Y-88695282D01*
X145831670Y-88707579D01*
X145850883Y-88721829D01*
X145868607Y-88737893D01*
X145884671Y-88755617D01*
X145898921Y-88774830D01*
X145911218Y-88795347D01*
X145921446Y-88816971D01*
X145929504Y-88839493D01*
X145935316Y-88862697D01*
X145938826Y-88886358D01*
X145940000Y-88910250D01*
X145940000Y-89397750D01*
X145938826Y-89421642D01*
X145935316Y-89445303D01*
X145929504Y-89468507D01*
X145921446Y-89491029D01*
X145911218Y-89512653D01*
X145898921Y-89533170D01*
X145884671Y-89552383D01*
X145868607Y-89570107D01*
X145850883Y-89586171D01*
X145831670Y-89600421D01*
X145811153Y-89612718D01*
X145789529Y-89622946D01*
X145767007Y-89631004D01*
X145743803Y-89636816D01*
X145720142Y-89640326D01*
X145696250Y-89641500D01*
X145133750Y-89641500D01*
X145109858Y-89640326D01*
X145086197Y-89636816D01*
X145062993Y-89631004D01*
X145040471Y-89622946D01*
X145018847Y-89612718D01*
X144998330Y-89600421D01*
X144979117Y-89586171D01*
X144961393Y-89570107D01*
X144945329Y-89552383D01*
X144931079Y-89533170D01*
X144918782Y-89512653D01*
X144908554Y-89491029D01*
X144900496Y-89468507D01*
X144894684Y-89445303D01*
X144891174Y-89421642D01*
X144890000Y-89397750D01*
X144890000Y-88910250D01*
X144891174Y-88886358D01*
X144894684Y-88862697D01*
X144900496Y-88839493D01*
X144908554Y-88816971D01*
X144918782Y-88795347D01*
X144931079Y-88774830D01*
X144945329Y-88755617D01*
X144961393Y-88737893D01*
X144979117Y-88721829D01*
X144998330Y-88707579D01*
X145018847Y-88695282D01*
X145040471Y-88685054D01*
X145062993Y-88676996D01*
X145086197Y-88671184D01*
X145109858Y-88667674D01*
X145133750Y-88666500D01*
X145696250Y-88666500D01*
X145720142Y-88667674D01*
G37*
G36*
X145720142Y-87092674D02*
G01*
X145743803Y-87096184D01*
X145767007Y-87101996D01*
X145789529Y-87110054D01*
X145811153Y-87120282D01*
X145831670Y-87132579D01*
X145850883Y-87146829D01*
X145868607Y-87162893D01*
X145884671Y-87180617D01*
X145898921Y-87199830D01*
X145911218Y-87220347D01*
X145921446Y-87241971D01*
X145929504Y-87264493D01*
X145935316Y-87287697D01*
X145938826Y-87311358D01*
X145940000Y-87335250D01*
X145940000Y-87822750D01*
X145938826Y-87846642D01*
X145935316Y-87870303D01*
X145929504Y-87893507D01*
X145921446Y-87916029D01*
X145911218Y-87937653D01*
X145898921Y-87958170D01*
X145884671Y-87977383D01*
X145868607Y-87995107D01*
X145850883Y-88011171D01*
X145831670Y-88025421D01*
X145811153Y-88037718D01*
X145789529Y-88047946D01*
X145767007Y-88056004D01*
X145743803Y-88061816D01*
X145720142Y-88065326D01*
X145696250Y-88066500D01*
X145133750Y-88066500D01*
X145109858Y-88065326D01*
X145086197Y-88061816D01*
X145062993Y-88056004D01*
X145040471Y-88047946D01*
X145018847Y-88037718D01*
X144998330Y-88025421D01*
X144979117Y-88011171D01*
X144961393Y-87995107D01*
X144945329Y-87977383D01*
X144931079Y-87958170D01*
X144918782Y-87937653D01*
X144908554Y-87916029D01*
X144900496Y-87893507D01*
X144894684Y-87870303D01*
X144891174Y-87846642D01*
X144890000Y-87822750D01*
X144890000Y-87335250D01*
X144891174Y-87311358D01*
X144894684Y-87287697D01*
X144900496Y-87264493D01*
X144908554Y-87241971D01*
X144918782Y-87220347D01*
X144931079Y-87199830D01*
X144945329Y-87180617D01*
X144961393Y-87162893D01*
X144979117Y-87146829D01*
X144998330Y-87132579D01*
X145018847Y-87120282D01*
X145040471Y-87110054D01*
X145062993Y-87101996D01*
X145086197Y-87096184D01*
X145109858Y-87092674D01*
X145133750Y-87091500D01*
X145696250Y-87091500D01*
X145720142Y-87092674D01*
G37*
G04 #@! TD*
G04 #@! TO.C,R3*
G36*
X151423142Y-86979174D02*
G01*
X151446803Y-86982684D01*
X151470007Y-86988496D01*
X151492529Y-86996554D01*
X151514153Y-87006782D01*
X151534670Y-87019079D01*
X151553883Y-87033329D01*
X151571607Y-87049393D01*
X151587671Y-87067117D01*
X151601921Y-87086330D01*
X151614218Y-87106847D01*
X151624446Y-87128471D01*
X151632504Y-87150993D01*
X151638316Y-87174197D01*
X151641826Y-87197858D01*
X151643000Y-87221750D01*
X151643000Y-87784250D01*
X151641826Y-87808142D01*
X151638316Y-87831803D01*
X151632504Y-87855007D01*
X151624446Y-87877529D01*
X151614218Y-87899153D01*
X151601921Y-87919670D01*
X151587671Y-87938883D01*
X151571607Y-87956607D01*
X151553883Y-87972671D01*
X151534670Y-87986921D01*
X151514153Y-87999218D01*
X151492529Y-88009446D01*
X151470007Y-88017504D01*
X151446803Y-88023316D01*
X151423142Y-88026826D01*
X151399250Y-88028000D01*
X150911750Y-88028000D01*
X150887858Y-88026826D01*
X150864197Y-88023316D01*
X150840993Y-88017504D01*
X150818471Y-88009446D01*
X150796847Y-87999218D01*
X150776330Y-87986921D01*
X150757117Y-87972671D01*
X150739393Y-87956607D01*
X150723329Y-87938883D01*
X150709079Y-87919670D01*
X150696782Y-87899153D01*
X150686554Y-87877529D01*
X150678496Y-87855007D01*
X150672684Y-87831803D01*
X150669174Y-87808142D01*
X150668000Y-87784250D01*
X150668000Y-87221750D01*
X150669174Y-87197858D01*
X150672684Y-87174197D01*
X150678496Y-87150993D01*
X150686554Y-87128471D01*
X150696782Y-87106847D01*
X150709079Y-87086330D01*
X150723329Y-87067117D01*
X150739393Y-87049393D01*
X150757117Y-87033329D01*
X150776330Y-87019079D01*
X150796847Y-87006782D01*
X150818471Y-86996554D01*
X150840993Y-86988496D01*
X150864197Y-86982684D01*
X150887858Y-86979174D01*
X150911750Y-86978000D01*
X151399250Y-86978000D01*
X151423142Y-86979174D01*
G37*
G36*
X149848142Y-86979174D02*
G01*
X149871803Y-86982684D01*
X149895007Y-86988496D01*
X149917529Y-86996554D01*
X149939153Y-87006782D01*
X149959670Y-87019079D01*
X149978883Y-87033329D01*
X149996607Y-87049393D01*
X150012671Y-87067117D01*
X150026921Y-87086330D01*
X150039218Y-87106847D01*
X150049446Y-87128471D01*
X150057504Y-87150993D01*
X150063316Y-87174197D01*
X150066826Y-87197858D01*
X150068000Y-87221750D01*
X150068000Y-87784250D01*
X150066826Y-87808142D01*
X150063316Y-87831803D01*
X150057504Y-87855007D01*
X150049446Y-87877529D01*
X150039218Y-87899153D01*
X150026921Y-87919670D01*
X150012671Y-87938883D01*
X149996607Y-87956607D01*
X149978883Y-87972671D01*
X149959670Y-87986921D01*
X149939153Y-87999218D01*
X149917529Y-88009446D01*
X149895007Y-88017504D01*
X149871803Y-88023316D01*
X149848142Y-88026826D01*
X149824250Y-88028000D01*
X149336750Y-88028000D01*
X149312858Y-88026826D01*
X149289197Y-88023316D01*
X149265993Y-88017504D01*
X149243471Y-88009446D01*
X149221847Y-87999218D01*
X149201330Y-87986921D01*
X149182117Y-87972671D01*
X149164393Y-87956607D01*
X149148329Y-87938883D01*
X149134079Y-87919670D01*
X149121782Y-87899153D01*
X149111554Y-87877529D01*
X149103496Y-87855007D01*
X149097684Y-87831803D01*
X149094174Y-87808142D01*
X149093000Y-87784250D01*
X149093000Y-87221750D01*
X149094174Y-87197858D01*
X149097684Y-87174197D01*
X149103496Y-87150993D01*
X149111554Y-87128471D01*
X149121782Y-87106847D01*
X149134079Y-87086330D01*
X149148329Y-87067117D01*
X149164393Y-87049393D01*
X149182117Y-87033329D01*
X149201330Y-87019079D01*
X149221847Y-87006782D01*
X149243471Y-86996554D01*
X149265993Y-86988496D01*
X149289197Y-86982684D01*
X149312858Y-86979174D01*
X149336750Y-86978000D01*
X149824250Y-86978000D01*
X149848142Y-86979174D01*
G37*
G04 #@! TD*
G04 #@! TO.C,R2*
G36*
X154572642Y-86979174D02*
G01*
X154596303Y-86982684D01*
X154619507Y-86988496D01*
X154642029Y-86996554D01*
X154663653Y-87006782D01*
X154684170Y-87019079D01*
X154703383Y-87033329D01*
X154721107Y-87049393D01*
X154737171Y-87067117D01*
X154751421Y-87086330D01*
X154763718Y-87106847D01*
X154773946Y-87128471D01*
X154782004Y-87150993D01*
X154787816Y-87174197D01*
X154791326Y-87197858D01*
X154792500Y-87221750D01*
X154792500Y-87784250D01*
X154791326Y-87808142D01*
X154787816Y-87831803D01*
X154782004Y-87855007D01*
X154773946Y-87877529D01*
X154763718Y-87899153D01*
X154751421Y-87919670D01*
X154737171Y-87938883D01*
X154721107Y-87956607D01*
X154703383Y-87972671D01*
X154684170Y-87986921D01*
X154663653Y-87999218D01*
X154642029Y-88009446D01*
X154619507Y-88017504D01*
X154596303Y-88023316D01*
X154572642Y-88026826D01*
X154548750Y-88028000D01*
X154061250Y-88028000D01*
X154037358Y-88026826D01*
X154013697Y-88023316D01*
X153990493Y-88017504D01*
X153967971Y-88009446D01*
X153946347Y-87999218D01*
X153925830Y-87986921D01*
X153906617Y-87972671D01*
X153888893Y-87956607D01*
X153872829Y-87938883D01*
X153858579Y-87919670D01*
X153846282Y-87899153D01*
X153836054Y-87877529D01*
X153827996Y-87855007D01*
X153822184Y-87831803D01*
X153818674Y-87808142D01*
X153817500Y-87784250D01*
X153817500Y-87221750D01*
X153818674Y-87197858D01*
X153822184Y-87174197D01*
X153827996Y-87150993D01*
X153836054Y-87128471D01*
X153846282Y-87106847D01*
X153858579Y-87086330D01*
X153872829Y-87067117D01*
X153888893Y-87049393D01*
X153906617Y-87033329D01*
X153925830Y-87019079D01*
X153946347Y-87006782D01*
X153967971Y-86996554D01*
X153990493Y-86988496D01*
X154013697Y-86982684D01*
X154037358Y-86979174D01*
X154061250Y-86978000D01*
X154548750Y-86978000D01*
X154572642Y-86979174D01*
G37*
G36*
X152997642Y-86979174D02*
G01*
X153021303Y-86982684D01*
X153044507Y-86988496D01*
X153067029Y-86996554D01*
X153088653Y-87006782D01*
X153109170Y-87019079D01*
X153128383Y-87033329D01*
X153146107Y-87049393D01*
X153162171Y-87067117D01*
X153176421Y-87086330D01*
X153188718Y-87106847D01*
X153198946Y-87128471D01*
X153207004Y-87150993D01*
X153212816Y-87174197D01*
X153216326Y-87197858D01*
X153217500Y-87221750D01*
X153217500Y-87784250D01*
X153216326Y-87808142D01*
X153212816Y-87831803D01*
X153207004Y-87855007D01*
X153198946Y-87877529D01*
X153188718Y-87899153D01*
X153176421Y-87919670D01*
X153162171Y-87938883D01*
X153146107Y-87956607D01*
X153128383Y-87972671D01*
X153109170Y-87986921D01*
X153088653Y-87999218D01*
X153067029Y-88009446D01*
X153044507Y-88017504D01*
X153021303Y-88023316D01*
X152997642Y-88026826D01*
X152973750Y-88028000D01*
X152486250Y-88028000D01*
X152462358Y-88026826D01*
X152438697Y-88023316D01*
X152415493Y-88017504D01*
X152392971Y-88009446D01*
X152371347Y-87999218D01*
X152350830Y-87986921D01*
X152331617Y-87972671D01*
X152313893Y-87956607D01*
X152297829Y-87938883D01*
X152283579Y-87919670D01*
X152271282Y-87899153D01*
X152261054Y-87877529D01*
X152252996Y-87855007D01*
X152247184Y-87831803D01*
X152243674Y-87808142D01*
X152242500Y-87784250D01*
X152242500Y-87221750D01*
X152243674Y-87197858D01*
X152247184Y-87174197D01*
X152252996Y-87150993D01*
X152261054Y-87128471D01*
X152271282Y-87106847D01*
X152283579Y-87086330D01*
X152297829Y-87067117D01*
X152313893Y-87049393D01*
X152331617Y-87033329D01*
X152350830Y-87019079D01*
X152371347Y-87006782D01*
X152392971Y-86996554D01*
X152415493Y-86988496D01*
X152438697Y-86982684D01*
X152462358Y-86979174D01*
X152486250Y-86978000D01*
X152973750Y-86978000D01*
X152997642Y-86979174D01*
G37*
G04 #@! TD*
G04 #@! TO.C,R1*
G36*
X150485642Y-88630174D02*
G01*
X150509303Y-88633684D01*
X150532507Y-88639496D01*
X150555029Y-88647554D01*
X150576653Y-88657782D01*
X150597170Y-88670079D01*
X150616383Y-88684329D01*
X150634107Y-88700393D01*
X150650171Y-88718117D01*
X150664421Y-88737330D01*
X150676718Y-88757847D01*
X150686946Y-88779471D01*
X150695004Y-88801993D01*
X150700816Y-88825197D01*
X150704326Y-88848858D01*
X150705500Y-88872750D01*
X150705500Y-89435250D01*
X150704326Y-89459142D01*
X150700816Y-89482803D01*
X150695004Y-89506007D01*
X150686946Y-89528529D01*
X150676718Y-89550153D01*
X150664421Y-89570670D01*
X150650171Y-89589883D01*
X150634107Y-89607607D01*
X150616383Y-89623671D01*
X150597170Y-89637921D01*
X150576653Y-89650218D01*
X150555029Y-89660446D01*
X150532507Y-89668504D01*
X150509303Y-89674316D01*
X150485642Y-89677826D01*
X150461750Y-89679000D01*
X149974250Y-89679000D01*
X149950358Y-89677826D01*
X149926697Y-89674316D01*
X149903493Y-89668504D01*
X149880971Y-89660446D01*
X149859347Y-89650218D01*
X149838830Y-89637921D01*
X149819617Y-89623671D01*
X149801893Y-89607607D01*
X149785829Y-89589883D01*
X149771579Y-89570670D01*
X149759282Y-89550153D01*
X149749054Y-89528529D01*
X149740996Y-89506007D01*
X149735184Y-89482803D01*
X149731674Y-89459142D01*
X149730500Y-89435250D01*
X149730500Y-88872750D01*
X149731674Y-88848858D01*
X149735184Y-88825197D01*
X149740996Y-88801993D01*
X149749054Y-88779471D01*
X149759282Y-88757847D01*
X149771579Y-88737330D01*
X149785829Y-88718117D01*
X149801893Y-88700393D01*
X149819617Y-88684329D01*
X149838830Y-88670079D01*
X149859347Y-88657782D01*
X149880971Y-88647554D01*
X149903493Y-88639496D01*
X149926697Y-88633684D01*
X149950358Y-88630174D01*
X149974250Y-88629000D01*
X150461750Y-88629000D01*
X150485642Y-88630174D01*
G37*
G36*
X148910642Y-88630174D02*
G01*
X148934303Y-88633684D01*
X148957507Y-88639496D01*
X148980029Y-88647554D01*
X149001653Y-88657782D01*
X149022170Y-88670079D01*
X149041383Y-88684329D01*
X149059107Y-88700393D01*
X149075171Y-88718117D01*
X149089421Y-88737330D01*
X149101718Y-88757847D01*
X149111946Y-88779471D01*
X149120004Y-88801993D01*
X149125816Y-88825197D01*
X149129326Y-88848858D01*
X149130500Y-88872750D01*
X149130500Y-89435250D01*
X149129326Y-89459142D01*
X149125816Y-89482803D01*
X149120004Y-89506007D01*
X149111946Y-89528529D01*
X149101718Y-89550153D01*
X149089421Y-89570670D01*
X149075171Y-89589883D01*
X149059107Y-89607607D01*
X149041383Y-89623671D01*
X149022170Y-89637921D01*
X149001653Y-89650218D01*
X148980029Y-89660446D01*
X148957507Y-89668504D01*
X148934303Y-89674316D01*
X148910642Y-89677826D01*
X148886750Y-89679000D01*
X148399250Y-89679000D01*
X148375358Y-89677826D01*
X148351697Y-89674316D01*
X148328493Y-89668504D01*
X148305971Y-89660446D01*
X148284347Y-89650218D01*
X148263830Y-89637921D01*
X148244617Y-89623671D01*
X148226893Y-89607607D01*
X148210829Y-89589883D01*
X148196579Y-89570670D01*
X148184282Y-89550153D01*
X148174054Y-89528529D01*
X148165996Y-89506007D01*
X148160184Y-89482803D01*
X148156674Y-89459142D01*
X148155500Y-89435250D01*
X148155500Y-88872750D01*
X148156674Y-88848858D01*
X148160184Y-88825197D01*
X148165996Y-88801993D01*
X148174054Y-88779471D01*
X148184282Y-88757847D01*
X148196579Y-88737330D01*
X148210829Y-88718117D01*
X148226893Y-88700393D01*
X148244617Y-88684329D01*
X148263830Y-88670079D01*
X148284347Y-88657782D01*
X148305971Y-88647554D01*
X148328493Y-88639496D01*
X148351697Y-88633684D01*
X148375358Y-88630174D01*
X148399250Y-88629000D01*
X148886750Y-88629000D01*
X148910642Y-88630174D01*
G37*
G04 #@! TD*
G04 #@! TO.C,L2*
G36*
X142456642Y-88630174D02*
G01*
X142480303Y-88633684D01*
X142503507Y-88639496D01*
X142526029Y-88647554D01*
X142547653Y-88657782D01*
X142568170Y-88670079D01*
X142587383Y-88684329D01*
X142605107Y-88700393D01*
X142621171Y-88718117D01*
X142635421Y-88737330D01*
X142647718Y-88757847D01*
X142657946Y-88779471D01*
X142666004Y-88801993D01*
X142671816Y-88825197D01*
X142675326Y-88848858D01*
X142676500Y-88872750D01*
X142676500Y-89435250D01*
X142675326Y-89459142D01*
X142671816Y-89482803D01*
X142666004Y-89506007D01*
X142657946Y-89528529D01*
X142647718Y-89550153D01*
X142635421Y-89570670D01*
X142621171Y-89589883D01*
X142605107Y-89607607D01*
X142587383Y-89623671D01*
X142568170Y-89637921D01*
X142547653Y-89650218D01*
X142526029Y-89660446D01*
X142503507Y-89668504D01*
X142480303Y-89674316D01*
X142456642Y-89677826D01*
X142432750Y-89679000D01*
X141945250Y-89679000D01*
X141921358Y-89677826D01*
X141897697Y-89674316D01*
X141874493Y-89668504D01*
X141851971Y-89660446D01*
X141830347Y-89650218D01*
X141809830Y-89637921D01*
X141790617Y-89623671D01*
X141772893Y-89607607D01*
X141756829Y-89589883D01*
X141742579Y-89570670D01*
X141730282Y-89550153D01*
X141720054Y-89528529D01*
X141711996Y-89506007D01*
X141706184Y-89482803D01*
X141702674Y-89459142D01*
X141701500Y-89435250D01*
X141701500Y-88872750D01*
X141702674Y-88848858D01*
X141706184Y-88825197D01*
X141711996Y-88801993D01*
X141720054Y-88779471D01*
X141730282Y-88757847D01*
X141742579Y-88737330D01*
X141756829Y-88718117D01*
X141772893Y-88700393D01*
X141790617Y-88684329D01*
X141809830Y-88670079D01*
X141830347Y-88657782D01*
X141851971Y-88647554D01*
X141874493Y-88639496D01*
X141897697Y-88633684D01*
X141921358Y-88630174D01*
X141945250Y-88629000D01*
X142432750Y-88629000D01*
X142456642Y-88630174D01*
G37*
G36*
X144031642Y-88630174D02*
G01*
X144055303Y-88633684D01*
X144078507Y-88639496D01*
X144101029Y-88647554D01*
X144122653Y-88657782D01*
X144143170Y-88670079D01*
X144162383Y-88684329D01*
X144180107Y-88700393D01*
X144196171Y-88718117D01*
X144210421Y-88737330D01*
X144222718Y-88757847D01*
X144232946Y-88779471D01*
X144241004Y-88801993D01*
X144246816Y-88825197D01*
X144250326Y-88848858D01*
X144251500Y-88872750D01*
X144251500Y-89435250D01*
X144250326Y-89459142D01*
X144246816Y-89482803D01*
X144241004Y-89506007D01*
X144232946Y-89528529D01*
X144222718Y-89550153D01*
X144210421Y-89570670D01*
X144196171Y-89589883D01*
X144180107Y-89607607D01*
X144162383Y-89623671D01*
X144143170Y-89637921D01*
X144122653Y-89650218D01*
X144101029Y-89660446D01*
X144078507Y-89668504D01*
X144055303Y-89674316D01*
X144031642Y-89677826D01*
X144007750Y-89679000D01*
X143520250Y-89679000D01*
X143496358Y-89677826D01*
X143472697Y-89674316D01*
X143449493Y-89668504D01*
X143426971Y-89660446D01*
X143405347Y-89650218D01*
X143384830Y-89637921D01*
X143365617Y-89623671D01*
X143347893Y-89607607D01*
X143331829Y-89589883D01*
X143317579Y-89570670D01*
X143305282Y-89550153D01*
X143295054Y-89528529D01*
X143286996Y-89506007D01*
X143281184Y-89482803D01*
X143277674Y-89459142D01*
X143276500Y-89435250D01*
X143276500Y-88872750D01*
X143277674Y-88848858D01*
X143281184Y-88825197D01*
X143286996Y-88801993D01*
X143295054Y-88779471D01*
X143305282Y-88757847D01*
X143317579Y-88737330D01*
X143331829Y-88718117D01*
X143347893Y-88700393D01*
X143365617Y-88684329D01*
X143384830Y-88670079D01*
X143405347Y-88657782D01*
X143426971Y-88647554D01*
X143449493Y-88639496D01*
X143472697Y-88633684D01*
X143496358Y-88630174D01*
X143520250Y-88629000D01*
X144007750Y-88629000D01*
X144031642Y-88630174D01*
G37*
G04 #@! TD*
G04 #@! TO.C,C21*
G36*
X150038142Y-98624674D02*
G01*
X150061803Y-98628184D01*
X150085007Y-98633996D01*
X150107529Y-98642054D01*
X150129153Y-98652282D01*
X150149670Y-98664579D01*
X150168883Y-98678829D01*
X150186607Y-98694893D01*
X150202671Y-98712617D01*
X150216921Y-98731830D01*
X150229218Y-98752347D01*
X150239446Y-98773971D01*
X150247504Y-98796493D01*
X150253316Y-98819697D01*
X150256826Y-98843358D01*
X150258000Y-98867250D01*
X150258000Y-99354750D01*
X150256826Y-99378642D01*
X150253316Y-99402303D01*
X150247504Y-99425507D01*
X150239446Y-99448029D01*
X150229218Y-99469653D01*
X150216921Y-99490170D01*
X150202671Y-99509383D01*
X150186607Y-99527107D01*
X150168883Y-99543171D01*
X150149670Y-99557421D01*
X150129153Y-99569718D01*
X150107529Y-99579946D01*
X150085007Y-99588004D01*
X150061803Y-99593816D01*
X150038142Y-99597326D01*
X150014250Y-99598500D01*
X149451750Y-99598500D01*
X149427858Y-99597326D01*
X149404197Y-99593816D01*
X149380993Y-99588004D01*
X149358471Y-99579946D01*
X149336847Y-99569718D01*
X149316330Y-99557421D01*
X149297117Y-99543171D01*
X149279393Y-99527107D01*
X149263329Y-99509383D01*
X149249079Y-99490170D01*
X149236782Y-99469653D01*
X149226554Y-99448029D01*
X149218496Y-99425507D01*
X149212684Y-99402303D01*
X149209174Y-99378642D01*
X149208000Y-99354750D01*
X149208000Y-98867250D01*
X149209174Y-98843358D01*
X149212684Y-98819697D01*
X149218496Y-98796493D01*
X149226554Y-98773971D01*
X149236782Y-98752347D01*
X149249079Y-98731830D01*
X149263329Y-98712617D01*
X149279393Y-98694893D01*
X149297117Y-98678829D01*
X149316330Y-98664579D01*
X149336847Y-98652282D01*
X149358471Y-98642054D01*
X149380993Y-98633996D01*
X149404197Y-98628184D01*
X149427858Y-98624674D01*
X149451750Y-98623500D01*
X150014250Y-98623500D01*
X150038142Y-98624674D01*
G37*
G36*
X150038142Y-97049674D02*
G01*
X150061803Y-97053184D01*
X150085007Y-97058996D01*
X150107529Y-97067054D01*
X150129153Y-97077282D01*
X150149670Y-97089579D01*
X150168883Y-97103829D01*
X150186607Y-97119893D01*
X150202671Y-97137617D01*
X150216921Y-97156830D01*
X150229218Y-97177347D01*
X150239446Y-97198971D01*
X150247504Y-97221493D01*
X150253316Y-97244697D01*
X150256826Y-97268358D01*
X150258000Y-97292250D01*
X150258000Y-97779750D01*
X150256826Y-97803642D01*
X150253316Y-97827303D01*
X150247504Y-97850507D01*
X150239446Y-97873029D01*
X150229218Y-97894653D01*
X150216921Y-97915170D01*
X150202671Y-97934383D01*
X150186607Y-97952107D01*
X150168883Y-97968171D01*
X150149670Y-97982421D01*
X150129153Y-97994718D01*
X150107529Y-98004946D01*
X150085007Y-98013004D01*
X150061803Y-98018816D01*
X150038142Y-98022326D01*
X150014250Y-98023500D01*
X149451750Y-98023500D01*
X149427858Y-98022326D01*
X149404197Y-98018816D01*
X149380993Y-98013004D01*
X149358471Y-98004946D01*
X149336847Y-97994718D01*
X149316330Y-97982421D01*
X149297117Y-97968171D01*
X149279393Y-97952107D01*
X149263329Y-97934383D01*
X149249079Y-97915170D01*
X149236782Y-97894653D01*
X149226554Y-97873029D01*
X149218496Y-97850507D01*
X149212684Y-97827303D01*
X149209174Y-97803642D01*
X149208000Y-97779750D01*
X149208000Y-97292250D01*
X149209174Y-97268358D01*
X149212684Y-97244697D01*
X149218496Y-97221493D01*
X149226554Y-97198971D01*
X149236782Y-97177347D01*
X149249079Y-97156830D01*
X149263329Y-97137617D01*
X149279393Y-97119893D01*
X149297117Y-97103829D01*
X149316330Y-97089579D01*
X149336847Y-97077282D01*
X149358471Y-97067054D01*
X149380993Y-97058996D01*
X149404197Y-97053184D01*
X149427858Y-97049674D01*
X149451750Y-97048500D01*
X150014250Y-97048500D01*
X150038142Y-97049674D01*
G37*
G04 #@! TD*
G04 #@! TO.C,C20*
G36*
X154376903Y-97934287D02*
G01*
X154400564Y-97937797D01*
X154423768Y-97943609D01*
X154446290Y-97951667D01*
X154467914Y-97961895D01*
X154488431Y-97974192D01*
X154507644Y-97988442D01*
X154525368Y-98004506D01*
X154870082Y-98349220D01*
X154886146Y-98366944D01*
X154900396Y-98386157D01*
X154912693Y-98406674D01*
X154922921Y-98428298D01*
X154930979Y-98450820D01*
X154936791Y-98474024D01*
X154940301Y-98497685D01*
X154941475Y-98521577D01*
X154940301Y-98545469D01*
X154936791Y-98569130D01*
X154930979Y-98592334D01*
X154922921Y-98614856D01*
X154912693Y-98636480D01*
X154900396Y-98656997D01*
X154886146Y-98676210D01*
X154870082Y-98693934D01*
X154472334Y-99091682D01*
X154454610Y-99107746D01*
X154435397Y-99121996D01*
X154414880Y-99134293D01*
X154393256Y-99144521D01*
X154370734Y-99152579D01*
X154347530Y-99158391D01*
X154323869Y-99161901D01*
X154299977Y-99163075D01*
X154276085Y-99161901D01*
X154252424Y-99158391D01*
X154229220Y-99152579D01*
X154206698Y-99144521D01*
X154185074Y-99134293D01*
X154164557Y-99121996D01*
X154145344Y-99107746D01*
X154127620Y-99091682D01*
X153782906Y-98746968D01*
X153766842Y-98729244D01*
X153752592Y-98710031D01*
X153740295Y-98689514D01*
X153730067Y-98667890D01*
X153722009Y-98645368D01*
X153716197Y-98622164D01*
X153712687Y-98598503D01*
X153711513Y-98574611D01*
X153712687Y-98550719D01*
X153716197Y-98527058D01*
X153722009Y-98503854D01*
X153730067Y-98481332D01*
X153740295Y-98459708D01*
X153752592Y-98439191D01*
X153766842Y-98419978D01*
X153782906Y-98402254D01*
X154180654Y-98004506D01*
X154198378Y-97988442D01*
X154217591Y-97974192D01*
X154238108Y-97961895D01*
X154259732Y-97951667D01*
X154282254Y-97943609D01*
X154305458Y-97937797D01*
X154329119Y-97934287D01*
X154353011Y-97933113D01*
X154376903Y-97934287D01*
G37*
G36*
X153263209Y-96820593D02*
G01*
X153286870Y-96824103D01*
X153310074Y-96829915D01*
X153332596Y-96837973D01*
X153354220Y-96848201D01*
X153374737Y-96860498D01*
X153393950Y-96874748D01*
X153411674Y-96890812D01*
X153756388Y-97235526D01*
X153772452Y-97253250D01*
X153786702Y-97272463D01*
X153798999Y-97292980D01*
X153809227Y-97314604D01*
X153817285Y-97337126D01*
X153823097Y-97360330D01*
X153826607Y-97383991D01*
X153827781Y-97407883D01*
X153826607Y-97431775D01*
X153823097Y-97455436D01*
X153817285Y-97478640D01*
X153809227Y-97501162D01*
X153798999Y-97522786D01*
X153786702Y-97543303D01*
X153772452Y-97562516D01*
X153756388Y-97580240D01*
X153358640Y-97977988D01*
X153340916Y-97994052D01*
X153321703Y-98008302D01*
X153301186Y-98020599D01*
X153279562Y-98030827D01*
X153257040Y-98038885D01*
X153233836Y-98044697D01*
X153210175Y-98048207D01*
X153186283Y-98049381D01*
X153162391Y-98048207D01*
X153138730Y-98044697D01*
X153115526Y-98038885D01*
X153093004Y-98030827D01*
X153071380Y-98020599D01*
X153050863Y-98008302D01*
X153031650Y-97994052D01*
X153013926Y-97977988D01*
X152669212Y-97633274D01*
X152653148Y-97615550D01*
X152638898Y-97596337D01*
X152626601Y-97575820D01*
X152616373Y-97554196D01*
X152608315Y-97531674D01*
X152602503Y-97508470D01*
X152598993Y-97484809D01*
X152597819Y-97460917D01*
X152598993Y-97437025D01*
X152602503Y-97413364D01*
X152608315Y-97390160D01*
X152616373Y-97367638D01*
X152626601Y-97346014D01*
X152638898Y-97325497D01*
X152653148Y-97306284D01*
X152669212Y-97288560D01*
X153066960Y-96890812D01*
X153084684Y-96874748D01*
X153103897Y-96860498D01*
X153124414Y-96848201D01*
X153146038Y-96837973D01*
X153168560Y-96829915D01*
X153191764Y-96824103D01*
X153215425Y-96820593D01*
X153239317Y-96819419D01*
X153263209Y-96820593D01*
G37*
G04 #@! TD*
G04 #@! TO.C,C19*
G36*
X148387142Y-98624674D02*
G01*
X148410803Y-98628184D01*
X148434007Y-98633996D01*
X148456529Y-98642054D01*
X148478153Y-98652282D01*
X148498670Y-98664579D01*
X148517883Y-98678829D01*
X148535607Y-98694893D01*
X148551671Y-98712617D01*
X148565921Y-98731830D01*
X148578218Y-98752347D01*
X148588446Y-98773971D01*
X148596504Y-98796493D01*
X148602316Y-98819697D01*
X148605826Y-98843358D01*
X148607000Y-98867250D01*
X148607000Y-99354750D01*
X148605826Y-99378642D01*
X148602316Y-99402303D01*
X148596504Y-99425507D01*
X148588446Y-99448029D01*
X148578218Y-99469653D01*
X148565921Y-99490170D01*
X148551671Y-99509383D01*
X148535607Y-99527107D01*
X148517883Y-99543171D01*
X148498670Y-99557421D01*
X148478153Y-99569718D01*
X148456529Y-99579946D01*
X148434007Y-99588004D01*
X148410803Y-99593816D01*
X148387142Y-99597326D01*
X148363250Y-99598500D01*
X147800750Y-99598500D01*
X147776858Y-99597326D01*
X147753197Y-99593816D01*
X147729993Y-99588004D01*
X147707471Y-99579946D01*
X147685847Y-99569718D01*
X147665330Y-99557421D01*
X147646117Y-99543171D01*
X147628393Y-99527107D01*
X147612329Y-99509383D01*
X147598079Y-99490170D01*
X147585782Y-99469653D01*
X147575554Y-99448029D01*
X147567496Y-99425507D01*
X147561684Y-99402303D01*
X147558174Y-99378642D01*
X147557000Y-99354750D01*
X147557000Y-98867250D01*
X147558174Y-98843358D01*
X147561684Y-98819697D01*
X147567496Y-98796493D01*
X147575554Y-98773971D01*
X147585782Y-98752347D01*
X147598079Y-98731830D01*
X147612329Y-98712617D01*
X147628393Y-98694893D01*
X147646117Y-98678829D01*
X147665330Y-98664579D01*
X147685847Y-98652282D01*
X147707471Y-98642054D01*
X147729993Y-98633996D01*
X147753197Y-98628184D01*
X147776858Y-98624674D01*
X147800750Y-98623500D01*
X148363250Y-98623500D01*
X148387142Y-98624674D01*
G37*
G36*
X148387142Y-97049674D02*
G01*
X148410803Y-97053184D01*
X148434007Y-97058996D01*
X148456529Y-97067054D01*
X148478153Y-97077282D01*
X148498670Y-97089579D01*
X148517883Y-97103829D01*
X148535607Y-97119893D01*
X148551671Y-97137617D01*
X148565921Y-97156830D01*
X148578218Y-97177347D01*
X148588446Y-97198971D01*
X148596504Y-97221493D01*
X148602316Y-97244697D01*
X148605826Y-97268358D01*
X148607000Y-97292250D01*
X148607000Y-97779750D01*
X148605826Y-97803642D01*
X148602316Y-97827303D01*
X148596504Y-97850507D01*
X148588446Y-97873029D01*
X148578218Y-97894653D01*
X148565921Y-97915170D01*
X148551671Y-97934383D01*
X148535607Y-97952107D01*
X148517883Y-97968171D01*
X148498670Y-97982421D01*
X148478153Y-97994718D01*
X148456529Y-98004946D01*
X148434007Y-98013004D01*
X148410803Y-98018816D01*
X148387142Y-98022326D01*
X148363250Y-98023500D01*
X147800750Y-98023500D01*
X147776858Y-98022326D01*
X147753197Y-98018816D01*
X147729993Y-98013004D01*
X147707471Y-98004946D01*
X147685847Y-97994718D01*
X147665330Y-97982421D01*
X147646117Y-97968171D01*
X147628393Y-97952107D01*
X147612329Y-97934383D01*
X147598079Y-97915170D01*
X147585782Y-97894653D01*
X147575554Y-97873029D01*
X147567496Y-97850507D01*
X147561684Y-97827303D01*
X147558174Y-97803642D01*
X147557000Y-97779750D01*
X147557000Y-97292250D01*
X147558174Y-97268358D01*
X147561684Y-97244697D01*
X147567496Y-97221493D01*
X147575554Y-97198971D01*
X147585782Y-97177347D01*
X147598079Y-97156830D01*
X147612329Y-97137617D01*
X147628393Y-97119893D01*
X147646117Y-97103829D01*
X147665330Y-97089579D01*
X147685847Y-97077282D01*
X147707471Y-97067054D01*
X147729993Y-97058996D01*
X147753197Y-97053184D01*
X147776858Y-97049674D01*
X147800750Y-97048500D01*
X148363250Y-97048500D01*
X148387142Y-97049674D01*
G37*
G04 #@! TD*
G04 #@! TO.C,C18*
G36*
X143853642Y-95869174D02*
G01*
X143877303Y-95872684D01*
X143900507Y-95878496D01*
X143923029Y-95886554D01*
X143944653Y-95896782D01*
X143965170Y-95909079D01*
X143984383Y-95923329D01*
X144002107Y-95939393D01*
X144018171Y-95957117D01*
X144032421Y-95976330D01*
X144044718Y-95996847D01*
X144054946Y-96018471D01*
X144063004Y-96040993D01*
X144068816Y-96064197D01*
X144072326Y-96087858D01*
X144073500Y-96111750D01*
X144073500Y-96674250D01*
X144072326Y-96698142D01*
X144068816Y-96721803D01*
X144063004Y-96745007D01*
X144054946Y-96767529D01*
X144044718Y-96789153D01*
X144032421Y-96809670D01*
X144018171Y-96828883D01*
X144002107Y-96846607D01*
X143984383Y-96862671D01*
X143965170Y-96876921D01*
X143944653Y-96889218D01*
X143923029Y-96899446D01*
X143900507Y-96907504D01*
X143877303Y-96913316D01*
X143853642Y-96916826D01*
X143829750Y-96918000D01*
X143342250Y-96918000D01*
X143318358Y-96916826D01*
X143294697Y-96913316D01*
X143271493Y-96907504D01*
X143248971Y-96899446D01*
X143227347Y-96889218D01*
X143206830Y-96876921D01*
X143187617Y-96862671D01*
X143169893Y-96846607D01*
X143153829Y-96828883D01*
X143139579Y-96809670D01*
X143127282Y-96789153D01*
X143117054Y-96767529D01*
X143108996Y-96745007D01*
X143103184Y-96721803D01*
X143099674Y-96698142D01*
X143098500Y-96674250D01*
X143098500Y-96111750D01*
X143099674Y-96087858D01*
X143103184Y-96064197D01*
X143108996Y-96040993D01*
X143117054Y-96018471D01*
X143127282Y-95996847D01*
X143139579Y-95976330D01*
X143153829Y-95957117D01*
X143169893Y-95939393D01*
X143187617Y-95923329D01*
X143206830Y-95909079D01*
X143227347Y-95896782D01*
X143248971Y-95886554D01*
X143271493Y-95878496D01*
X143294697Y-95872684D01*
X143318358Y-95869174D01*
X143342250Y-95868000D01*
X143829750Y-95868000D01*
X143853642Y-95869174D01*
G37*
G36*
X145428642Y-95869174D02*
G01*
X145452303Y-95872684D01*
X145475507Y-95878496D01*
X145498029Y-95886554D01*
X145519653Y-95896782D01*
X145540170Y-95909079D01*
X145559383Y-95923329D01*
X145577107Y-95939393D01*
X145593171Y-95957117D01*
X145607421Y-95976330D01*
X145619718Y-95996847D01*
X145629946Y-96018471D01*
X145638004Y-96040993D01*
X145643816Y-96064197D01*
X145647326Y-96087858D01*
X145648500Y-96111750D01*
X145648500Y-96674250D01*
X145647326Y-96698142D01*
X145643816Y-96721803D01*
X145638004Y-96745007D01*
X145629946Y-96767529D01*
X145619718Y-96789153D01*
X145607421Y-96809670D01*
X145593171Y-96828883D01*
X145577107Y-96846607D01*
X145559383Y-96862671D01*
X145540170Y-96876921D01*
X145519653Y-96889218D01*
X145498029Y-96899446D01*
X145475507Y-96907504D01*
X145452303Y-96913316D01*
X145428642Y-96916826D01*
X145404750Y-96918000D01*
X144917250Y-96918000D01*
X144893358Y-96916826D01*
X144869697Y-96913316D01*
X144846493Y-96907504D01*
X144823971Y-96899446D01*
X144802347Y-96889218D01*
X144781830Y-96876921D01*
X144762617Y-96862671D01*
X144744893Y-96846607D01*
X144728829Y-96828883D01*
X144714579Y-96809670D01*
X144702282Y-96789153D01*
X144692054Y-96767529D01*
X144683996Y-96745007D01*
X144678184Y-96721803D01*
X144674674Y-96698142D01*
X144673500Y-96674250D01*
X144673500Y-96111750D01*
X144674674Y-96087858D01*
X144678184Y-96064197D01*
X144683996Y-96040993D01*
X144692054Y-96018471D01*
X144702282Y-95996847D01*
X144714579Y-95976330D01*
X144728829Y-95957117D01*
X144744893Y-95939393D01*
X144762617Y-95923329D01*
X144781830Y-95909079D01*
X144802347Y-95896782D01*
X144823971Y-95886554D01*
X144846493Y-95878496D01*
X144869697Y-95872684D01*
X144893358Y-95869174D01*
X144917250Y-95868000D01*
X145404750Y-95868000D01*
X145428642Y-95869174D01*
G37*
G04 #@! TD*
G04 #@! TO.C,C17*
G36*
X155385642Y-90408174D02*
G01*
X155409303Y-90411684D01*
X155432507Y-90417496D01*
X155455029Y-90425554D01*
X155476653Y-90435782D01*
X155497170Y-90448079D01*
X155516383Y-90462329D01*
X155534107Y-90478393D01*
X155550171Y-90496117D01*
X155564421Y-90515330D01*
X155576718Y-90535847D01*
X155586946Y-90557471D01*
X155595004Y-90579993D01*
X155600816Y-90603197D01*
X155604326Y-90626858D01*
X155605500Y-90650750D01*
X155605500Y-91213250D01*
X155604326Y-91237142D01*
X155600816Y-91260803D01*
X155595004Y-91284007D01*
X155586946Y-91306529D01*
X155576718Y-91328153D01*
X155564421Y-91348670D01*
X155550171Y-91367883D01*
X155534107Y-91385607D01*
X155516383Y-91401671D01*
X155497170Y-91415921D01*
X155476653Y-91428218D01*
X155455029Y-91438446D01*
X155432507Y-91446504D01*
X155409303Y-91452316D01*
X155385642Y-91455826D01*
X155361750Y-91457000D01*
X154874250Y-91457000D01*
X154850358Y-91455826D01*
X154826697Y-91452316D01*
X154803493Y-91446504D01*
X154780971Y-91438446D01*
X154759347Y-91428218D01*
X154738830Y-91415921D01*
X154719617Y-91401671D01*
X154701893Y-91385607D01*
X154685829Y-91367883D01*
X154671579Y-91348670D01*
X154659282Y-91328153D01*
X154649054Y-91306529D01*
X154640996Y-91284007D01*
X154635184Y-91260803D01*
X154631674Y-91237142D01*
X154630500Y-91213250D01*
X154630500Y-90650750D01*
X154631674Y-90626858D01*
X154635184Y-90603197D01*
X154640996Y-90579993D01*
X154649054Y-90557471D01*
X154659282Y-90535847D01*
X154671579Y-90515330D01*
X154685829Y-90496117D01*
X154701893Y-90478393D01*
X154719617Y-90462329D01*
X154738830Y-90448079D01*
X154759347Y-90435782D01*
X154780971Y-90425554D01*
X154803493Y-90417496D01*
X154826697Y-90411684D01*
X154850358Y-90408174D01*
X154874250Y-90407000D01*
X155361750Y-90407000D01*
X155385642Y-90408174D01*
G37*
G36*
X153810642Y-90408174D02*
G01*
X153834303Y-90411684D01*
X153857507Y-90417496D01*
X153880029Y-90425554D01*
X153901653Y-90435782D01*
X153922170Y-90448079D01*
X153941383Y-90462329D01*
X153959107Y-90478393D01*
X153975171Y-90496117D01*
X153989421Y-90515330D01*
X154001718Y-90535847D01*
X154011946Y-90557471D01*
X154020004Y-90579993D01*
X154025816Y-90603197D01*
X154029326Y-90626858D01*
X154030500Y-90650750D01*
X154030500Y-91213250D01*
X154029326Y-91237142D01*
X154025816Y-91260803D01*
X154020004Y-91284007D01*
X154011946Y-91306529D01*
X154001718Y-91328153D01*
X153989421Y-91348670D01*
X153975171Y-91367883D01*
X153959107Y-91385607D01*
X153941383Y-91401671D01*
X153922170Y-91415921D01*
X153901653Y-91428218D01*
X153880029Y-91438446D01*
X153857507Y-91446504D01*
X153834303Y-91452316D01*
X153810642Y-91455826D01*
X153786750Y-91457000D01*
X153299250Y-91457000D01*
X153275358Y-91455826D01*
X153251697Y-91452316D01*
X153228493Y-91446504D01*
X153205971Y-91438446D01*
X153184347Y-91428218D01*
X153163830Y-91415921D01*
X153144617Y-91401671D01*
X153126893Y-91385607D01*
X153110829Y-91367883D01*
X153096579Y-91348670D01*
X153084282Y-91328153D01*
X153074054Y-91306529D01*
X153065996Y-91284007D01*
X153060184Y-91260803D01*
X153056674Y-91237142D01*
X153055500Y-91213250D01*
X153055500Y-90650750D01*
X153056674Y-90626858D01*
X153060184Y-90603197D01*
X153065996Y-90579993D01*
X153074054Y-90557471D01*
X153084282Y-90535847D01*
X153096579Y-90515330D01*
X153110829Y-90496117D01*
X153126893Y-90478393D01*
X153144617Y-90462329D01*
X153163830Y-90448079D01*
X153184347Y-90435782D01*
X153205971Y-90425554D01*
X153228493Y-90417496D01*
X153251697Y-90411684D01*
X153275358Y-90408174D01*
X153299250Y-90407000D01*
X153786750Y-90407000D01*
X153810642Y-90408174D01*
G37*
G04 #@! TD*
G04 #@! TO.C,C15*
G36*
X143881295Y-94091174D02*
G01*
X143904956Y-94094684D01*
X143928160Y-94100496D01*
X143950682Y-94108554D01*
X143972306Y-94118782D01*
X143992823Y-94131079D01*
X144012036Y-94145329D01*
X144029760Y-94161393D01*
X144045824Y-94179117D01*
X144060074Y-94198330D01*
X144072371Y-94218847D01*
X144082599Y-94240471D01*
X144090657Y-94262993D01*
X144096469Y-94286197D01*
X144099979Y-94309858D01*
X144101153Y-94333750D01*
X144101153Y-94896250D01*
X144099979Y-94920142D01*
X144096469Y-94943803D01*
X144090657Y-94967007D01*
X144082599Y-94989529D01*
X144072371Y-95011153D01*
X144060074Y-95031670D01*
X144045824Y-95050883D01*
X144029760Y-95068607D01*
X144012036Y-95084671D01*
X143992823Y-95098921D01*
X143972306Y-95111218D01*
X143950682Y-95121446D01*
X143928160Y-95129504D01*
X143904956Y-95135316D01*
X143881295Y-95138826D01*
X143857403Y-95140000D01*
X143369903Y-95140000D01*
X143346011Y-95138826D01*
X143322350Y-95135316D01*
X143299146Y-95129504D01*
X143276624Y-95121446D01*
X143255000Y-95111218D01*
X143234483Y-95098921D01*
X143215270Y-95084671D01*
X143197546Y-95068607D01*
X143181482Y-95050883D01*
X143167232Y-95031670D01*
X143154935Y-95011153D01*
X143144707Y-94989529D01*
X143136649Y-94967007D01*
X143130837Y-94943803D01*
X143127327Y-94920142D01*
X143126153Y-94896250D01*
X143126153Y-94333750D01*
X143127327Y-94309858D01*
X143130837Y-94286197D01*
X143136649Y-94262993D01*
X143144707Y-94240471D01*
X143154935Y-94218847D01*
X143167232Y-94198330D01*
X143181482Y-94179117D01*
X143197546Y-94161393D01*
X143215270Y-94145329D01*
X143234483Y-94131079D01*
X143255000Y-94118782D01*
X143276624Y-94108554D01*
X143299146Y-94100496D01*
X143322350Y-94094684D01*
X143346011Y-94091174D01*
X143369903Y-94090000D01*
X143857403Y-94090000D01*
X143881295Y-94091174D01*
G37*
G36*
X145456295Y-94091174D02*
G01*
X145479956Y-94094684D01*
X145503160Y-94100496D01*
X145525682Y-94108554D01*
X145547306Y-94118782D01*
X145567823Y-94131079D01*
X145587036Y-94145329D01*
X145604760Y-94161393D01*
X145620824Y-94179117D01*
X145635074Y-94198330D01*
X145647371Y-94218847D01*
X145657599Y-94240471D01*
X145665657Y-94262993D01*
X145671469Y-94286197D01*
X145674979Y-94309858D01*
X145676153Y-94333750D01*
X145676153Y-94896250D01*
X145674979Y-94920142D01*
X145671469Y-94943803D01*
X145665657Y-94967007D01*
X145657599Y-94989529D01*
X145647371Y-95011153D01*
X145635074Y-95031670D01*
X145620824Y-95050883D01*
X145604760Y-95068607D01*
X145587036Y-95084671D01*
X145567823Y-95098921D01*
X145547306Y-95111218D01*
X145525682Y-95121446D01*
X145503160Y-95129504D01*
X145479956Y-95135316D01*
X145456295Y-95138826D01*
X145432403Y-95140000D01*
X144944903Y-95140000D01*
X144921011Y-95138826D01*
X144897350Y-95135316D01*
X144874146Y-95129504D01*
X144851624Y-95121446D01*
X144830000Y-95111218D01*
X144809483Y-95098921D01*
X144790270Y-95084671D01*
X144772546Y-95068607D01*
X144756482Y-95050883D01*
X144742232Y-95031670D01*
X144729935Y-95011153D01*
X144719707Y-94989529D01*
X144711649Y-94967007D01*
X144705837Y-94943803D01*
X144702327Y-94920142D01*
X144701153Y-94896250D01*
X144701153Y-94333750D01*
X144702327Y-94309858D01*
X144705837Y-94286197D01*
X144711649Y-94262993D01*
X144719707Y-94240471D01*
X144729935Y-94218847D01*
X144742232Y-94198330D01*
X144756482Y-94179117D01*
X144772546Y-94161393D01*
X144790270Y-94145329D01*
X144809483Y-94131079D01*
X144830000Y-94118782D01*
X144851624Y-94108554D01*
X144874146Y-94100496D01*
X144897350Y-94094684D01*
X144921011Y-94091174D01*
X144944903Y-94090000D01*
X145432403Y-94090000D01*
X145456295Y-94091174D01*
G37*
G04 #@! TD*
G04 #@! TO.C,C14*
G36*
X154623642Y-88630174D02*
G01*
X154647303Y-88633684D01*
X154670507Y-88639496D01*
X154693029Y-88647554D01*
X154714653Y-88657782D01*
X154735170Y-88670079D01*
X154754383Y-88684329D01*
X154772107Y-88700393D01*
X154788171Y-88718117D01*
X154802421Y-88737330D01*
X154814718Y-88757847D01*
X154824946Y-88779471D01*
X154833004Y-88801993D01*
X154838816Y-88825197D01*
X154842326Y-88848858D01*
X154843500Y-88872750D01*
X154843500Y-89435250D01*
X154842326Y-89459142D01*
X154838816Y-89482803D01*
X154833004Y-89506007D01*
X154824946Y-89528529D01*
X154814718Y-89550153D01*
X154802421Y-89570670D01*
X154788171Y-89589883D01*
X154772107Y-89607607D01*
X154754383Y-89623671D01*
X154735170Y-89637921D01*
X154714653Y-89650218D01*
X154693029Y-89660446D01*
X154670507Y-89668504D01*
X154647303Y-89674316D01*
X154623642Y-89677826D01*
X154599750Y-89679000D01*
X154112250Y-89679000D01*
X154088358Y-89677826D01*
X154064697Y-89674316D01*
X154041493Y-89668504D01*
X154018971Y-89660446D01*
X153997347Y-89650218D01*
X153976830Y-89637921D01*
X153957617Y-89623671D01*
X153939893Y-89607607D01*
X153923829Y-89589883D01*
X153909579Y-89570670D01*
X153897282Y-89550153D01*
X153887054Y-89528529D01*
X153878996Y-89506007D01*
X153873184Y-89482803D01*
X153869674Y-89459142D01*
X153868500Y-89435250D01*
X153868500Y-88872750D01*
X153869674Y-88848858D01*
X153873184Y-88825197D01*
X153878996Y-88801993D01*
X153887054Y-88779471D01*
X153897282Y-88757847D01*
X153909579Y-88737330D01*
X153923829Y-88718117D01*
X153939893Y-88700393D01*
X153957617Y-88684329D01*
X153976830Y-88670079D01*
X153997347Y-88657782D01*
X154018971Y-88647554D01*
X154041493Y-88639496D01*
X154064697Y-88633684D01*
X154088358Y-88630174D01*
X154112250Y-88629000D01*
X154599750Y-88629000D01*
X154623642Y-88630174D01*
G37*
G36*
X153048642Y-88630174D02*
G01*
X153072303Y-88633684D01*
X153095507Y-88639496D01*
X153118029Y-88647554D01*
X153139653Y-88657782D01*
X153160170Y-88670079D01*
X153179383Y-88684329D01*
X153197107Y-88700393D01*
X153213171Y-88718117D01*
X153227421Y-88737330D01*
X153239718Y-88757847D01*
X153249946Y-88779471D01*
X153258004Y-88801993D01*
X153263816Y-88825197D01*
X153267326Y-88848858D01*
X153268500Y-88872750D01*
X153268500Y-89435250D01*
X153267326Y-89459142D01*
X153263816Y-89482803D01*
X153258004Y-89506007D01*
X153249946Y-89528529D01*
X153239718Y-89550153D01*
X153227421Y-89570670D01*
X153213171Y-89589883D01*
X153197107Y-89607607D01*
X153179383Y-89623671D01*
X153160170Y-89637921D01*
X153139653Y-89650218D01*
X153118029Y-89660446D01*
X153095507Y-89668504D01*
X153072303Y-89674316D01*
X153048642Y-89677826D01*
X153024750Y-89679000D01*
X152537250Y-89679000D01*
X152513358Y-89677826D01*
X152489697Y-89674316D01*
X152466493Y-89668504D01*
X152443971Y-89660446D01*
X152422347Y-89650218D01*
X152401830Y-89637921D01*
X152382617Y-89623671D01*
X152364893Y-89607607D01*
X152348829Y-89589883D01*
X152334579Y-89570670D01*
X152322282Y-89550153D01*
X152312054Y-89528529D01*
X152303996Y-89506007D01*
X152298184Y-89482803D01*
X152294674Y-89459142D01*
X152293500Y-89435250D01*
X152293500Y-88872750D01*
X152294674Y-88848858D01*
X152298184Y-88825197D01*
X152303996Y-88801993D01*
X152312054Y-88779471D01*
X152322282Y-88757847D01*
X152334579Y-88737330D01*
X152348829Y-88718117D01*
X152364893Y-88700393D01*
X152382617Y-88684329D01*
X152401830Y-88670079D01*
X152422347Y-88657782D01*
X152443971Y-88647554D01*
X152466493Y-88639496D01*
X152489697Y-88633684D01*
X152513358Y-88630174D01*
X152537250Y-88629000D01*
X153024750Y-88629000D01*
X153048642Y-88630174D01*
G37*
G04 #@! TD*
G04 #@! TO.C,C13*
G36*
X143904642Y-91297174D02*
G01*
X143928303Y-91300684D01*
X143951507Y-91306496D01*
X143974029Y-91314554D01*
X143995653Y-91324782D01*
X144016170Y-91337079D01*
X144035383Y-91351329D01*
X144053107Y-91367393D01*
X144069171Y-91385117D01*
X144083421Y-91404330D01*
X144095718Y-91424847D01*
X144105946Y-91446471D01*
X144114004Y-91468993D01*
X144119816Y-91492197D01*
X144123326Y-91515858D01*
X144124500Y-91539750D01*
X144124500Y-92102250D01*
X144123326Y-92126142D01*
X144119816Y-92149803D01*
X144114004Y-92173007D01*
X144105946Y-92195529D01*
X144095718Y-92217153D01*
X144083421Y-92237670D01*
X144069171Y-92256883D01*
X144053107Y-92274607D01*
X144035383Y-92290671D01*
X144016170Y-92304921D01*
X143995653Y-92317218D01*
X143974029Y-92327446D01*
X143951507Y-92335504D01*
X143928303Y-92341316D01*
X143904642Y-92344826D01*
X143880750Y-92346000D01*
X143393250Y-92346000D01*
X143369358Y-92344826D01*
X143345697Y-92341316D01*
X143322493Y-92335504D01*
X143299971Y-92327446D01*
X143278347Y-92317218D01*
X143257830Y-92304921D01*
X143238617Y-92290671D01*
X143220893Y-92274607D01*
X143204829Y-92256883D01*
X143190579Y-92237670D01*
X143178282Y-92217153D01*
X143168054Y-92195529D01*
X143159996Y-92173007D01*
X143154184Y-92149803D01*
X143150674Y-92126142D01*
X143149500Y-92102250D01*
X143149500Y-91539750D01*
X143150674Y-91515858D01*
X143154184Y-91492197D01*
X143159996Y-91468993D01*
X143168054Y-91446471D01*
X143178282Y-91424847D01*
X143190579Y-91404330D01*
X143204829Y-91385117D01*
X143220893Y-91367393D01*
X143238617Y-91351329D01*
X143257830Y-91337079D01*
X143278347Y-91324782D01*
X143299971Y-91314554D01*
X143322493Y-91306496D01*
X143345697Y-91300684D01*
X143369358Y-91297174D01*
X143393250Y-91296000D01*
X143880750Y-91296000D01*
X143904642Y-91297174D01*
G37*
G36*
X145479642Y-91297174D02*
G01*
X145503303Y-91300684D01*
X145526507Y-91306496D01*
X145549029Y-91314554D01*
X145570653Y-91324782D01*
X145591170Y-91337079D01*
X145610383Y-91351329D01*
X145628107Y-91367393D01*
X145644171Y-91385117D01*
X145658421Y-91404330D01*
X145670718Y-91424847D01*
X145680946Y-91446471D01*
X145689004Y-91468993D01*
X145694816Y-91492197D01*
X145698326Y-91515858D01*
X145699500Y-91539750D01*
X145699500Y-92102250D01*
X145698326Y-92126142D01*
X145694816Y-92149803D01*
X145689004Y-92173007D01*
X145680946Y-92195529D01*
X145670718Y-92217153D01*
X145658421Y-92237670D01*
X145644171Y-92256883D01*
X145628107Y-92274607D01*
X145610383Y-92290671D01*
X145591170Y-92304921D01*
X145570653Y-92317218D01*
X145549029Y-92327446D01*
X145526507Y-92335504D01*
X145503303Y-92341316D01*
X145479642Y-92344826D01*
X145455750Y-92346000D01*
X144968250Y-92346000D01*
X144944358Y-92344826D01*
X144920697Y-92341316D01*
X144897493Y-92335504D01*
X144874971Y-92327446D01*
X144853347Y-92317218D01*
X144832830Y-92304921D01*
X144813617Y-92290671D01*
X144795893Y-92274607D01*
X144779829Y-92256883D01*
X144765579Y-92237670D01*
X144753282Y-92217153D01*
X144743054Y-92195529D01*
X144734996Y-92173007D01*
X144729184Y-92149803D01*
X144725674Y-92126142D01*
X144724500Y-92102250D01*
X144724500Y-91539750D01*
X144725674Y-91515858D01*
X144729184Y-91492197D01*
X144734996Y-91468993D01*
X144743054Y-91446471D01*
X144753282Y-91424847D01*
X144765579Y-91404330D01*
X144779829Y-91385117D01*
X144795893Y-91367393D01*
X144813617Y-91351329D01*
X144832830Y-91337079D01*
X144853347Y-91324782D01*
X144874971Y-91314554D01*
X144897493Y-91306496D01*
X144920697Y-91300684D01*
X144944358Y-91297174D01*
X144968250Y-91296000D01*
X145455750Y-91296000D01*
X145479642Y-91297174D01*
G37*
G04 #@! TD*
D11*
G04 #@! TO.C,J10*
X152273000Y-75996021D03*
X160909000Y-75996021D03*
D12*
X156591000Y-75996021D03*
G04 #@! TD*
D11*
G04 #@! TO.C,J9*
X139827000Y-75984100D03*
X148463000Y-75984100D03*
D12*
X144145000Y-75984100D03*
G04 #@! TD*
D10*
G04 #@! TO.C,C1*
G36*
X155701592Y-117984794D02*
G01*
X155727681Y-117988664D01*
X155753264Y-117995072D01*
X155778096Y-118003957D01*
X155801938Y-118015234D01*
X155824560Y-118028793D01*
X155845743Y-118044503D01*
X155865285Y-118062215D01*
X155882997Y-118081757D01*
X155898707Y-118102940D01*
X155912266Y-118125562D01*
X155923543Y-118149404D01*
X155932428Y-118174236D01*
X155938836Y-118199819D01*
X155942706Y-118225908D01*
X155944000Y-118252250D01*
X155944000Y-118789750D01*
X155942706Y-118816092D01*
X155938836Y-118842181D01*
X155932428Y-118867764D01*
X155923543Y-118892596D01*
X155912266Y-118916438D01*
X155898707Y-118939060D01*
X155882997Y-118960243D01*
X155865285Y-118979785D01*
X155845743Y-118997497D01*
X155824560Y-119013207D01*
X155801938Y-119026766D01*
X155778096Y-119038043D01*
X155753264Y-119046928D01*
X155727681Y-119053336D01*
X155701592Y-119057206D01*
X155675250Y-119058500D01*
X154712750Y-119058500D01*
X154686408Y-119057206D01*
X154660319Y-119053336D01*
X154634736Y-119046928D01*
X154609904Y-119038043D01*
X154586062Y-119026766D01*
X154563440Y-119013207D01*
X154542257Y-118997497D01*
X154522715Y-118979785D01*
X154505003Y-118960243D01*
X154489293Y-118939060D01*
X154475734Y-118916438D01*
X154464457Y-118892596D01*
X154455572Y-118867764D01*
X154449164Y-118842181D01*
X154445294Y-118816092D01*
X154444000Y-118789750D01*
X154444000Y-118252250D01*
X154445294Y-118225908D01*
X154449164Y-118199819D01*
X154455572Y-118174236D01*
X154464457Y-118149404D01*
X154475734Y-118125562D01*
X154489293Y-118102940D01*
X154505003Y-118081757D01*
X154522715Y-118062215D01*
X154542257Y-118044503D01*
X154563440Y-118028793D01*
X154586062Y-118015234D01*
X154609904Y-118003957D01*
X154634736Y-117995072D01*
X154660319Y-117988664D01*
X154686408Y-117984794D01*
X154712750Y-117983500D01*
X155675250Y-117983500D01*
X155701592Y-117984794D01*
G37*
G36*
X155701592Y-119859794D02*
G01*
X155727681Y-119863664D01*
X155753264Y-119870072D01*
X155778096Y-119878957D01*
X155801938Y-119890234D01*
X155824560Y-119903793D01*
X155845743Y-119919503D01*
X155865285Y-119937215D01*
X155882997Y-119956757D01*
X155898707Y-119977940D01*
X155912266Y-120000562D01*
X155923543Y-120024404D01*
X155932428Y-120049236D01*
X155938836Y-120074819D01*
X155942706Y-120100908D01*
X155944000Y-120127250D01*
X155944000Y-120664750D01*
X155942706Y-120691092D01*
X155938836Y-120717181D01*
X155932428Y-120742764D01*
X155923543Y-120767596D01*
X155912266Y-120791438D01*
X155898707Y-120814060D01*
X155882997Y-120835243D01*
X155865285Y-120854785D01*
X155845743Y-120872497D01*
X155824560Y-120888207D01*
X155801938Y-120901766D01*
X155778096Y-120913043D01*
X155753264Y-120921928D01*
X155727681Y-120928336D01*
X155701592Y-120932206D01*
X155675250Y-120933500D01*
X154712750Y-120933500D01*
X154686408Y-120932206D01*
X154660319Y-120928336D01*
X154634736Y-120921928D01*
X154609904Y-120913043D01*
X154586062Y-120901766D01*
X154563440Y-120888207D01*
X154542257Y-120872497D01*
X154522715Y-120854785D01*
X154505003Y-120835243D01*
X154489293Y-120814060D01*
X154475734Y-120791438D01*
X154464457Y-120767596D01*
X154455572Y-120742764D01*
X154449164Y-120717181D01*
X154445294Y-120691092D01*
X154444000Y-120664750D01*
X154444000Y-120127250D01*
X154445294Y-120100908D01*
X154449164Y-120074819D01*
X154455572Y-120049236D01*
X154464457Y-120024404D01*
X154475734Y-120000562D01*
X154489293Y-119977940D01*
X154505003Y-119956757D01*
X154522715Y-119937215D01*
X154542257Y-119919503D01*
X154563440Y-119903793D01*
X154586062Y-119890234D01*
X154609904Y-119878957D01*
X154634736Y-119870072D01*
X154660319Y-119863664D01*
X154686408Y-119859794D01*
X154712750Y-119858500D01*
X155675250Y-119858500D01*
X155701592Y-119859794D01*
G37*
G04 #@! TD*
G04 #@! TO.C,C2*
G36*
X150621592Y-119859794D02*
G01*
X150647681Y-119863664D01*
X150673264Y-119870072D01*
X150698096Y-119878957D01*
X150721938Y-119890234D01*
X150744560Y-119903793D01*
X150765743Y-119919503D01*
X150785285Y-119937215D01*
X150802997Y-119956757D01*
X150818707Y-119977940D01*
X150832266Y-120000562D01*
X150843543Y-120024404D01*
X150852428Y-120049236D01*
X150858836Y-120074819D01*
X150862706Y-120100908D01*
X150864000Y-120127250D01*
X150864000Y-120664750D01*
X150862706Y-120691092D01*
X150858836Y-120717181D01*
X150852428Y-120742764D01*
X150843543Y-120767596D01*
X150832266Y-120791438D01*
X150818707Y-120814060D01*
X150802997Y-120835243D01*
X150785285Y-120854785D01*
X150765743Y-120872497D01*
X150744560Y-120888207D01*
X150721938Y-120901766D01*
X150698096Y-120913043D01*
X150673264Y-120921928D01*
X150647681Y-120928336D01*
X150621592Y-120932206D01*
X150595250Y-120933500D01*
X149632750Y-120933500D01*
X149606408Y-120932206D01*
X149580319Y-120928336D01*
X149554736Y-120921928D01*
X149529904Y-120913043D01*
X149506062Y-120901766D01*
X149483440Y-120888207D01*
X149462257Y-120872497D01*
X149442715Y-120854785D01*
X149425003Y-120835243D01*
X149409293Y-120814060D01*
X149395734Y-120791438D01*
X149384457Y-120767596D01*
X149375572Y-120742764D01*
X149369164Y-120717181D01*
X149365294Y-120691092D01*
X149364000Y-120664750D01*
X149364000Y-120127250D01*
X149365294Y-120100908D01*
X149369164Y-120074819D01*
X149375572Y-120049236D01*
X149384457Y-120024404D01*
X149395734Y-120000562D01*
X149409293Y-119977940D01*
X149425003Y-119956757D01*
X149442715Y-119937215D01*
X149462257Y-119919503D01*
X149483440Y-119903793D01*
X149506062Y-119890234D01*
X149529904Y-119878957D01*
X149554736Y-119870072D01*
X149580319Y-119863664D01*
X149606408Y-119859794D01*
X149632750Y-119858500D01*
X150595250Y-119858500D01*
X150621592Y-119859794D01*
G37*
G36*
X150621592Y-117984794D02*
G01*
X150647681Y-117988664D01*
X150673264Y-117995072D01*
X150698096Y-118003957D01*
X150721938Y-118015234D01*
X150744560Y-118028793D01*
X150765743Y-118044503D01*
X150785285Y-118062215D01*
X150802997Y-118081757D01*
X150818707Y-118102940D01*
X150832266Y-118125562D01*
X150843543Y-118149404D01*
X150852428Y-118174236D01*
X150858836Y-118199819D01*
X150862706Y-118225908D01*
X150864000Y-118252250D01*
X150864000Y-118789750D01*
X150862706Y-118816092D01*
X150858836Y-118842181D01*
X150852428Y-118867764D01*
X150843543Y-118892596D01*
X150832266Y-118916438D01*
X150818707Y-118939060D01*
X150802997Y-118960243D01*
X150785285Y-118979785D01*
X150765743Y-118997497D01*
X150744560Y-119013207D01*
X150721938Y-119026766D01*
X150698096Y-119038043D01*
X150673264Y-119046928D01*
X150647681Y-119053336D01*
X150621592Y-119057206D01*
X150595250Y-119058500D01*
X149632750Y-119058500D01*
X149606408Y-119057206D01*
X149580319Y-119053336D01*
X149554736Y-119046928D01*
X149529904Y-119038043D01*
X149506062Y-119026766D01*
X149483440Y-119013207D01*
X149462257Y-118997497D01*
X149442715Y-118979785D01*
X149425003Y-118960243D01*
X149409293Y-118939060D01*
X149395734Y-118916438D01*
X149384457Y-118892596D01*
X149375572Y-118867764D01*
X149369164Y-118842181D01*
X149365294Y-118816092D01*
X149364000Y-118789750D01*
X149364000Y-118252250D01*
X149365294Y-118225908D01*
X149369164Y-118199819D01*
X149375572Y-118174236D01*
X149384457Y-118149404D01*
X149395734Y-118125562D01*
X149409293Y-118102940D01*
X149425003Y-118081757D01*
X149442715Y-118062215D01*
X149462257Y-118044503D01*
X149483440Y-118028793D01*
X149506062Y-118015234D01*
X149529904Y-118003957D01*
X149554736Y-117995072D01*
X149580319Y-117988664D01*
X149606408Y-117984794D01*
X149632750Y-117983500D01*
X150595250Y-117983500D01*
X150621592Y-117984794D01*
G37*
G04 #@! TD*
G04 #@! TO.C,C3*
G36*
X145541592Y-119859794D02*
G01*
X145567681Y-119863664D01*
X145593264Y-119870072D01*
X145618096Y-119878957D01*
X145641938Y-119890234D01*
X145664560Y-119903793D01*
X145685743Y-119919503D01*
X145705285Y-119937215D01*
X145722997Y-119956757D01*
X145738707Y-119977940D01*
X145752266Y-120000562D01*
X145763543Y-120024404D01*
X145772428Y-120049236D01*
X145778836Y-120074819D01*
X145782706Y-120100908D01*
X145784000Y-120127250D01*
X145784000Y-120664750D01*
X145782706Y-120691092D01*
X145778836Y-120717181D01*
X145772428Y-120742764D01*
X145763543Y-120767596D01*
X145752266Y-120791438D01*
X145738707Y-120814060D01*
X145722997Y-120835243D01*
X145705285Y-120854785D01*
X145685743Y-120872497D01*
X145664560Y-120888207D01*
X145641938Y-120901766D01*
X145618096Y-120913043D01*
X145593264Y-120921928D01*
X145567681Y-120928336D01*
X145541592Y-120932206D01*
X145515250Y-120933500D01*
X144552750Y-120933500D01*
X144526408Y-120932206D01*
X144500319Y-120928336D01*
X144474736Y-120921928D01*
X144449904Y-120913043D01*
X144426062Y-120901766D01*
X144403440Y-120888207D01*
X144382257Y-120872497D01*
X144362715Y-120854785D01*
X144345003Y-120835243D01*
X144329293Y-120814060D01*
X144315734Y-120791438D01*
X144304457Y-120767596D01*
X144295572Y-120742764D01*
X144289164Y-120717181D01*
X144285294Y-120691092D01*
X144284000Y-120664750D01*
X144284000Y-120127250D01*
X144285294Y-120100908D01*
X144289164Y-120074819D01*
X144295572Y-120049236D01*
X144304457Y-120024404D01*
X144315734Y-120000562D01*
X144329293Y-119977940D01*
X144345003Y-119956757D01*
X144362715Y-119937215D01*
X144382257Y-119919503D01*
X144403440Y-119903793D01*
X144426062Y-119890234D01*
X144449904Y-119878957D01*
X144474736Y-119870072D01*
X144500319Y-119863664D01*
X144526408Y-119859794D01*
X144552750Y-119858500D01*
X145515250Y-119858500D01*
X145541592Y-119859794D01*
G37*
G36*
X145541592Y-117984794D02*
G01*
X145567681Y-117988664D01*
X145593264Y-117995072D01*
X145618096Y-118003957D01*
X145641938Y-118015234D01*
X145664560Y-118028793D01*
X145685743Y-118044503D01*
X145705285Y-118062215D01*
X145722997Y-118081757D01*
X145738707Y-118102940D01*
X145752266Y-118125562D01*
X145763543Y-118149404D01*
X145772428Y-118174236D01*
X145778836Y-118199819D01*
X145782706Y-118225908D01*
X145784000Y-118252250D01*
X145784000Y-118789750D01*
X145782706Y-118816092D01*
X145778836Y-118842181D01*
X145772428Y-118867764D01*
X145763543Y-118892596D01*
X145752266Y-118916438D01*
X145738707Y-118939060D01*
X145722997Y-118960243D01*
X145705285Y-118979785D01*
X145685743Y-118997497D01*
X145664560Y-119013207D01*
X145641938Y-119026766D01*
X145618096Y-119038043D01*
X145593264Y-119046928D01*
X145567681Y-119053336D01*
X145541592Y-119057206D01*
X145515250Y-119058500D01*
X144552750Y-119058500D01*
X144526408Y-119057206D01*
X144500319Y-119053336D01*
X144474736Y-119046928D01*
X144449904Y-119038043D01*
X144426062Y-119026766D01*
X144403440Y-119013207D01*
X144382257Y-118997497D01*
X144362715Y-118979785D01*
X144345003Y-118960243D01*
X144329293Y-118939060D01*
X144315734Y-118916438D01*
X144304457Y-118892596D01*
X144295572Y-118867764D01*
X144289164Y-118842181D01*
X144285294Y-118816092D01*
X144284000Y-118789750D01*
X144284000Y-118252250D01*
X144285294Y-118225908D01*
X144289164Y-118199819D01*
X144295572Y-118174236D01*
X144304457Y-118149404D01*
X144315734Y-118125562D01*
X144329293Y-118102940D01*
X144345003Y-118081757D01*
X144362715Y-118062215D01*
X144382257Y-118044503D01*
X144403440Y-118028793D01*
X144426062Y-118015234D01*
X144449904Y-118003957D01*
X144474736Y-117995072D01*
X144500319Y-117988664D01*
X144526408Y-117984794D01*
X144552750Y-117983500D01*
X145515250Y-117983500D01*
X145541592Y-117984794D01*
G37*
G04 #@! TD*
G04 #@! TO.C,C16*
G36*
X155664592Y-109741294D02*
G01*
X155690681Y-109745164D01*
X155716264Y-109751572D01*
X155741096Y-109760457D01*
X155764938Y-109771734D01*
X155787560Y-109785293D01*
X155808743Y-109801003D01*
X155828285Y-109818715D01*
X155845997Y-109838257D01*
X155861707Y-109859440D01*
X155875266Y-109882062D01*
X155886543Y-109905904D01*
X155895428Y-109930736D01*
X155901836Y-109956319D01*
X155905706Y-109982408D01*
X155907000Y-110008750D01*
X155907000Y-110971250D01*
X155905706Y-110997592D01*
X155901836Y-111023681D01*
X155895428Y-111049264D01*
X155886543Y-111074096D01*
X155875266Y-111097938D01*
X155861707Y-111120560D01*
X155845997Y-111141743D01*
X155828285Y-111161285D01*
X155808743Y-111178997D01*
X155787560Y-111194707D01*
X155764938Y-111208266D01*
X155741096Y-111219543D01*
X155716264Y-111228428D01*
X155690681Y-111234836D01*
X155664592Y-111238706D01*
X155638250Y-111240000D01*
X155100750Y-111240000D01*
X155074408Y-111238706D01*
X155048319Y-111234836D01*
X155022736Y-111228428D01*
X154997904Y-111219543D01*
X154974062Y-111208266D01*
X154951440Y-111194707D01*
X154930257Y-111178997D01*
X154910715Y-111161285D01*
X154893003Y-111141743D01*
X154877293Y-111120560D01*
X154863734Y-111097938D01*
X154852457Y-111074096D01*
X154843572Y-111049264D01*
X154837164Y-111023681D01*
X154833294Y-110997592D01*
X154832000Y-110971250D01*
X154832000Y-110008750D01*
X154833294Y-109982408D01*
X154837164Y-109956319D01*
X154843572Y-109930736D01*
X154852457Y-109905904D01*
X154863734Y-109882062D01*
X154877293Y-109859440D01*
X154893003Y-109838257D01*
X154910715Y-109818715D01*
X154930257Y-109801003D01*
X154951440Y-109785293D01*
X154974062Y-109771734D01*
X154997904Y-109760457D01*
X155022736Y-109751572D01*
X155048319Y-109745164D01*
X155074408Y-109741294D01*
X155100750Y-109740000D01*
X155638250Y-109740000D01*
X155664592Y-109741294D01*
G37*
G36*
X153789592Y-109741294D02*
G01*
X153815681Y-109745164D01*
X153841264Y-109751572D01*
X153866096Y-109760457D01*
X153889938Y-109771734D01*
X153912560Y-109785293D01*
X153933743Y-109801003D01*
X153953285Y-109818715D01*
X153970997Y-109838257D01*
X153986707Y-109859440D01*
X154000266Y-109882062D01*
X154011543Y-109905904D01*
X154020428Y-109930736D01*
X154026836Y-109956319D01*
X154030706Y-109982408D01*
X154032000Y-110008750D01*
X154032000Y-110971250D01*
X154030706Y-110997592D01*
X154026836Y-111023681D01*
X154020428Y-111049264D01*
X154011543Y-111074096D01*
X154000266Y-111097938D01*
X153986707Y-111120560D01*
X153970997Y-111141743D01*
X153953285Y-111161285D01*
X153933743Y-111178997D01*
X153912560Y-111194707D01*
X153889938Y-111208266D01*
X153866096Y-111219543D01*
X153841264Y-111228428D01*
X153815681Y-111234836D01*
X153789592Y-111238706D01*
X153763250Y-111240000D01*
X153225750Y-111240000D01*
X153199408Y-111238706D01*
X153173319Y-111234836D01*
X153147736Y-111228428D01*
X153122904Y-111219543D01*
X153099062Y-111208266D01*
X153076440Y-111194707D01*
X153055257Y-111178997D01*
X153035715Y-111161285D01*
X153018003Y-111141743D01*
X153002293Y-111120560D01*
X152988734Y-111097938D01*
X152977457Y-111074096D01*
X152968572Y-111049264D01*
X152962164Y-111023681D01*
X152958294Y-110997592D01*
X152957000Y-110971250D01*
X152957000Y-110008750D01*
X152958294Y-109982408D01*
X152962164Y-109956319D01*
X152968572Y-109930736D01*
X152977457Y-109905904D01*
X152988734Y-109882062D01*
X153002293Y-109859440D01*
X153018003Y-109838257D01*
X153035715Y-109818715D01*
X153055257Y-109801003D01*
X153076440Y-109785293D01*
X153099062Y-109771734D01*
X153122904Y-109760457D01*
X153147736Y-109751572D01*
X153173319Y-109745164D01*
X153199408Y-109741294D01*
X153225750Y-109740000D01*
X153763250Y-109740000D01*
X153789592Y-109741294D01*
G37*
G04 #@! TD*
D13*
G04 #@! TO.C,H1*
X117348000Y-77470000D03*
G04 #@! TD*
G04 #@! TO.C,H2*
X117348000Y-118110000D03*
G04 #@! TD*
G04 #@! TO.C,H3*
X175768000Y-76835000D03*
G04 #@! TD*
G04 #@! TO.C,H4*
X175768000Y-117475000D03*
G04 #@! TD*
D14*
G04 #@! TO.C,J1*
X127635000Y-82715100D03*
D15*
X130810000Y-85890100D03*
D14*
X133985000Y-82715100D03*
X127635000Y-89065100D03*
X133985000Y-89065100D03*
G04 #@! TD*
G04 #@! TO.C,J2*
X133985000Y-103505000D03*
X127635000Y-103505000D03*
X133985000Y-97155000D03*
D15*
X130810000Y-100330000D03*
D14*
X127635000Y-97155000D03*
G04 #@! TD*
D16*
G04 #@! TO.C,J3*
X164592000Y-81788000D03*
D17*
X167132000Y-81788000D03*
X164592000Y-84328000D03*
X167132000Y-84328000D03*
X164592000Y-86868000D03*
X167132000Y-86868000D03*
X164592000Y-89408000D03*
X167132000Y-89408000D03*
X164592000Y-91948000D03*
X167132000Y-91948000D03*
X164592000Y-94488000D03*
X167132000Y-94488000D03*
X164592000Y-97028000D03*
X167132000Y-97028000D03*
X164592000Y-99568000D03*
X167132000Y-99568000D03*
X164592000Y-102108000D03*
X167132000Y-102108000D03*
X164592000Y-104648000D03*
X167132000Y-104648000D03*
G04 #@! TD*
D16*
G04 #@! TO.C,J4*
X155194000Y-115570000D03*
D17*
X152654000Y-115570000D03*
X150114000Y-115570000D03*
X147574000Y-115570000D03*
X145034000Y-115570000D03*
X142494000Y-115570000D03*
G04 #@! TD*
D10*
G04 #@! TO.C,L1*
G36*
X156261142Y-87016674D02*
G01*
X156284803Y-87020184D01*
X156308007Y-87025996D01*
X156330529Y-87034054D01*
X156352153Y-87044282D01*
X156372670Y-87056579D01*
X156391883Y-87070829D01*
X156409607Y-87086893D01*
X156425671Y-87104617D01*
X156439921Y-87123830D01*
X156452218Y-87144347D01*
X156462446Y-87165971D01*
X156470504Y-87188493D01*
X156476316Y-87211697D01*
X156479826Y-87235358D01*
X156481000Y-87259250D01*
X156481000Y-87746750D01*
X156479826Y-87770642D01*
X156476316Y-87794303D01*
X156470504Y-87817507D01*
X156462446Y-87840029D01*
X156452218Y-87861653D01*
X156439921Y-87882170D01*
X156425671Y-87901383D01*
X156409607Y-87919107D01*
X156391883Y-87935171D01*
X156372670Y-87949421D01*
X156352153Y-87961718D01*
X156330529Y-87971946D01*
X156308007Y-87980004D01*
X156284803Y-87985816D01*
X156261142Y-87989326D01*
X156237250Y-87990500D01*
X155674750Y-87990500D01*
X155650858Y-87989326D01*
X155627197Y-87985816D01*
X155603993Y-87980004D01*
X155581471Y-87971946D01*
X155559847Y-87961718D01*
X155539330Y-87949421D01*
X155520117Y-87935171D01*
X155502393Y-87919107D01*
X155486329Y-87901383D01*
X155472079Y-87882170D01*
X155459782Y-87861653D01*
X155449554Y-87840029D01*
X155441496Y-87817507D01*
X155435684Y-87794303D01*
X155432174Y-87770642D01*
X155431000Y-87746750D01*
X155431000Y-87259250D01*
X155432174Y-87235358D01*
X155435684Y-87211697D01*
X155441496Y-87188493D01*
X155449554Y-87165971D01*
X155459782Y-87144347D01*
X155472079Y-87123830D01*
X155486329Y-87104617D01*
X155502393Y-87086893D01*
X155520117Y-87070829D01*
X155539330Y-87056579D01*
X155559847Y-87044282D01*
X155581471Y-87034054D01*
X155603993Y-87025996D01*
X155627197Y-87020184D01*
X155650858Y-87016674D01*
X155674750Y-87015500D01*
X156237250Y-87015500D01*
X156261142Y-87016674D01*
G37*
G36*
X156261142Y-88591674D02*
G01*
X156284803Y-88595184D01*
X156308007Y-88600996D01*
X156330529Y-88609054D01*
X156352153Y-88619282D01*
X156372670Y-88631579D01*
X156391883Y-88645829D01*
X156409607Y-88661893D01*
X156425671Y-88679617D01*
X156439921Y-88698830D01*
X156452218Y-88719347D01*
X156462446Y-88740971D01*
X156470504Y-88763493D01*
X156476316Y-88786697D01*
X156479826Y-88810358D01*
X156481000Y-88834250D01*
X156481000Y-89321750D01*
X156479826Y-89345642D01*
X156476316Y-89369303D01*
X156470504Y-89392507D01*
X156462446Y-89415029D01*
X156452218Y-89436653D01*
X156439921Y-89457170D01*
X156425671Y-89476383D01*
X156409607Y-89494107D01*
X156391883Y-89510171D01*
X156372670Y-89524421D01*
X156352153Y-89536718D01*
X156330529Y-89546946D01*
X156308007Y-89555004D01*
X156284803Y-89560816D01*
X156261142Y-89564326D01*
X156237250Y-89565500D01*
X155674750Y-89565500D01*
X155650858Y-89564326D01*
X155627197Y-89560816D01*
X155603993Y-89555004D01*
X155581471Y-89546946D01*
X155559847Y-89536718D01*
X155539330Y-89524421D01*
X155520117Y-89510171D01*
X155502393Y-89494107D01*
X155486329Y-89476383D01*
X155472079Y-89457170D01*
X155459782Y-89436653D01*
X155449554Y-89415029D01*
X155441496Y-89392507D01*
X155435684Y-89369303D01*
X155432174Y-89345642D01*
X155431000Y-89321750D01*
X155431000Y-88834250D01*
X155432174Y-88810358D01*
X155435684Y-88786697D01*
X155441496Y-88763493D01*
X155449554Y-88740971D01*
X155459782Y-88719347D01*
X155472079Y-88698830D01*
X155486329Y-88679617D01*
X155502393Y-88661893D01*
X155520117Y-88645829D01*
X155539330Y-88631579D01*
X155559847Y-88619282D01*
X155581471Y-88609054D01*
X155603993Y-88600996D01*
X155627197Y-88595184D01*
X155650858Y-88591674D01*
X155674750Y-88590500D01*
X156237250Y-88590500D01*
X156261142Y-88591674D01*
G37*
G04 #@! TD*
G04 #@! TO.C,R6*
G36*
X150621592Y-111731794D02*
G01*
X150647681Y-111735664D01*
X150673264Y-111742072D01*
X150698096Y-111750957D01*
X150721938Y-111762234D01*
X150744560Y-111775793D01*
X150765743Y-111791503D01*
X150785285Y-111809215D01*
X150802997Y-111828757D01*
X150818707Y-111849940D01*
X150832266Y-111872562D01*
X150843543Y-111896404D01*
X150852428Y-111921236D01*
X150858836Y-111946819D01*
X150862706Y-111972908D01*
X150864000Y-111999250D01*
X150864000Y-112536750D01*
X150862706Y-112563092D01*
X150858836Y-112589181D01*
X150852428Y-112614764D01*
X150843543Y-112639596D01*
X150832266Y-112663438D01*
X150818707Y-112686060D01*
X150802997Y-112707243D01*
X150785285Y-112726785D01*
X150765743Y-112744497D01*
X150744560Y-112760207D01*
X150721938Y-112773766D01*
X150698096Y-112785043D01*
X150673264Y-112793928D01*
X150647681Y-112800336D01*
X150621592Y-112804206D01*
X150595250Y-112805500D01*
X149632750Y-112805500D01*
X149606408Y-112804206D01*
X149580319Y-112800336D01*
X149554736Y-112793928D01*
X149529904Y-112785043D01*
X149506062Y-112773766D01*
X149483440Y-112760207D01*
X149462257Y-112744497D01*
X149442715Y-112726785D01*
X149425003Y-112707243D01*
X149409293Y-112686060D01*
X149395734Y-112663438D01*
X149384457Y-112639596D01*
X149375572Y-112614764D01*
X149369164Y-112589181D01*
X149365294Y-112563092D01*
X149364000Y-112536750D01*
X149364000Y-111999250D01*
X149365294Y-111972908D01*
X149369164Y-111946819D01*
X149375572Y-111921236D01*
X149384457Y-111896404D01*
X149395734Y-111872562D01*
X149409293Y-111849940D01*
X149425003Y-111828757D01*
X149442715Y-111809215D01*
X149462257Y-111791503D01*
X149483440Y-111775793D01*
X149506062Y-111762234D01*
X149529904Y-111750957D01*
X149554736Y-111742072D01*
X149580319Y-111735664D01*
X149606408Y-111731794D01*
X149632750Y-111730500D01*
X150595250Y-111730500D01*
X150621592Y-111731794D01*
G37*
G36*
X150621592Y-109856794D02*
G01*
X150647681Y-109860664D01*
X150673264Y-109867072D01*
X150698096Y-109875957D01*
X150721938Y-109887234D01*
X150744560Y-109900793D01*
X150765743Y-109916503D01*
X150785285Y-109934215D01*
X150802997Y-109953757D01*
X150818707Y-109974940D01*
X150832266Y-109997562D01*
X150843543Y-110021404D01*
X150852428Y-110046236D01*
X150858836Y-110071819D01*
X150862706Y-110097908D01*
X150864000Y-110124250D01*
X150864000Y-110661750D01*
X150862706Y-110688092D01*
X150858836Y-110714181D01*
X150852428Y-110739764D01*
X150843543Y-110764596D01*
X150832266Y-110788438D01*
X150818707Y-110811060D01*
X150802997Y-110832243D01*
X150785285Y-110851785D01*
X150765743Y-110869497D01*
X150744560Y-110885207D01*
X150721938Y-110898766D01*
X150698096Y-110910043D01*
X150673264Y-110918928D01*
X150647681Y-110925336D01*
X150621592Y-110929206D01*
X150595250Y-110930500D01*
X149632750Y-110930500D01*
X149606408Y-110929206D01*
X149580319Y-110925336D01*
X149554736Y-110918928D01*
X149529904Y-110910043D01*
X149506062Y-110898766D01*
X149483440Y-110885207D01*
X149462257Y-110869497D01*
X149442715Y-110851785D01*
X149425003Y-110832243D01*
X149409293Y-110811060D01*
X149395734Y-110788438D01*
X149384457Y-110764596D01*
X149375572Y-110739764D01*
X149369164Y-110714181D01*
X149365294Y-110688092D01*
X149364000Y-110661750D01*
X149364000Y-110124250D01*
X149365294Y-110097908D01*
X149369164Y-110071819D01*
X149375572Y-110046236D01*
X149384457Y-110021404D01*
X149395734Y-109997562D01*
X149409293Y-109974940D01*
X149425003Y-109953757D01*
X149442715Y-109934215D01*
X149462257Y-109916503D01*
X149483440Y-109900793D01*
X149506062Y-109887234D01*
X149529904Y-109875957D01*
X149554736Y-109867072D01*
X149580319Y-109860664D01*
X149606408Y-109856794D01*
X149632750Y-109855500D01*
X150595250Y-109855500D01*
X150621592Y-109856794D01*
G37*
G04 #@! TD*
D18*
G04 #@! TO.C,SW1*
X150114000Y-103886000D03*
D19*
X157734000Y-106426000D03*
X150114000Y-106426000D03*
X157734000Y-103886000D03*
G04 #@! TD*
D10*
G04 #@! TO.C,U2*
G36*
X150571912Y-91634483D02*
G01*
X150596963Y-91638199D01*
X150621529Y-91644352D01*
X150645373Y-91652884D01*
X150668267Y-91663712D01*
X150689989Y-91676731D01*
X150710330Y-91691818D01*
X150729095Y-91708825D01*
X150746102Y-91727590D01*
X150761189Y-91747931D01*
X150774208Y-91769653D01*
X150785036Y-91792547D01*
X150793568Y-91816391D01*
X150799721Y-91840957D01*
X150803437Y-91866008D01*
X150804680Y-91891303D01*
X150804680Y-94575177D01*
X150803437Y-94600472D01*
X150799721Y-94625523D01*
X150793568Y-94650089D01*
X150785036Y-94673933D01*
X150774208Y-94696827D01*
X150761189Y-94718549D01*
X150746102Y-94738890D01*
X150729095Y-94757655D01*
X150710330Y-94774662D01*
X150689989Y-94789749D01*
X150668267Y-94802768D01*
X150645373Y-94813596D01*
X150621529Y-94822128D01*
X150596963Y-94828281D01*
X150571912Y-94831997D01*
X150546617Y-94833240D01*
X147862743Y-94833240D01*
X147837448Y-94831997D01*
X147812397Y-94828281D01*
X147787831Y-94822128D01*
X147763987Y-94813596D01*
X147741093Y-94802768D01*
X147719371Y-94789749D01*
X147699030Y-94774662D01*
X147680265Y-94757655D01*
X147663258Y-94738890D01*
X147648171Y-94718549D01*
X147635152Y-94696827D01*
X147624324Y-94673933D01*
X147615792Y-94650089D01*
X147609639Y-94625523D01*
X147605923Y-94600472D01*
X147604680Y-94575177D01*
X147604680Y-91891303D01*
X147605923Y-91866008D01*
X147609639Y-91840957D01*
X147615792Y-91816391D01*
X147624324Y-91792547D01*
X147635152Y-91769653D01*
X147648171Y-91747931D01*
X147663258Y-91727590D01*
X147680265Y-91708825D01*
X147699030Y-91691818D01*
X147719371Y-91676731D01*
X147741093Y-91663712D01*
X147763987Y-91652884D01*
X147787831Y-91644352D01*
X147812397Y-91638199D01*
X147837448Y-91634483D01*
X147862743Y-91633240D01*
X150546617Y-91633240D01*
X150571912Y-91634483D01*
G37*
G36*
X147175756Y-91308661D02*
G01*
X147184250Y-91309921D01*
X147192580Y-91312008D01*
X147200665Y-91314901D01*
X147208427Y-91318572D01*
X147215792Y-91322986D01*
X147222689Y-91328102D01*
X147229052Y-91333868D01*
X147234818Y-91340231D01*
X147239934Y-91347128D01*
X147244348Y-91354493D01*
X147248019Y-91362255D01*
X147250912Y-91370340D01*
X147252999Y-91378670D01*
X147254259Y-91387164D01*
X147254680Y-91395740D01*
X147254680Y-91570740D01*
X147254259Y-91579316D01*
X147252999Y-91587810D01*
X147250912Y-91596140D01*
X147248019Y-91604225D01*
X147244348Y-91611987D01*
X147239934Y-91619352D01*
X147234818Y-91626249D01*
X147229052Y-91632612D01*
X147222689Y-91638378D01*
X147215792Y-91643494D01*
X147208427Y-91647908D01*
X147200665Y-91651579D01*
X147192580Y-91654472D01*
X147184250Y-91656559D01*
X147175756Y-91657819D01*
X147167180Y-91658240D01*
X146367180Y-91658240D01*
X146358604Y-91657819D01*
X146350110Y-91656559D01*
X146341780Y-91654472D01*
X146333695Y-91651579D01*
X146325933Y-91647908D01*
X146318568Y-91643494D01*
X146311671Y-91638378D01*
X146305308Y-91632612D01*
X146299542Y-91626249D01*
X146294426Y-91619352D01*
X146290012Y-91611987D01*
X146286341Y-91604225D01*
X146283448Y-91596140D01*
X146281361Y-91587810D01*
X146280101Y-91579316D01*
X146279680Y-91570740D01*
X146279680Y-91395740D01*
X146280101Y-91387164D01*
X146281361Y-91378670D01*
X146283448Y-91370340D01*
X146286341Y-91362255D01*
X146290012Y-91354493D01*
X146294426Y-91347128D01*
X146299542Y-91340231D01*
X146305308Y-91333868D01*
X146311671Y-91328102D01*
X146318568Y-91322986D01*
X146325933Y-91318572D01*
X146333695Y-91314901D01*
X146341780Y-91312008D01*
X146350110Y-91309921D01*
X146358604Y-91308661D01*
X146367180Y-91308240D01*
X147167180Y-91308240D01*
X147175756Y-91308661D01*
G37*
G36*
X147175756Y-91808661D02*
G01*
X147184250Y-91809921D01*
X147192580Y-91812008D01*
X147200665Y-91814901D01*
X147208427Y-91818572D01*
X147215792Y-91822986D01*
X147222689Y-91828102D01*
X147229052Y-91833868D01*
X147234818Y-91840231D01*
X147239934Y-91847128D01*
X147244348Y-91854493D01*
X147248019Y-91862255D01*
X147250912Y-91870340D01*
X147252999Y-91878670D01*
X147254259Y-91887164D01*
X147254680Y-91895740D01*
X147254680Y-92070740D01*
X147254259Y-92079316D01*
X147252999Y-92087810D01*
X147250912Y-92096140D01*
X147248019Y-92104225D01*
X147244348Y-92111987D01*
X147239934Y-92119352D01*
X147234818Y-92126249D01*
X147229052Y-92132612D01*
X147222689Y-92138378D01*
X147215792Y-92143494D01*
X147208427Y-92147908D01*
X147200665Y-92151579D01*
X147192580Y-92154472D01*
X147184250Y-92156559D01*
X147175756Y-92157819D01*
X147167180Y-92158240D01*
X146367180Y-92158240D01*
X146358604Y-92157819D01*
X146350110Y-92156559D01*
X146341780Y-92154472D01*
X146333695Y-92151579D01*
X146325933Y-92147908D01*
X146318568Y-92143494D01*
X146311671Y-92138378D01*
X146305308Y-92132612D01*
X146299542Y-92126249D01*
X146294426Y-92119352D01*
X146290012Y-92111987D01*
X146286341Y-92104225D01*
X146283448Y-92096140D01*
X146281361Y-92087810D01*
X146280101Y-92079316D01*
X146279680Y-92070740D01*
X146279680Y-91895740D01*
X146280101Y-91887164D01*
X146281361Y-91878670D01*
X146283448Y-91870340D01*
X146286341Y-91862255D01*
X146290012Y-91854493D01*
X146294426Y-91847128D01*
X146299542Y-91840231D01*
X146305308Y-91833868D01*
X146311671Y-91828102D01*
X146318568Y-91822986D01*
X146325933Y-91818572D01*
X146333695Y-91814901D01*
X146341780Y-91812008D01*
X146350110Y-91809921D01*
X146358604Y-91808661D01*
X146367180Y-91808240D01*
X147167180Y-91808240D01*
X147175756Y-91808661D01*
G37*
G36*
X147175756Y-92308661D02*
G01*
X147184250Y-92309921D01*
X147192580Y-92312008D01*
X147200665Y-92314901D01*
X147208427Y-92318572D01*
X147215792Y-92322986D01*
X147222689Y-92328102D01*
X147229052Y-92333868D01*
X147234818Y-92340231D01*
X147239934Y-92347128D01*
X147244348Y-92354493D01*
X147248019Y-92362255D01*
X147250912Y-92370340D01*
X147252999Y-92378670D01*
X147254259Y-92387164D01*
X147254680Y-92395740D01*
X147254680Y-92570740D01*
X147254259Y-92579316D01*
X147252999Y-92587810D01*
X147250912Y-92596140D01*
X147248019Y-92604225D01*
X147244348Y-92611987D01*
X147239934Y-92619352D01*
X147234818Y-92626249D01*
X147229052Y-92632612D01*
X147222689Y-92638378D01*
X147215792Y-92643494D01*
X147208427Y-92647908D01*
X147200665Y-92651579D01*
X147192580Y-92654472D01*
X147184250Y-92656559D01*
X147175756Y-92657819D01*
X147167180Y-92658240D01*
X146367180Y-92658240D01*
X146358604Y-92657819D01*
X146350110Y-92656559D01*
X146341780Y-92654472D01*
X146333695Y-92651579D01*
X146325933Y-92647908D01*
X146318568Y-92643494D01*
X146311671Y-92638378D01*
X146305308Y-92632612D01*
X146299542Y-92626249D01*
X146294426Y-92619352D01*
X146290012Y-92611987D01*
X146286341Y-92604225D01*
X146283448Y-92596140D01*
X146281361Y-92587810D01*
X146280101Y-92579316D01*
X146279680Y-92570740D01*
X146279680Y-92395740D01*
X146280101Y-92387164D01*
X146281361Y-92378670D01*
X146283448Y-92370340D01*
X146286341Y-92362255D01*
X146290012Y-92354493D01*
X146294426Y-92347128D01*
X146299542Y-92340231D01*
X146305308Y-92333868D01*
X146311671Y-92328102D01*
X146318568Y-92322986D01*
X146325933Y-92318572D01*
X146333695Y-92314901D01*
X146341780Y-92312008D01*
X146350110Y-92309921D01*
X146358604Y-92308661D01*
X146367180Y-92308240D01*
X147167180Y-92308240D01*
X147175756Y-92308661D01*
G37*
G36*
X147175756Y-92808661D02*
G01*
X147184250Y-92809921D01*
X147192580Y-92812008D01*
X147200665Y-92814901D01*
X147208427Y-92818572D01*
X147215792Y-92822986D01*
X147222689Y-92828102D01*
X147229052Y-92833868D01*
X147234818Y-92840231D01*
X147239934Y-92847128D01*
X147244348Y-92854493D01*
X147248019Y-92862255D01*
X147250912Y-92870340D01*
X147252999Y-92878670D01*
X147254259Y-92887164D01*
X147254680Y-92895740D01*
X147254680Y-93070740D01*
X147254259Y-93079316D01*
X147252999Y-93087810D01*
X147250912Y-93096140D01*
X147248019Y-93104225D01*
X147244348Y-93111987D01*
X147239934Y-93119352D01*
X147234818Y-93126249D01*
X147229052Y-93132612D01*
X147222689Y-93138378D01*
X147215792Y-93143494D01*
X147208427Y-93147908D01*
X147200665Y-93151579D01*
X147192580Y-93154472D01*
X147184250Y-93156559D01*
X147175756Y-93157819D01*
X147167180Y-93158240D01*
X146367180Y-93158240D01*
X146358604Y-93157819D01*
X146350110Y-93156559D01*
X146341780Y-93154472D01*
X146333695Y-93151579D01*
X146325933Y-93147908D01*
X146318568Y-93143494D01*
X146311671Y-93138378D01*
X146305308Y-93132612D01*
X146299542Y-93126249D01*
X146294426Y-93119352D01*
X146290012Y-93111987D01*
X146286341Y-93104225D01*
X146283448Y-93096140D01*
X146281361Y-93087810D01*
X146280101Y-93079316D01*
X146279680Y-93070740D01*
X146279680Y-92895740D01*
X146280101Y-92887164D01*
X146281361Y-92878670D01*
X146283448Y-92870340D01*
X146286341Y-92862255D01*
X146290012Y-92854493D01*
X146294426Y-92847128D01*
X146299542Y-92840231D01*
X146305308Y-92833868D01*
X146311671Y-92828102D01*
X146318568Y-92822986D01*
X146325933Y-92818572D01*
X146333695Y-92814901D01*
X146341780Y-92812008D01*
X146350110Y-92809921D01*
X146358604Y-92808661D01*
X146367180Y-92808240D01*
X147167180Y-92808240D01*
X147175756Y-92808661D01*
G37*
G36*
X147175756Y-93308661D02*
G01*
X147184250Y-93309921D01*
X147192580Y-93312008D01*
X147200665Y-93314901D01*
X147208427Y-93318572D01*
X147215792Y-93322986D01*
X147222689Y-93328102D01*
X147229052Y-93333868D01*
X147234818Y-93340231D01*
X147239934Y-93347128D01*
X147244348Y-93354493D01*
X147248019Y-93362255D01*
X147250912Y-93370340D01*
X147252999Y-93378670D01*
X147254259Y-93387164D01*
X147254680Y-93395740D01*
X147254680Y-93570740D01*
X147254259Y-93579316D01*
X147252999Y-93587810D01*
X147250912Y-93596140D01*
X147248019Y-93604225D01*
X147244348Y-93611987D01*
X147239934Y-93619352D01*
X147234818Y-93626249D01*
X147229052Y-93632612D01*
X147222689Y-93638378D01*
X147215792Y-93643494D01*
X147208427Y-93647908D01*
X147200665Y-93651579D01*
X147192580Y-93654472D01*
X147184250Y-93656559D01*
X147175756Y-93657819D01*
X147167180Y-93658240D01*
X146367180Y-93658240D01*
X146358604Y-93657819D01*
X146350110Y-93656559D01*
X146341780Y-93654472D01*
X146333695Y-93651579D01*
X146325933Y-93647908D01*
X146318568Y-93643494D01*
X146311671Y-93638378D01*
X146305308Y-93632612D01*
X146299542Y-93626249D01*
X146294426Y-93619352D01*
X146290012Y-93611987D01*
X146286341Y-93604225D01*
X146283448Y-93596140D01*
X146281361Y-93587810D01*
X146280101Y-93579316D01*
X146279680Y-93570740D01*
X146279680Y-93395740D01*
X146280101Y-93387164D01*
X146281361Y-93378670D01*
X146283448Y-93370340D01*
X146286341Y-93362255D01*
X146290012Y-93354493D01*
X146294426Y-93347128D01*
X146299542Y-93340231D01*
X146305308Y-93333868D01*
X146311671Y-93328102D01*
X146318568Y-93322986D01*
X146325933Y-93318572D01*
X146333695Y-93314901D01*
X146341780Y-93312008D01*
X146350110Y-93309921D01*
X146358604Y-93308661D01*
X146367180Y-93308240D01*
X147167180Y-93308240D01*
X147175756Y-93308661D01*
G37*
G36*
X147175756Y-93808661D02*
G01*
X147184250Y-93809921D01*
X147192580Y-93812008D01*
X147200665Y-93814901D01*
X147208427Y-93818572D01*
X147215792Y-93822986D01*
X147222689Y-93828102D01*
X147229052Y-93833868D01*
X147234818Y-93840231D01*
X147239934Y-93847128D01*
X147244348Y-93854493D01*
X147248019Y-93862255D01*
X147250912Y-93870340D01*
X147252999Y-93878670D01*
X147254259Y-93887164D01*
X147254680Y-93895740D01*
X147254680Y-94070740D01*
X147254259Y-94079316D01*
X147252999Y-94087810D01*
X147250912Y-94096140D01*
X147248019Y-94104225D01*
X147244348Y-94111987D01*
X147239934Y-94119352D01*
X147234818Y-94126249D01*
X147229052Y-94132612D01*
X147222689Y-94138378D01*
X147215792Y-94143494D01*
X147208427Y-94147908D01*
X147200665Y-94151579D01*
X147192580Y-94154472D01*
X147184250Y-94156559D01*
X147175756Y-94157819D01*
X147167180Y-94158240D01*
X146367180Y-94158240D01*
X146358604Y-94157819D01*
X146350110Y-94156559D01*
X146341780Y-94154472D01*
X146333695Y-94151579D01*
X146325933Y-94147908D01*
X146318568Y-94143494D01*
X146311671Y-94138378D01*
X146305308Y-94132612D01*
X146299542Y-94126249D01*
X146294426Y-94119352D01*
X146290012Y-94111987D01*
X146286341Y-94104225D01*
X146283448Y-94096140D01*
X146281361Y-94087810D01*
X146280101Y-94079316D01*
X146279680Y-94070740D01*
X146279680Y-93895740D01*
X146280101Y-93887164D01*
X146281361Y-93878670D01*
X146283448Y-93870340D01*
X146286341Y-93862255D01*
X146290012Y-93854493D01*
X146294426Y-93847128D01*
X146299542Y-93840231D01*
X146305308Y-93833868D01*
X146311671Y-93828102D01*
X146318568Y-93822986D01*
X146325933Y-93818572D01*
X146333695Y-93814901D01*
X146341780Y-93812008D01*
X146350110Y-93809921D01*
X146358604Y-93808661D01*
X146367180Y-93808240D01*
X147167180Y-93808240D01*
X147175756Y-93808661D01*
G37*
G36*
X147175756Y-94308661D02*
G01*
X147184250Y-94309921D01*
X147192580Y-94312008D01*
X147200665Y-94314901D01*
X147208427Y-94318572D01*
X147215792Y-94322986D01*
X147222689Y-94328102D01*
X147229052Y-94333868D01*
X147234818Y-94340231D01*
X147239934Y-94347128D01*
X147244348Y-94354493D01*
X147248019Y-94362255D01*
X147250912Y-94370340D01*
X147252999Y-94378670D01*
X147254259Y-94387164D01*
X147254680Y-94395740D01*
X147254680Y-94570740D01*
X147254259Y-94579316D01*
X147252999Y-94587810D01*
X147250912Y-94596140D01*
X147248019Y-94604225D01*
X147244348Y-94611987D01*
X147239934Y-94619352D01*
X147234818Y-94626249D01*
X147229052Y-94632612D01*
X147222689Y-94638378D01*
X147215792Y-94643494D01*
X147208427Y-94647908D01*
X147200665Y-94651579D01*
X147192580Y-94654472D01*
X147184250Y-94656559D01*
X147175756Y-94657819D01*
X147167180Y-94658240D01*
X146367180Y-94658240D01*
X146358604Y-94657819D01*
X146350110Y-94656559D01*
X146341780Y-94654472D01*
X146333695Y-94651579D01*
X146325933Y-94647908D01*
X146318568Y-94643494D01*
X146311671Y-94638378D01*
X146305308Y-94632612D01*
X146299542Y-94626249D01*
X146294426Y-94619352D01*
X146290012Y-94611987D01*
X146286341Y-94604225D01*
X146283448Y-94596140D01*
X146281361Y-94587810D01*
X146280101Y-94579316D01*
X146279680Y-94570740D01*
X146279680Y-94395740D01*
X146280101Y-94387164D01*
X146281361Y-94378670D01*
X146283448Y-94370340D01*
X146286341Y-94362255D01*
X146290012Y-94354493D01*
X146294426Y-94347128D01*
X146299542Y-94340231D01*
X146305308Y-94333868D01*
X146311671Y-94328102D01*
X146318568Y-94322986D01*
X146325933Y-94318572D01*
X146333695Y-94314901D01*
X146341780Y-94312008D01*
X146350110Y-94309921D01*
X146358604Y-94308661D01*
X146367180Y-94308240D01*
X147167180Y-94308240D01*
X147175756Y-94308661D01*
G37*
G36*
X147175756Y-94808661D02*
G01*
X147184250Y-94809921D01*
X147192580Y-94812008D01*
X147200665Y-94814901D01*
X147208427Y-94818572D01*
X147215792Y-94822986D01*
X147222689Y-94828102D01*
X147229052Y-94833868D01*
X147234818Y-94840231D01*
X147239934Y-94847128D01*
X147244348Y-94854493D01*
X147248019Y-94862255D01*
X147250912Y-94870340D01*
X147252999Y-94878670D01*
X147254259Y-94887164D01*
X147254680Y-94895740D01*
X147254680Y-95070740D01*
X147254259Y-95079316D01*
X147252999Y-95087810D01*
X147250912Y-95096140D01*
X147248019Y-95104225D01*
X147244348Y-95111987D01*
X147239934Y-95119352D01*
X147234818Y-95126249D01*
X147229052Y-95132612D01*
X147222689Y-95138378D01*
X147215792Y-95143494D01*
X147208427Y-95147908D01*
X147200665Y-95151579D01*
X147192580Y-95154472D01*
X147184250Y-95156559D01*
X147175756Y-95157819D01*
X147167180Y-95158240D01*
X146367180Y-95158240D01*
X146358604Y-95157819D01*
X146350110Y-95156559D01*
X146341780Y-95154472D01*
X146333695Y-95151579D01*
X146325933Y-95147908D01*
X146318568Y-95143494D01*
X146311671Y-95138378D01*
X146305308Y-95132612D01*
X146299542Y-95126249D01*
X146294426Y-95119352D01*
X146290012Y-95111987D01*
X146286341Y-95104225D01*
X146283448Y-95096140D01*
X146281361Y-95087810D01*
X146280101Y-95079316D01*
X146279680Y-95070740D01*
X146279680Y-94895740D01*
X146280101Y-94887164D01*
X146281361Y-94878670D01*
X146283448Y-94870340D01*
X146286341Y-94862255D01*
X146290012Y-94854493D01*
X146294426Y-94847128D01*
X146299542Y-94840231D01*
X146305308Y-94833868D01*
X146311671Y-94828102D01*
X146318568Y-94822986D01*
X146325933Y-94818572D01*
X146333695Y-94814901D01*
X146341780Y-94812008D01*
X146350110Y-94809921D01*
X146358604Y-94808661D01*
X146367180Y-94808240D01*
X147167180Y-94808240D01*
X147175756Y-94808661D01*
G37*
G36*
X147550756Y-95183661D02*
G01*
X147559250Y-95184921D01*
X147567580Y-95187008D01*
X147575665Y-95189901D01*
X147583427Y-95193572D01*
X147590792Y-95197986D01*
X147597689Y-95203102D01*
X147604052Y-95208868D01*
X147609818Y-95215231D01*
X147614934Y-95222128D01*
X147619348Y-95229493D01*
X147623019Y-95237255D01*
X147625912Y-95245340D01*
X147627999Y-95253670D01*
X147629259Y-95262164D01*
X147629680Y-95270740D01*
X147629680Y-96070740D01*
X147629259Y-96079316D01*
X147627999Y-96087810D01*
X147625912Y-96096140D01*
X147623019Y-96104225D01*
X147619348Y-96111987D01*
X147614934Y-96119352D01*
X147609818Y-96126249D01*
X147604052Y-96132612D01*
X147597689Y-96138378D01*
X147590792Y-96143494D01*
X147583427Y-96147908D01*
X147575665Y-96151579D01*
X147567580Y-96154472D01*
X147559250Y-96156559D01*
X147550756Y-96157819D01*
X147542180Y-96158240D01*
X147367180Y-96158240D01*
X147358604Y-96157819D01*
X147350110Y-96156559D01*
X147341780Y-96154472D01*
X147333695Y-96151579D01*
X147325933Y-96147908D01*
X147318568Y-96143494D01*
X147311671Y-96138378D01*
X147305308Y-96132612D01*
X147299542Y-96126249D01*
X147294426Y-96119352D01*
X147290012Y-96111987D01*
X147286341Y-96104225D01*
X147283448Y-96096140D01*
X147281361Y-96087810D01*
X147280101Y-96079316D01*
X147279680Y-96070740D01*
X147279680Y-95270740D01*
X147280101Y-95262164D01*
X147281361Y-95253670D01*
X147283448Y-95245340D01*
X147286341Y-95237255D01*
X147290012Y-95229493D01*
X147294426Y-95222128D01*
X147299542Y-95215231D01*
X147305308Y-95208868D01*
X147311671Y-95203102D01*
X147318568Y-95197986D01*
X147325933Y-95193572D01*
X147333695Y-95189901D01*
X147341780Y-95187008D01*
X147350110Y-95184921D01*
X147358604Y-95183661D01*
X147367180Y-95183240D01*
X147542180Y-95183240D01*
X147550756Y-95183661D01*
G37*
G36*
X148050756Y-95183661D02*
G01*
X148059250Y-95184921D01*
X148067580Y-95187008D01*
X148075665Y-95189901D01*
X148083427Y-95193572D01*
X148090792Y-95197986D01*
X148097689Y-95203102D01*
X148104052Y-95208868D01*
X148109818Y-95215231D01*
X148114934Y-95222128D01*
X148119348Y-95229493D01*
X148123019Y-95237255D01*
X148125912Y-95245340D01*
X148127999Y-95253670D01*
X148129259Y-95262164D01*
X148129680Y-95270740D01*
X148129680Y-96070740D01*
X148129259Y-96079316D01*
X148127999Y-96087810D01*
X148125912Y-96096140D01*
X148123019Y-96104225D01*
X148119348Y-96111987D01*
X148114934Y-96119352D01*
X148109818Y-96126249D01*
X148104052Y-96132612D01*
X148097689Y-96138378D01*
X148090792Y-96143494D01*
X148083427Y-96147908D01*
X148075665Y-96151579D01*
X148067580Y-96154472D01*
X148059250Y-96156559D01*
X148050756Y-96157819D01*
X148042180Y-96158240D01*
X147867180Y-96158240D01*
X147858604Y-96157819D01*
X147850110Y-96156559D01*
X147841780Y-96154472D01*
X147833695Y-96151579D01*
X147825933Y-96147908D01*
X147818568Y-96143494D01*
X147811671Y-96138378D01*
X147805308Y-96132612D01*
X147799542Y-96126249D01*
X147794426Y-96119352D01*
X147790012Y-96111987D01*
X147786341Y-96104225D01*
X147783448Y-96096140D01*
X147781361Y-96087810D01*
X147780101Y-96079316D01*
X147779680Y-96070740D01*
X147779680Y-95270740D01*
X147780101Y-95262164D01*
X147781361Y-95253670D01*
X147783448Y-95245340D01*
X147786341Y-95237255D01*
X147790012Y-95229493D01*
X147794426Y-95222128D01*
X147799542Y-95215231D01*
X147805308Y-95208868D01*
X147811671Y-95203102D01*
X147818568Y-95197986D01*
X147825933Y-95193572D01*
X147833695Y-95189901D01*
X147841780Y-95187008D01*
X147850110Y-95184921D01*
X147858604Y-95183661D01*
X147867180Y-95183240D01*
X148042180Y-95183240D01*
X148050756Y-95183661D01*
G37*
G36*
X148550756Y-95183661D02*
G01*
X148559250Y-95184921D01*
X148567580Y-95187008D01*
X148575665Y-95189901D01*
X148583427Y-95193572D01*
X148590792Y-95197986D01*
X148597689Y-95203102D01*
X148604052Y-95208868D01*
X148609818Y-95215231D01*
X148614934Y-95222128D01*
X148619348Y-95229493D01*
X148623019Y-95237255D01*
X148625912Y-95245340D01*
X148627999Y-95253670D01*
X148629259Y-95262164D01*
X148629680Y-95270740D01*
X148629680Y-96070740D01*
X148629259Y-96079316D01*
X148627999Y-96087810D01*
X148625912Y-96096140D01*
X148623019Y-96104225D01*
X148619348Y-96111987D01*
X148614934Y-96119352D01*
X148609818Y-96126249D01*
X148604052Y-96132612D01*
X148597689Y-96138378D01*
X148590792Y-96143494D01*
X148583427Y-96147908D01*
X148575665Y-96151579D01*
X148567580Y-96154472D01*
X148559250Y-96156559D01*
X148550756Y-96157819D01*
X148542180Y-96158240D01*
X148367180Y-96158240D01*
X148358604Y-96157819D01*
X148350110Y-96156559D01*
X148341780Y-96154472D01*
X148333695Y-96151579D01*
X148325933Y-96147908D01*
X148318568Y-96143494D01*
X148311671Y-96138378D01*
X148305308Y-96132612D01*
X148299542Y-96126249D01*
X148294426Y-96119352D01*
X148290012Y-96111987D01*
X148286341Y-96104225D01*
X148283448Y-96096140D01*
X148281361Y-96087810D01*
X148280101Y-96079316D01*
X148279680Y-96070740D01*
X148279680Y-95270740D01*
X148280101Y-95262164D01*
X148281361Y-95253670D01*
X148283448Y-95245340D01*
X148286341Y-95237255D01*
X148290012Y-95229493D01*
X148294426Y-95222128D01*
X148299542Y-95215231D01*
X148305308Y-95208868D01*
X148311671Y-95203102D01*
X148318568Y-95197986D01*
X148325933Y-95193572D01*
X148333695Y-95189901D01*
X148341780Y-95187008D01*
X148350110Y-95184921D01*
X148358604Y-95183661D01*
X148367180Y-95183240D01*
X148542180Y-95183240D01*
X148550756Y-95183661D01*
G37*
G36*
X149050756Y-95183661D02*
G01*
X149059250Y-95184921D01*
X149067580Y-95187008D01*
X149075665Y-95189901D01*
X149083427Y-95193572D01*
X149090792Y-95197986D01*
X149097689Y-95203102D01*
X149104052Y-95208868D01*
X149109818Y-95215231D01*
X149114934Y-95222128D01*
X149119348Y-95229493D01*
X149123019Y-95237255D01*
X149125912Y-95245340D01*
X149127999Y-95253670D01*
X149129259Y-95262164D01*
X149129680Y-95270740D01*
X149129680Y-96070740D01*
X149129259Y-96079316D01*
X149127999Y-96087810D01*
X149125912Y-96096140D01*
X149123019Y-96104225D01*
X149119348Y-96111987D01*
X149114934Y-96119352D01*
X149109818Y-96126249D01*
X149104052Y-96132612D01*
X149097689Y-96138378D01*
X149090792Y-96143494D01*
X149083427Y-96147908D01*
X149075665Y-96151579D01*
X149067580Y-96154472D01*
X149059250Y-96156559D01*
X149050756Y-96157819D01*
X149042180Y-96158240D01*
X148867180Y-96158240D01*
X148858604Y-96157819D01*
X148850110Y-96156559D01*
X148841780Y-96154472D01*
X148833695Y-96151579D01*
X148825933Y-96147908D01*
X148818568Y-96143494D01*
X148811671Y-96138378D01*
X148805308Y-96132612D01*
X148799542Y-96126249D01*
X148794426Y-96119352D01*
X148790012Y-96111987D01*
X148786341Y-96104225D01*
X148783448Y-96096140D01*
X148781361Y-96087810D01*
X148780101Y-96079316D01*
X148779680Y-96070740D01*
X148779680Y-95270740D01*
X148780101Y-95262164D01*
X148781361Y-95253670D01*
X148783448Y-95245340D01*
X148786341Y-95237255D01*
X148790012Y-95229493D01*
X148794426Y-95222128D01*
X148799542Y-95215231D01*
X148805308Y-95208868D01*
X148811671Y-95203102D01*
X148818568Y-95197986D01*
X148825933Y-95193572D01*
X148833695Y-95189901D01*
X148841780Y-95187008D01*
X148850110Y-95184921D01*
X148858604Y-95183661D01*
X148867180Y-95183240D01*
X149042180Y-95183240D01*
X149050756Y-95183661D01*
G37*
G36*
X149550756Y-95183661D02*
G01*
X149559250Y-95184921D01*
X149567580Y-95187008D01*
X149575665Y-95189901D01*
X149583427Y-95193572D01*
X149590792Y-95197986D01*
X149597689Y-95203102D01*
X149604052Y-95208868D01*
X149609818Y-95215231D01*
X149614934Y-95222128D01*
X149619348Y-95229493D01*
X149623019Y-95237255D01*
X149625912Y-95245340D01*
X149627999Y-95253670D01*
X149629259Y-95262164D01*
X149629680Y-95270740D01*
X149629680Y-96070740D01*
X149629259Y-96079316D01*
X149627999Y-96087810D01*
X149625912Y-96096140D01*
X149623019Y-96104225D01*
X149619348Y-96111987D01*
X149614934Y-96119352D01*
X149609818Y-96126249D01*
X149604052Y-96132612D01*
X149597689Y-96138378D01*
X149590792Y-96143494D01*
X149583427Y-96147908D01*
X149575665Y-96151579D01*
X149567580Y-96154472D01*
X149559250Y-96156559D01*
X149550756Y-96157819D01*
X149542180Y-96158240D01*
X149367180Y-96158240D01*
X149358604Y-96157819D01*
X149350110Y-96156559D01*
X149341780Y-96154472D01*
X149333695Y-96151579D01*
X149325933Y-96147908D01*
X149318568Y-96143494D01*
X149311671Y-96138378D01*
X149305308Y-96132612D01*
X149299542Y-96126249D01*
X149294426Y-96119352D01*
X149290012Y-96111987D01*
X149286341Y-96104225D01*
X149283448Y-96096140D01*
X149281361Y-96087810D01*
X149280101Y-96079316D01*
X149279680Y-96070740D01*
X149279680Y-95270740D01*
X149280101Y-95262164D01*
X149281361Y-95253670D01*
X149283448Y-95245340D01*
X149286341Y-95237255D01*
X149290012Y-95229493D01*
X149294426Y-95222128D01*
X149299542Y-95215231D01*
X149305308Y-95208868D01*
X149311671Y-95203102D01*
X149318568Y-95197986D01*
X149325933Y-95193572D01*
X149333695Y-95189901D01*
X149341780Y-95187008D01*
X149350110Y-95184921D01*
X149358604Y-95183661D01*
X149367180Y-95183240D01*
X149542180Y-95183240D01*
X149550756Y-95183661D01*
G37*
G36*
X150050756Y-95183661D02*
G01*
X150059250Y-95184921D01*
X150067580Y-95187008D01*
X150075665Y-95189901D01*
X150083427Y-95193572D01*
X150090792Y-95197986D01*
X150097689Y-95203102D01*
X150104052Y-95208868D01*
X150109818Y-95215231D01*
X150114934Y-95222128D01*
X150119348Y-95229493D01*
X150123019Y-95237255D01*
X150125912Y-95245340D01*
X150127999Y-95253670D01*
X150129259Y-95262164D01*
X150129680Y-95270740D01*
X150129680Y-96070740D01*
X150129259Y-96079316D01*
X150127999Y-96087810D01*
X150125912Y-96096140D01*
X150123019Y-96104225D01*
X150119348Y-96111987D01*
X150114934Y-96119352D01*
X150109818Y-96126249D01*
X150104052Y-96132612D01*
X150097689Y-96138378D01*
X150090792Y-96143494D01*
X150083427Y-96147908D01*
X150075665Y-96151579D01*
X150067580Y-96154472D01*
X150059250Y-96156559D01*
X150050756Y-96157819D01*
X150042180Y-96158240D01*
X149867180Y-96158240D01*
X149858604Y-96157819D01*
X149850110Y-96156559D01*
X149841780Y-96154472D01*
X149833695Y-96151579D01*
X149825933Y-96147908D01*
X149818568Y-96143494D01*
X149811671Y-96138378D01*
X149805308Y-96132612D01*
X149799542Y-96126249D01*
X149794426Y-96119352D01*
X149790012Y-96111987D01*
X149786341Y-96104225D01*
X149783448Y-96096140D01*
X149781361Y-96087810D01*
X149780101Y-96079316D01*
X149779680Y-96070740D01*
X149779680Y-95270740D01*
X149780101Y-95262164D01*
X149781361Y-95253670D01*
X149783448Y-95245340D01*
X149786341Y-95237255D01*
X149790012Y-95229493D01*
X149794426Y-95222128D01*
X149799542Y-95215231D01*
X149805308Y-95208868D01*
X149811671Y-95203102D01*
X149818568Y-95197986D01*
X149825933Y-95193572D01*
X149833695Y-95189901D01*
X149841780Y-95187008D01*
X149850110Y-95184921D01*
X149858604Y-95183661D01*
X149867180Y-95183240D01*
X150042180Y-95183240D01*
X150050756Y-95183661D01*
G37*
G36*
X150550756Y-95183661D02*
G01*
X150559250Y-95184921D01*
X150567580Y-95187008D01*
X150575665Y-95189901D01*
X150583427Y-95193572D01*
X150590792Y-95197986D01*
X150597689Y-95203102D01*
X150604052Y-95208868D01*
X150609818Y-95215231D01*
X150614934Y-95222128D01*
X150619348Y-95229493D01*
X150623019Y-95237255D01*
X150625912Y-95245340D01*
X150627999Y-95253670D01*
X150629259Y-95262164D01*
X150629680Y-95270740D01*
X150629680Y-96070740D01*
X150629259Y-96079316D01*
X150627999Y-96087810D01*
X150625912Y-96096140D01*
X150623019Y-96104225D01*
X150619348Y-96111987D01*
X150614934Y-96119352D01*
X150609818Y-96126249D01*
X150604052Y-96132612D01*
X150597689Y-96138378D01*
X150590792Y-96143494D01*
X150583427Y-96147908D01*
X150575665Y-96151579D01*
X150567580Y-96154472D01*
X150559250Y-96156559D01*
X150550756Y-96157819D01*
X150542180Y-96158240D01*
X150367180Y-96158240D01*
X150358604Y-96157819D01*
X150350110Y-96156559D01*
X150341780Y-96154472D01*
X150333695Y-96151579D01*
X150325933Y-96147908D01*
X150318568Y-96143494D01*
X150311671Y-96138378D01*
X150305308Y-96132612D01*
X150299542Y-96126249D01*
X150294426Y-96119352D01*
X150290012Y-96111987D01*
X150286341Y-96104225D01*
X150283448Y-96096140D01*
X150281361Y-96087810D01*
X150280101Y-96079316D01*
X150279680Y-96070740D01*
X150279680Y-95270740D01*
X150280101Y-95262164D01*
X150281361Y-95253670D01*
X150283448Y-95245340D01*
X150286341Y-95237255D01*
X150290012Y-95229493D01*
X150294426Y-95222128D01*
X150299542Y-95215231D01*
X150305308Y-95208868D01*
X150311671Y-95203102D01*
X150318568Y-95197986D01*
X150325933Y-95193572D01*
X150333695Y-95189901D01*
X150341780Y-95187008D01*
X150350110Y-95184921D01*
X150358604Y-95183661D01*
X150367180Y-95183240D01*
X150542180Y-95183240D01*
X150550756Y-95183661D01*
G37*
G36*
X151050756Y-95183661D02*
G01*
X151059250Y-95184921D01*
X151067580Y-95187008D01*
X151075665Y-95189901D01*
X151083427Y-95193572D01*
X151090792Y-95197986D01*
X151097689Y-95203102D01*
X151104052Y-95208868D01*
X151109818Y-95215231D01*
X151114934Y-95222128D01*
X151119348Y-95229493D01*
X151123019Y-95237255D01*
X151125912Y-95245340D01*
X151127999Y-95253670D01*
X151129259Y-95262164D01*
X151129680Y-95270740D01*
X151129680Y-96070740D01*
X151129259Y-96079316D01*
X151127999Y-96087810D01*
X151125912Y-96096140D01*
X151123019Y-96104225D01*
X151119348Y-96111987D01*
X151114934Y-96119352D01*
X151109818Y-96126249D01*
X151104052Y-96132612D01*
X151097689Y-96138378D01*
X151090792Y-96143494D01*
X151083427Y-96147908D01*
X151075665Y-96151579D01*
X151067580Y-96154472D01*
X151059250Y-96156559D01*
X151050756Y-96157819D01*
X151042180Y-96158240D01*
X150867180Y-96158240D01*
X150858604Y-96157819D01*
X150850110Y-96156559D01*
X150841780Y-96154472D01*
X150833695Y-96151579D01*
X150825933Y-96147908D01*
X150818568Y-96143494D01*
X150811671Y-96138378D01*
X150805308Y-96132612D01*
X150799542Y-96126249D01*
X150794426Y-96119352D01*
X150790012Y-96111987D01*
X150786341Y-96104225D01*
X150783448Y-96096140D01*
X150781361Y-96087810D01*
X150780101Y-96079316D01*
X150779680Y-96070740D01*
X150779680Y-95270740D01*
X150780101Y-95262164D01*
X150781361Y-95253670D01*
X150783448Y-95245340D01*
X150786341Y-95237255D01*
X150790012Y-95229493D01*
X150794426Y-95222128D01*
X150799542Y-95215231D01*
X150805308Y-95208868D01*
X150811671Y-95203102D01*
X150818568Y-95197986D01*
X150825933Y-95193572D01*
X150833695Y-95189901D01*
X150841780Y-95187008D01*
X150850110Y-95184921D01*
X150858604Y-95183661D01*
X150867180Y-95183240D01*
X151042180Y-95183240D01*
X151050756Y-95183661D01*
G37*
G36*
X152050756Y-94808661D02*
G01*
X152059250Y-94809921D01*
X152067580Y-94812008D01*
X152075665Y-94814901D01*
X152083427Y-94818572D01*
X152090792Y-94822986D01*
X152097689Y-94828102D01*
X152104052Y-94833868D01*
X152109818Y-94840231D01*
X152114934Y-94847128D01*
X152119348Y-94854493D01*
X152123019Y-94862255D01*
X152125912Y-94870340D01*
X152127999Y-94878670D01*
X152129259Y-94887164D01*
X152129680Y-94895740D01*
X152129680Y-95070740D01*
X152129259Y-95079316D01*
X152127999Y-95087810D01*
X152125912Y-95096140D01*
X152123019Y-95104225D01*
X152119348Y-95111987D01*
X152114934Y-95119352D01*
X152109818Y-95126249D01*
X152104052Y-95132612D01*
X152097689Y-95138378D01*
X152090792Y-95143494D01*
X152083427Y-95147908D01*
X152075665Y-95151579D01*
X152067580Y-95154472D01*
X152059250Y-95156559D01*
X152050756Y-95157819D01*
X152042180Y-95158240D01*
X151242180Y-95158240D01*
X151233604Y-95157819D01*
X151225110Y-95156559D01*
X151216780Y-95154472D01*
X151208695Y-95151579D01*
X151200933Y-95147908D01*
X151193568Y-95143494D01*
X151186671Y-95138378D01*
X151180308Y-95132612D01*
X151174542Y-95126249D01*
X151169426Y-95119352D01*
X151165012Y-95111987D01*
X151161341Y-95104225D01*
X151158448Y-95096140D01*
X151156361Y-95087810D01*
X151155101Y-95079316D01*
X151154680Y-95070740D01*
X151154680Y-94895740D01*
X151155101Y-94887164D01*
X151156361Y-94878670D01*
X151158448Y-94870340D01*
X151161341Y-94862255D01*
X151165012Y-94854493D01*
X151169426Y-94847128D01*
X151174542Y-94840231D01*
X151180308Y-94833868D01*
X151186671Y-94828102D01*
X151193568Y-94822986D01*
X151200933Y-94818572D01*
X151208695Y-94814901D01*
X151216780Y-94812008D01*
X151225110Y-94809921D01*
X151233604Y-94808661D01*
X151242180Y-94808240D01*
X152042180Y-94808240D01*
X152050756Y-94808661D01*
G37*
G36*
X152050756Y-94308661D02*
G01*
X152059250Y-94309921D01*
X152067580Y-94312008D01*
X152075665Y-94314901D01*
X152083427Y-94318572D01*
X152090792Y-94322986D01*
X152097689Y-94328102D01*
X152104052Y-94333868D01*
X152109818Y-94340231D01*
X152114934Y-94347128D01*
X152119348Y-94354493D01*
X152123019Y-94362255D01*
X152125912Y-94370340D01*
X152127999Y-94378670D01*
X152129259Y-94387164D01*
X152129680Y-94395740D01*
X152129680Y-94570740D01*
X152129259Y-94579316D01*
X152127999Y-94587810D01*
X152125912Y-94596140D01*
X152123019Y-94604225D01*
X152119348Y-94611987D01*
X152114934Y-94619352D01*
X152109818Y-94626249D01*
X152104052Y-94632612D01*
X152097689Y-94638378D01*
X152090792Y-94643494D01*
X152083427Y-94647908D01*
X152075665Y-94651579D01*
X152067580Y-94654472D01*
X152059250Y-94656559D01*
X152050756Y-94657819D01*
X152042180Y-94658240D01*
X151242180Y-94658240D01*
X151233604Y-94657819D01*
X151225110Y-94656559D01*
X151216780Y-94654472D01*
X151208695Y-94651579D01*
X151200933Y-94647908D01*
X151193568Y-94643494D01*
X151186671Y-94638378D01*
X151180308Y-94632612D01*
X151174542Y-94626249D01*
X151169426Y-94619352D01*
X151165012Y-94611987D01*
X151161341Y-94604225D01*
X151158448Y-94596140D01*
X151156361Y-94587810D01*
X151155101Y-94579316D01*
X151154680Y-94570740D01*
X151154680Y-94395740D01*
X151155101Y-94387164D01*
X151156361Y-94378670D01*
X151158448Y-94370340D01*
X151161341Y-94362255D01*
X151165012Y-94354493D01*
X151169426Y-94347128D01*
X151174542Y-94340231D01*
X151180308Y-94333868D01*
X151186671Y-94328102D01*
X151193568Y-94322986D01*
X151200933Y-94318572D01*
X151208695Y-94314901D01*
X151216780Y-94312008D01*
X151225110Y-94309921D01*
X151233604Y-94308661D01*
X151242180Y-94308240D01*
X152042180Y-94308240D01*
X152050756Y-94308661D01*
G37*
G36*
X152050756Y-93808661D02*
G01*
X152059250Y-93809921D01*
X152067580Y-93812008D01*
X152075665Y-93814901D01*
X152083427Y-93818572D01*
X152090792Y-93822986D01*
X152097689Y-93828102D01*
X152104052Y-93833868D01*
X152109818Y-93840231D01*
X152114934Y-93847128D01*
X152119348Y-93854493D01*
X152123019Y-93862255D01*
X152125912Y-93870340D01*
X152127999Y-93878670D01*
X152129259Y-93887164D01*
X152129680Y-93895740D01*
X152129680Y-94070740D01*
X152129259Y-94079316D01*
X152127999Y-94087810D01*
X152125912Y-94096140D01*
X152123019Y-94104225D01*
X152119348Y-94111987D01*
X152114934Y-94119352D01*
X152109818Y-94126249D01*
X152104052Y-94132612D01*
X152097689Y-94138378D01*
X152090792Y-94143494D01*
X152083427Y-94147908D01*
X152075665Y-94151579D01*
X152067580Y-94154472D01*
X152059250Y-94156559D01*
X152050756Y-94157819D01*
X152042180Y-94158240D01*
X151242180Y-94158240D01*
X151233604Y-94157819D01*
X151225110Y-94156559D01*
X151216780Y-94154472D01*
X151208695Y-94151579D01*
X151200933Y-94147908D01*
X151193568Y-94143494D01*
X151186671Y-94138378D01*
X151180308Y-94132612D01*
X151174542Y-94126249D01*
X151169426Y-94119352D01*
X151165012Y-94111987D01*
X151161341Y-94104225D01*
X151158448Y-94096140D01*
X151156361Y-94087810D01*
X151155101Y-94079316D01*
X151154680Y-94070740D01*
X151154680Y-93895740D01*
X151155101Y-93887164D01*
X151156361Y-93878670D01*
X151158448Y-93870340D01*
X151161341Y-93862255D01*
X151165012Y-93854493D01*
X151169426Y-93847128D01*
X151174542Y-93840231D01*
X151180308Y-93833868D01*
X151186671Y-93828102D01*
X151193568Y-93822986D01*
X151200933Y-93818572D01*
X151208695Y-93814901D01*
X151216780Y-93812008D01*
X151225110Y-93809921D01*
X151233604Y-93808661D01*
X151242180Y-93808240D01*
X152042180Y-93808240D01*
X152050756Y-93808661D01*
G37*
G36*
X152050756Y-93308661D02*
G01*
X152059250Y-93309921D01*
X152067580Y-93312008D01*
X152075665Y-93314901D01*
X152083427Y-93318572D01*
X152090792Y-93322986D01*
X152097689Y-93328102D01*
X152104052Y-93333868D01*
X152109818Y-93340231D01*
X152114934Y-93347128D01*
X152119348Y-93354493D01*
X152123019Y-93362255D01*
X152125912Y-93370340D01*
X152127999Y-93378670D01*
X152129259Y-93387164D01*
X152129680Y-93395740D01*
X152129680Y-93570740D01*
X152129259Y-93579316D01*
X152127999Y-93587810D01*
X152125912Y-93596140D01*
X152123019Y-93604225D01*
X152119348Y-93611987D01*
X152114934Y-93619352D01*
X152109818Y-93626249D01*
X152104052Y-93632612D01*
X152097689Y-93638378D01*
X152090792Y-93643494D01*
X152083427Y-93647908D01*
X152075665Y-93651579D01*
X152067580Y-93654472D01*
X152059250Y-93656559D01*
X152050756Y-93657819D01*
X152042180Y-93658240D01*
X151242180Y-93658240D01*
X151233604Y-93657819D01*
X151225110Y-93656559D01*
X151216780Y-93654472D01*
X151208695Y-93651579D01*
X151200933Y-93647908D01*
X151193568Y-93643494D01*
X151186671Y-93638378D01*
X151180308Y-93632612D01*
X151174542Y-93626249D01*
X151169426Y-93619352D01*
X151165012Y-93611987D01*
X151161341Y-93604225D01*
X151158448Y-93596140D01*
X151156361Y-93587810D01*
X151155101Y-93579316D01*
X151154680Y-93570740D01*
X151154680Y-93395740D01*
X151155101Y-93387164D01*
X151156361Y-93378670D01*
X151158448Y-93370340D01*
X151161341Y-93362255D01*
X151165012Y-93354493D01*
X151169426Y-93347128D01*
X151174542Y-93340231D01*
X151180308Y-93333868D01*
X151186671Y-93328102D01*
X151193568Y-93322986D01*
X151200933Y-93318572D01*
X151208695Y-93314901D01*
X151216780Y-93312008D01*
X151225110Y-93309921D01*
X151233604Y-93308661D01*
X151242180Y-93308240D01*
X152042180Y-93308240D01*
X152050756Y-93308661D01*
G37*
G36*
X152050756Y-92808661D02*
G01*
X152059250Y-92809921D01*
X152067580Y-92812008D01*
X152075665Y-92814901D01*
X152083427Y-92818572D01*
X152090792Y-92822986D01*
X152097689Y-92828102D01*
X152104052Y-92833868D01*
X152109818Y-92840231D01*
X152114934Y-92847128D01*
X152119348Y-92854493D01*
X152123019Y-92862255D01*
X152125912Y-92870340D01*
X152127999Y-92878670D01*
X152129259Y-92887164D01*
X152129680Y-92895740D01*
X152129680Y-93070740D01*
X152129259Y-93079316D01*
X152127999Y-93087810D01*
X152125912Y-93096140D01*
X152123019Y-93104225D01*
X152119348Y-93111987D01*
X152114934Y-93119352D01*
X152109818Y-93126249D01*
X152104052Y-93132612D01*
X152097689Y-93138378D01*
X152090792Y-93143494D01*
X152083427Y-93147908D01*
X152075665Y-93151579D01*
X152067580Y-93154472D01*
X152059250Y-93156559D01*
X152050756Y-93157819D01*
X152042180Y-93158240D01*
X151242180Y-93158240D01*
X151233604Y-93157819D01*
X151225110Y-93156559D01*
X151216780Y-93154472D01*
X151208695Y-93151579D01*
X151200933Y-93147908D01*
X151193568Y-93143494D01*
X151186671Y-93138378D01*
X151180308Y-93132612D01*
X151174542Y-93126249D01*
X151169426Y-93119352D01*
X151165012Y-93111987D01*
X151161341Y-93104225D01*
X151158448Y-93096140D01*
X151156361Y-93087810D01*
X151155101Y-93079316D01*
X151154680Y-93070740D01*
X151154680Y-92895740D01*
X151155101Y-92887164D01*
X151156361Y-92878670D01*
X151158448Y-92870340D01*
X151161341Y-92862255D01*
X151165012Y-92854493D01*
X151169426Y-92847128D01*
X151174542Y-92840231D01*
X151180308Y-92833868D01*
X151186671Y-92828102D01*
X151193568Y-92822986D01*
X151200933Y-92818572D01*
X151208695Y-92814901D01*
X151216780Y-92812008D01*
X151225110Y-92809921D01*
X151233604Y-92808661D01*
X151242180Y-92808240D01*
X152042180Y-92808240D01*
X152050756Y-92808661D01*
G37*
G36*
X152050756Y-92308661D02*
G01*
X152059250Y-92309921D01*
X152067580Y-92312008D01*
X152075665Y-92314901D01*
X152083427Y-92318572D01*
X152090792Y-92322986D01*
X152097689Y-92328102D01*
X152104052Y-92333868D01*
X152109818Y-92340231D01*
X152114934Y-92347128D01*
X152119348Y-92354493D01*
X152123019Y-92362255D01*
X152125912Y-92370340D01*
X152127999Y-92378670D01*
X152129259Y-92387164D01*
X152129680Y-92395740D01*
X152129680Y-92570740D01*
X152129259Y-92579316D01*
X152127999Y-92587810D01*
X152125912Y-92596140D01*
X152123019Y-92604225D01*
X152119348Y-92611987D01*
X152114934Y-92619352D01*
X152109818Y-92626249D01*
X152104052Y-92632612D01*
X152097689Y-92638378D01*
X152090792Y-92643494D01*
X152083427Y-92647908D01*
X152075665Y-92651579D01*
X152067580Y-92654472D01*
X152059250Y-92656559D01*
X152050756Y-92657819D01*
X152042180Y-92658240D01*
X151242180Y-92658240D01*
X151233604Y-92657819D01*
X151225110Y-92656559D01*
X151216780Y-92654472D01*
X151208695Y-92651579D01*
X151200933Y-92647908D01*
X151193568Y-92643494D01*
X151186671Y-92638378D01*
X151180308Y-92632612D01*
X151174542Y-92626249D01*
X151169426Y-92619352D01*
X151165012Y-92611987D01*
X151161341Y-92604225D01*
X151158448Y-92596140D01*
X151156361Y-92587810D01*
X151155101Y-92579316D01*
X151154680Y-92570740D01*
X151154680Y-92395740D01*
X151155101Y-92387164D01*
X151156361Y-92378670D01*
X151158448Y-92370340D01*
X151161341Y-92362255D01*
X151165012Y-92354493D01*
X151169426Y-92347128D01*
X151174542Y-92340231D01*
X151180308Y-92333868D01*
X151186671Y-92328102D01*
X151193568Y-92322986D01*
X151200933Y-92318572D01*
X151208695Y-92314901D01*
X151216780Y-92312008D01*
X151225110Y-92309921D01*
X151233604Y-92308661D01*
X151242180Y-92308240D01*
X152042180Y-92308240D01*
X152050756Y-92308661D01*
G37*
G36*
X152050756Y-91808661D02*
G01*
X152059250Y-91809921D01*
X152067580Y-91812008D01*
X152075665Y-91814901D01*
X152083427Y-91818572D01*
X152090792Y-91822986D01*
X152097689Y-91828102D01*
X152104052Y-91833868D01*
X152109818Y-91840231D01*
X152114934Y-91847128D01*
X152119348Y-91854493D01*
X152123019Y-91862255D01*
X152125912Y-91870340D01*
X152127999Y-91878670D01*
X152129259Y-91887164D01*
X152129680Y-91895740D01*
X152129680Y-92070740D01*
X152129259Y-92079316D01*
X152127999Y-92087810D01*
X152125912Y-92096140D01*
X152123019Y-92104225D01*
X152119348Y-92111987D01*
X152114934Y-92119352D01*
X152109818Y-92126249D01*
X152104052Y-92132612D01*
X152097689Y-92138378D01*
X152090792Y-92143494D01*
X152083427Y-92147908D01*
X152075665Y-92151579D01*
X152067580Y-92154472D01*
X152059250Y-92156559D01*
X152050756Y-92157819D01*
X152042180Y-92158240D01*
X151242180Y-92158240D01*
X151233604Y-92157819D01*
X151225110Y-92156559D01*
X151216780Y-92154472D01*
X151208695Y-92151579D01*
X151200933Y-92147908D01*
X151193568Y-92143494D01*
X151186671Y-92138378D01*
X151180308Y-92132612D01*
X151174542Y-92126249D01*
X151169426Y-92119352D01*
X151165012Y-92111987D01*
X151161341Y-92104225D01*
X151158448Y-92096140D01*
X151156361Y-92087810D01*
X151155101Y-92079316D01*
X151154680Y-92070740D01*
X151154680Y-91895740D01*
X151155101Y-91887164D01*
X151156361Y-91878670D01*
X151158448Y-91870340D01*
X151161341Y-91862255D01*
X151165012Y-91854493D01*
X151169426Y-91847128D01*
X151174542Y-91840231D01*
X151180308Y-91833868D01*
X151186671Y-91828102D01*
X151193568Y-91822986D01*
X151200933Y-91818572D01*
X151208695Y-91814901D01*
X151216780Y-91812008D01*
X151225110Y-91809921D01*
X151233604Y-91808661D01*
X151242180Y-91808240D01*
X152042180Y-91808240D01*
X152050756Y-91808661D01*
G37*
G36*
X152050756Y-91308661D02*
G01*
X152059250Y-91309921D01*
X152067580Y-91312008D01*
X152075665Y-91314901D01*
X152083427Y-91318572D01*
X152090792Y-91322986D01*
X152097689Y-91328102D01*
X152104052Y-91333868D01*
X152109818Y-91340231D01*
X152114934Y-91347128D01*
X152119348Y-91354493D01*
X152123019Y-91362255D01*
X152125912Y-91370340D01*
X152127999Y-91378670D01*
X152129259Y-91387164D01*
X152129680Y-91395740D01*
X152129680Y-91570740D01*
X152129259Y-91579316D01*
X152127999Y-91587810D01*
X152125912Y-91596140D01*
X152123019Y-91604225D01*
X152119348Y-91611987D01*
X152114934Y-91619352D01*
X152109818Y-91626249D01*
X152104052Y-91632612D01*
X152097689Y-91638378D01*
X152090792Y-91643494D01*
X152083427Y-91647908D01*
X152075665Y-91651579D01*
X152067580Y-91654472D01*
X152059250Y-91656559D01*
X152050756Y-91657819D01*
X152042180Y-91658240D01*
X151242180Y-91658240D01*
X151233604Y-91657819D01*
X151225110Y-91656559D01*
X151216780Y-91654472D01*
X151208695Y-91651579D01*
X151200933Y-91647908D01*
X151193568Y-91643494D01*
X151186671Y-91638378D01*
X151180308Y-91632612D01*
X151174542Y-91626249D01*
X151169426Y-91619352D01*
X151165012Y-91611987D01*
X151161341Y-91604225D01*
X151158448Y-91596140D01*
X151156361Y-91587810D01*
X151155101Y-91579316D01*
X151154680Y-91570740D01*
X151154680Y-91395740D01*
X151155101Y-91387164D01*
X151156361Y-91378670D01*
X151158448Y-91370340D01*
X151161341Y-91362255D01*
X151165012Y-91354493D01*
X151169426Y-91347128D01*
X151174542Y-91340231D01*
X151180308Y-91333868D01*
X151186671Y-91328102D01*
X151193568Y-91322986D01*
X151200933Y-91318572D01*
X151208695Y-91314901D01*
X151216780Y-91312008D01*
X151225110Y-91309921D01*
X151233604Y-91308661D01*
X151242180Y-91308240D01*
X152042180Y-91308240D01*
X152050756Y-91308661D01*
G37*
G36*
X151050756Y-90308661D02*
G01*
X151059250Y-90309921D01*
X151067580Y-90312008D01*
X151075665Y-90314901D01*
X151083427Y-90318572D01*
X151090792Y-90322986D01*
X151097689Y-90328102D01*
X151104052Y-90333868D01*
X151109818Y-90340231D01*
X151114934Y-90347128D01*
X151119348Y-90354493D01*
X151123019Y-90362255D01*
X151125912Y-90370340D01*
X151127999Y-90378670D01*
X151129259Y-90387164D01*
X151129680Y-90395740D01*
X151129680Y-91195740D01*
X151129259Y-91204316D01*
X151127999Y-91212810D01*
X151125912Y-91221140D01*
X151123019Y-91229225D01*
X151119348Y-91236987D01*
X151114934Y-91244352D01*
X151109818Y-91251249D01*
X151104052Y-91257612D01*
X151097689Y-91263378D01*
X151090792Y-91268494D01*
X151083427Y-91272908D01*
X151075665Y-91276579D01*
X151067580Y-91279472D01*
X151059250Y-91281559D01*
X151050756Y-91282819D01*
X151042180Y-91283240D01*
X150867180Y-91283240D01*
X150858604Y-91282819D01*
X150850110Y-91281559D01*
X150841780Y-91279472D01*
X150833695Y-91276579D01*
X150825933Y-91272908D01*
X150818568Y-91268494D01*
X150811671Y-91263378D01*
X150805308Y-91257612D01*
X150799542Y-91251249D01*
X150794426Y-91244352D01*
X150790012Y-91236987D01*
X150786341Y-91229225D01*
X150783448Y-91221140D01*
X150781361Y-91212810D01*
X150780101Y-91204316D01*
X150779680Y-91195740D01*
X150779680Y-90395740D01*
X150780101Y-90387164D01*
X150781361Y-90378670D01*
X150783448Y-90370340D01*
X150786341Y-90362255D01*
X150790012Y-90354493D01*
X150794426Y-90347128D01*
X150799542Y-90340231D01*
X150805308Y-90333868D01*
X150811671Y-90328102D01*
X150818568Y-90322986D01*
X150825933Y-90318572D01*
X150833695Y-90314901D01*
X150841780Y-90312008D01*
X150850110Y-90309921D01*
X150858604Y-90308661D01*
X150867180Y-90308240D01*
X151042180Y-90308240D01*
X151050756Y-90308661D01*
G37*
G36*
X150550756Y-90308661D02*
G01*
X150559250Y-90309921D01*
X150567580Y-90312008D01*
X150575665Y-90314901D01*
X150583427Y-90318572D01*
X150590792Y-90322986D01*
X150597689Y-90328102D01*
X150604052Y-90333868D01*
X150609818Y-90340231D01*
X150614934Y-90347128D01*
X150619348Y-90354493D01*
X150623019Y-90362255D01*
X150625912Y-90370340D01*
X150627999Y-90378670D01*
X150629259Y-90387164D01*
X150629680Y-90395740D01*
X150629680Y-91195740D01*
X150629259Y-91204316D01*
X150627999Y-91212810D01*
X150625912Y-91221140D01*
X150623019Y-91229225D01*
X150619348Y-91236987D01*
X150614934Y-91244352D01*
X150609818Y-91251249D01*
X150604052Y-91257612D01*
X150597689Y-91263378D01*
X150590792Y-91268494D01*
X150583427Y-91272908D01*
X150575665Y-91276579D01*
X150567580Y-91279472D01*
X150559250Y-91281559D01*
X150550756Y-91282819D01*
X150542180Y-91283240D01*
X150367180Y-91283240D01*
X150358604Y-91282819D01*
X150350110Y-91281559D01*
X150341780Y-91279472D01*
X150333695Y-91276579D01*
X150325933Y-91272908D01*
X150318568Y-91268494D01*
X150311671Y-91263378D01*
X150305308Y-91257612D01*
X150299542Y-91251249D01*
X150294426Y-91244352D01*
X150290012Y-91236987D01*
X150286341Y-91229225D01*
X150283448Y-91221140D01*
X150281361Y-91212810D01*
X150280101Y-91204316D01*
X150279680Y-91195740D01*
X150279680Y-90395740D01*
X150280101Y-90387164D01*
X150281361Y-90378670D01*
X150283448Y-90370340D01*
X150286341Y-90362255D01*
X150290012Y-90354493D01*
X150294426Y-90347128D01*
X150299542Y-90340231D01*
X150305308Y-90333868D01*
X150311671Y-90328102D01*
X150318568Y-90322986D01*
X150325933Y-90318572D01*
X150333695Y-90314901D01*
X150341780Y-90312008D01*
X150350110Y-90309921D01*
X150358604Y-90308661D01*
X150367180Y-90308240D01*
X150542180Y-90308240D01*
X150550756Y-90308661D01*
G37*
G36*
X150050756Y-90308661D02*
G01*
X150059250Y-90309921D01*
X150067580Y-90312008D01*
X150075665Y-90314901D01*
X150083427Y-90318572D01*
X150090792Y-90322986D01*
X150097689Y-90328102D01*
X150104052Y-90333868D01*
X150109818Y-90340231D01*
X150114934Y-90347128D01*
X150119348Y-90354493D01*
X150123019Y-90362255D01*
X150125912Y-90370340D01*
X150127999Y-90378670D01*
X150129259Y-90387164D01*
X150129680Y-90395740D01*
X150129680Y-91195740D01*
X150129259Y-91204316D01*
X150127999Y-91212810D01*
X150125912Y-91221140D01*
X150123019Y-91229225D01*
X150119348Y-91236987D01*
X150114934Y-91244352D01*
X150109818Y-91251249D01*
X150104052Y-91257612D01*
X150097689Y-91263378D01*
X150090792Y-91268494D01*
X150083427Y-91272908D01*
X150075665Y-91276579D01*
X150067580Y-91279472D01*
X150059250Y-91281559D01*
X150050756Y-91282819D01*
X150042180Y-91283240D01*
X149867180Y-91283240D01*
X149858604Y-91282819D01*
X149850110Y-91281559D01*
X149841780Y-91279472D01*
X149833695Y-91276579D01*
X149825933Y-91272908D01*
X149818568Y-91268494D01*
X149811671Y-91263378D01*
X149805308Y-91257612D01*
X149799542Y-91251249D01*
X149794426Y-91244352D01*
X149790012Y-91236987D01*
X149786341Y-91229225D01*
X149783448Y-91221140D01*
X149781361Y-91212810D01*
X149780101Y-91204316D01*
X149779680Y-91195740D01*
X149779680Y-90395740D01*
X149780101Y-90387164D01*
X149781361Y-90378670D01*
X149783448Y-90370340D01*
X149786341Y-90362255D01*
X149790012Y-90354493D01*
X149794426Y-90347128D01*
X149799542Y-90340231D01*
X149805308Y-90333868D01*
X149811671Y-90328102D01*
X149818568Y-90322986D01*
X149825933Y-90318572D01*
X149833695Y-90314901D01*
X149841780Y-90312008D01*
X149850110Y-90309921D01*
X149858604Y-90308661D01*
X149867180Y-90308240D01*
X150042180Y-90308240D01*
X150050756Y-90308661D01*
G37*
G36*
X149550756Y-90308661D02*
G01*
X149559250Y-90309921D01*
X149567580Y-90312008D01*
X149575665Y-90314901D01*
X149583427Y-90318572D01*
X149590792Y-90322986D01*
X149597689Y-90328102D01*
X149604052Y-90333868D01*
X149609818Y-90340231D01*
X149614934Y-90347128D01*
X149619348Y-90354493D01*
X149623019Y-90362255D01*
X149625912Y-90370340D01*
X149627999Y-90378670D01*
X149629259Y-90387164D01*
X149629680Y-90395740D01*
X149629680Y-91195740D01*
X149629259Y-91204316D01*
X149627999Y-91212810D01*
X149625912Y-91221140D01*
X149623019Y-91229225D01*
X149619348Y-91236987D01*
X149614934Y-91244352D01*
X149609818Y-91251249D01*
X149604052Y-91257612D01*
X149597689Y-91263378D01*
X149590792Y-91268494D01*
X149583427Y-91272908D01*
X149575665Y-91276579D01*
X149567580Y-91279472D01*
X149559250Y-91281559D01*
X149550756Y-91282819D01*
X149542180Y-91283240D01*
X149367180Y-91283240D01*
X149358604Y-91282819D01*
X149350110Y-91281559D01*
X149341780Y-91279472D01*
X149333695Y-91276579D01*
X149325933Y-91272908D01*
X149318568Y-91268494D01*
X149311671Y-91263378D01*
X149305308Y-91257612D01*
X149299542Y-91251249D01*
X149294426Y-91244352D01*
X149290012Y-91236987D01*
X149286341Y-91229225D01*
X149283448Y-91221140D01*
X149281361Y-91212810D01*
X149280101Y-91204316D01*
X149279680Y-91195740D01*
X149279680Y-90395740D01*
X149280101Y-90387164D01*
X149281361Y-90378670D01*
X149283448Y-90370340D01*
X149286341Y-90362255D01*
X149290012Y-90354493D01*
X149294426Y-90347128D01*
X149299542Y-90340231D01*
X149305308Y-90333868D01*
X149311671Y-90328102D01*
X149318568Y-90322986D01*
X149325933Y-90318572D01*
X149333695Y-90314901D01*
X149341780Y-90312008D01*
X149350110Y-90309921D01*
X149358604Y-90308661D01*
X149367180Y-90308240D01*
X149542180Y-90308240D01*
X149550756Y-90308661D01*
G37*
G36*
X149050756Y-90308661D02*
G01*
X149059250Y-90309921D01*
X149067580Y-90312008D01*
X149075665Y-90314901D01*
X149083427Y-90318572D01*
X149090792Y-90322986D01*
X149097689Y-90328102D01*
X149104052Y-90333868D01*
X149109818Y-90340231D01*
X149114934Y-90347128D01*
X149119348Y-90354493D01*
X149123019Y-90362255D01*
X149125912Y-90370340D01*
X149127999Y-90378670D01*
X149129259Y-90387164D01*
X149129680Y-90395740D01*
X149129680Y-91195740D01*
X149129259Y-91204316D01*
X149127999Y-91212810D01*
X149125912Y-91221140D01*
X149123019Y-91229225D01*
X149119348Y-91236987D01*
X149114934Y-91244352D01*
X149109818Y-91251249D01*
X149104052Y-91257612D01*
X149097689Y-91263378D01*
X149090792Y-91268494D01*
X149083427Y-91272908D01*
X149075665Y-91276579D01*
X149067580Y-91279472D01*
X149059250Y-91281559D01*
X149050756Y-91282819D01*
X149042180Y-91283240D01*
X148867180Y-91283240D01*
X148858604Y-91282819D01*
X148850110Y-91281559D01*
X148841780Y-91279472D01*
X148833695Y-91276579D01*
X148825933Y-91272908D01*
X148818568Y-91268494D01*
X148811671Y-91263378D01*
X148805308Y-91257612D01*
X148799542Y-91251249D01*
X148794426Y-91244352D01*
X148790012Y-91236987D01*
X148786341Y-91229225D01*
X148783448Y-91221140D01*
X148781361Y-91212810D01*
X148780101Y-91204316D01*
X148779680Y-91195740D01*
X148779680Y-90395740D01*
X148780101Y-90387164D01*
X148781361Y-90378670D01*
X148783448Y-90370340D01*
X148786341Y-90362255D01*
X148790012Y-90354493D01*
X148794426Y-90347128D01*
X148799542Y-90340231D01*
X148805308Y-90333868D01*
X148811671Y-90328102D01*
X148818568Y-90322986D01*
X148825933Y-90318572D01*
X148833695Y-90314901D01*
X148841780Y-90312008D01*
X148850110Y-90309921D01*
X148858604Y-90308661D01*
X148867180Y-90308240D01*
X149042180Y-90308240D01*
X149050756Y-90308661D01*
G37*
G36*
X148550756Y-90308661D02*
G01*
X148559250Y-90309921D01*
X148567580Y-90312008D01*
X148575665Y-90314901D01*
X148583427Y-90318572D01*
X148590792Y-90322986D01*
X148597689Y-90328102D01*
X148604052Y-90333868D01*
X148609818Y-90340231D01*
X148614934Y-90347128D01*
X148619348Y-90354493D01*
X148623019Y-90362255D01*
X148625912Y-90370340D01*
X148627999Y-90378670D01*
X148629259Y-90387164D01*
X148629680Y-90395740D01*
X148629680Y-91195740D01*
X148629259Y-91204316D01*
X148627999Y-91212810D01*
X148625912Y-91221140D01*
X148623019Y-91229225D01*
X148619348Y-91236987D01*
X148614934Y-91244352D01*
X148609818Y-91251249D01*
X148604052Y-91257612D01*
X148597689Y-91263378D01*
X148590792Y-91268494D01*
X148583427Y-91272908D01*
X148575665Y-91276579D01*
X148567580Y-91279472D01*
X148559250Y-91281559D01*
X148550756Y-91282819D01*
X148542180Y-91283240D01*
X148367180Y-91283240D01*
X148358604Y-91282819D01*
X148350110Y-91281559D01*
X148341780Y-91279472D01*
X148333695Y-91276579D01*
X148325933Y-91272908D01*
X148318568Y-91268494D01*
X148311671Y-91263378D01*
X148305308Y-91257612D01*
X148299542Y-91251249D01*
X148294426Y-91244352D01*
X148290012Y-91236987D01*
X148286341Y-91229225D01*
X148283448Y-91221140D01*
X148281361Y-91212810D01*
X148280101Y-91204316D01*
X148279680Y-91195740D01*
X148279680Y-90395740D01*
X148280101Y-90387164D01*
X148281361Y-90378670D01*
X148283448Y-90370340D01*
X148286341Y-90362255D01*
X148290012Y-90354493D01*
X148294426Y-90347128D01*
X148299542Y-90340231D01*
X148305308Y-90333868D01*
X148311671Y-90328102D01*
X148318568Y-90322986D01*
X148325933Y-90318572D01*
X148333695Y-90314901D01*
X148341780Y-90312008D01*
X148350110Y-90309921D01*
X148358604Y-90308661D01*
X148367180Y-90308240D01*
X148542180Y-90308240D01*
X148550756Y-90308661D01*
G37*
G36*
X148050756Y-90308661D02*
G01*
X148059250Y-90309921D01*
X148067580Y-90312008D01*
X148075665Y-90314901D01*
X148083427Y-90318572D01*
X148090792Y-90322986D01*
X148097689Y-90328102D01*
X148104052Y-90333868D01*
X148109818Y-90340231D01*
X148114934Y-90347128D01*
X148119348Y-90354493D01*
X148123019Y-90362255D01*
X148125912Y-90370340D01*
X148127999Y-90378670D01*
X148129259Y-90387164D01*
X148129680Y-90395740D01*
X148129680Y-91195740D01*
X148129259Y-91204316D01*
X148127999Y-91212810D01*
X148125912Y-91221140D01*
X148123019Y-91229225D01*
X148119348Y-91236987D01*
X148114934Y-91244352D01*
X148109818Y-91251249D01*
X148104052Y-91257612D01*
X148097689Y-91263378D01*
X148090792Y-91268494D01*
X148083427Y-91272908D01*
X148075665Y-91276579D01*
X148067580Y-91279472D01*
X148059250Y-91281559D01*
X148050756Y-91282819D01*
X148042180Y-91283240D01*
X147867180Y-91283240D01*
X147858604Y-91282819D01*
X147850110Y-91281559D01*
X147841780Y-91279472D01*
X147833695Y-91276579D01*
X147825933Y-91272908D01*
X147818568Y-91268494D01*
X147811671Y-91263378D01*
X147805308Y-91257612D01*
X147799542Y-91251249D01*
X147794426Y-91244352D01*
X147790012Y-91236987D01*
X147786341Y-91229225D01*
X147783448Y-91221140D01*
X147781361Y-91212810D01*
X147780101Y-91204316D01*
X147779680Y-91195740D01*
X147779680Y-90395740D01*
X147780101Y-90387164D01*
X147781361Y-90378670D01*
X147783448Y-90370340D01*
X147786341Y-90362255D01*
X147790012Y-90354493D01*
X147794426Y-90347128D01*
X147799542Y-90340231D01*
X147805308Y-90333868D01*
X147811671Y-90328102D01*
X147818568Y-90322986D01*
X147825933Y-90318572D01*
X147833695Y-90314901D01*
X147841780Y-90312008D01*
X147850110Y-90309921D01*
X147858604Y-90308661D01*
X147867180Y-90308240D01*
X148042180Y-90308240D01*
X148050756Y-90308661D01*
G37*
G36*
X147550756Y-90308661D02*
G01*
X147559250Y-90309921D01*
X147567580Y-90312008D01*
X147575665Y-90314901D01*
X147583427Y-90318572D01*
X147590792Y-90322986D01*
X147597689Y-90328102D01*
X147604052Y-90333868D01*
X147609818Y-90340231D01*
X147614934Y-90347128D01*
X147619348Y-90354493D01*
X147623019Y-90362255D01*
X147625912Y-90370340D01*
X147627999Y-90378670D01*
X147629259Y-90387164D01*
X147629680Y-90395740D01*
X147629680Y-91195740D01*
X147629259Y-91204316D01*
X147627999Y-91212810D01*
X147625912Y-91221140D01*
X147623019Y-91229225D01*
X147619348Y-91236987D01*
X147614934Y-91244352D01*
X147609818Y-91251249D01*
X147604052Y-91257612D01*
X147597689Y-91263378D01*
X147590792Y-91268494D01*
X147583427Y-91272908D01*
X147575665Y-91276579D01*
X147567580Y-91279472D01*
X147559250Y-91281559D01*
X147550756Y-91282819D01*
X147542180Y-91283240D01*
X147367180Y-91283240D01*
X147358604Y-91282819D01*
X147350110Y-91281559D01*
X147341780Y-91279472D01*
X147333695Y-91276579D01*
X147325933Y-91272908D01*
X147318568Y-91268494D01*
X147311671Y-91263378D01*
X147305308Y-91257612D01*
X147299542Y-91251249D01*
X147294426Y-91244352D01*
X147290012Y-91236987D01*
X147286341Y-91229225D01*
X147283448Y-91221140D01*
X147281361Y-91212810D01*
X147280101Y-91204316D01*
X147279680Y-91195740D01*
X147279680Y-90395740D01*
X147280101Y-90387164D01*
X147281361Y-90378670D01*
X147283448Y-90370340D01*
X147286341Y-90362255D01*
X147290012Y-90354493D01*
X147294426Y-90347128D01*
X147299542Y-90340231D01*
X147305308Y-90333868D01*
X147311671Y-90328102D01*
X147318568Y-90322986D01*
X147325933Y-90318572D01*
X147333695Y-90314901D01*
X147341780Y-90312008D01*
X147350110Y-90309921D01*
X147358604Y-90308661D01*
X147367180Y-90308240D01*
X147542180Y-90308240D01*
X147550756Y-90308661D01*
G37*
G04 #@! TD*
M02*
