M48
; DRILL file {KiCad 5.1.5+dfsg1-2build2} date Thu 26 Nov 2020 02:41:18 AM EST
; FORMAT={-:-/ absolute / inch / decimal}
; #@! TF.CreationDate,2020-11-26T02:41:18-05:00
; #@! TF.GenerationSoftware,Kicad,Pcbnew,5.1.5+dfsg1-2build2
; #@! TF.FileFunction,Plated,1,4,PTH
FMAT,2
INCH
T1C0.0079
T2C0.0080
T3C0.0315
T4C0.0394
T5C0.0500
T6C0.0600
%
G90
G05
T1
X5.8348Y-3.6312
X5.8348Y-3.6706
X5.8348Y-3.71
X5.8742Y-3.6312
X5.8742Y-3.6706
X5.8742Y-3.71
X5.9136Y-3.6312
X5.9136Y-3.6706
X5.9136Y-3.71
T2
X5.35Y-3.625
X5.35Y-3.7
X5.425Y-3.35
X5.425Y-3.95
X5.475Y-3.425
X5.475Y-3.5
X5.475Y-3.575
X5.475Y-3.75
X5.475Y-3.825
X5.475Y-3.9
X5.48Y-2.9
X5.48Y-2.94
X5.48Y-2.98
X5.48Y-3.03
X5.48Y-3.08
X5.53Y-2.9
X5.53Y-2.94
X5.53Y-2.98
X5.53Y-3.03
X5.53Y-3.08
X5.575Y-3.575
X5.575Y-3.75
X5.585Y-3.49
X5.585Y-3.525
X5.625Y-2.9
X5.625Y-2.975
X5.625Y-3.05
X5.625Y-3.125
X5.625Y-3.2
X5.625Y-3.275
X5.625Y-3.35
X5.635Y-3.59
X5.635Y-3.625
X5.65Y-3.73
X5.65Y-3.765
X5.65Y-3.8
X5.705Y-4.74
X5.715Y-3.795
X5.7161Y-3.7239
X5.717Y-3.615
X5.725Y-2.9
X5.725Y-2.975
X5.725Y-3.05
X5.725Y-3.125
X5.725Y-3.2
X5.735Y-4.74
X5.75Y-3.275
X5.75Y-3.35
X5.77Y-4.74
X5.78Y-3.57
X5.78Y-3.595
X5.8Y-3.77
X5.8Y-3.79
X5.815Y-4.74
X5.82Y-2.9
X5.82Y-2.94
X5.82Y-2.98
X5.82Y-3.03
X5.82Y-3.08
X5.825Y-4.075
X5.825Y-4.175
X5.825Y-4.325
X5.83Y-3.84
X5.835Y-3.91
X5.845Y-3.55
X5.845Y-3.575
X5.865Y-3.91
X5.865Y-4.74
X5.87Y-2.9
X5.87Y-2.94
X5.87Y-2.98
X5.87Y-3.03
X5.87Y-3.08
X5.875Y-4.0
X5.895Y-3.84
X5.895Y-3.91
X5.895Y-4.42
X5.91Y-4.74
X5.925Y-4.42
X5.96Y-4.74
X5.97Y-2.9
X5.97Y-2.94
X5.97Y-2.98
X5.97Y-3.03
X5.97Y-3.08
X5.975Y-3.875
X5.975Y-4.025
X5.975Y-4.1
X5.975Y-4.225
X6.015Y-3.51
X6.02Y-2.9
X6.02Y-2.94
X6.02Y-2.98
X6.02Y-3.03
X6.02Y-3.08
X6.025Y-3.925
X6.025Y-4.74
X6.032Y-3.836
X6.0425Y-3.5775
X6.05Y-3.3
X6.07Y-4.74
X6.075Y-3.95
X6.075Y-4.0
X6.08Y-3.505
X6.08Y-3.88
X6.105Y-3.575
X6.11Y-3.505
X6.11Y-3.88
X6.115Y-4.74
X6.12Y-4.335
X6.12Y-4.36
X6.125Y-2.925
X6.125Y-3.0
X6.125Y-3.075
X6.125Y-3.15
X6.125Y-3.225
X6.125Y-3.8
X6.13Y-3.575
X6.14Y-3.505
X6.15Y-3.35
X6.175Y-3.85
X6.175Y-3.9
X6.175Y-3.95
X6.175Y-4.0
X6.21Y-3.67
X6.225Y-2.925
X6.225Y-3.0
X6.225Y-3.075
X6.225Y-3.15
X6.225Y-3.225
X6.225Y-3.35
X6.225Y-3.8
X6.25Y-3.475
X6.275Y-3.9
X6.275Y-3.95
X6.28Y-3.66
X6.3Y-3.275
X6.3Y-3.35
X6.3Y-3.45
X6.3Y-3.725
X6.3Y-3.85
X6.3Y-4.0
X6.31Y-2.9
X6.31Y-2.94
X6.31Y-2.98
X6.31Y-3.03
X6.31Y-3.08
X6.325Y-3.5
X6.325Y-3.55
X6.35Y-3.675
X6.35Y-3.8
X6.36Y-2.9
X6.36Y-2.94
X6.36Y-2.98
X6.36Y-3.03
X6.36Y-3.08
X6.375Y-3.2
X6.375Y-3.9
X6.4Y-3.275
X6.4Y-3.35
X6.4Y-3.4
X6.4Y-3.45
X6.4Y-3.5
X6.4Y-3.575
X6.4Y-3.725
X6.4Y-3.975
X6.4Y-4.1
T3
X5.91Y-4.09
X5.91Y-4.19
X6.21Y-4.09
X6.21Y-4.19
T4
X5.61Y-4.55
X5.71Y-4.55
X5.81Y-4.55
X5.91Y-4.55
X6.01Y-4.55
X6.11Y-4.55
X6.48Y-3.22
X6.48Y-3.32
X6.48Y-3.42
X6.48Y-3.52
X6.48Y-3.62
X6.48Y-3.72
X6.48Y-3.82
X6.48Y-3.92
X6.48Y-4.02
X6.48Y-4.12
X6.58Y-3.22
X6.58Y-3.32
X6.58Y-3.42
X6.58Y-3.52
X6.58Y-3.62
X6.58Y-3.72
X6.58Y-3.82
X6.58Y-3.92
X6.58Y-4.02
X6.58Y-4.12
T5
X5.15Y-3.95
X5.15Y-3.3815
T6
X5.025Y-3.825
X5.025Y-4.075
X5.275Y-3.825
X5.275Y-4.075
X5.025Y-3.2565
X5.025Y-3.5065
X5.275Y-3.2565
X5.275Y-3.5065
T0
M30
