G04 #@! TF.GenerationSoftware,KiCad,Pcbnew,(5.1.6)-1*
G04 #@! TF.CreationDate,2020-10-21T16:40:03-04:00*
G04 #@! TF.ProjectId,SAR_pcb,5341525f-7063-4622-9e6b-696361645f70,rev?*
G04 #@! TF.SameCoordinates,Original*
G04 #@! TF.FileFunction,Copper,L1,Top*
G04 #@! TF.FilePolarity,Positive*
%FSLAX46Y46*%
G04 Gerber Fmt 4.6, Leading zero omitted, Abs format (unit mm)*
G04 Created by KiCad (PCBNEW (5.1.6)-1) date 2020-10-21 16:40:03*
%MOMM*%
%LPD*%
G01*
G04 APERTURE LIST*
G04 #@! TA.AperFunction,SMDPad,CuDef*
%ADD10R,2.286000X5.842000*%
G04 #@! TD*
G04 #@! TA.AperFunction,SMDPad,CuDef*
%ADD11R,0.141224X5.842000*%
G04 #@! TD*
G04 #@! TA.AperFunction,ComponentPad*
%ADD12C,3.810000*%
G04 #@! TD*
G04 #@! TA.AperFunction,ComponentPad*
%ADD13C,3.556000*%
G04 #@! TD*
G04 #@! TA.AperFunction,ComponentPad*
%ADD14R,1.700000X1.700000*%
G04 #@! TD*
G04 #@! TA.AperFunction,ComponentPad*
%ADD15O,1.700000X1.700000*%
G04 #@! TD*
G04 #@! TA.AperFunction,ComponentPad*
%ADD16R,1.600000X1.600000*%
G04 #@! TD*
G04 #@! TA.AperFunction,ComponentPad*
%ADD17O,1.600000X1.600000*%
G04 #@! TD*
G04 #@! TA.AperFunction,ViaPad*
%ADD18C,0.500000*%
G04 #@! TD*
G04 #@! TA.AperFunction,ViaPad*
%ADD19C,0.457200*%
G04 #@! TD*
G04 #@! TA.AperFunction,Conductor*
%ADD20C,0.101600*%
G04 #@! TD*
G04 #@! TA.AperFunction,Conductor*
%ADD21C,0.508000*%
G04 #@! TD*
G04 #@! TA.AperFunction,Conductor*
%ADD22C,0.254000*%
G04 #@! TD*
G04 #@! TA.AperFunction,Conductor*
%ADD23C,0.141224*%
G04 #@! TD*
G04 APERTURE END LIST*
G04 #@! TO.P,R7,2*
G04 #@! TO.N,VIN-*
G04 #@! TA.AperFunction,SMDPad,CuDef*
G36*
G01*
X141683450Y-92969700D02*
X141170950Y-92969700D01*
G75*
G02*
X140952200Y-92750950I0J218750D01*
G01*
X140952200Y-92313450D01*
G75*
G02*
X141170950Y-92094700I218750J0D01*
G01*
X141683450Y-92094700D01*
G75*
G02*
X141902200Y-92313450I0J-218750D01*
G01*
X141902200Y-92750950D01*
G75*
G02*
X141683450Y-92969700I-218750J0D01*
G01*
G37*
G04 #@! TD.AperFunction*
G04 #@! TO.P,R7,1*
G04 #@! TO.N,VIN+*
G04 #@! TA.AperFunction,SMDPad,CuDef*
G36*
G01*
X141683450Y-94544700D02*
X141170950Y-94544700D01*
G75*
G02*
X140952200Y-94325950I0J218750D01*
G01*
X140952200Y-93888450D01*
G75*
G02*
X141170950Y-93669700I218750J0D01*
G01*
X141683450Y-93669700D01*
G75*
G02*
X141902200Y-93888450I0J-218750D01*
G01*
X141902200Y-94325950D01*
G75*
G02*
X141683450Y-94544700I-218750J0D01*
G01*
G37*
G04 #@! TD.AperFunction*
G04 #@! TD*
G04 #@! TO.P,R5,2*
G04 #@! TO.N,CLK+*
G04 #@! TA.AperFunction,SMDPad,CuDef*
G36*
G01*
X147322250Y-88016500D02*
X146809750Y-88016500D01*
G75*
G02*
X146591000Y-87797750I0J218750D01*
G01*
X146591000Y-87360250D01*
G75*
G02*
X146809750Y-87141500I218750J0D01*
G01*
X147322250Y-87141500D01*
G75*
G02*
X147541000Y-87360250I0J-218750D01*
G01*
X147541000Y-87797750D01*
G75*
G02*
X147322250Y-88016500I-218750J0D01*
G01*
G37*
G04 #@! TD.AperFunction*
G04 #@! TO.P,R5,1*
G04 #@! TO.N,CLK_FILT*
G04 #@! TA.AperFunction,SMDPad,CuDef*
G36*
G01*
X147322250Y-89591500D02*
X146809750Y-89591500D01*
G75*
G02*
X146591000Y-89372750I0J218750D01*
G01*
X146591000Y-88935250D01*
G75*
G02*
X146809750Y-88716500I218750J0D01*
G01*
X147322250Y-88716500D01*
G75*
G02*
X147541000Y-88935250I0J-218750D01*
G01*
X147541000Y-89372750D01*
G75*
G02*
X147322250Y-89591500I-218750J0D01*
G01*
G37*
G04 #@! TD.AperFunction*
G04 #@! TD*
G04 #@! TO.P,R4,2*
G04 #@! TO.N,Net-(L2-Pad1)*
G04 #@! TA.AperFunction,SMDPad,CuDef*
G36*
G01*
X145158750Y-88716500D02*
X145671250Y-88716500D01*
G75*
G02*
X145890000Y-88935250I0J-218750D01*
G01*
X145890000Y-89372750D01*
G75*
G02*
X145671250Y-89591500I-218750J0D01*
G01*
X145158750Y-89591500D01*
G75*
G02*
X144940000Y-89372750I0J218750D01*
G01*
X144940000Y-88935250D01*
G75*
G02*
X145158750Y-88716500I218750J0D01*
G01*
G37*
G04 #@! TD.AperFunction*
G04 #@! TO.P,R4,1*
G04 #@! TO.N,CLK+*
G04 #@! TA.AperFunction,SMDPad,CuDef*
G36*
G01*
X145158750Y-87141500D02*
X145671250Y-87141500D01*
G75*
G02*
X145890000Y-87360250I0J-218750D01*
G01*
X145890000Y-87797750D01*
G75*
G02*
X145671250Y-88016500I-218750J0D01*
G01*
X145158750Y-88016500D01*
G75*
G02*
X144940000Y-87797750I0J218750D01*
G01*
X144940000Y-87360250D01*
G75*
G02*
X145158750Y-87141500I218750J0D01*
G01*
G37*
G04 #@! TD.AperFunction*
G04 #@! TD*
G04 #@! TO.P,R3,2*
G04 #@! TO.N,CLK-*
G04 #@! TA.AperFunction,SMDPad,CuDef*
G36*
G01*
X150718000Y-87759250D02*
X150718000Y-87246750D01*
G75*
G02*
X150936750Y-87028000I218750J0D01*
G01*
X151374250Y-87028000D01*
G75*
G02*
X151593000Y-87246750I0J-218750D01*
G01*
X151593000Y-87759250D01*
G75*
G02*
X151374250Y-87978000I-218750J0D01*
G01*
X150936750Y-87978000D01*
G75*
G02*
X150718000Y-87759250I0J218750D01*
G01*
G37*
G04 #@! TD.AperFunction*
G04 #@! TO.P,R3,1*
G04 #@! TO.N,CLK_S_FILT*
G04 #@! TA.AperFunction,SMDPad,CuDef*
G36*
G01*
X149143000Y-87759250D02*
X149143000Y-87246750D01*
G75*
G02*
X149361750Y-87028000I218750J0D01*
G01*
X149799250Y-87028000D01*
G75*
G02*
X150018000Y-87246750I0J-218750D01*
G01*
X150018000Y-87759250D01*
G75*
G02*
X149799250Y-87978000I-218750J0D01*
G01*
X149361750Y-87978000D01*
G75*
G02*
X149143000Y-87759250I0J218750D01*
G01*
G37*
G04 #@! TD.AperFunction*
G04 #@! TD*
G04 #@! TO.P,R2,2*
G04 #@! TO.N,Net-(L1-Pad1)*
G04 #@! TA.AperFunction,SMDPad,CuDef*
G36*
G01*
X153867500Y-87759250D02*
X153867500Y-87246750D01*
G75*
G02*
X154086250Y-87028000I218750J0D01*
G01*
X154523750Y-87028000D01*
G75*
G02*
X154742500Y-87246750I0J-218750D01*
G01*
X154742500Y-87759250D01*
G75*
G02*
X154523750Y-87978000I-218750J0D01*
G01*
X154086250Y-87978000D01*
G75*
G02*
X153867500Y-87759250I0J218750D01*
G01*
G37*
G04 #@! TD.AperFunction*
G04 #@! TO.P,R2,1*
G04 #@! TO.N,CLK-*
G04 #@! TA.AperFunction,SMDPad,CuDef*
G36*
G01*
X152292500Y-87759250D02*
X152292500Y-87246750D01*
G75*
G02*
X152511250Y-87028000I218750J0D01*
G01*
X152948750Y-87028000D01*
G75*
G02*
X153167500Y-87246750I0J-218750D01*
G01*
X153167500Y-87759250D01*
G75*
G02*
X152948750Y-87978000I-218750J0D01*
G01*
X152511250Y-87978000D01*
G75*
G02*
X152292500Y-87759250I0J218750D01*
G01*
G37*
G04 #@! TD.AperFunction*
G04 #@! TD*
G04 #@! TO.P,R1,2*
G04 #@! TO.N,Net-(R1-Pad2)*
G04 #@! TA.AperFunction,SMDPad,CuDef*
G36*
G01*
X149780500Y-89410250D02*
X149780500Y-88897750D01*
G75*
G02*
X149999250Y-88679000I218750J0D01*
G01*
X150436750Y-88679000D01*
G75*
G02*
X150655500Y-88897750I0J-218750D01*
G01*
X150655500Y-89410250D01*
G75*
G02*
X150436750Y-89629000I-218750J0D01*
G01*
X149999250Y-89629000D01*
G75*
G02*
X149780500Y-89410250I0J218750D01*
G01*
G37*
G04 #@! TD.AperFunction*
G04 #@! TO.P,R1,1*
G04 #@! TO.N,CLK_FILT*
G04 #@! TA.AperFunction,SMDPad,CuDef*
G36*
G01*
X148205500Y-89410250D02*
X148205500Y-88897750D01*
G75*
G02*
X148424250Y-88679000I218750J0D01*
G01*
X148861750Y-88679000D01*
G75*
G02*
X149080500Y-88897750I0J-218750D01*
G01*
X149080500Y-89410250D01*
G75*
G02*
X148861750Y-89629000I-218750J0D01*
G01*
X148424250Y-89629000D01*
G75*
G02*
X148205500Y-89410250I0J218750D01*
G01*
G37*
G04 #@! TD.AperFunction*
G04 #@! TD*
G04 #@! TO.P,L2,2*
G04 #@! TO.N,GND*
G04 #@! TA.AperFunction,SMDPad,CuDef*
G36*
G01*
X142626500Y-88897750D02*
X142626500Y-89410250D01*
G75*
G02*
X142407750Y-89629000I-218750J0D01*
G01*
X141970250Y-89629000D01*
G75*
G02*
X141751500Y-89410250I0J218750D01*
G01*
X141751500Y-88897750D01*
G75*
G02*
X141970250Y-88679000I218750J0D01*
G01*
X142407750Y-88679000D01*
G75*
G02*
X142626500Y-88897750I0J-218750D01*
G01*
G37*
G04 #@! TD.AperFunction*
G04 #@! TO.P,L2,1*
G04 #@! TO.N,Net-(L2-Pad1)*
G04 #@! TA.AperFunction,SMDPad,CuDef*
G36*
G01*
X144201500Y-88897750D02*
X144201500Y-89410250D01*
G75*
G02*
X143982750Y-89629000I-218750J0D01*
G01*
X143545250Y-89629000D01*
G75*
G02*
X143326500Y-89410250I0J218750D01*
G01*
X143326500Y-88897750D01*
G75*
G02*
X143545250Y-88679000I218750J0D01*
G01*
X143982750Y-88679000D01*
G75*
G02*
X144201500Y-88897750I0J-218750D01*
G01*
G37*
G04 #@! TD.AperFunction*
G04 #@! TD*
G04 #@! TO.P,C21,2*
G04 #@! TO.N,GND*
G04 #@! TA.AperFunction,SMDPad,CuDef*
G36*
G01*
X149476750Y-98673500D02*
X149989250Y-98673500D01*
G75*
G02*
X150208000Y-98892250I0J-218750D01*
G01*
X150208000Y-99329750D01*
G75*
G02*
X149989250Y-99548500I-218750J0D01*
G01*
X149476750Y-99548500D01*
G75*
G02*
X149258000Y-99329750I0J218750D01*
G01*
X149258000Y-98892250D01*
G75*
G02*
X149476750Y-98673500I218750J0D01*
G01*
G37*
G04 #@! TD.AperFunction*
G04 #@! TO.P,C21,1*
G04 #@! TO.N,VDD*
G04 #@! TA.AperFunction,SMDPad,CuDef*
G36*
G01*
X149476750Y-97098500D02*
X149989250Y-97098500D01*
G75*
G02*
X150208000Y-97317250I0J-218750D01*
G01*
X150208000Y-97754750D01*
G75*
G02*
X149989250Y-97973500I-218750J0D01*
G01*
X149476750Y-97973500D01*
G75*
G02*
X149258000Y-97754750I0J218750D01*
G01*
X149258000Y-97317250D01*
G75*
G02*
X149476750Y-97098500I218750J0D01*
G01*
G37*
G04 #@! TD.AperFunction*
G04 #@! TD*
G04 #@! TO.P,C20,2*
G04 #@! TO.N,GND*
G04 #@! TA.AperFunction,SMDPad,CuDef*
G36*
G01*
X153835939Y-98419931D02*
X154198331Y-98057538D01*
G75*
G02*
X154507691Y-98057538I154680J-154680D01*
G01*
X154817050Y-98366897D01*
G75*
G02*
X154817050Y-98676257I-154680J-154680D01*
G01*
X154454657Y-99038650D01*
G75*
G02*
X154145297Y-99038650I-154680J154680D01*
G01*
X153835938Y-98729291D01*
G75*
G02*
X153835938Y-98419931I154680J154680D01*
G01*
G37*
G04 #@! TD.AperFunction*
G04 #@! TO.P,C20,1*
G04 #@! TO.N,VDDPST*
G04 #@! TA.AperFunction,SMDPad,CuDef*
G36*
G01*
X152722245Y-97306237D02*
X153084637Y-96943844D01*
G75*
G02*
X153393997Y-96943844I154680J-154680D01*
G01*
X153703356Y-97253203D01*
G75*
G02*
X153703356Y-97562563I-154680J-154680D01*
G01*
X153340963Y-97924956D01*
G75*
G02*
X153031603Y-97924956I-154680J154680D01*
G01*
X152722244Y-97615597D01*
G75*
G02*
X152722244Y-97306237I154680J154680D01*
G01*
G37*
G04 #@! TD.AperFunction*
G04 #@! TD*
G04 #@! TO.P,C19,2*
G04 #@! TO.N,GND*
G04 #@! TA.AperFunction,SMDPad,CuDef*
G36*
G01*
X147825750Y-98673500D02*
X148338250Y-98673500D01*
G75*
G02*
X148557000Y-98892250I0J-218750D01*
G01*
X148557000Y-99329750D01*
G75*
G02*
X148338250Y-99548500I-218750J0D01*
G01*
X147825750Y-99548500D01*
G75*
G02*
X147607000Y-99329750I0J218750D01*
G01*
X147607000Y-98892250D01*
G75*
G02*
X147825750Y-98673500I218750J0D01*
G01*
G37*
G04 #@! TD.AperFunction*
G04 #@! TO.P,C19,1*
G04 #@! TO.N,VDDPST*
G04 #@! TA.AperFunction,SMDPad,CuDef*
G36*
G01*
X147825750Y-97098500D02*
X148338250Y-97098500D01*
G75*
G02*
X148557000Y-97317250I0J-218750D01*
G01*
X148557000Y-97754750D01*
G75*
G02*
X148338250Y-97973500I-218750J0D01*
G01*
X147825750Y-97973500D01*
G75*
G02*
X147607000Y-97754750I0J218750D01*
G01*
X147607000Y-97317250D01*
G75*
G02*
X147825750Y-97098500I218750J0D01*
G01*
G37*
G04 #@! TD.AperFunction*
G04 #@! TD*
G04 #@! TO.P,C18,2*
G04 #@! TO.N,GND*
G04 #@! TA.AperFunction,SMDPad,CuDef*
G36*
G01*
X144023500Y-96136750D02*
X144023500Y-96649250D01*
G75*
G02*
X143804750Y-96868000I-218750J0D01*
G01*
X143367250Y-96868000D01*
G75*
G02*
X143148500Y-96649250I0J218750D01*
G01*
X143148500Y-96136750D01*
G75*
G02*
X143367250Y-95918000I218750J0D01*
G01*
X143804750Y-95918000D01*
G75*
G02*
X144023500Y-96136750I0J-218750D01*
G01*
G37*
G04 #@! TD.AperFunction*
G04 #@! TO.P,C18,1*
G04 #@! TO.N,VDD*
G04 #@! TA.AperFunction,SMDPad,CuDef*
G36*
G01*
X145598500Y-96136750D02*
X145598500Y-96649250D01*
G75*
G02*
X145379750Y-96868000I-218750J0D01*
G01*
X144942250Y-96868000D01*
G75*
G02*
X144723500Y-96649250I0J218750D01*
G01*
X144723500Y-96136750D01*
G75*
G02*
X144942250Y-95918000I218750J0D01*
G01*
X145379750Y-95918000D01*
G75*
G02*
X145598500Y-96136750I0J-218750D01*
G01*
G37*
G04 #@! TD.AperFunction*
G04 #@! TD*
G04 #@! TO.P,C17,2*
G04 #@! TO.N,GND*
G04 #@! TA.AperFunction,SMDPad,CuDef*
G36*
G01*
X154680500Y-91188250D02*
X154680500Y-90675750D01*
G75*
G02*
X154899250Y-90457000I218750J0D01*
G01*
X155336750Y-90457000D01*
G75*
G02*
X155555500Y-90675750I0J-218750D01*
G01*
X155555500Y-91188250D01*
G75*
G02*
X155336750Y-91407000I-218750J0D01*
G01*
X154899250Y-91407000D01*
G75*
G02*
X154680500Y-91188250I0J218750D01*
G01*
G37*
G04 #@! TD.AperFunction*
G04 #@! TO.P,C17,1*
G04 #@! TO.N,VDD*
G04 #@! TA.AperFunction,SMDPad,CuDef*
G36*
G01*
X153105500Y-91188250D02*
X153105500Y-90675750D01*
G75*
G02*
X153324250Y-90457000I218750J0D01*
G01*
X153761750Y-90457000D01*
G75*
G02*
X153980500Y-90675750I0J-218750D01*
G01*
X153980500Y-91188250D01*
G75*
G02*
X153761750Y-91407000I-218750J0D01*
G01*
X153324250Y-91407000D01*
G75*
G02*
X153105500Y-91188250I0J218750D01*
G01*
G37*
G04 #@! TD.AperFunction*
G04 #@! TD*
G04 #@! TO.P,C15,2*
G04 #@! TO.N,GND*
G04 #@! TA.AperFunction,SMDPad,CuDef*
G36*
G01*
X144051153Y-94358750D02*
X144051153Y-94871250D01*
G75*
G02*
X143832403Y-95090000I-218750J0D01*
G01*
X143394903Y-95090000D01*
G75*
G02*
X143176153Y-94871250I0J218750D01*
G01*
X143176153Y-94358750D01*
G75*
G02*
X143394903Y-94140000I218750J0D01*
G01*
X143832403Y-94140000D01*
G75*
G02*
X144051153Y-94358750I0J-218750D01*
G01*
G37*
G04 #@! TD.AperFunction*
G04 #@! TO.P,C15,1*
G04 #@! TO.N,VREF*
G04 #@! TA.AperFunction,SMDPad,CuDef*
G36*
G01*
X145626153Y-94358750D02*
X145626153Y-94871250D01*
G75*
G02*
X145407403Y-95090000I-218750J0D01*
G01*
X144969903Y-95090000D01*
G75*
G02*
X144751153Y-94871250I0J218750D01*
G01*
X144751153Y-94358750D01*
G75*
G02*
X144969903Y-94140000I218750J0D01*
G01*
X145407403Y-94140000D01*
G75*
G02*
X145626153Y-94358750I0J-218750D01*
G01*
G37*
G04 #@! TD.AperFunction*
G04 #@! TD*
G04 #@! TO.P,C14,2*
G04 #@! TO.N,GND*
G04 #@! TA.AperFunction,SMDPad,CuDef*
G36*
G01*
X153918500Y-89410250D02*
X153918500Y-88897750D01*
G75*
G02*
X154137250Y-88679000I218750J0D01*
G01*
X154574750Y-88679000D01*
G75*
G02*
X154793500Y-88897750I0J-218750D01*
G01*
X154793500Y-89410250D01*
G75*
G02*
X154574750Y-89629000I-218750J0D01*
G01*
X154137250Y-89629000D01*
G75*
G02*
X153918500Y-89410250I0J218750D01*
G01*
G37*
G04 #@! TD.AperFunction*
G04 #@! TO.P,C14,1*
G04 #@! TO.N,VDDPST*
G04 #@! TA.AperFunction,SMDPad,CuDef*
G36*
G01*
X152343500Y-89410250D02*
X152343500Y-88897750D01*
G75*
G02*
X152562250Y-88679000I218750J0D01*
G01*
X152999750Y-88679000D01*
G75*
G02*
X153218500Y-88897750I0J-218750D01*
G01*
X153218500Y-89410250D01*
G75*
G02*
X152999750Y-89629000I-218750J0D01*
G01*
X152562250Y-89629000D01*
G75*
G02*
X152343500Y-89410250I0J218750D01*
G01*
G37*
G04 #@! TD.AperFunction*
G04 #@! TD*
G04 #@! TO.P,C13,2*
G04 #@! TO.N,GND*
G04 #@! TA.AperFunction,SMDPad,CuDef*
G36*
G01*
X144074500Y-91564750D02*
X144074500Y-92077250D01*
G75*
G02*
X143855750Y-92296000I-218750J0D01*
G01*
X143418250Y-92296000D01*
G75*
G02*
X143199500Y-92077250I0J218750D01*
G01*
X143199500Y-91564750D01*
G75*
G02*
X143418250Y-91346000I218750J0D01*
G01*
X143855750Y-91346000D01*
G75*
G02*
X144074500Y-91564750I0J-218750D01*
G01*
G37*
G04 #@! TD.AperFunction*
G04 #@! TO.P,C13,1*
G04 #@! TO.N,VDD*
G04 #@! TA.AperFunction,SMDPad,CuDef*
G36*
G01*
X145649500Y-91564750D02*
X145649500Y-92077250D01*
G75*
G02*
X145430750Y-92296000I-218750J0D01*
G01*
X144993250Y-92296000D01*
G75*
G02*
X144774500Y-92077250I0J218750D01*
G01*
X144774500Y-91564750D01*
G75*
G02*
X144993250Y-91346000I218750J0D01*
G01*
X145430750Y-91346000D01*
G75*
G02*
X145649500Y-91564750I0J-218750D01*
G01*
G37*
G04 #@! TD.AperFunction*
G04 #@! TD*
D10*
G04 #@! TO.P,J10,2*
G04 #@! TO.N,GND*
X152273000Y-75996021D03*
X160909000Y-75996021D03*
D11*
G04 #@! TO.P,J10,1*
G04 #@! TO.N,CLK-*
X156591000Y-75996021D03*
G04 #@! TD*
D10*
G04 #@! TO.P,J9,2*
G04 #@! TO.N,GND*
X139827000Y-75984100D03*
X148463000Y-75984100D03*
D11*
G04 #@! TO.P,J9,1*
G04 #@! TO.N,CLK+*
X144145000Y-75984100D03*
G04 #@! TD*
G04 #@! TO.P,C1,1*
G04 #@! TO.N,VDD*
G04 #@! TA.AperFunction,SMDPad,CuDef*
G36*
G01*
X154737750Y-118033500D02*
X155650250Y-118033500D01*
G75*
G02*
X155894000Y-118277250I0J-243750D01*
G01*
X155894000Y-118764750D01*
G75*
G02*
X155650250Y-119008500I-243750J0D01*
G01*
X154737750Y-119008500D01*
G75*
G02*
X154494000Y-118764750I0J243750D01*
G01*
X154494000Y-118277250D01*
G75*
G02*
X154737750Y-118033500I243750J0D01*
G01*
G37*
G04 #@! TD.AperFunction*
G04 #@! TO.P,C1,2*
G04 #@! TO.N,GND*
G04 #@! TA.AperFunction,SMDPad,CuDef*
G36*
G01*
X154737750Y-119908500D02*
X155650250Y-119908500D01*
G75*
G02*
X155894000Y-120152250I0J-243750D01*
G01*
X155894000Y-120639750D01*
G75*
G02*
X155650250Y-120883500I-243750J0D01*
G01*
X154737750Y-120883500D01*
G75*
G02*
X154494000Y-120639750I0J243750D01*
G01*
X154494000Y-120152250D01*
G75*
G02*
X154737750Y-119908500I243750J0D01*
G01*
G37*
G04 #@! TD.AperFunction*
G04 #@! TD*
G04 #@! TO.P,C2,2*
G04 #@! TO.N,GND*
G04 #@! TA.AperFunction,SMDPad,CuDef*
G36*
G01*
X149657750Y-119908500D02*
X150570250Y-119908500D01*
G75*
G02*
X150814000Y-120152250I0J-243750D01*
G01*
X150814000Y-120639750D01*
G75*
G02*
X150570250Y-120883500I-243750J0D01*
G01*
X149657750Y-120883500D01*
G75*
G02*
X149414000Y-120639750I0J243750D01*
G01*
X149414000Y-120152250D01*
G75*
G02*
X149657750Y-119908500I243750J0D01*
G01*
G37*
G04 #@! TD.AperFunction*
G04 #@! TO.P,C2,1*
G04 #@! TO.N,VDDPST*
G04 #@! TA.AperFunction,SMDPad,CuDef*
G36*
G01*
X149657750Y-118033500D02*
X150570250Y-118033500D01*
G75*
G02*
X150814000Y-118277250I0J-243750D01*
G01*
X150814000Y-118764750D01*
G75*
G02*
X150570250Y-119008500I-243750J0D01*
G01*
X149657750Y-119008500D01*
G75*
G02*
X149414000Y-118764750I0J243750D01*
G01*
X149414000Y-118277250D01*
G75*
G02*
X149657750Y-118033500I243750J0D01*
G01*
G37*
G04 #@! TD.AperFunction*
G04 #@! TD*
G04 #@! TO.P,C3,2*
G04 #@! TO.N,GND*
G04 #@! TA.AperFunction,SMDPad,CuDef*
G36*
G01*
X144577750Y-119908500D02*
X145490250Y-119908500D01*
G75*
G02*
X145734000Y-120152250I0J-243750D01*
G01*
X145734000Y-120639750D01*
G75*
G02*
X145490250Y-120883500I-243750J0D01*
G01*
X144577750Y-120883500D01*
G75*
G02*
X144334000Y-120639750I0J243750D01*
G01*
X144334000Y-120152250D01*
G75*
G02*
X144577750Y-119908500I243750J0D01*
G01*
G37*
G04 #@! TD.AperFunction*
G04 #@! TO.P,C3,1*
G04 #@! TO.N,VREF*
G04 #@! TA.AperFunction,SMDPad,CuDef*
G36*
G01*
X144577750Y-118033500D02*
X145490250Y-118033500D01*
G75*
G02*
X145734000Y-118277250I0J-243750D01*
G01*
X145734000Y-118764750D01*
G75*
G02*
X145490250Y-119008500I-243750J0D01*
G01*
X144577750Y-119008500D01*
G75*
G02*
X144334000Y-118764750I0J243750D01*
G01*
X144334000Y-118277250D01*
G75*
G02*
X144577750Y-118033500I243750J0D01*
G01*
G37*
G04 #@! TD.AperFunction*
G04 #@! TD*
G04 #@! TO.P,C16,2*
G04 #@! TO.N,GND*
G04 #@! TA.AperFunction,SMDPad,CuDef*
G36*
G01*
X154882000Y-110946250D02*
X154882000Y-110033750D01*
G75*
G02*
X155125750Y-109790000I243750J0D01*
G01*
X155613250Y-109790000D01*
G75*
G02*
X155857000Y-110033750I0J-243750D01*
G01*
X155857000Y-110946250D01*
G75*
G02*
X155613250Y-111190000I-243750J0D01*
G01*
X155125750Y-111190000D01*
G75*
G02*
X154882000Y-110946250I0J243750D01*
G01*
G37*
G04 #@! TD.AperFunction*
G04 #@! TO.P,C16,1*
G04 #@! TO.N,RST*
G04 #@! TA.AperFunction,SMDPad,CuDef*
G36*
G01*
X153007000Y-110946250D02*
X153007000Y-110033750D01*
G75*
G02*
X153250750Y-109790000I243750J0D01*
G01*
X153738250Y-109790000D01*
G75*
G02*
X153982000Y-110033750I0J-243750D01*
G01*
X153982000Y-110946250D01*
G75*
G02*
X153738250Y-111190000I-243750J0D01*
G01*
X153250750Y-111190000D01*
G75*
G02*
X153007000Y-110946250I0J243750D01*
G01*
G37*
G04 #@! TD.AperFunction*
G04 #@! TD*
D12*
G04 #@! TO.P,J1,2*
G04 #@! TO.N,GND*
X127635000Y-82715100D03*
D13*
G04 #@! TO.P,J1,1*
G04 #@! TO.N,VIN-*
X130810000Y-85890100D03*
D12*
G04 #@! TO.P,J1,2*
G04 #@! TO.N,GND*
X133985000Y-82715100D03*
X127635000Y-89065100D03*
X133985000Y-89065100D03*
G04 #@! TD*
G04 #@! TO.P,J2,2*
G04 #@! TO.N,GND*
X133985000Y-103505000D03*
X127635000Y-103505000D03*
X133985000Y-97155000D03*
D13*
G04 #@! TO.P,J2,1*
G04 #@! TO.N,VIN+*
X130810000Y-100330000D03*
D12*
G04 #@! TO.P,J2,2*
G04 #@! TO.N,GND*
X127635000Y-97155000D03*
G04 #@! TD*
D14*
G04 #@! TO.P,J3,1*
G04 #@! TO.N,D0*
X164592000Y-81788000D03*
D15*
G04 #@! TO.P,J3,2*
G04 #@! TO.N,GND*
X167132000Y-81788000D03*
G04 #@! TO.P,J3,3*
G04 #@! TO.N,D1*
X164592000Y-84328000D03*
G04 #@! TO.P,J3,4*
G04 #@! TO.N,GND*
X167132000Y-84328000D03*
G04 #@! TO.P,J3,5*
G04 #@! TO.N,D2*
X164592000Y-86868000D03*
G04 #@! TO.P,J3,6*
G04 #@! TO.N,GND*
X167132000Y-86868000D03*
G04 #@! TO.P,J3,7*
G04 #@! TO.N,D3*
X164592000Y-89408000D03*
G04 #@! TO.P,J3,8*
G04 #@! TO.N,GND*
X167132000Y-89408000D03*
G04 #@! TO.P,J3,9*
G04 #@! TO.N,D4*
X164592000Y-91948000D03*
G04 #@! TO.P,J3,10*
G04 #@! TO.N,GND*
X167132000Y-91948000D03*
G04 #@! TO.P,J3,11*
G04 #@! TO.N,D5*
X164592000Y-94488000D03*
G04 #@! TO.P,J3,12*
G04 #@! TO.N,GND*
X167132000Y-94488000D03*
G04 #@! TO.P,J3,13*
G04 #@! TO.N,D6*
X164592000Y-97028000D03*
G04 #@! TO.P,J3,14*
G04 #@! TO.N,GND*
X167132000Y-97028000D03*
G04 #@! TO.P,J3,15*
G04 #@! TO.N,D7*
X164592000Y-99568000D03*
G04 #@! TO.P,J3,16*
G04 #@! TO.N,GND*
X167132000Y-99568000D03*
G04 #@! TO.P,J3,17*
G04 #@! TO.N,D8*
X164592000Y-102108000D03*
G04 #@! TO.P,J3,18*
G04 #@! TO.N,GND*
X167132000Y-102108000D03*
G04 #@! TO.P,J3,19*
G04 #@! TO.N,D9*
X164592000Y-104648000D03*
G04 #@! TO.P,J3,20*
G04 #@! TO.N,GND*
X167132000Y-104648000D03*
G04 #@! TD*
D14*
G04 #@! TO.P,J4,1*
G04 #@! TO.N,VDD*
X155194000Y-115570000D03*
D15*
G04 #@! TO.P,J4,2*
G04 #@! TO.N,GND*
X152654000Y-115570000D03*
G04 #@! TO.P,J4,3*
G04 #@! TO.N,VDDPST*
X150114000Y-115570000D03*
G04 #@! TO.P,J4,4*
G04 #@! TO.N,GND*
X147574000Y-115570000D03*
G04 #@! TO.P,J4,5*
G04 #@! TO.N,VREF*
X145034000Y-115570000D03*
G04 #@! TO.P,J4,6*
G04 #@! TO.N,GND*
X142494000Y-115570000D03*
G04 #@! TD*
G04 #@! TO.P,L1,1*
G04 #@! TO.N,Net-(L1-Pad1)*
G04 #@! TA.AperFunction,SMDPad,CuDef*
G36*
G01*
X155699750Y-87065500D02*
X156212250Y-87065500D01*
G75*
G02*
X156431000Y-87284250I0J-218750D01*
G01*
X156431000Y-87721750D01*
G75*
G02*
X156212250Y-87940500I-218750J0D01*
G01*
X155699750Y-87940500D01*
G75*
G02*
X155481000Y-87721750I0J218750D01*
G01*
X155481000Y-87284250D01*
G75*
G02*
X155699750Y-87065500I218750J0D01*
G01*
G37*
G04 #@! TD.AperFunction*
G04 #@! TO.P,L1,2*
G04 #@! TO.N,GND*
G04 #@! TA.AperFunction,SMDPad,CuDef*
G36*
G01*
X155699750Y-88640500D02*
X156212250Y-88640500D01*
G75*
G02*
X156431000Y-88859250I0J-218750D01*
G01*
X156431000Y-89296750D01*
G75*
G02*
X156212250Y-89515500I-218750J0D01*
G01*
X155699750Y-89515500D01*
G75*
G02*
X155481000Y-89296750I0J218750D01*
G01*
X155481000Y-88859250D01*
G75*
G02*
X155699750Y-88640500I218750J0D01*
G01*
G37*
G04 #@! TD.AperFunction*
G04 #@! TD*
G04 #@! TO.P,R6,1*
G04 #@! TO.N,VDDPST*
G04 #@! TA.AperFunction,SMDPad,CuDef*
G36*
G01*
X150570250Y-112755500D02*
X149657750Y-112755500D01*
G75*
G02*
X149414000Y-112511750I0J243750D01*
G01*
X149414000Y-112024250D01*
G75*
G02*
X149657750Y-111780500I243750J0D01*
G01*
X150570250Y-111780500D01*
G75*
G02*
X150814000Y-112024250I0J-243750D01*
G01*
X150814000Y-112511750D01*
G75*
G02*
X150570250Y-112755500I-243750J0D01*
G01*
G37*
G04 #@! TD.AperFunction*
G04 #@! TO.P,R6,2*
G04 #@! TO.N,RST*
G04 #@! TA.AperFunction,SMDPad,CuDef*
G36*
G01*
X150570250Y-110880500D02*
X149657750Y-110880500D01*
G75*
G02*
X149414000Y-110636750I0J243750D01*
G01*
X149414000Y-110149250D01*
G75*
G02*
X149657750Y-109905500I243750J0D01*
G01*
X150570250Y-109905500D01*
G75*
G02*
X150814000Y-110149250I0J-243750D01*
G01*
X150814000Y-110636750D01*
G75*
G02*
X150570250Y-110880500I-243750J0D01*
G01*
G37*
G04 #@! TD.AperFunction*
G04 #@! TD*
D16*
G04 #@! TO.P,SW1,1*
G04 #@! TO.N,RST*
X150114000Y-103886000D03*
D17*
G04 #@! TO.P,SW1,3*
G04 #@! TO.N,GND*
X157734000Y-106426000D03*
G04 #@! TO.P,SW1,2*
G04 #@! TO.N,RST*
X150114000Y-106426000D03*
G04 #@! TO.P,SW1,4*
G04 #@! TO.N,GND*
X157734000Y-103886000D03*
G04 #@! TD*
G04 #@! TO.P,U2,33*
G04 #@! TO.N,GND*
G04 #@! TA.AperFunction,SMDPad,CuDef*
G36*
G01*
X147654680Y-94533241D02*
X147654680Y-91933239D01*
G75*
G02*
X147904679Y-91683240I249999J0D01*
G01*
X150504681Y-91683240D01*
G75*
G02*
X150754680Y-91933239I0J-249999D01*
G01*
X150754680Y-94533241D01*
G75*
G02*
X150504681Y-94783240I-249999J0D01*
G01*
X147904679Y-94783240D01*
G75*
G02*
X147654680Y-94533241I0J249999D01*
G01*
G37*
G04 #@! TD.AperFunction*
D18*
G04 #@! TD*
G04 #@! TO.N,GND*
G04 #@! TO.C,U2*
X148204680Y-92233240D03*
G04 #@! TO.N,GND*
G04 #@! TO.C,U2*
X149204680Y-92233240D03*
X150204680Y-92233240D03*
X148204680Y-93233240D03*
X149204680Y-93233240D03*
X150204680Y-93233240D03*
X148204680Y-94233240D03*
X149204680Y-94233240D03*
X150204680Y-94233240D03*
G04 #@! TD*
G04 #@! TO.P,U2,1*
G04 #@! TO.N,GND*
G04 #@! TA.AperFunction,SMDPad,CuDef*
G36*
G01*
X146329680Y-91545740D02*
X146329680Y-91420740D01*
G75*
G02*
X146392180Y-91358240I62500J0D01*
G01*
X147142180Y-91358240D01*
G75*
G02*
X147204680Y-91420740I0J-62500D01*
G01*
X147204680Y-91545740D01*
G75*
G02*
X147142180Y-91608240I-62500J0D01*
G01*
X146392180Y-91608240D01*
G75*
G02*
X146329680Y-91545740I0J62500D01*
G01*
G37*
G04 #@! TD.AperFunction*
G04 #@! TO.P,U2,2*
G04 #@! TO.N,VDD*
G04 #@! TA.AperFunction,SMDPad,CuDef*
G36*
G01*
X146329680Y-92045740D02*
X146329680Y-91920740D01*
G75*
G02*
X146392180Y-91858240I62500J0D01*
G01*
X147142180Y-91858240D01*
G75*
G02*
X147204680Y-91920740I0J-62500D01*
G01*
X147204680Y-92045740D01*
G75*
G02*
X147142180Y-92108240I-62500J0D01*
G01*
X146392180Y-92108240D01*
G75*
G02*
X146329680Y-92045740I0J62500D01*
G01*
G37*
G04 #@! TD.AperFunction*
G04 #@! TO.P,U2,3*
G04 #@! TO.N,VIN-*
G04 #@! TA.AperFunction,SMDPad,CuDef*
G36*
G01*
X146329680Y-92545740D02*
X146329680Y-92420740D01*
G75*
G02*
X146392180Y-92358240I62500J0D01*
G01*
X147142180Y-92358240D01*
G75*
G02*
X147204680Y-92420740I0J-62500D01*
G01*
X147204680Y-92545740D01*
G75*
G02*
X147142180Y-92608240I-62500J0D01*
G01*
X146392180Y-92608240D01*
G75*
G02*
X146329680Y-92545740I0J62500D01*
G01*
G37*
G04 #@! TD.AperFunction*
G04 #@! TO.P,U2,4*
G04 #@! TO.N,VIN+*
G04 #@! TA.AperFunction,SMDPad,CuDef*
G36*
G01*
X146329680Y-93045740D02*
X146329680Y-92920740D01*
G75*
G02*
X146392180Y-92858240I62500J0D01*
G01*
X147142180Y-92858240D01*
G75*
G02*
X147204680Y-92920740I0J-62500D01*
G01*
X147204680Y-93045740D01*
G75*
G02*
X147142180Y-93108240I-62500J0D01*
G01*
X146392180Y-93108240D01*
G75*
G02*
X146329680Y-93045740I0J62500D01*
G01*
G37*
G04 #@! TD.AperFunction*
G04 #@! TO.P,U2,5*
G04 #@! TO.N,VREF*
G04 #@! TA.AperFunction,SMDPad,CuDef*
G36*
G01*
X146329680Y-93545740D02*
X146329680Y-93420740D01*
G75*
G02*
X146392180Y-93358240I62500J0D01*
G01*
X147142180Y-93358240D01*
G75*
G02*
X147204680Y-93420740I0J-62500D01*
G01*
X147204680Y-93545740D01*
G75*
G02*
X147142180Y-93608240I-62500J0D01*
G01*
X146392180Y-93608240D01*
G75*
G02*
X146329680Y-93545740I0J62500D01*
G01*
G37*
G04 #@! TD.AperFunction*
G04 #@! TO.P,U2,6*
G04 #@! TA.AperFunction,SMDPad,CuDef*
G36*
G01*
X146329680Y-94045740D02*
X146329680Y-93920740D01*
G75*
G02*
X146392180Y-93858240I62500J0D01*
G01*
X147142180Y-93858240D01*
G75*
G02*
X147204680Y-93920740I0J-62500D01*
G01*
X147204680Y-94045740D01*
G75*
G02*
X147142180Y-94108240I-62500J0D01*
G01*
X146392180Y-94108240D01*
G75*
G02*
X146329680Y-94045740I0J62500D01*
G01*
G37*
G04 #@! TD.AperFunction*
G04 #@! TO.P,U2,7*
G04 #@! TA.AperFunction,SMDPad,CuDef*
G36*
G01*
X146329680Y-94545740D02*
X146329680Y-94420740D01*
G75*
G02*
X146392180Y-94358240I62500J0D01*
G01*
X147142180Y-94358240D01*
G75*
G02*
X147204680Y-94420740I0J-62500D01*
G01*
X147204680Y-94545740D01*
G75*
G02*
X147142180Y-94608240I-62500J0D01*
G01*
X146392180Y-94608240D01*
G75*
G02*
X146329680Y-94545740I0J62500D01*
G01*
G37*
G04 #@! TD.AperFunction*
G04 #@! TO.P,U2,8*
G04 #@! TO.N,VDD*
G04 #@! TA.AperFunction,SMDPad,CuDef*
G36*
G01*
X146329680Y-95045740D02*
X146329680Y-94920740D01*
G75*
G02*
X146392180Y-94858240I62500J0D01*
G01*
X147142180Y-94858240D01*
G75*
G02*
X147204680Y-94920740I0J-62500D01*
G01*
X147204680Y-95045740D01*
G75*
G02*
X147142180Y-95108240I-62500J0D01*
G01*
X146392180Y-95108240D01*
G75*
G02*
X146329680Y-95045740I0J62500D01*
G01*
G37*
G04 #@! TD.AperFunction*
G04 #@! TO.P,U2,9*
G04 #@! TO.N,GND*
G04 #@! TA.AperFunction,SMDPad,CuDef*
G36*
G01*
X147329680Y-96045740D02*
X147329680Y-95295740D01*
G75*
G02*
X147392180Y-95233240I62500J0D01*
G01*
X147517180Y-95233240D01*
G75*
G02*
X147579680Y-95295740I0J-62500D01*
G01*
X147579680Y-96045740D01*
G75*
G02*
X147517180Y-96108240I-62500J0D01*
G01*
X147392180Y-96108240D01*
G75*
G02*
X147329680Y-96045740I0J62500D01*
G01*
G37*
G04 #@! TD.AperFunction*
G04 #@! TO.P,U2,10*
G04 #@! TO.N,VDDPST*
G04 #@! TA.AperFunction,SMDPad,CuDef*
G36*
G01*
X147829680Y-96045740D02*
X147829680Y-95295740D01*
G75*
G02*
X147892180Y-95233240I62500J0D01*
G01*
X148017180Y-95233240D01*
G75*
G02*
X148079680Y-95295740I0J-62500D01*
G01*
X148079680Y-96045740D01*
G75*
G02*
X148017180Y-96108240I-62500J0D01*
G01*
X147892180Y-96108240D01*
G75*
G02*
X147829680Y-96045740I0J62500D01*
G01*
G37*
G04 #@! TD.AperFunction*
G04 #@! TO.P,U2,11*
G04 #@! TO.N,VDD*
G04 #@! TA.AperFunction,SMDPad,CuDef*
G36*
G01*
X148329680Y-96045740D02*
X148329680Y-95295740D01*
G75*
G02*
X148392180Y-95233240I62500J0D01*
G01*
X148517180Y-95233240D01*
G75*
G02*
X148579680Y-95295740I0J-62500D01*
G01*
X148579680Y-96045740D01*
G75*
G02*
X148517180Y-96108240I-62500J0D01*
G01*
X148392180Y-96108240D01*
G75*
G02*
X148329680Y-96045740I0J62500D01*
G01*
G37*
G04 #@! TD.AperFunction*
G04 #@! TO.P,U2,12*
G04 #@! TA.AperFunction,SMDPad,CuDef*
G36*
G01*
X148829680Y-96045740D02*
X148829680Y-95295740D01*
G75*
G02*
X148892180Y-95233240I62500J0D01*
G01*
X149017180Y-95233240D01*
G75*
G02*
X149079680Y-95295740I0J-62500D01*
G01*
X149079680Y-96045740D01*
G75*
G02*
X149017180Y-96108240I-62500J0D01*
G01*
X148892180Y-96108240D01*
G75*
G02*
X148829680Y-96045740I0J62500D01*
G01*
G37*
G04 #@! TD.AperFunction*
G04 #@! TO.P,U2,13*
G04 #@! TO.N,RST*
G04 #@! TA.AperFunction,SMDPad,CuDef*
G36*
G01*
X149329680Y-96045740D02*
X149329680Y-95295740D01*
G75*
G02*
X149392180Y-95233240I62500J0D01*
G01*
X149517180Y-95233240D01*
G75*
G02*
X149579680Y-95295740I0J-62500D01*
G01*
X149579680Y-96045740D01*
G75*
G02*
X149517180Y-96108240I-62500J0D01*
G01*
X149392180Y-96108240D01*
G75*
G02*
X149329680Y-96045740I0J62500D01*
G01*
G37*
G04 #@! TD.AperFunction*
G04 #@! TO.P,U2,14*
G04 #@! TO.N,D9*
G04 #@! TA.AperFunction,SMDPad,CuDef*
G36*
G01*
X149829680Y-96045740D02*
X149829680Y-95295740D01*
G75*
G02*
X149892180Y-95233240I62500J0D01*
G01*
X150017180Y-95233240D01*
G75*
G02*
X150079680Y-95295740I0J-62500D01*
G01*
X150079680Y-96045740D01*
G75*
G02*
X150017180Y-96108240I-62500J0D01*
G01*
X149892180Y-96108240D01*
G75*
G02*
X149829680Y-96045740I0J62500D01*
G01*
G37*
G04 #@! TD.AperFunction*
G04 #@! TO.P,U2,15*
G04 #@! TO.N,D8*
G04 #@! TA.AperFunction,SMDPad,CuDef*
G36*
G01*
X150329680Y-96045740D02*
X150329680Y-95295740D01*
G75*
G02*
X150392180Y-95233240I62500J0D01*
G01*
X150517180Y-95233240D01*
G75*
G02*
X150579680Y-95295740I0J-62500D01*
G01*
X150579680Y-96045740D01*
G75*
G02*
X150517180Y-96108240I-62500J0D01*
G01*
X150392180Y-96108240D01*
G75*
G02*
X150329680Y-96045740I0J62500D01*
G01*
G37*
G04 #@! TD.AperFunction*
G04 #@! TO.P,U2,16*
G04 #@! TO.N,VDDPST*
G04 #@! TA.AperFunction,SMDPad,CuDef*
G36*
G01*
X150829680Y-96045740D02*
X150829680Y-95295740D01*
G75*
G02*
X150892180Y-95233240I62500J0D01*
G01*
X151017180Y-95233240D01*
G75*
G02*
X151079680Y-95295740I0J-62500D01*
G01*
X151079680Y-96045740D01*
G75*
G02*
X151017180Y-96108240I-62500J0D01*
G01*
X150892180Y-96108240D01*
G75*
G02*
X150829680Y-96045740I0J62500D01*
G01*
G37*
G04 #@! TD.AperFunction*
G04 #@! TO.P,U2,17*
G04 #@! TO.N,D7*
G04 #@! TA.AperFunction,SMDPad,CuDef*
G36*
G01*
X151204680Y-95045740D02*
X151204680Y-94920740D01*
G75*
G02*
X151267180Y-94858240I62500J0D01*
G01*
X152017180Y-94858240D01*
G75*
G02*
X152079680Y-94920740I0J-62500D01*
G01*
X152079680Y-95045740D01*
G75*
G02*
X152017180Y-95108240I-62500J0D01*
G01*
X151267180Y-95108240D01*
G75*
G02*
X151204680Y-95045740I0J62500D01*
G01*
G37*
G04 #@! TD.AperFunction*
G04 #@! TO.P,U2,18*
G04 #@! TO.N,D6*
G04 #@! TA.AperFunction,SMDPad,CuDef*
G36*
G01*
X151204680Y-94545740D02*
X151204680Y-94420740D01*
G75*
G02*
X151267180Y-94358240I62500J0D01*
G01*
X152017180Y-94358240D01*
G75*
G02*
X152079680Y-94420740I0J-62500D01*
G01*
X152079680Y-94545740D01*
G75*
G02*
X152017180Y-94608240I-62500J0D01*
G01*
X151267180Y-94608240D01*
G75*
G02*
X151204680Y-94545740I0J62500D01*
G01*
G37*
G04 #@! TD.AperFunction*
G04 #@! TO.P,U2,19*
G04 #@! TO.N,D5*
G04 #@! TA.AperFunction,SMDPad,CuDef*
G36*
G01*
X151204680Y-94045740D02*
X151204680Y-93920740D01*
G75*
G02*
X151267180Y-93858240I62500J0D01*
G01*
X152017180Y-93858240D01*
G75*
G02*
X152079680Y-93920740I0J-62500D01*
G01*
X152079680Y-94045740D01*
G75*
G02*
X152017180Y-94108240I-62500J0D01*
G01*
X151267180Y-94108240D01*
G75*
G02*
X151204680Y-94045740I0J62500D01*
G01*
G37*
G04 #@! TD.AperFunction*
G04 #@! TO.P,U2,20*
G04 #@! TO.N,D4*
G04 #@! TA.AperFunction,SMDPad,CuDef*
G36*
G01*
X151204680Y-93545740D02*
X151204680Y-93420740D01*
G75*
G02*
X151267180Y-93358240I62500J0D01*
G01*
X152017180Y-93358240D01*
G75*
G02*
X152079680Y-93420740I0J-62500D01*
G01*
X152079680Y-93545740D01*
G75*
G02*
X152017180Y-93608240I-62500J0D01*
G01*
X151267180Y-93608240D01*
G75*
G02*
X151204680Y-93545740I0J62500D01*
G01*
G37*
G04 #@! TD.AperFunction*
G04 #@! TO.P,U2,21*
G04 #@! TO.N,D3*
G04 #@! TA.AperFunction,SMDPad,CuDef*
G36*
G01*
X151204680Y-93045740D02*
X151204680Y-92920740D01*
G75*
G02*
X151267180Y-92858240I62500J0D01*
G01*
X152017180Y-92858240D01*
G75*
G02*
X152079680Y-92920740I0J-62500D01*
G01*
X152079680Y-93045740D01*
G75*
G02*
X152017180Y-93108240I-62500J0D01*
G01*
X151267180Y-93108240D01*
G75*
G02*
X151204680Y-93045740I0J62500D01*
G01*
G37*
G04 #@! TD.AperFunction*
G04 #@! TO.P,U2,22*
G04 #@! TO.N,D2*
G04 #@! TA.AperFunction,SMDPad,CuDef*
G36*
G01*
X151204680Y-92545740D02*
X151204680Y-92420740D01*
G75*
G02*
X151267180Y-92358240I62500J0D01*
G01*
X152017180Y-92358240D01*
G75*
G02*
X152079680Y-92420740I0J-62500D01*
G01*
X152079680Y-92545740D01*
G75*
G02*
X152017180Y-92608240I-62500J0D01*
G01*
X151267180Y-92608240D01*
G75*
G02*
X151204680Y-92545740I0J62500D01*
G01*
G37*
G04 #@! TD.AperFunction*
G04 #@! TO.P,U2,23*
G04 #@! TO.N,D1*
G04 #@! TA.AperFunction,SMDPad,CuDef*
G36*
G01*
X151204680Y-92045740D02*
X151204680Y-91920740D01*
G75*
G02*
X151267180Y-91858240I62500J0D01*
G01*
X152017180Y-91858240D01*
G75*
G02*
X152079680Y-91920740I0J-62500D01*
G01*
X152079680Y-92045740D01*
G75*
G02*
X152017180Y-92108240I-62500J0D01*
G01*
X151267180Y-92108240D01*
G75*
G02*
X151204680Y-92045740I0J62500D01*
G01*
G37*
G04 #@! TD.AperFunction*
G04 #@! TO.P,U2,24*
G04 #@! TO.N,D0*
G04 #@! TA.AperFunction,SMDPad,CuDef*
G36*
G01*
X151204680Y-91545740D02*
X151204680Y-91420740D01*
G75*
G02*
X151267180Y-91358240I62500J0D01*
G01*
X152017180Y-91358240D01*
G75*
G02*
X152079680Y-91420740I0J-62500D01*
G01*
X152079680Y-91545740D01*
G75*
G02*
X152017180Y-91608240I-62500J0D01*
G01*
X151267180Y-91608240D01*
G75*
G02*
X151204680Y-91545740I0J62500D01*
G01*
G37*
G04 #@! TD.AperFunction*
G04 #@! TO.P,U2,25*
G04 #@! TO.N,VDD*
G04 #@! TA.AperFunction,SMDPad,CuDef*
G36*
G01*
X150829680Y-91170740D02*
X150829680Y-90420740D01*
G75*
G02*
X150892180Y-90358240I62500J0D01*
G01*
X151017180Y-90358240D01*
G75*
G02*
X151079680Y-90420740I0J-62500D01*
G01*
X151079680Y-91170740D01*
G75*
G02*
X151017180Y-91233240I-62500J0D01*
G01*
X150892180Y-91233240D01*
G75*
G02*
X150829680Y-91170740I0J62500D01*
G01*
G37*
G04 #@! TD.AperFunction*
G04 #@! TO.P,U2,26*
G04 #@! TO.N,VDDPST*
G04 #@! TA.AperFunction,SMDPad,CuDef*
G36*
G01*
X150329680Y-91170740D02*
X150329680Y-90420740D01*
G75*
G02*
X150392180Y-90358240I62500J0D01*
G01*
X150517180Y-90358240D01*
G75*
G02*
X150579680Y-90420740I0J-62500D01*
G01*
X150579680Y-91170740D01*
G75*
G02*
X150517180Y-91233240I-62500J0D01*
G01*
X150392180Y-91233240D01*
G75*
G02*
X150329680Y-91170740I0J62500D01*
G01*
G37*
G04 #@! TD.AperFunction*
G04 #@! TO.P,U2,27*
G04 #@! TO.N,Net-(R1-Pad2)*
G04 #@! TA.AperFunction,SMDPad,CuDef*
G36*
G01*
X149829680Y-91170740D02*
X149829680Y-90420740D01*
G75*
G02*
X149892180Y-90358240I62500J0D01*
G01*
X150017180Y-90358240D01*
G75*
G02*
X150079680Y-90420740I0J-62500D01*
G01*
X150079680Y-91170740D01*
G75*
G02*
X150017180Y-91233240I-62500J0D01*
G01*
X149892180Y-91233240D01*
G75*
G02*
X149829680Y-91170740I0J62500D01*
G01*
G37*
G04 #@! TD.AperFunction*
G04 #@! TO.P,U2,28*
G04 #@! TO.N,CLK_S_FILT*
G04 #@! TA.AperFunction,SMDPad,CuDef*
G36*
G01*
X149329680Y-91170740D02*
X149329680Y-90420740D01*
G75*
G02*
X149392180Y-90358240I62500J0D01*
G01*
X149517180Y-90358240D01*
G75*
G02*
X149579680Y-90420740I0J-62500D01*
G01*
X149579680Y-91170740D01*
G75*
G02*
X149517180Y-91233240I-62500J0D01*
G01*
X149392180Y-91233240D01*
G75*
G02*
X149329680Y-91170740I0J62500D01*
G01*
G37*
G04 #@! TD.AperFunction*
G04 #@! TO.P,U2,29*
G04 #@! TO.N,CLK_FILT*
G04 #@! TA.AperFunction,SMDPad,CuDef*
G36*
G01*
X148829680Y-91170740D02*
X148829680Y-90420740D01*
G75*
G02*
X148892180Y-90358240I62500J0D01*
G01*
X149017180Y-90358240D01*
G75*
G02*
X149079680Y-90420740I0J-62500D01*
G01*
X149079680Y-91170740D01*
G75*
G02*
X149017180Y-91233240I-62500J0D01*
G01*
X148892180Y-91233240D01*
G75*
G02*
X148829680Y-91170740I0J62500D01*
G01*
G37*
G04 #@! TD.AperFunction*
G04 #@! TO.P,U2,30*
G04 #@! TO.N,GND*
G04 #@! TA.AperFunction,SMDPad,CuDef*
G36*
G01*
X148329680Y-91170740D02*
X148329680Y-90420740D01*
G75*
G02*
X148392180Y-90358240I62500J0D01*
G01*
X148517180Y-90358240D01*
G75*
G02*
X148579680Y-90420740I0J-62500D01*
G01*
X148579680Y-91170740D01*
G75*
G02*
X148517180Y-91233240I-62500J0D01*
G01*
X148392180Y-91233240D01*
G75*
G02*
X148329680Y-91170740I0J62500D01*
G01*
G37*
G04 #@! TD.AperFunction*
G04 #@! TO.P,U2,31*
G04 #@! TO.N,VDD*
G04 #@! TA.AperFunction,SMDPad,CuDef*
G36*
G01*
X147829680Y-91170740D02*
X147829680Y-90420740D01*
G75*
G02*
X147892180Y-90358240I62500J0D01*
G01*
X148017180Y-90358240D01*
G75*
G02*
X148079680Y-90420740I0J-62500D01*
G01*
X148079680Y-91170740D01*
G75*
G02*
X148017180Y-91233240I-62500J0D01*
G01*
X147892180Y-91233240D01*
G75*
G02*
X147829680Y-91170740I0J62500D01*
G01*
G37*
G04 #@! TD.AperFunction*
G04 #@! TO.P,U2,32*
G04 #@! TO.N,GND*
G04 #@! TA.AperFunction,SMDPad,CuDef*
G36*
G01*
X147329680Y-91170740D02*
X147329680Y-90420740D01*
G75*
G02*
X147392180Y-90358240I62500J0D01*
G01*
X147517180Y-90358240D01*
G75*
G02*
X147579680Y-90420740I0J-62500D01*
G01*
X147579680Y-91170740D01*
G75*
G02*
X147517180Y-91233240I-62500J0D01*
G01*
X147392180Y-91233240D01*
G75*
G02*
X147329680Y-91170740I0J62500D01*
G01*
G37*
G04 #@! TD.AperFunction*
G04 #@! TD*
D19*
G04 #@! TO.N,VDD*
X145161000Y-96393000D03*
X149733000Y-97536000D03*
X153479500Y-90868500D03*
X145212000Y-91821000D03*
G04 #@! TO.N,GND*
X155321000Y-120396000D03*
X150114000Y-120396000D03*
X145669000Y-120396000D03*
X144907000Y-120396000D03*
X155067000Y-90805000D03*
X155956000Y-89027000D03*
X154432000Y-89027000D03*
X154432000Y-98552000D03*
X149733000Y-99314000D03*
X148209000Y-99314000D03*
X141859000Y-89535000D03*
X143510000Y-96520000D03*
X143510000Y-94742000D03*
X155448000Y-110744000D03*
X155448000Y-110109000D03*
X161544000Y-74676000D03*
X160274000Y-78232000D03*
X161544000Y-78232000D03*
X161544000Y-75692000D03*
X161544000Y-73660000D03*
X160274000Y-74676000D03*
X161544000Y-76962000D03*
X160274000Y-76962000D03*
X160274000Y-73660000D03*
X160274000Y-75692000D03*
X152908000Y-74676000D03*
X151638000Y-78232000D03*
X152908000Y-78232000D03*
X152908000Y-75692000D03*
X152908000Y-73660000D03*
X151638000Y-74676000D03*
X152908000Y-76962000D03*
X151638000Y-76962000D03*
X151638000Y-73660000D03*
X151638000Y-75692000D03*
X149098000Y-74676000D03*
X147828000Y-78232000D03*
X149098000Y-78232000D03*
X149098000Y-75692000D03*
X149098000Y-73660000D03*
X147828000Y-74676000D03*
X149098000Y-76962000D03*
X147828000Y-76962000D03*
X147828000Y-73660000D03*
X147828000Y-75692000D03*
X140462000Y-78232000D03*
X139192000Y-78232000D03*
X139192000Y-76962000D03*
X140462000Y-76962000D03*
X140462000Y-75692000D03*
X139192000Y-75692000D03*
X140462000Y-74676000D03*
X139192000Y-74676000D03*
X140462000Y-73660000D03*
X139192000Y-73660000D03*
X148463000Y-90805000D03*
X146812000Y-90678000D03*
X146812000Y-91313000D03*
X148463000Y-90170000D03*
X147320000Y-95758000D03*
X147320000Y-96266000D03*
X143510000Y-95631000D03*
X141859000Y-88646000D03*
X143129000Y-91186000D03*
X143129000Y-92075000D03*
X148971000Y-99314000D03*
X155194000Y-98552000D03*
X155194000Y-89027000D03*
X155702000Y-90805000D03*
X146558000Y-120396000D03*
X147701000Y-120396000D03*
X148971000Y-120396000D03*
X151384000Y-120396000D03*
X153035000Y-120396000D03*
X154178000Y-120396000D03*
X139065000Y-86995000D03*
X137795000Y-85090000D03*
X151765000Y-102235000D03*
X151765000Y-104140000D03*
X151765000Y-107315000D03*
X154305000Y-101600000D03*
X156845000Y-101600000D03*
X160020000Y-101600000D03*
X162560000Y-104140000D03*
X151765000Y-98425000D03*
X153035000Y-99695000D03*
X154305000Y-100330000D03*
X156845000Y-100330000D03*
X159385000Y-100330000D03*
X162560000Y-100965000D03*
X156845000Y-99060000D03*
X159385000Y-99060000D03*
X161925000Y-99060000D03*
X156845000Y-97790000D03*
X160020000Y-97790000D03*
X155575000Y-96520000D03*
X158115000Y-96520000D03*
X161290000Y-96520000D03*
X160020000Y-94615000D03*
X162560000Y-94615000D03*
X161290000Y-93345000D03*
X162560000Y-90805000D03*
X160655000Y-88900000D03*
X160655000Y-90170000D03*
X162560000Y-88900000D03*
X162560000Y-87630000D03*
X162560000Y-85090000D03*
X162560000Y-86360000D03*
X160020000Y-87630000D03*
X162560000Y-83185000D03*
X160020000Y-85090000D03*
X158750000Y-88265000D03*
X159512000Y-92964000D03*
X157734000Y-93218000D03*
X158115000Y-85090000D03*
X160020000Y-83185000D03*
X161925000Y-81280000D03*
X155575000Y-74295000D03*
X155575000Y-76200000D03*
X155575000Y-78105000D03*
X155575000Y-80010000D03*
X155575000Y-81915000D03*
X142875000Y-85090000D03*
X146050000Y-85090000D03*
X153670000Y-83820000D03*
X156210000Y-85090000D03*
X149225000Y-101600000D03*
X147955000Y-103505000D03*
X147955000Y-106045000D03*
X147955000Y-109855000D03*
X158115000Y-74295000D03*
X158115000Y-76200000D03*
X158115000Y-78105000D03*
X158115000Y-80010000D03*
X158115000Y-81915000D03*
X142875000Y-73660000D03*
X145415000Y-73660000D03*
X142875000Y-75565000D03*
X145415000Y-75565000D03*
X142875000Y-77470000D03*
X145415000Y-77470000D03*
X145415000Y-79375000D03*
X142875000Y-79375000D03*
X142875000Y-81280000D03*
X145415000Y-81280000D03*
X142875000Y-83185000D03*
X146050000Y-83185000D03*
X139065000Y-88900000D03*
X139065000Y-90805000D03*
X141605000Y-90805000D03*
X139065000Y-95250000D03*
X141605000Y-95250000D03*
X139065000Y-97155000D03*
X139065000Y-99060000D03*
X137795000Y-100330000D03*
X135890000Y-92075000D03*
X135890000Y-93980000D03*
G04 #@! TO.N,VDDPST*
X150495000Y-112268000D03*
X149733000Y-112268000D03*
X148082000Y-97536000D03*
X153212800Y-97434400D03*
X152781000Y-89154000D03*
G04 #@! TO.N,VREF*
X145188653Y-94587347D03*
G04 #@! TD*
D20*
G04 #@! TO.N,VDD*
X145374240Y-91983240D02*
X145212000Y-91821000D01*
X146767180Y-91983240D02*
X145374240Y-91983240D01*
X147204680Y-91983240D02*
X146767180Y-91983240D01*
X147829680Y-91358240D02*
X147204680Y-91983240D01*
X147829680Y-90920740D02*
X147829680Y-91358240D01*
X147954680Y-90795740D02*
X147829680Y-90920740D01*
X153406740Y-90795740D02*
X153479500Y-90868500D01*
X150954680Y-90795740D02*
X153406740Y-90795740D01*
X145357420Y-96393000D02*
X145161000Y-96393000D01*
X146767180Y-94983240D02*
X145357420Y-96393000D01*
X148454680Y-95670740D02*
X148954680Y-95670740D01*
X148954680Y-96320180D02*
X148954680Y-96108240D01*
X149733000Y-97098500D02*
X148954680Y-96320180D01*
X148954680Y-96108240D02*
X148954680Y-95670740D01*
X149733000Y-97536000D02*
X149733000Y-97536000D01*
X145161000Y-96393000D02*
X145161000Y-96393000D01*
X149733000Y-97536000D02*
X149733000Y-97098500D01*
X153479500Y-90868500D02*
X153543000Y-90932000D01*
X145212000Y-91821000D02*
X145212000Y-91821000D01*
D21*
X155194000Y-115570000D02*
X155194000Y-118521000D01*
D20*
G04 #@! TO.N,VDDPST*
X152781000Y-89629000D02*
X152781000Y-89154000D01*
X151131090Y-89877900D02*
X152532100Y-89877900D01*
X150579680Y-90429310D02*
X151131090Y-89877900D01*
X150579680Y-90670740D02*
X150579680Y-90429310D01*
X152532100Y-89877900D02*
X152781000Y-89629000D01*
X150454680Y-90795740D02*
X150579680Y-90670740D01*
X148082000Y-95798060D02*
X148082000Y-97536000D01*
X147954680Y-95670740D02*
X148082000Y-95798060D01*
X151449140Y-95670740D02*
X153212800Y-97434400D01*
X150954680Y-95670740D02*
X151449140Y-95670740D01*
X148082000Y-97536000D02*
X148082000Y-97536000D01*
X153212800Y-97434400D02*
X153212800Y-97434400D01*
D21*
X150114000Y-115570000D02*
X150114000Y-118521000D01*
D20*
X152781000Y-89154000D02*
X152781000Y-89154000D01*
G04 #@! TO.N,VREF*
X146767180Y-93483240D02*
X146767180Y-93983240D01*
X146767180Y-93983240D02*
X146767180Y-94483240D01*
X145188653Y-94140000D02*
X145188653Y-94587347D01*
X145345413Y-93983240D02*
X145188653Y-94140000D01*
X146767180Y-93983240D02*
X145345413Y-93983240D01*
X145188653Y-94587347D02*
X145188653Y-94615000D01*
D21*
X145034000Y-115570000D02*
X145034000Y-118521000D01*
D20*
G04 #@! TO.N,D9*
X153162000Y-100863400D02*
X160807400Y-100863400D01*
X150901400Y-96926400D02*
X150901400Y-98602800D01*
X160807400Y-100863400D02*
X164592000Y-104648000D01*
X150368000Y-96393000D02*
X150901400Y-96926400D01*
X150901400Y-98602800D02*
X153162000Y-100863400D01*
X150114000Y-96393000D02*
X150368000Y-96393000D01*
X149954680Y-96233680D02*
X150114000Y-96393000D01*
X149954680Y-95670740D02*
X149954680Y-96233680D01*
G04 #@! TO.N,D8*
X150579680Y-95795740D02*
X150579680Y-96223680D01*
X150454680Y-95670740D02*
X150579680Y-95795740D01*
X150579680Y-96223680D02*
X154101800Y-99745800D01*
X162229800Y-99745800D02*
X164592000Y-102108000D01*
X154101800Y-99745800D02*
X162229800Y-99745800D01*
G04 #@! TO.N,D7*
X151642180Y-95108240D02*
X152571340Y-96037400D01*
X151642180Y-94983240D02*
X151642180Y-95108240D01*
X152571340Y-96037400D02*
X152571340Y-96132540D01*
X152571340Y-96132540D02*
X152806400Y-96367600D01*
X152806400Y-96367600D02*
X153670000Y-96367600D01*
X153670000Y-96367600D02*
X154432000Y-97129600D01*
X162153600Y-97129600D02*
X164592000Y-99568000D01*
X154432000Y-97129600D02*
X162153600Y-97129600D01*
G04 #@! TO.N,D6*
X151767180Y-94608240D02*
X152240840Y-94608240D01*
X151642180Y-94483240D02*
X151767180Y-94608240D01*
X152240840Y-94608240D02*
X153568400Y-95935800D01*
X153568400Y-95935800D02*
X159232600Y-95935800D01*
X164592000Y-97028000D02*
X163550600Y-95986600D01*
X159283400Y-95986600D02*
X159232600Y-95935800D01*
X163550600Y-95986600D02*
X159283400Y-95986600D01*
G04 #@! TO.N,D5*
X152198040Y-94108240D02*
X151767180Y-94108240D01*
X153289000Y-95199200D02*
X152198040Y-94108240D01*
X163423600Y-95199200D02*
X153289000Y-95199200D01*
X163423600Y-94818200D02*
X163423600Y-95199200D01*
X163753800Y-94488000D02*
X163423600Y-94818200D01*
X151767180Y-94108240D02*
X151642180Y-93983240D01*
X164592000Y-94488000D02*
X163753800Y-94488000D01*
G04 #@! TO.N,D4*
X152079680Y-93483240D02*
X153084440Y-94488000D01*
X151642180Y-93483240D02*
X152079680Y-93483240D01*
X153084440Y-94488000D02*
X158623000Y-94488000D01*
X161163000Y-91948000D02*
X164592000Y-91948000D01*
X158623000Y-94488000D02*
X161163000Y-91948000D01*
G04 #@! TO.N,D3*
X151642180Y-92983240D02*
X151864770Y-93205830D01*
X151864770Y-93205830D02*
X152489430Y-93205830D01*
X152489430Y-93205830D02*
X153085800Y-93802200D01*
X153085800Y-93802200D02*
X158013400Y-93802200D01*
X162407600Y-89408000D02*
X164592000Y-89408000D01*
X158013400Y-93802200D02*
X162407600Y-89408000D01*
G04 #@! TO.N,D2*
X161747200Y-86868000D02*
X164592000Y-86868000D01*
X160020000Y-90195400D02*
X160020000Y-88595200D01*
X157175200Y-93040200D02*
X160020000Y-90195400D01*
X152857200Y-93040200D02*
X157175200Y-93040200D01*
X152425240Y-92608240D02*
X152857200Y-93040200D01*
X151767180Y-92608240D02*
X152425240Y-92608240D01*
X160020000Y-88595200D02*
X161747200Y-86868000D01*
X151642180Y-92483240D02*
X151767180Y-92608240D01*
G04 #@! TO.N,D1*
X151642180Y-92108240D02*
X151659740Y-92125800D01*
X151642180Y-91983240D02*
X151642180Y-92108240D01*
X151659740Y-92125800D02*
X152984200Y-92125800D01*
X152984200Y-92125800D02*
X153289000Y-92430600D01*
X153289000Y-92430600D02*
X156819600Y-92430600D01*
X156819600Y-92430600D02*
X159283400Y-89966800D01*
X159283400Y-89966800D02*
X159283400Y-86995000D01*
X161950400Y-84328000D02*
X164592000Y-84328000D01*
X159283400Y-86995000D02*
X161950400Y-84328000D01*
G04 #@! TO.N,D0*
X158242000Y-89916000D02*
X158242000Y-86080600D01*
X156337000Y-91821000D02*
X158242000Y-89916000D01*
X152933400Y-91821000D02*
X156337000Y-91821000D01*
X162534600Y-81788000D02*
X164592000Y-81788000D01*
X152720640Y-91608240D02*
X152933400Y-91821000D01*
X158242000Y-86080600D02*
X162534600Y-81788000D01*
X151767180Y-91608240D02*
X152720640Y-91608240D01*
X151642180Y-91483240D02*
X151767180Y-91608240D01*
D21*
G04 #@! TO.N,RST*
X153397500Y-110393000D02*
X153494500Y-110490000D01*
X150114000Y-110393000D02*
X153397500Y-110393000D01*
X150114000Y-106426000D02*
X150114000Y-110393000D01*
D20*
X149454680Y-95670740D02*
X149454680Y-96241680D01*
X149454680Y-96241680D02*
X150114000Y-96901000D01*
X150114000Y-96901000D02*
X150368000Y-96901000D01*
X150368000Y-96901000D02*
X150622000Y-97155000D01*
X150114000Y-102984400D02*
X150114000Y-103886000D01*
X150622000Y-102476400D02*
X150114000Y-102984400D01*
X150622000Y-97155000D02*
X150622000Y-102476400D01*
D22*
X150114000Y-104940000D02*
X150114000Y-106426000D01*
X150114000Y-103886000D02*
X150114000Y-104940000D01*
D23*
G04 #@! TO.N,VIN-*
X135724900Y-85890100D02*
X130810000Y-85890100D01*
X137282662Y-92956888D02*
X137160000Y-92834226D01*
X137160000Y-87325200D02*
X135724900Y-85890100D01*
X137160000Y-92834226D02*
X137160000Y-87325200D01*
X141478000Y-92964000D02*
X137282662Y-92956888D01*
X141792533Y-92956888D02*
X141478000Y-92964000D01*
X141900483Y-93064838D02*
X141792533Y-92956888D01*
X145584516Y-93064838D02*
X141900483Y-93064838D01*
X146120076Y-92529278D02*
X145584516Y-93064838D01*
X146721142Y-92529278D02*
X146120076Y-92529278D01*
X146767180Y-92483240D02*
X146721142Y-92529278D01*
G04 #@! TO.N,VIN+*
X135864600Y-100330000D02*
X130810000Y-100330000D01*
X137134600Y-99060000D02*
X135864600Y-100330000D01*
X137358862Y-93733112D02*
X137134600Y-93957374D01*
X139763018Y-93657613D02*
X139731267Y-93689364D01*
X140482264Y-93689364D02*
X140450513Y-93657613D01*
X140426623Y-93619593D02*
X140411793Y-93577210D01*
X139693247Y-93713254D02*
X139650864Y-93728084D01*
X139850513Y-93407565D02*
X139826623Y-93445585D01*
X141792533Y-93733112D02*
X140607288Y-93733112D01*
X139731267Y-93689364D02*
X139693247Y-93713254D01*
X140411793Y-93577210D02*
X140401738Y-93487968D01*
X145753484Y-93472762D02*
X142052883Y-93472762D01*
X146289044Y-92937202D02*
X145753484Y-93472762D01*
X139606244Y-93733112D02*
X137358862Y-93733112D01*
X146721142Y-92937202D02*
X146289044Y-92937202D01*
X140206244Y-93332067D02*
X140007288Y-93332067D01*
X140607288Y-93733112D02*
X140562667Y-93728084D01*
X140007288Y-93332067D02*
X139962667Y-93337094D01*
X139650864Y-93728084D02*
X139606244Y-93733112D01*
X140562667Y-93728084D02*
X140520284Y-93713254D01*
X142052883Y-93472762D02*
X141792533Y-93733112D01*
X140386908Y-93445585D02*
X140363018Y-93407565D01*
X137134600Y-93957374D02*
X137134600Y-99060000D01*
X139786908Y-93619593D02*
X139763018Y-93657613D01*
X140363018Y-93407565D02*
X140331267Y-93375814D01*
X140331267Y-93375814D02*
X140293247Y-93351924D01*
X139920284Y-93351924D02*
X139882264Y-93375814D01*
X140293247Y-93351924D02*
X140250864Y-93337094D01*
X140250864Y-93337094D02*
X140206244Y-93332067D01*
X139826623Y-93445585D02*
X139811793Y-93487968D01*
X139962667Y-93337094D02*
X139920284Y-93351924D01*
X140450513Y-93657613D02*
X140426623Y-93619593D01*
X139882264Y-93375814D02*
X139850513Y-93407565D01*
X146767180Y-92983240D02*
X146721142Y-92937202D01*
X139811793Y-93487968D02*
X139801738Y-93577210D01*
X140520284Y-93713254D02*
X140482264Y-93689364D01*
X140401738Y-93487968D02*
X140386908Y-93445585D01*
X139801738Y-93577210D02*
X139786908Y-93619593D01*
D20*
G04 #@! TO.N,Net-(L1-Pad1)*
X154742500Y-87503000D02*
X155956000Y-87503000D01*
X154305000Y-87503000D02*
X154742500Y-87503000D01*
G04 #@! TO.N,Net-(L2-Pad1)*
X144940000Y-89154000D02*
X143764000Y-89154000D01*
X145415000Y-89154000D02*
X144940000Y-89154000D01*
G04 #@! TO.N,Net-(R1-Pad2)*
X150218000Y-89629000D02*
X150218000Y-89154000D01*
X150079680Y-89767320D02*
X150218000Y-89629000D01*
X150079680Y-90670740D02*
X150079680Y-89767320D01*
X149954680Y-90795740D02*
X150079680Y-90670740D01*
G04 #@! TO.N,CLK_FILT*
X148643000Y-89154000D02*
X147066000Y-89154000D01*
X148954680Y-89465680D02*
X148643000Y-89154000D01*
X148954680Y-90795740D02*
X148954680Y-89465680D01*
G04 #@! TO.N,CLK_S_FILT*
X149454680Y-87628820D02*
X149580500Y-87503000D01*
X149454680Y-90795740D02*
X149454680Y-87628820D01*
D23*
G04 #@! TO.N,CLK+*
X145415000Y-87579000D02*
X147066000Y-87579000D01*
X144145000Y-79046324D02*
X144145000Y-75984100D01*
X144145000Y-82620000D02*
X144145000Y-79046324D01*
X144174709Y-82750165D02*
X144152521Y-82686756D01*
X144257953Y-82854549D02*
X144210450Y-82807046D01*
X144645083Y-82985450D02*
X144588202Y-82949709D01*
X144145000Y-83820000D02*
X144152521Y-83753243D01*
X144145000Y-86784000D02*
X144145000Y-83820000D01*
X144378243Y-83527521D02*
X144445000Y-83520000D01*
X144174709Y-83689834D02*
X144210450Y-83632953D01*
X144257953Y-83585450D02*
X144314834Y-83549709D01*
X144210450Y-83632953D02*
X144257953Y-83585450D01*
X144458037Y-83520000D02*
X144524793Y-83512478D01*
X144692586Y-83032953D02*
X144645083Y-82985450D01*
X144210450Y-82807046D02*
X144174709Y-82750165D01*
X144314834Y-82890290D02*
X144257953Y-82854549D01*
X144152521Y-83753243D02*
X144174709Y-83689834D01*
X145415000Y-87579000D02*
X144940000Y-87579000D01*
X144152521Y-82686756D02*
X144145000Y-82620000D01*
X144692586Y-83407046D02*
X144728327Y-83350165D01*
X144588202Y-83490290D02*
X144645083Y-83454549D01*
X144758037Y-83220000D02*
X144750515Y-83153243D01*
X144645083Y-83454549D02*
X144692586Y-83407046D01*
X144524793Y-83512478D02*
X144588202Y-83490290D01*
X144940000Y-87579000D02*
X144145000Y-86784000D01*
X144728327Y-83350165D02*
X144750515Y-83286756D01*
X144728327Y-83089834D02*
X144692586Y-83032953D01*
X144314834Y-83549709D02*
X144378243Y-83527521D01*
X144750515Y-83286756D02*
X144758037Y-83220000D01*
X144750515Y-83153243D02*
X144728327Y-83089834D01*
X144588202Y-82949709D02*
X144524793Y-82927521D01*
X144524793Y-82927521D02*
X144458037Y-82920000D01*
X144445000Y-82920000D02*
X144378243Y-82912478D01*
X144445000Y-83520000D02*
X144458037Y-83520000D01*
X144458037Y-82920000D02*
X144445000Y-82920000D01*
X144378243Y-82912478D02*
X144314834Y-82890290D01*
G04 #@! TO.N,CLK-*
X152730000Y-87503000D02*
X151155500Y-87503000D01*
X152730000Y-87503000D02*
X152730000Y-86639600D01*
X156591000Y-82778600D02*
X156591000Y-75996021D01*
X152730000Y-86639600D02*
X156591000Y-82778600D01*
G04 #@! TD*
D20*
G04 #@! TO.N,GND*
G36*
X147497800Y-91160600D02*
G01*
X147193000Y-91160600D01*
X147183089Y-91161576D01*
X147173560Y-91164467D01*
X147164777Y-91169161D01*
X147157079Y-91175479D01*
X147150761Y-91183177D01*
X147146067Y-91191960D01*
X147143176Y-91201489D01*
X147142200Y-91211400D01*
X147142200Y-91541600D01*
X146380200Y-91541600D01*
X146380200Y-90424000D01*
X147497800Y-90424000D01*
X147497800Y-91160600D01*
G37*
X147497800Y-91160600D02*
X147193000Y-91160600D01*
X147183089Y-91161576D01*
X147173560Y-91164467D01*
X147164777Y-91169161D01*
X147157079Y-91175479D01*
X147150761Y-91183177D01*
X147146067Y-91191960D01*
X147143176Y-91201489D01*
X147142200Y-91211400D01*
X147142200Y-91541600D01*
X146380200Y-91541600D01*
X146380200Y-90424000D01*
X147497800Y-90424000D01*
X147497800Y-91160600D01*
G36*
X148602700Y-91160600D02*
G01*
X148285200Y-91160600D01*
X148285200Y-89992200D01*
X148602700Y-89992200D01*
X148602700Y-91160600D01*
G37*
X148602700Y-91160600D02*
X148285200Y-91160600D01*
X148285200Y-89992200D01*
X148602700Y-89992200D01*
X148602700Y-91160600D01*
G36*
X147523200Y-96469200D02*
G01*
X146989800Y-96469200D01*
X146989800Y-95427800D01*
X147523200Y-95427800D01*
X147523200Y-96469200D01*
G37*
X147523200Y-96469200D02*
X146989800Y-96469200D01*
X146989800Y-95427800D01*
X147523200Y-95427800D01*
X147523200Y-96469200D01*
G36*
X143967200Y-97104200D02*
G01*
X142798800Y-97104200D01*
X142798800Y-94157800D01*
X143967200Y-94157800D01*
X143967200Y-97104200D01*
G37*
X143967200Y-97104200D02*
X142798800Y-97104200D01*
X142798800Y-94157800D01*
X143967200Y-94157800D01*
X143967200Y-97104200D01*
G36*
X142570200Y-90119200D02*
G01*
X141147800Y-90119200D01*
X141147800Y-88188800D01*
X142570200Y-88188800D01*
X142570200Y-90119200D01*
G37*
X142570200Y-90119200D02*
X141147800Y-90119200D01*
X141147800Y-88188800D01*
X142570200Y-88188800D01*
X142570200Y-90119200D01*
G36*
X143967200Y-92532200D02*
G01*
X142544800Y-92532200D01*
X142544800Y-90855800D01*
X143967200Y-90855800D01*
X143967200Y-92532200D01*
G37*
X143967200Y-92532200D02*
X142544800Y-92532200D01*
X142544800Y-90855800D01*
X143967200Y-90855800D01*
X143967200Y-92532200D01*
G36*
X150190200Y-100025200D02*
G01*
X147751800Y-100025200D01*
X147751800Y-98729800D01*
X150190200Y-98729800D01*
X150190200Y-100025200D01*
G37*
X150190200Y-100025200D02*
X147751800Y-100025200D01*
X147751800Y-98729800D01*
X150190200Y-98729800D01*
X150190200Y-100025200D01*
G36*
X155524200Y-99009200D02*
G01*
X153847800Y-99009200D01*
X153847800Y-98573042D01*
X154453042Y-97967800D01*
X155524200Y-97967800D01*
X155524200Y-99009200D01*
G37*
X155524200Y-99009200D02*
X153847800Y-99009200D01*
X153847800Y-98573042D01*
X154453042Y-97967800D01*
X155524200Y-97967800D01*
X155524200Y-99009200D01*
G36*
X156540200Y-89611200D02*
G01*
X153974800Y-89611200D01*
X153974800Y-88569800D01*
X156540200Y-88569800D01*
X156540200Y-89611200D01*
G37*
X156540200Y-89611200D02*
X153974800Y-89611200D01*
X153974800Y-88569800D01*
X156540200Y-88569800D01*
X156540200Y-89611200D01*
G36*
X156159200Y-91389200D02*
G01*
X154736800Y-91389200D01*
X154736800Y-90220800D01*
X156159200Y-90220800D01*
X156159200Y-91389200D01*
G37*
X156159200Y-91389200D02*
X154736800Y-91389200D01*
X154736800Y-90220800D01*
X156159200Y-90220800D01*
X156159200Y-91389200D01*
G36*
X155905200Y-120980200D02*
G01*
X144322800Y-120980200D01*
X144322800Y-119938800D01*
X155905200Y-119938800D01*
X155905200Y-120980200D01*
G37*
X155905200Y-120980200D02*
X144322800Y-120980200D01*
X144322800Y-119938800D01*
X155905200Y-119938800D01*
X155905200Y-120980200D01*
G36*
X159448500Y-75586446D02*
G01*
X159527875Y-75665821D01*
X160578800Y-75665821D01*
X160578800Y-75645821D01*
X161239200Y-75645821D01*
X161239200Y-75665821D01*
X162290125Y-75665821D01*
X162369500Y-75586446D01*
X162371036Y-73075800D01*
X170129200Y-73075800D01*
X170129200Y-80721200D01*
X165674809Y-80721200D01*
X165667593Y-80712407D01*
X165619247Y-80672731D01*
X165564090Y-80643249D01*
X165504241Y-80625094D01*
X165442000Y-80618964D01*
X163742000Y-80618964D01*
X163679759Y-80625094D01*
X163619910Y-80643249D01*
X163564753Y-80672731D01*
X163516407Y-80712407D01*
X163509191Y-80721200D01*
X162814000Y-80721200D01*
X162804089Y-80722176D01*
X162794560Y-80725067D01*
X162785777Y-80729761D01*
X162778904Y-80735272D01*
X157063904Y-86196272D01*
X157057414Y-86203825D01*
X157052521Y-86212498D01*
X157049414Y-86221960D01*
X157048200Y-86233000D01*
X157048200Y-87071200D01*
X156705225Y-87071200D01*
X156659403Y-86985472D01*
X156592522Y-86903978D01*
X156511028Y-86837097D01*
X156418052Y-86787401D01*
X156317167Y-86756797D01*
X156212250Y-86746464D01*
X155699750Y-86746464D01*
X155594833Y-86756797D01*
X155493948Y-86787401D01*
X155400972Y-86837097D01*
X155319478Y-86903978D01*
X155252597Y-86985472D01*
X155206775Y-87071200D01*
X155029776Y-87071200D01*
X155020599Y-87040948D01*
X154970903Y-86947972D01*
X154904022Y-86866478D01*
X154822528Y-86799597D01*
X154729552Y-86749901D01*
X154628667Y-86719297D01*
X154523750Y-86708964D01*
X154086250Y-86708964D01*
X153981333Y-86719297D01*
X153880448Y-86749901D01*
X153787472Y-86799597D01*
X153705978Y-86866478D01*
X153639097Y-86947972D01*
X153589401Y-87040948D01*
X153580224Y-87071200D01*
X153454776Y-87071200D01*
X153445599Y-87040948D01*
X153395903Y-86947972D01*
X153329022Y-86866478D01*
X153247528Y-86799597D01*
X153163689Y-86754784D01*
X156851960Y-83066513D01*
X156866764Y-83054364D01*
X156915264Y-82995266D01*
X156950197Y-82929912D01*
X156951303Y-82927843D01*
X156973495Y-82854683D01*
X156980989Y-82778600D01*
X156979112Y-82759544D01*
X156979112Y-78932617D01*
X156980648Y-78917021D01*
X159446964Y-78917021D01*
X159453094Y-78979262D01*
X159471249Y-79039111D01*
X159500731Y-79094268D01*
X159540407Y-79142614D01*
X159588753Y-79182290D01*
X159643910Y-79211772D01*
X159703759Y-79229927D01*
X159766000Y-79236057D01*
X160499425Y-79234521D01*
X160578800Y-79155146D01*
X160578800Y-76326221D01*
X161239200Y-76326221D01*
X161239200Y-79155146D01*
X161318575Y-79234521D01*
X162052000Y-79236057D01*
X162114241Y-79229927D01*
X162174090Y-79211772D01*
X162229247Y-79182290D01*
X162277593Y-79142614D01*
X162317269Y-79094268D01*
X162346751Y-79039111D01*
X162364906Y-78979262D01*
X162371036Y-78917021D01*
X162369500Y-76405596D01*
X162290125Y-76326221D01*
X161239200Y-76326221D01*
X160578800Y-76326221D01*
X159527875Y-76326221D01*
X159448500Y-76405596D01*
X159446964Y-78917021D01*
X156980648Y-78917021D01*
X156980648Y-73075800D01*
X159446964Y-73075800D01*
X159448500Y-75586446D01*
G37*
X159448500Y-75586446D02*
X159527875Y-75665821D01*
X160578800Y-75665821D01*
X160578800Y-75645821D01*
X161239200Y-75645821D01*
X161239200Y-75665821D01*
X162290125Y-75665821D01*
X162369500Y-75586446D01*
X162371036Y-73075800D01*
X170129200Y-73075800D01*
X170129200Y-80721200D01*
X165674809Y-80721200D01*
X165667593Y-80712407D01*
X165619247Y-80672731D01*
X165564090Y-80643249D01*
X165504241Y-80625094D01*
X165442000Y-80618964D01*
X163742000Y-80618964D01*
X163679759Y-80625094D01*
X163619910Y-80643249D01*
X163564753Y-80672731D01*
X163516407Y-80712407D01*
X163509191Y-80721200D01*
X162814000Y-80721200D01*
X162804089Y-80722176D01*
X162794560Y-80725067D01*
X162785777Y-80729761D01*
X162778904Y-80735272D01*
X157063904Y-86196272D01*
X157057414Y-86203825D01*
X157052521Y-86212498D01*
X157049414Y-86221960D01*
X157048200Y-86233000D01*
X157048200Y-87071200D01*
X156705225Y-87071200D01*
X156659403Y-86985472D01*
X156592522Y-86903978D01*
X156511028Y-86837097D01*
X156418052Y-86787401D01*
X156317167Y-86756797D01*
X156212250Y-86746464D01*
X155699750Y-86746464D01*
X155594833Y-86756797D01*
X155493948Y-86787401D01*
X155400972Y-86837097D01*
X155319478Y-86903978D01*
X155252597Y-86985472D01*
X155206775Y-87071200D01*
X155029776Y-87071200D01*
X155020599Y-87040948D01*
X154970903Y-86947972D01*
X154904022Y-86866478D01*
X154822528Y-86799597D01*
X154729552Y-86749901D01*
X154628667Y-86719297D01*
X154523750Y-86708964D01*
X154086250Y-86708964D01*
X153981333Y-86719297D01*
X153880448Y-86749901D01*
X153787472Y-86799597D01*
X153705978Y-86866478D01*
X153639097Y-86947972D01*
X153589401Y-87040948D01*
X153580224Y-87071200D01*
X153454776Y-87071200D01*
X153445599Y-87040948D01*
X153395903Y-86947972D01*
X153329022Y-86866478D01*
X153247528Y-86799597D01*
X153163689Y-86754784D01*
X156851960Y-83066513D01*
X156866764Y-83054364D01*
X156915264Y-82995266D01*
X156950197Y-82929912D01*
X156951303Y-82927843D01*
X156973495Y-82854683D01*
X156980989Y-82778600D01*
X156979112Y-82759544D01*
X156979112Y-78932617D01*
X156980648Y-78917021D01*
X159446964Y-78917021D01*
X159453094Y-78979262D01*
X159471249Y-79039111D01*
X159500731Y-79094268D01*
X159540407Y-79142614D01*
X159588753Y-79182290D01*
X159643910Y-79211772D01*
X159703759Y-79229927D01*
X159766000Y-79236057D01*
X160499425Y-79234521D01*
X160578800Y-79155146D01*
X160578800Y-76326221D01*
X161239200Y-76326221D01*
X161239200Y-79155146D01*
X161318575Y-79234521D01*
X162052000Y-79236057D01*
X162114241Y-79229927D01*
X162174090Y-79211772D01*
X162229247Y-79182290D01*
X162277593Y-79142614D01*
X162317269Y-79094268D01*
X162346751Y-79039111D01*
X162364906Y-78979262D01*
X162371036Y-78917021D01*
X162369500Y-76405596D01*
X162290125Y-76326221D01*
X161239200Y-76326221D01*
X160578800Y-76326221D01*
X159527875Y-76326221D01*
X159448500Y-76405596D01*
X159446964Y-78917021D01*
X156980648Y-78917021D01*
X156980648Y-73075800D01*
X159446964Y-73075800D01*
X159448500Y-75586446D01*
G36*
X147002500Y-75574525D02*
G01*
X147081875Y-75653900D01*
X148132800Y-75653900D01*
X148132800Y-75633900D01*
X148793200Y-75633900D01*
X148793200Y-75653900D01*
X149844125Y-75653900D01*
X149923500Y-75574525D01*
X149925028Y-73075800D01*
X150810964Y-73075800D01*
X150812500Y-75586446D01*
X150891875Y-75665821D01*
X151942800Y-75665821D01*
X151942800Y-75645821D01*
X152603200Y-75645821D01*
X152603200Y-75665821D01*
X153654125Y-75665821D01*
X153733500Y-75586446D01*
X153735036Y-73075800D01*
X156201352Y-73075800D01*
X156201352Y-78917021D01*
X156202889Y-78932623D01*
X156202888Y-82617839D01*
X152469037Y-86351690D01*
X152454237Y-86363836D01*
X152442091Y-86378636D01*
X152442089Y-86378638D01*
X152405737Y-86422934D01*
X152369698Y-86490358D01*
X152347505Y-86563517D01*
X152340011Y-86639600D01*
X152341889Y-86658666D01*
X152341889Y-86738846D01*
X152305448Y-86749901D01*
X152212472Y-86799597D01*
X152130978Y-86866478D01*
X152064097Y-86947972D01*
X152014401Y-87040948D01*
X152005224Y-87071200D01*
X151880276Y-87071200D01*
X151871099Y-87040948D01*
X151821403Y-86947972D01*
X151754522Y-86866478D01*
X151673028Y-86799597D01*
X151580052Y-86749901D01*
X151479167Y-86719297D01*
X151374250Y-86708964D01*
X150936750Y-86708964D01*
X150831833Y-86719297D01*
X150730948Y-86749901D01*
X150637972Y-86799597D01*
X150556478Y-86866478D01*
X150489597Y-86947972D01*
X150439901Y-87040948D01*
X150430724Y-87071200D01*
X150305276Y-87071200D01*
X150296099Y-87040948D01*
X150246403Y-86947972D01*
X150179522Y-86866478D01*
X150098028Y-86799597D01*
X150005052Y-86749901D01*
X149904167Y-86719297D01*
X149799250Y-86708964D01*
X149361750Y-86708964D01*
X149256833Y-86719297D01*
X149155948Y-86749901D01*
X149062972Y-86799597D01*
X148981478Y-86866478D01*
X148914597Y-86947972D01*
X148864901Y-87040948D01*
X148855724Y-87071200D01*
X147774603Y-87071200D01*
X147769403Y-87061472D01*
X147702522Y-86979978D01*
X147621028Y-86913097D01*
X147528052Y-86863401D01*
X147427167Y-86832797D01*
X147322250Y-86822464D01*
X146809750Y-86822464D01*
X146704833Y-86832797D01*
X146603948Y-86863401D01*
X146510972Y-86913097D01*
X146429478Y-86979978D01*
X146362597Y-87061472D01*
X146357397Y-87071200D01*
X146123603Y-87071200D01*
X146118403Y-87061472D01*
X146051522Y-86979978D01*
X145970028Y-86913097D01*
X145877052Y-86863401D01*
X145776167Y-86832797D01*
X145671250Y-86822464D01*
X145158750Y-86822464D01*
X145053833Y-86832797D01*
X144952948Y-86863401D01*
X144859972Y-86913097D01*
X144839649Y-86929776D01*
X144533112Y-86623239D01*
X144533112Y-83902594D01*
X144534120Y-83902495D01*
X144536745Y-83901699D01*
X144554734Y-83899672D01*
X144579310Y-83898637D01*
X144611170Y-83890893D01*
X144643225Y-83884048D01*
X144665813Y-83874319D01*
X144703560Y-83861110D01*
X144727281Y-83854635D01*
X144756603Y-83840005D01*
X144786346Y-83826191D01*
X144806201Y-83811680D01*
X144840059Y-83790405D01*
X144861749Y-83778812D01*
X144887094Y-83758012D01*
X144913005Y-83737937D01*
X144929135Y-83719370D01*
X144957409Y-83691095D01*
X144975974Y-83674967D01*
X144996053Y-83649052D01*
X145016849Y-83623712D01*
X145028442Y-83602022D01*
X145049717Y-83568164D01*
X145064228Y-83548309D01*
X145078042Y-83518566D01*
X145092672Y-83489244D01*
X145099147Y-83465523D01*
X145112356Y-83427776D01*
X145122085Y-83405188D01*
X145128930Y-83373132D01*
X145136674Y-83341274D01*
X145137709Y-83316699D01*
X145142187Y-83276956D01*
X145146645Y-83252776D01*
X145146186Y-83220000D01*
X145146645Y-83187225D01*
X145142187Y-83163045D01*
X145137709Y-83123303D01*
X145136674Y-83098725D01*
X145128929Y-83066863D01*
X145122085Y-83034811D01*
X145112356Y-83012223D01*
X145099147Y-82974476D01*
X145092672Y-82950755D01*
X145078042Y-82921433D01*
X145064228Y-82891690D01*
X145049717Y-82871835D01*
X145028442Y-82837977D01*
X145016849Y-82816287D01*
X144996053Y-82790947D01*
X144975974Y-82765032D01*
X144957409Y-82748904D01*
X144929135Y-82720629D01*
X144913005Y-82702062D01*
X144887094Y-82681987D01*
X144861749Y-82661187D01*
X144840059Y-82649594D01*
X144806201Y-82628319D01*
X144786346Y-82613808D01*
X144756603Y-82599994D01*
X144727281Y-82585364D01*
X144703560Y-82578889D01*
X144665811Y-82565680D01*
X144643219Y-82555949D01*
X144611161Y-82549104D01*
X144579310Y-82541362D01*
X144554731Y-82540327D01*
X144536742Y-82538300D01*
X144534120Y-82537505D01*
X144533112Y-82537406D01*
X144533112Y-78920696D01*
X144534648Y-78905100D01*
X147000964Y-78905100D01*
X147007094Y-78967341D01*
X147025249Y-79027190D01*
X147054731Y-79082347D01*
X147094407Y-79130693D01*
X147142753Y-79170369D01*
X147197910Y-79199851D01*
X147257759Y-79218006D01*
X147320000Y-79224136D01*
X148053425Y-79222600D01*
X148132800Y-79143225D01*
X148132800Y-76314300D01*
X148793200Y-76314300D01*
X148793200Y-79143225D01*
X148872575Y-79222600D01*
X149606000Y-79224136D01*
X149668241Y-79218006D01*
X149728090Y-79199851D01*
X149783247Y-79170369D01*
X149831593Y-79130693D01*
X149871269Y-79082347D01*
X149900751Y-79027190D01*
X149918906Y-78967341D01*
X149923861Y-78917021D01*
X150810964Y-78917021D01*
X150817094Y-78979262D01*
X150835249Y-79039111D01*
X150864731Y-79094268D01*
X150904407Y-79142614D01*
X150952753Y-79182290D01*
X151007910Y-79211772D01*
X151067759Y-79229927D01*
X151130000Y-79236057D01*
X151863425Y-79234521D01*
X151942800Y-79155146D01*
X151942800Y-76326221D01*
X152603200Y-76326221D01*
X152603200Y-79155146D01*
X152682575Y-79234521D01*
X153416000Y-79236057D01*
X153478241Y-79229927D01*
X153538090Y-79211772D01*
X153593247Y-79182290D01*
X153641593Y-79142614D01*
X153681269Y-79094268D01*
X153710751Y-79039111D01*
X153728906Y-78979262D01*
X153735036Y-78917021D01*
X153733500Y-76405596D01*
X153654125Y-76326221D01*
X152603200Y-76326221D01*
X151942800Y-76326221D01*
X150891875Y-76326221D01*
X150812500Y-76405596D01*
X150810964Y-78917021D01*
X149923861Y-78917021D01*
X149925036Y-78905100D01*
X149923500Y-76393675D01*
X149844125Y-76314300D01*
X148793200Y-76314300D01*
X148132800Y-76314300D01*
X147081875Y-76314300D01*
X147002500Y-76393675D01*
X147000964Y-78905100D01*
X144534648Y-78905100D01*
X144534648Y-73075800D01*
X147000972Y-73075800D01*
X147002500Y-75574525D01*
G37*
X147002500Y-75574525D02*
X147081875Y-75653900D01*
X148132800Y-75653900D01*
X148132800Y-75633900D01*
X148793200Y-75633900D01*
X148793200Y-75653900D01*
X149844125Y-75653900D01*
X149923500Y-75574525D01*
X149925028Y-73075800D01*
X150810964Y-73075800D01*
X150812500Y-75586446D01*
X150891875Y-75665821D01*
X151942800Y-75665821D01*
X151942800Y-75645821D01*
X152603200Y-75645821D01*
X152603200Y-75665821D01*
X153654125Y-75665821D01*
X153733500Y-75586446D01*
X153735036Y-73075800D01*
X156201352Y-73075800D01*
X156201352Y-78917021D01*
X156202889Y-78932623D01*
X156202888Y-82617839D01*
X152469037Y-86351690D01*
X152454237Y-86363836D01*
X152442091Y-86378636D01*
X152442089Y-86378638D01*
X152405737Y-86422934D01*
X152369698Y-86490358D01*
X152347505Y-86563517D01*
X152340011Y-86639600D01*
X152341889Y-86658666D01*
X152341889Y-86738846D01*
X152305448Y-86749901D01*
X152212472Y-86799597D01*
X152130978Y-86866478D01*
X152064097Y-86947972D01*
X152014401Y-87040948D01*
X152005224Y-87071200D01*
X151880276Y-87071200D01*
X151871099Y-87040948D01*
X151821403Y-86947972D01*
X151754522Y-86866478D01*
X151673028Y-86799597D01*
X151580052Y-86749901D01*
X151479167Y-86719297D01*
X151374250Y-86708964D01*
X150936750Y-86708964D01*
X150831833Y-86719297D01*
X150730948Y-86749901D01*
X150637972Y-86799597D01*
X150556478Y-86866478D01*
X150489597Y-86947972D01*
X150439901Y-87040948D01*
X150430724Y-87071200D01*
X150305276Y-87071200D01*
X150296099Y-87040948D01*
X150246403Y-86947972D01*
X150179522Y-86866478D01*
X150098028Y-86799597D01*
X150005052Y-86749901D01*
X149904167Y-86719297D01*
X149799250Y-86708964D01*
X149361750Y-86708964D01*
X149256833Y-86719297D01*
X149155948Y-86749901D01*
X149062972Y-86799597D01*
X148981478Y-86866478D01*
X148914597Y-86947972D01*
X148864901Y-87040948D01*
X148855724Y-87071200D01*
X147774603Y-87071200D01*
X147769403Y-87061472D01*
X147702522Y-86979978D01*
X147621028Y-86913097D01*
X147528052Y-86863401D01*
X147427167Y-86832797D01*
X147322250Y-86822464D01*
X146809750Y-86822464D01*
X146704833Y-86832797D01*
X146603948Y-86863401D01*
X146510972Y-86913097D01*
X146429478Y-86979978D01*
X146362597Y-87061472D01*
X146357397Y-87071200D01*
X146123603Y-87071200D01*
X146118403Y-87061472D01*
X146051522Y-86979978D01*
X145970028Y-86913097D01*
X145877052Y-86863401D01*
X145776167Y-86832797D01*
X145671250Y-86822464D01*
X145158750Y-86822464D01*
X145053833Y-86832797D01*
X144952948Y-86863401D01*
X144859972Y-86913097D01*
X144839649Y-86929776D01*
X144533112Y-86623239D01*
X144533112Y-83902594D01*
X144534120Y-83902495D01*
X144536745Y-83901699D01*
X144554734Y-83899672D01*
X144579310Y-83898637D01*
X144611170Y-83890893D01*
X144643225Y-83884048D01*
X144665813Y-83874319D01*
X144703560Y-83861110D01*
X144727281Y-83854635D01*
X144756603Y-83840005D01*
X144786346Y-83826191D01*
X144806201Y-83811680D01*
X144840059Y-83790405D01*
X144861749Y-83778812D01*
X144887094Y-83758012D01*
X144913005Y-83737937D01*
X144929135Y-83719370D01*
X144957409Y-83691095D01*
X144975974Y-83674967D01*
X144996053Y-83649052D01*
X145016849Y-83623712D01*
X145028442Y-83602022D01*
X145049717Y-83568164D01*
X145064228Y-83548309D01*
X145078042Y-83518566D01*
X145092672Y-83489244D01*
X145099147Y-83465523D01*
X145112356Y-83427776D01*
X145122085Y-83405188D01*
X145128930Y-83373132D01*
X145136674Y-83341274D01*
X145137709Y-83316699D01*
X145142187Y-83276956D01*
X145146645Y-83252776D01*
X145146186Y-83220000D01*
X145146645Y-83187225D01*
X145142187Y-83163045D01*
X145137709Y-83123303D01*
X145136674Y-83098725D01*
X145128929Y-83066863D01*
X145122085Y-83034811D01*
X145112356Y-83012223D01*
X145099147Y-82974476D01*
X145092672Y-82950755D01*
X145078042Y-82921433D01*
X145064228Y-82891690D01*
X145049717Y-82871835D01*
X145028442Y-82837977D01*
X145016849Y-82816287D01*
X144996053Y-82790947D01*
X144975974Y-82765032D01*
X144957409Y-82748904D01*
X144929135Y-82720629D01*
X144913005Y-82702062D01*
X144887094Y-82681987D01*
X144861749Y-82661187D01*
X144840059Y-82649594D01*
X144806201Y-82628319D01*
X144786346Y-82613808D01*
X144756603Y-82599994D01*
X144727281Y-82585364D01*
X144703560Y-82578889D01*
X144665811Y-82565680D01*
X144643219Y-82555949D01*
X144611161Y-82549104D01*
X144579310Y-82541362D01*
X144554731Y-82540327D01*
X144536742Y-82538300D01*
X144534120Y-82537505D01*
X144533112Y-82537406D01*
X144533112Y-78920696D01*
X144534648Y-78905100D01*
X147000964Y-78905100D01*
X147007094Y-78967341D01*
X147025249Y-79027190D01*
X147054731Y-79082347D01*
X147094407Y-79130693D01*
X147142753Y-79170369D01*
X147197910Y-79199851D01*
X147257759Y-79218006D01*
X147320000Y-79224136D01*
X148053425Y-79222600D01*
X148132800Y-79143225D01*
X148132800Y-76314300D01*
X148793200Y-76314300D01*
X148793200Y-79143225D01*
X148872575Y-79222600D01*
X149606000Y-79224136D01*
X149668241Y-79218006D01*
X149728090Y-79199851D01*
X149783247Y-79170369D01*
X149831593Y-79130693D01*
X149871269Y-79082347D01*
X149900751Y-79027190D01*
X149918906Y-78967341D01*
X149923861Y-78917021D01*
X150810964Y-78917021D01*
X150817094Y-78979262D01*
X150835249Y-79039111D01*
X150864731Y-79094268D01*
X150904407Y-79142614D01*
X150952753Y-79182290D01*
X151007910Y-79211772D01*
X151067759Y-79229927D01*
X151130000Y-79236057D01*
X151863425Y-79234521D01*
X151942800Y-79155146D01*
X151942800Y-76326221D01*
X152603200Y-76326221D01*
X152603200Y-79155146D01*
X152682575Y-79234521D01*
X153416000Y-79236057D01*
X153478241Y-79229927D01*
X153538090Y-79211772D01*
X153593247Y-79182290D01*
X153641593Y-79142614D01*
X153681269Y-79094268D01*
X153710751Y-79039111D01*
X153728906Y-78979262D01*
X153735036Y-78917021D01*
X153733500Y-76405596D01*
X153654125Y-76326221D01*
X152603200Y-76326221D01*
X151942800Y-76326221D01*
X150891875Y-76326221D01*
X150812500Y-76405596D01*
X150810964Y-78917021D01*
X149923861Y-78917021D01*
X149925036Y-78905100D01*
X149923500Y-76393675D01*
X149844125Y-76314300D01*
X148793200Y-76314300D01*
X148132800Y-76314300D01*
X147081875Y-76314300D01*
X147002500Y-76393675D01*
X147000964Y-78905100D01*
X144534648Y-78905100D01*
X144534648Y-73075800D01*
X147000972Y-73075800D01*
X147002500Y-75574525D01*
G36*
X138366500Y-75574525D02*
G01*
X138445875Y-75653900D01*
X139496800Y-75653900D01*
X139496800Y-75633900D01*
X140157200Y-75633900D01*
X140157200Y-75653900D01*
X141208125Y-75653900D01*
X141287500Y-75574525D01*
X141289028Y-73075800D01*
X143755352Y-73075800D01*
X143755352Y-78905100D01*
X143756888Y-78920696D01*
X143756888Y-79065379D01*
X143756889Y-79065389D01*
X143756888Y-82584528D01*
X143756392Y-82587218D01*
X143756888Y-82622610D01*
X143756888Y-82639055D01*
X143757157Y-82641783D01*
X143757195Y-82644515D01*
X143759030Y-82660804D01*
X143762505Y-82696082D01*
X143763300Y-82698703D01*
X143765327Y-82716694D01*
X143766362Y-82741273D01*
X143774104Y-82773124D01*
X143780949Y-82805182D01*
X143790680Y-82827774D01*
X143803889Y-82865523D01*
X143810364Y-82889244D01*
X143824994Y-82918566D01*
X143838808Y-82948309D01*
X143853319Y-82968164D01*
X143874594Y-83002022D01*
X143886187Y-83023712D01*
X143906987Y-83049057D01*
X143927062Y-83074968D01*
X143945629Y-83091098D01*
X143973904Y-83119372D01*
X143990032Y-83137937D01*
X144015947Y-83158016D01*
X144041287Y-83178812D01*
X144062977Y-83190405D01*
X144096835Y-83211680D01*
X144108218Y-83220000D01*
X144096835Y-83228319D01*
X144062977Y-83249594D01*
X144041287Y-83261187D01*
X144015947Y-83281983D01*
X143990032Y-83302062D01*
X143973904Y-83320627D01*
X143945629Y-83348901D01*
X143927062Y-83365031D01*
X143906987Y-83390942D01*
X143886187Y-83416287D01*
X143874594Y-83437977D01*
X143853319Y-83471835D01*
X143838808Y-83491690D01*
X143824994Y-83521433D01*
X143810364Y-83550755D01*
X143803889Y-83574476D01*
X143790679Y-83612226D01*
X143780949Y-83634817D01*
X143774105Y-83666871D01*
X143766362Y-83698726D01*
X143765327Y-83723307D01*
X143763300Y-83741300D01*
X143762506Y-83743917D01*
X143759038Y-83779127D01*
X143757195Y-83795486D01*
X143757157Y-83798227D01*
X143756889Y-83800944D01*
X143756889Y-83817320D01*
X143756392Y-83852782D01*
X143756889Y-83855478D01*
X143756888Y-86764944D01*
X143755011Y-86784000D01*
X143761844Y-86853376D01*
X143762505Y-86860082D01*
X143784697Y-86933241D01*
X143820736Y-87000665D01*
X143869236Y-87059764D01*
X143883171Y-87071200D01*
X137453625Y-87071200D01*
X137435764Y-87049436D01*
X137420959Y-87037286D01*
X136321800Y-85938127D01*
X136321800Y-80391000D01*
X136320824Y-80381089D01*
X136317933Y-80371560D01*
X136313239Y-80362777D01*
X136306921Y-80355079D01*
X136299223Y-80348761D01*
X136290440Y-80344067D01*
X136280911Y-80341176D01*
X136271000Y-80340200D01*
X125349000Y-80340200D01*
X125339089Y-80341176D01*
X125329560Y-80344067D01*
X125320777Y-80348761D01*
X125313079Y-80355079D01*
X125306761Y-80362777D01*
X125302067Y-80371560D01*
X125299176Y-80381089D01*
X125298200Y-80391000D01*
X125298200Y-87071200D01*
X123240800Y-87071200D01*
X123240800Y-78905100D01*
X138364964Y-78905100D01*
X138371094Y-78967341D01*
X138389249Y-79027190D01*
X138418731Y-79082347D01*
X138458407Y-79130693D01*
X138506753Y-79170369D01*
X138561910Y-79199851D01*
X138621759Y-79218006D01*
X138684000Y-79224136D01*
X139417425Y-79222600D01*
X139496800Y-79143225D01*
X139496800Y-76314300D01*
X140157200Y-76314300D01*
X140157200Y-79143225D01*
X140236575Y-79222600D01*
X140970000Y-79224136D01*
X141032241Y-79218006D01*
X141092090Y-79199851D01*
X141147247Y-79170369D01*
X141195593Y-79130693D01*
X141235269Y-79082347D01*
X141264751Y-79027190D01*
X141282906Y-78967341D01*
X141289036Y-78905100D01*
X141287500Y-76393675D01*
X141208125Y-76314300D01*
X140157200Y-76314300D01*
X139496800Y-76314300D01*
X138445875Y-76314300D01*
X138366500Y-76393675D01*
X138364964Y-78905100D01*
X123240800Y-78905100D01*
X123240800Y-73075800D01*
X138364972Y-73075800D01*
X138366500Y-75574525D01*
G37*
X138366500Y-75574525D02*
X138445875Y-75653900D01*
X139496800Y-75653900D01*
X139496800Y-75633900D01*
X140157200Y-75633900D01*
X140157200Y-75653900D01*
X141208125Y-75653900D01*
X141287500Y-75574525D01*
X141289028Y-73075800D01*
X143755352Y-73075800D01*
X143755352Y-78905100D01*
X143756888Y-78920696D01*
X143756888Y-79065379D01*
X143756889Y-79065389D01*
X143756888Y-82584528D01*
X143756392Y-82587218D01*
X143756888Y-82622610D01*
X143756888Y-82639055D01*
X143757157Y-82641783D01*
X143757195Y-82644515D01*
X143759030Y-82660804D01*
X143762505Y-82696082D01*
X143763300Y-82698703D01*
X143765327Y-82716694D01*
X143766362Y-82741273D01*
X143774104Y-82773124D01*
X143780949Y-82805182D01*
X143790680Y-82827774D01*
X143803889Y-82865523D01*
X143810364Y-82889244D01*
X143824994Y-82918566D01*
X143838808Y-82948309D01*
X143853319Y-82968164D01*
X143874594Y-83002022D01*
X143886187Y-83023712D01*
X143906987Y-83049057D01*
X143927062Y-83074968D01*
X143945629Y-83091098D01*
X143973904Y-83119372D01*
X143990032Y-83137937D01*
X144015947Y-83158016D01*
X144041287Y-83178812D01*
X144062977Y-83190405D01*
X144096835Y-83211680D01*
X144108218Y-83220000D01*
X144096835Y-83228319D01*
X144062977Y-83249594D01*
X144041287Y-83261187D01*
X144015947Y-83281983D01*
X143990032Y-83302062D01*
X143973904Y-83320627D01*
X143945629Y-83348901D01*
X143927062Y-83365031D01*
X143906987Y-83390942D01*
X143886187Y-83416287D01*
X143874594Y-83437977D01*
X143853319Y-83471835D01*
X143838808Y-83491690D01*
X143824994Y-83521433D01*
X143810364Y-83550755D01*
X143803889Y-83574476D01*
X143790679Y-83612226D01*
X143780949Y-83634817D01*
X143774105Y-83666871D01*
X143766362Y-83698726D01*
X143765327Y-83723307D01*
X143763300Y-83741300D01*
X143762506Y-83743917D01*
X143759038Y-83779127D01*
X143757195Y-83795486D01*
X143757157Y-83798227D01*
X143756889Y-83800944D01*
X143756889Y-83817320D01*
X143756392Y-83852782D01*
X143756889Y-83855478D01*
X143756888Y-86764944D01*
X143755011Y-86784000D01*
X143761844Y-86853376D01*
X143762505Y-86860082D01*
X143784697Y-86933241D01*
X143820736Y-87000665D01*
X143869236Y-87059764D01*
X143883171Y-87071200D01*
X137453625Y-87071200D01*
X137435764Y-87049436D01*
X137420959Y-87037286D01*
X136321800Y-85938127D01*
X136321800Y-80391000D01*
X136320824Y-80381089D01*
X136317933Y-80371560D01*
X136313239Y-80362777D01*
X136306921Y-80355079D01*
X136299223Y-80348761D01*
X136290440Y-80344067D01*
X136280911Y-80341176D01*
X136271000Y-80340200D01*
X125349000Y-80340200D01*
X125339089Y-80341176D01*
X125329560Y-80344067D01*
X125320777Y-80348761D01*
X125313079Y-80355079D01*
X125306761Y-80362777D01*
X125302067Y-80371560D01*
X125299176Y-80381089D01*
X125298200Y-80391000D01*
X125298200Y-87071200D01*
X123240800Y-87071200D01*
X123240800Y-78905100D01*
X138364964Y-78905100D01*
X138371094Y-78967341D01*
X138389249Y-79027190D01*
X138418731Y-79082347D01*
X138458407Y-79130693D01*
X138506753Y-79170369D01*
X138561910Y-79199851D01*
X138621759Y-79218006D01*
X138684000Y-79224136D01*
X139417425Y-79222600D01*
X139496800Y-79143225D01*
X139496800Y-76314300D01*
X140157200Y-76314300D01*
X140157200Y-79143225D01*
X140236575Y-79222600D01*
X140970000Y-79224136D01*
X141032241Y-79218006D01*
X141092090Y-79199851D01*
X141147247Y-79170369D01*
X141195593Y-79130693D01*
X141235269Y-79082347D01*
X141264751Y-79027190D01*
X141282906Y-78967341D01*
X141289036Y-78905100D01*
X141287500Y-76393675D01*
X141208125Y-76314300D01*
X140157200Y-76314300D01*
X139496800Y-76314300D01*
X138445875Y-76314300D01*
X138366500Y-76393675D01*
X138364964Y-78905100D01*
X123240800Y-78905100D01*
X123240800Y-73075800D01*
X138364972Y-73075800D01*
X138366500Y-75574525D01*
G36*
X166773165Y-80852028D02*
G01*
X166597461Y-80940018D01*
X166442299Y-81060595D01*
X166313642Y-81209126D01*
X166216434Y-81379903D01*
X166154411Y-81566363D01*
X166144007Y-81618659D01*
X166167784Y-81775300D01*
X167119300Y-81775300D01*
X167119300Y-81755300D01*
X167144700Y-81755300D01*
X167144700Y-81775300D01*
X168096216Y-81775300D01*
X168119993Y-81618659D01*
X168109589Y-81566363D01*
X168047566Y-81379903D01*
X167950358Y-81209126D01*
X167821701Y-81060595D01*
X167666539Y-80940018D01*
X167490835Y-80852028D01*
X167384368Y-80822800D01*
X170129200Y-80822800D01*
X170129200Y-108788200D01*
X150520400Y-108788200D01*
X150520400Y-107288534D01*
X150565130Y-107270006D01*
X150721119Y-107165777D01*
X150853777Y-107033119D01*
X150958006Y-106877130D01*
X151029800Y-106703805D01*
X151052930Y-106587519D01*
X156795396Y-106587519D01*
X156805032Y-106635965D01*
X156863844Y-106813163D01*
X156956096Y-106975483D01*
X157078242Y-107116686D01*
X157225588Y-107231347D01*
X157392472Y-107315059D01*
X157572481Y-107364605D01*
X157721300Y-107340216D01*
X157721300Y-106438700D01*
X157746700Y-106438700D01*
X157746700Y-107340216D01*
X157895519Y-107364605D01*
X158075528Y-107315059D01*
X158242412Y-107231347D01*
X158389758Y-107116686D01*
X158511904Y-106975483D01*
X158604156Y-106813163D01*
X158662968Y-106635965D01*
X158672604Y-106587519D01*
X158648212Y-106438700D01*
X157746700Y-106438700D01*
X157721300Y-106438700D01*
X156819788Y-106438700D01*
X156795396Y-106587519D01*
X151052930Y-106587519D01*
X151066400Y-106519803D01*
X151066400Y-106332197D01*
X151052931Y-106264481D01*
X156795396Y-106264481D01*
X156819788Y-106413300D01*
X157721300Y-106413300D01*
X157721300Y-105511784D01*
X157746700Y-105511784D01*
X157746700Y-106413300D01*
X158648212Y-106413300D01*
X158672604Y-106264481D01*
X158662968Y-106216035D01*
X158604156Y-106038837D01*
X158511904Y-105876517D01*
X158389758Y-105735314D01*
X158242412Y-105620653D01*
X158075528Y-105536941D01*
X157895519Y-105487395D01*
X157746700Y-105511784D01*
X157721300Y-105511784D01*
X157572481Y-105487395D01*
X157392472Y-105536941D01*
X157225588Y-105620653D01*
X157078242Y-105735314D01*
X156956096Y-105876517D01*
X156863844Y-106038837D01*
X156805032Y-106216035D01*
X156795396Y-106264481D01*
X151052931Y-106264481D01*
X151029800Y-106148195D01*
X150958006Y-105974870D01*
X150853777Y-105818881D01*
X150721119Y-105686223D01*
X150565130Y-105581994D01*
X150393400Y-105510861D01*
X150393400Y-104839137D01*
X150914000Y-104839137D01*
X150943876Y-104836195D01*
X150972603Y-104827480D01*
X150999078Y-104813329D01*
X151022284Y-104794284D01*
X151041329Y-104771078D01*
X151055480Y-104744603D01*
X151064195Y-104715876D01*
X151067137Y-104686000D01*
X151067137Y-104047519D01*
X156795396Y-104047519D01*
X156805032Y-104095965D01*
X156863844Y-104273163D01*
X156956096Y-104435483D01*
X157078242Y-104576686D01*
X157225588Y-104691347D01*
X157392472Y-104775059D01*
X157572481Y-104824605D01*
X157721300Y-104800216D01*
X157721300Y-103898700D01*
X157746700Y-103898700D01*
X157746700Y-104800216D01*
X157895519Y-104824605D01*
X158075528Y-104775059D01*
X158242412Y-104691347D01*
X158389758Y-104576686D01*
X158511904Y-104435483D01*
X158604156Y-104273163D01*
X158662968Y-104095965D01*
X158672604Y-104047519D01*
X158648212Y-103898700D01*
X157746700Y-103898700D01*
X157721300Y-103898700D01*
X156819788Y-103898700D01*
X156795396Y-104047519D01*
X151067137Y-104047519D01*
X151067137Y-103724481D01*
X156795396Y-103724481D01*
X156819788Y-103873300D01*
X157721300Y-103873300D01*
X157721300Y-102971784D01*
X157746700Y-102971784D01*
X157746700Y-103873300D01*
X158648212Y-103873300D01*
X158672604Y-103724481D01*
X158662968Y-103676035D01*
X158604156Y-103498837D01*
X158511904Y-103336517D01*
X158389758Y-103195314D01*
X158242412Y-103080653D01*
X158075528Y-102996941D01*
X157895519Y-102947395D01*
X157746700Y-102971784D01*
X157721300Y-102971784D01*
X157572481Y-102947395D01*
X157392472Y-102996941D01*
X157225588Y-103080653D01*
X157078242Y-103195314D01*
X156956096Y-103336517D01*
X156863844Y-103498837D01*
X156805032Y-103676035D01*
X156795396Y-103724481D01*
X151067137Y-103724481D01*
X151067137Y-103086000D01*
X151064195Y-103056124D01*
X151055480Y-103027397D01*
X151041329Y-103000922D01*
X151022284Y-102977716D01*
X150999078Y-102958671D01*
X150972603Y-102944520D01*
X150943876Y-102935805D01*
X150914000Y-102932863D01*
X150452904Y-102932863D01*
X150758627Y-102627141D01*
X150766379Y-102620779D01*
X150791772Y-102589838D01*
X150810640Y-102554537D01*
X150822260Y-102516234D01*
X150825200Y-102486381D01*
X150825200Y-102486372D01*
X150826182Y-102476401D01*
X150825200Y-102466430D01*
X150825200Y-98813967D01*
X153011258Y-101000026D01*
X153017621Y-101007779D01*
X153048562Y-101033172D01*
X153083863Y-101052040D01*
X153122166Y-101063660D01*
X153152019Y-101066600D01*
X153152028Y-101066600D01*
X153161999Y-101067582D01*
X153171970Y-101066600D01*
X160723233Y-101066600D01*
X163754207Y-104097574D01*
X163703685Y-104173186D01*
X163628122Y-104355611D01*
X163589600Y-104549272D01*
X163589600Y-104746728D01*
X163628122Y-104940389D01*
X163703685Y-105122814D01*
X163813385Y-105286993D01*
X163953007Y-105426615D01*
X164117186Y-105536315D01*
X164299611Y-105611878D01*
X164493272Y-105650400D01*
X164690728Y-105650400D01*
X164884389Y-105611878D01*
X165066814Y-105536315D01*
X165230993Y-105426615D01*
X165370615Y-105286993D01*
X165480315Y-105122814D01*
X165555878Y-104940389D01*
X165580354Y-104817341D01*
X166144007Y-104817341D01*
X166154411Y-104869637D01*
X166216434Y-105056097D01*
X166313642Y-105226874D01*
X166442299Y-105375405D01*
X166597461Y-105495982D01*
X166773165Y-105583972D01*
X166962659Y-105635993D01*
X167119300Y-105612220D01*
X167119300Y-104660700D01*
X167144700Y-104660700D01*
X167144700Y-105612220D01*
X167301341Y-105635993D01*
X167490835Y-105583972D01*
X167666539Y-105495982D01*
X167821701Y-105375405D01*
X167950358Y-105226874D01*
X168047566Y-105056097D01*
X168109589Y-104869637D01*
X168119993Y-104817341D01*
X168096216Y-104660700D01*
X167144700Y-104660700D01*
X167119300Y-104660700D01*
X166167784Y-104660700D01*
X166144007Y-104817341D01*
X165580354Y-104817341D01*
X165594400Y-104746728D01*
X165594400Y-104549272D01*
X165580355Y-104478659D01*
X166144007Y-104478659D01*
X166167784Y-104635300D01*
X167119300Y-104635300D01*
X167119300Y-103683780D01*
X167144700Y-103683780D01*
X167144700Y-104635300D01*
X168096216Y-104635300D01*
X168119993Y-104478659D01*
X168109589Y-104426363D01*
X168047566Y-104239903D01*
X167950358Y-104069126D01*
X167821701Y-103920595D01*
X167666539Y-103800018D01*
X167490835Y-103712028D01*
X167301341Y-103660007D01*
X167144700Y-103683780D01*
X167119300Y-103683780D01*
X166962659Y-103660007D01*
X166773165Y-103712028D01*
X166597461Y-103800018D01*
X166442299Y-103920595D01*
X166313642Y-104069126D01*
X166216434Y-104239903D01*
X166154411Y-104426363D01*
X166144007Y-104478659D01*
X165580355Y-104478659D01*
X165555878Y-104355611D01*
X165480315Y-104173186D01*
X165370615Y-104009007D01*
X165230993Y-103869385D01*
X165066814Y-103759685D01*
X164884389Y-103684122D01*
X164690728Y-103645600D01*
X164493272Y-103645600D01*
X164299611Y-103684122D01*
X164117186Y-103759685D01*
X164041574Y-103810207D01*
X160958146Y-100726779D01*
X160951779Y-100719021D01*
X160920838Y-100693628D01*
X160885537Y-100674760D01*
X160847234Y-100663140D01*
X160817381Y-100660200D01*
X160817371Y-100660200D01*
X160807400Y-100659218D01*
X160797429Y-100660200D01*
X153246168Y-100660200D01*
X151104600Y-98518633D01*
X151104600Y-97035967D01*
X153951058Y-99882426D01*
X153957421Y-99890179D01*
X153965173Y-99896541D01*
X153988361Y-99915572D01*
X154007229Y-99925656D01*
X154023663Y-99934440D01*
X154061966Y-99946060D01*
X154091819Y-99949000D01*
X154091829Y-99949000D01*
X154101800Y-99949982D01*
X154111771Y-99949000D01*
X162145633Y-99949000D01*
X163754207Y-101557574D01*
X163703685Y-101633186D01*
X163628122Y-101815611D01*
X163589600Y-102009272D01*
X163589600Y-102206728D01*
X163628122Y-102400389D01*
X163703685Y-102582814D01*
X163813385Y-102746993D01*
X163953007Y-102886615D01*
X164117186Y-102996315D01*
X164299611Y-103071878D01*
X164493272Y-103110400D01*
X164690728Y-103110400D01*
X164884389Y-103071878D01*
X165066814Y-102996315D01*
X165230993Y-102886615D01*
X165370615Y-102746993D01*
X165480315Y-102582814D01*
X165555878Y-102400389D01*
X165580354Y-102277341D01*
X166144007Y-102277341D01*
X166154411Y-102329637D01*
X166216434Y-102516097D01*
X166313642Y-102686874D01*
X166442299Y-102835405D01*
X166597461Y-102955982D01*
X166773165Y-103043972D01*
X166962659Y-103095993D01*
X167119300Y-103072220D01*
X167119300Y-102120700D01*
X167144700Y-102120700D01*
X167144700Y-103072220D01*
X167301341Y-103095993D01*
X167490835Y-103043972D01*
X167666539Y-102955982D01*
X167821701Y-102835405D01*
X167950358Y-102686874D01*
X168047566Y-102516097D01*
X168109589Y-102329637D01*
X168119993Y-102277341D01*
X168096216Y-102120700D01*
X167144700Y-102120700D01*
X167119300Y-102120700D01*
X166167784Y-102120700D01*
X166144007Y-102277341D01*
X165580354Y-102277341D01*
X165594400Y-102206728D01*
X165594400Y-102009272D01*
X165580355Y-101938659D01*
X166144007Y-101938659D01*
X166167784Y-102095300D01*
X167119300Y-102095300D01*
X167119300Y-101143780D01*
X167144700Y-101143780D01*
X167144700Y-102095300D01*
X168096216Y-102095300D01*
X168119993Y-101938659D01*
X168109589Y-101886363D01*
X168047566Y-101699903D01*
X167950358Y-101529126D01*
X167821701Y-101380595D01*
X167666539Y-101260018D01*
X167490835Y-101172028D01*
X167301341Y-101120007D01*
X167144700Y-101143780D01*
X167119300Y-101143780D01*
X166962659Y-101120007D01*
X166773165Y-101172028D01*
X166597461Y-101260018D01*
X166442299Y-101380595D01*
X166313642Y-101529126D01*
X166216434Y-101699903D01*
X166154411Y-101886363D01*
X166144007Y-101938659D01*
X165580355Y-101938659D01*
X165555878Y-101815611D01*
X165480315Y-101633186D01*
X165370615Y-101469007D01*
X165230993Y-101329385D01*
X165066814Y-101219685D01*
X164884389Y-101144122D01*
X164690728Y-101105600D01*
X164493272Y-101105600D01*
X164299611Y-101144122D01*
X164117186Y-101219685D01*
X164041574Y-101270207D01*
X162380546Y-99609179D01*
X162374179Y-99601421D01*
X162343238Y-99576028D01*
X162307937Y-99557160D01*
X162269634Y-99545540D01*
X162239781Y-99542600D01*
X162239771Y-99542600D01*
X162229800Y-99541618D01*
X162219829Y-99542600D01*
X154185968Y-99542600D01*
X153617140Y-98973772D01*
X153918776Y-98973772D01*
X153918776Y-99027654D01*
X154191693Y-99301613D01*
X154214899Y-99320658D01*
X154241375Y-99334809D01*
X154270102Y-99343523D01*
X154299977Y-99346466D01*
X154329853Y-99343523D01*
X154358580Y-99334809D01*
X154385056Y-99320658D01*
X154408262Y-99301613D01*
X154707695Y-99001137D01*
X154707695Y-98947256D01*
X154326494Y-98566055D01*
X153918776Y-98973772D01*
X153617140Y-98973772D01*
X153217979Y-98574611D01*
X153528122Y-98574611D01*
X153531065Y-98604486D01*
X153539779Y-98633213D01*
X153553930Y-98659689D01*
X153572975Y-98682895D01*
X153846934Y-98955812D01*
X153900816Y-98955812D01*
X154308533Y-98548094D01*
X154344455Y-98548094D01*
X154725656Y-98929295D01*
X154779537Y-98929295D01*
X155080013Y-98629862D01*
X155099058Y-98606656D01*
X155113209Y-98580180D01*
X155121923Y-98551453D01*
X155124866Y-98521577D01*
X155121923Y-98491702D01*
X155113209Y-98462975D01*
X155099058Y-98436499D01*
X155080013Y-98413293D01*
X154806054Y-98140376D01*
X154752172Y-98140376D01*
X154344455Y-98548094D01*
X154308533Y-98548094D01*
X153927332Y-98166893D01*
X153873451Y-98166893D01*
X153572975Y-98466326D01*
X153553930Y-98489532D01*
X153539779Y-98516008D01*
X153531065Y-98544735D01*
X153528122Y-98574611D01*
X153217979Y-98574611D01*
X150904744Y-96261377D01*
X151017180Y-96261377D01*
X151059249Y-96257234D01*
X151099701Y-96244963D01*
X151136981Y-96225036D01*
X151169658Y-96198218D01*
X151196476Y-96165541D01*
X151216403Y-96128261D01*
X151228674Y-96087809D01*
X151232817Y-96045740D01*
X151232817Y-95873940D01*
X151364973Y-95873940D01*
X152651473Y-97160440D01*
X152613960Y-97197953D01*
X152567711Y-97254308D01*
X152533345Y-97318602D01*
X152512183Y-97388365D01*
X152505037Y-97460917D01*
X152512183Y-97533469D01*
X152533345Y-97603232D01*
X152567711Y-97667526D01*
X152613960Y-97723881D01*
X152923319Y-98033240D01*
X152979674Y-98079489D01*
X153043968Y-98113855D01*
X153113731Y-98135017D01*
X153186283Y-98142163D01*
X153258835Y-98135017D01*
X153328598Y-98113855D01*
X153363777Y-98095051D01*
X153945293Y-98095051D01*
X153945293Y-98148932D01*
X154326494Y-98530133D01*
X154734212Y-98122416D01*
X154734212Y-98068534D01*
X154461295Y-97794575D01*
X154438089Y-97775530D01*
X154411613Y-97761379D01*
X154382886Y-97752665D01*
X154353011Y-97749722D01*
X154323135Y-97752665D01*
X154294408Y-97761379D01*
X154267932Y-97775530D01*
X154244726Y-97794575D01*
X153945293Y-98095051D01*
X153363777Y-98095051D01*
X153392892Y-98079489D01*
X153449247Y-98033240D01*
X153811640Y-97670847D01*
X153857889Y-97614492D01*
X153892255Y-97550198D01*
X153913417Y-97480435D01*
X153920563Y-97407883D01*
X153913417Y-97335331D01*
X153892255Y-97265568D01*
X153857889Y-97201274D01*
X153811640Y-97144919D01*
X153502281Y-96835560D01*
X153445926Y-96789311D01*
X153381632Y-96754945D01*
X153311869Y-96733783D01*
X153239317Y-96726637D01*
X153166765Y-96733783D01*
X153097002Y-96754945D01*
X153032708Y-96789311D01*
X152976353Y-96835560D01*
X152938840Y-96873073D01*
X151599886Y-95534119D01*
X151593519Y-95526361D01*
X151562578Y-95500968D01*
X151527277Y-95482100D01*
X151488974Y-95470480D01*
X151459121Y-95467540D01*
X151459111Y-95467540D01*
X151449140Y-95466558D01*
X151439169Y-95467540D01*
X151232817Y-95467540D01*
X151232817Y-95295740D01*
X151229063Y-95257623D01*
X151267180Y-95261377D01*
X151507950Y-95261377D01*
X152368140Y-96121568D01*
X152368140Y-96122569D01*
X152367158Y-96132540D01*
X152368140Y-96142511D01*
X152368140Y-96142521D01*
X152371080Y-96172374D01*
X152382700Y-96210677D01*
X152401568Y-96245978D01*
X152426962Y-96276919D01*
X152434714Y-96283281D01*
X152655658Y-96504226D01*
X152662021Y-96511979D01*
X152669773Y-96518341D01*
X152692961Y-96537372D01*
X152704880Y-96543742D01*
X152728263Y-96556240D01*
X152766566Y-96567860D01*
X152796419Y-96570800D01*
X152796428Y-96570800D01*
X152806399Y-96571782D01*
X152816370Y-96570800D01*
X153585833Y-96570800D01*
X154281258Y-97266226D01*
X154287621Y-97273979D01*
X154295373Y-97280341D01*
X154318561Y-97299372D01*
X154353862Y-97318240D01*
X154360947Y-97320389D01*
X154392166Y-97329860D01*
X154422019Y-97332800D01*
X154422029Y-97332800D01*
X154432000Y-97333782D01*
X154441971Y-97332800D01*
X162069433Y-97332800D01*
X163754207Y-99017574D01*
X163703685Y-99093186D01*
X163628122Y-99275611D01*
X163589600Y-99469272D01*
X163589600Y-99666728D01*
X163628122Y-99860389D01*
X163703685Y-100042814D01*
X163813385Y-100206993D01*
X163953007Y-100346615D01*
X164117186Y-100456315D01*
X164299611Y-100531878D01*
X164493272Y-100570400D01*
X164690728Y-100570400D01*
X164884389Y-100531878D01*
X165066814Y-100456315D01*
X165230993Y-100346615D01*
X165370615Y-100206993D01*
X165480315Y-100042814D01*
X165555878Y-99860389D01*
X165580354Y-99737341D01*
X166144007Y-99737341D01*
X166154411Y-99789637D01*
X166216434Y-99976097D01*
X166313642Y-100146874D01*
X166442299Y-100295405D01*
X166597461Y-100415982D01*
X166773165Y-100503972D01*
X166962659Y-100555993D01*
X167119300Y-100532220D01*
X167119300Y-99580700D01*
X167144700Y-99580700D01*
X167144700Y-100532220D01*
X167301341Y-100555993D01*
X167490835Y-100503972D01*
X167666539Y-100415982D01*
X167821701Y-100295405D01*
X167950358Y-100146874D01*
X168047566Y-99976097D01*
X168109589Y-99789637D01*
X168119993Y-99737341D01*
X168096216Y-99580700D01*
X167144700Y-99580700D01*
X167119300Y-99580700D01*
X166167784Y-99580700D01*
X166144007Y-99737341D01*
X165580354Y-99737341D01*
X165594400Y-99666728D01*
X165594400Y-99469272D01*
X165580355Y-99398659D01*
X166144007Y-99398659D01*
X166167784Y-99555300D01*
X167119300Y-99555300D01*
X167119300Y-98603780D01*
X167144700Y-98603780D01*
X167144700Y-99555300D01*
X168096216Y-99555300D01*
X168119993Y-99398659D01*
X168109589Y-99346363D01*
X168047566Y-99159903D01*
X167950358Y-98989126D01*
X167821701Y-98840595D01*
X167666539Y-98720018D01*
X167490835Y-98632028D01*
X167301341Y-98580007D01*
X167144700Y-98603780D01*
X167119300Y-98603780D01*
X166962659Y-98580007D01*
X166773165Y-98632028D01*
X166597461Y-98720018D01*
X166442299Y-98840595D01*
X166313642Y-98989126D01*
X166216434Y-99159903D01*
X166154411Y-99346363D01*
X166144007Y-99398659D01*
X165580355Y-99398659D01*
X165555878Y-99275611D01*
X165480315Y-99093186D01*
X165370615Y-98929007D01*
X165230993Y-98789385D01*
X165066814Y-98679685D01*
X164884389Y-98604122D01*
X164690728Y-98565600D01*
X164493272Y-98565600D01*
X164299611Y-98604122D01*
X164117186Y-98679685D01*
X164041574Y-98730207D01*
X162304346Y-96992979D01*
X162297979Y-96985221D01*
X162267038Y-96959828D01*
X162231737Y-96940960D01*
X162193434Y-96929340D01*
X162163581Y-96926400D01*
X162163571Y-96926400D01*
X162153600Y-96925418D01*
X162143629Y-96926400D01*
X154516168Y-96926400D01*
X153820745Y-96230978D01*
X153814379Y-96223221D01*
X153783438Y-96197828D01*
X153748137Y-96178960D01*
X153709834Y-96167340D01*
X153679981Y-96164400D01*
X153679971Y-96164400D01*
X153670000Y-96163418D01*
X153660029Y-96164400D01*
X152890568Y-96164400D01*
X152774540Y-96048373D01*
X152774540Y-96047371D01*
X152775522Y-96037400D01*
X152774540Y-96027429D01*
X152774540Y-96027419D01*
X152771600Y-95997566D01*
X152761043Y-95962768D01*
X152759980Y-95959262D01*
X152741112Y-95923961D01*
X152722081Y-95900773D01*
X152715719Y-95893021D01*
X152707968Y-95886660D01*
X152074051Y-95252744D01*
X152099701Y-95244963D01*
X152136981Y-95225036D01*
X152169658Y-95198218D01*
X152196476Y-95165541D01*
X152216403Y-95128261D01*
X152228674Y-95087809D01*
X152232817Y-95045740D01*
X152232817Y-94920740D01*
X152229195Y-94883962D01*
X153417658Y-96072426D01*
X153424021Y-96080179D01*
X153454962Y-96105572D01*
X153490263Y-96124440D01*
X153528566Y-96136060D01*
X153558419Y-96139000D01*
X153558428Y-96139000D01*
X153568399Y-96139982D01*
X153578370Y-96139000D01*
X159148794Y-96139000D01*
X159169962Y-96156372D01*
X159205263Y-96175240D01*
X159243566Y-96186860D01*
X159273419Y-96189800D01*
X159273428Y-96189800D01*
X159283399Y-96190782D01*
X159293370Y-96189800D01*
X163466433Y-96189800D01*
X163754207Y-96477574D01*
X163703685Y-96553186D01*
X163628122Y-96735611D01*
X163589600Y-96929272D01*
X163589600Y-97126728D01*
X163628122Y-97320389D01*
X163703685Y-97502814D01*
X163813385Y-97666993D01*
X163953007Y-97806615D01*
X164117186Y-97916315D01*
X164299611Y-97991878D01*
X164493272Y-98030400D01*
X164690728Y-98030400D01*
X164884389Y-97991878D01*
X165066814Y-97916315D01*
X165230993Y-97806615D01*
X165370615Y-97666993D01*
X165480315Y-97502814D01*
X165555878Y-97320389D01*
X165580354Y-97197341D01*
X166144007Y-97197341D01*
X166154411Y-97249637D01*
X166216434Y-97436097D01*
X166313642Y-97606874D01*
X166442299Y-97755405D01*
X166597461Y-97875982D01*
X166773165Y-97963972D01*
X166962659Y-98015993D01*
X167119300Y-97992220D01*
X167119300Y-97040700D01*
X167144700Y-97040700D01*
X167144700Y-97992220D01*
X167301341Y-98015993D01*
X167490835Y-97963972D01*
X167666539Y-97875982D01*
X167821701Y-97755405D01*
X167950358Y-97606874D01*
X168047566Y-97436097D01*
X168109589Y-97249637D01*
X168119993Y-97197341D01*
X168096216Y-97040700D01*
X167144700Y-97040700D01*
X167119300Y-97040700D01*
X166167784Y-97040700D01*
X166144007Y-97197341D01*
X165580354Y-97197341D01*
X165594400Y-97126728D01*
X165594400Y-96929272D01*
X165580355Y-96858659D01*
X166144007Y-96858659D01*
X166167784Y-97015300D01*
X167119300Y-97015300D01*
X167119300Y-96063780D01*
X167144700Y-96063780D01*
X167144700Y-97015300D01*
X168096216Y-97015300D01*
X168119993Y-96858659D01*
X168109589Y-96806363D01*
X168047566Y-96619903D01*
X167950358Y-96449126D01*
X167821701Y-96300595D01*
X167666539Y-96180018D01*
X167490835Y-96092028D01*
X167301341Y-96040007D01*
X167144700Y-96063780D01*
X167119300Y-96063780D01*
X166962659Y-96040007D01*
X166773165Y-96092028D01*
X166597461Y-96180018D01*
X166442299Y-96300595D01*
X166313642Y-96449126D01*
X166216434Y-96619903D01*
X166154411Y-96806363D01*
X166144007Y-96858659D01*
X165580355Y-96858659D01*
X165555878Y-96735611D01*
X165480315Y-96553186D01*
X165370615Y-96389007D01*
X165230993Y-96249385D01*
X165066814Y-96139685D01*
X164884389Y-96064122D01*
X164690728Y-96025600D01*
X164493272Y-96025600D01*
X164299611Y-96064122D01*
X164117186Y-96139685D01*
X164041574Y-96190207D01*
X163701345Y-95849978D01*
X163694979Y-95842221D01*
X163664038Y-95816828D01*
X163628737Y-95797960D01*
X163590434Y-95786340D01*
X163560581Y-95783400D01*
X163560571Y-95783400D01*
X163550600Y-95782418D01*
X163540629Y-95783400D01*
X159367206Y-95783400D01*
X159346038Y-95766028D01*
X159310737Y-95747160D01*
X159272434Y-95735540D01*
X159242581Y-95732600D01*
X159242571Y-95732600D01*
X159232600Y-95731618D01*
X159222629Y-95732600D01*
X153652568Y-95732600D01*
X153322368Y-95402400D01*
X163413619Y-95402400D01*
X163423600Y-95403383D01*
X163433581Y-95402400D01*
X163463434Y-95399460D01*
X163501737Y-95387840D01*
X163537038Y-95368972D01*
X163567979Y-95343579D01*
X163593372Y-95312638D01*
X163612240Y-95277337D01*
X163623860Y-95239034D01*
X163627783Y-95199200D01*
X163626800Y-95189219D01*
X163626800Y-94902367D01*
X163663461Y-94865706D01*
X163703685Y-94962814D01*
X163813385Y-95126993D01*
X163953007Y-95266615D01*
X164117186Y-95376315D01*
X164299611Y-95451878D01*
X164493272Y-95490400D01*
X164690728Y-95490400D01*
X164884389Y-95451878D01*
X165066814Y-95376315D01*
X165230993Y-95266615D01*
X165370615Y-95126993D01*
X165480315Y-94962814D01*
X165555878Y-94780389D01*
X165580354Y-94657341D01*
X166144007Y-94657341D01*
X166154411Y-94709637D01*
X166216434Y-94896097D01*
X166313642Y-95066874D01*
X166442299Y-95215405D01*
X166597461Y-95335982D01*
X166773165Y-95423972D01*
X166962659Y-95475993D01*
X167119300Y-95452220D01*
X167119300Y-94500700D01*
X167144700Y-94500700D01*
X167144700Y-95452220D01*
X167301341Y-95475993D01*
X167490835Y-95423972D01*
X167666539Y-95335982D01*
X167821701Y-95215405D01*
X167950358Y-95066874D01*
X168047566Y-94896097D01*
X168109589Y-94709637D01*
X168119993Y-94657341D01*
X168096216Y-94500700D01*
X167144700Y-94500700D01*
X167119300Y-94500700D01*
X166167784Y-94500700D01*
X166144007Y-94657341D01*
X165580354Y-94657341D01*
X165594400Y-94586728D01*
X165594400Y-94389272D01*
X165580355Y-94318659D01*
X166144007Y-94318659D01*
X166167784Y-94475300D01*
X167119300Y-94475300D01*
X167119300Y-93523780D01*
X167144700Y-93523780D01*
X167144700Y-94475300D01*
X168096216Y-94475300D01*
X168119993Y-94318659D01*
X168109589Y-94266363D01*
X168047566Y-94079903D01*
X167950358Y-93909126D01*
X167821701Y-93760595D01*
X167666539Y-93640018D01*
X167490835Y-93552028D01*
X167301341Y-93500007D01*
X167144700Y-93523780D01*
X167119300Y-93523780D01*
X166962659Y-93500007D01*
X166773165Y-93552028D01*
X166597461Y-93640018D01*
X166442299Y-93760595D01*
X166313642Y-93909126D01*
X166216434Y-94079903D01*
X166154411Y-94266363D01*
X166144007Y-94318659D01*
X165580355Y-94318659D01*
X165555878Y-94195611D01*
X165480315Y-94013186D01*
X165370615Y-93849007D01*
X165230993Y-93709385D01*
X165066814Y-93599685D01*
X164884389Y-93524122D01*
X164690728Y-93485600D01*
X164493272Y-93485600D01*
X164299611Y-93524122D01*
X164117186Y-93599685D01*
X163953007Y-93709385D01*
X163813385Y-93849007D01*
X163703685Y-94013186D01*
X163628122Y-94195611D01*
X163595669Y-94358763D01*
X163286978Y-94667455D01*
X163279221Y-94673821D01*
X163264959Y-94691200D01*
X163253828Y-94704762D01*
X163251223Y-94709637D01*
X163234960Y-94740064D01*
X163223340Y-94778367D01*
X163220400Y-94808220D01*
X163220400Y-94808229D01*
X163219418Y-94818200D01*
X163220400Y-94828172D01*
X163220400Y-94996000D01*
X153373168Y-94996000D01*
X153067702Y-94690535D01*
X153074459Y-94691200D01*
X153074468Y-94691200D01*
X153084439Y-94692182D01*
X153094410Y-94691200D01*
X158613029Y-94691200D01*
X158623000Y-94692182D01*
X158632971Y-94691200D01*
X158632981Y-94691200D01*
X158662834Y-94688260D01*
X158701137Y-94676640D01*
X158736438Y-94657772D01*
X158767379Y-94632379D01*
X158773746Y-94624621D01*
X161247168Y-92151200D01*
X163610381Y-92151200D01*
X163628122Y-92240389D01*
X163703685Y-92422814D01*
X163813385Y-92586993D01*
X163953007Y-92726615D01*
X164117186Y-92836315D01*
X164299611Y-92911878D01*
X164493272Y-92950400D01*
X164690728Y-92950400D01*
X164884389Y-92911878D01*
X165066814Y-92836315D01*
X165230993Y-92726615D01*
X165370615Y-92586993D01*
X165480315Y-92422814D01*
X165555878Y-92240389D01*
X165580354Y-92117341D01*
X166144007Y-92117341D01*
X166154411Y-92169637D01*
X166216434Y-92356097D01*
X166313642Y-92526874D01*
X166442299Y-92675405D01*
X166597461Y-92795982D01*
X166773165Y-92883972D01*
X166962659Y-92935993D01*
X167119300Y-92912220D01*
X167119300Y-91960700D01*
X167144700Y-91960700D01*
X167144700Y-92912220D01*
X167301341Y-92935993D01*
X167490835Y-92883972D01*
X167666539Y-92795982D01*
X167821701Y-92675405D01*
X167950358Y-92526874D01*
X168047566Y-92356097D01*
X168109589Y-92169637D01*
X168119993Y-92117341D01*
X168096216Y-91960700D01*
X167144700Y-91960700D01*
X167119300Y-91960700D01*
X166167784Y-91960700D01*
X166144007Y-92117341D01*
X165580354Y-92117341D01*
X165594400Y-92046728D01*
X165594400Y-91849272D01*
X165580355Y-91778659D01*
X166144007Y-91778659D01*
X166167784Y-91935300D01*
X167119300Y-91935300D01*
X167119300Y-90983780D01*
X167144700Y-90983780D01*
X167144700Y-91935300D01*
X168096216Y-91935300D01*
X168119993Y-91778659D01*
X168109589Y-91726363D01*
X168047566Y-91539903D01*
X167950358Y-91369126D01*
X167821701Y-91220595D01*
X167666539Y-91100018D01*
X167490835Y-91012028D01*
X167301341Y-90960007D01*
X167144700Y-90983780D01*
X167119300Y-90983780D01*
X166962659Y-90960007D01*
X166773165Y-91012028D01*
X166597461Y-91100018D01*
X166442299Y-91220595D01*
X166313642Y-91369126D01*
X166216434Y-91539903D01*
X166154411Y-91726363D01*
X166144007Y-91778659D01*
X165580355Y-91778659D01*
X165555878Y-91655611D01*
X165480315Y-91473186D01*
X165370615Y-91309007D01*
X165230993Y-91169385D01*
X165066814Y-91059685D01*
X164884389Y-90984122D01*
X164690728Y-90945600D01*
X164493272Y-90945600D01*
X164299611Y-90984122D01*
X164117186Y-91059685D01*
X163953007Y-91169385D01*
X163813385Y-91309007D01*
X163703685Y-91473186D01*
X163628122Y-91655611D01*
X163610381Y-91744800D01*
X161172970Y-91744800D01*
X161162999Y-91743818D01*
X161153028Y-91744800D01*
X161153019Y-91744800D01*
X161123166Y-91747740D01*
X161084863Y-91759360D01*
X161049562Y-91778228D01*
X161018621Y-91803621D01*
X161012259Y-91811373D01*
X158538833Y-94284800D01*
X153168608Y-94284800D01*
X152292837Y-93409030D01*
X152405263Y-93409030D01*
X152935063Y-93938832D01*
X152941421Y-93946579D01*
X152949167Y-93952936D01*
X152949173Y-93952942D01*
X152972362Y-93971972D01*
X153007662Y-93990840D01*
X153045966Y-94002460D01*
X153085800Y-94006383D01*
X153095781Y-94005400D01*
X158003429Y-94005400D01*
X158013400Y-94006382D01*
X158023371Y-94005400D01*
X158023381Y-94005400D01*
X158053234Y-94002460D01*
X158091537Y-93990840D01*
X158126838Y-93971972D01*
X158157779Y-93946579D01*
X158164146Y-93938821D01*
X162491768Y-89611200D01*
X163610381Y-89611200D01*
X163628122Y-89700389D01*
X163703685Y-89882814D01*
X163813385Y-90046993D01*
X163953007Y-90186615D01*
X164117186Y-90296315D01*
X164299611Y-90371878D01*
X164493272Y-90410400D01*
X164690728Y-90410400D01*
X164884389Y-90371878D01*
X165066814Y-90296315D01*
X165230993Y-90186615D01*
X165370615Y-90046993D01*
X165480315Y-89882814D01*
X165555878Y-89700389D01*
X165580354Y-89577341D01*
X166144007Y-89577341D01*
X166154411Y-89629637D01*
X166216434Y-89816097D01*
X166313642Y-89986874D01*
X166442299Y-90135405D01*
X166597461Y-90255982D01*
X166773165Y-90343972D01*
X166962659Y-90395993D01*
X167119300Y-90372220D01*
X167119300Y-89420700D01*
X167144700Y-89420700D01*
X167144700Y-90372220D01*
X167301341Y-90395993D01*
X167490835Y-90343972D01*
X167666539Y-90255982D01*
X167821701Y-90135405D01*
X167950358Y-89986874D01*
X168047566Y-89816097D01*
X168109589Y-89629637D01*
X168119993Y-89577341D01*
X168096216Y-89420700D01*
X167144700Y-89420700D01*
X167119300Y-89420700D01*
X166167784Y-89420700D01*
X166144007Y-89577341D01*
X165580354Y-89577341D01*
X165594400Y-89506728D01*
X165594400Y-89309272D01*
X165580355Y-89238659D01*
X166144007Y-89238659D01*
X166167784Y-89395300D01*
X167119300Y-89395300D01*
X167119300Y-88443780D01*
X167144700Y-88443780D01*
X167144700Y-89395300D01*
X168096216Y-89395300D01*
X168119993Y-89238659D01*
X168109589Y-89186363D01*
X168047566Y-88999903D01*
X167950358Y-88829126D01*
X167821701Y-88680595D01*
X167666539Y-88560018D01*
X167490835Y-88472028D01*
X167301341Y-88420007D01*
X167144700Y-88443780D01*
X167119300Y-88443780D01*
X166962659Y-88420007D01*
X166773165Y-88472028D01*
X166597461Y-88560018D01*
X166442299Y-88680595D01*
X166313642Y-88829126D01*
X166216434Y-88999903D01*
X166154411Y-89186363D01*
X166144007Y-89238659D01*
X165580355Y-89238659D01*
X165555878Y-89115611D01*
X165480315Y-88933186D01*
X165370615Y-88769007D01*
X165230993Y-88629385D01*
X165066814Y-88519685D01*
X164884389Y-88444122D01*
X164690728Y-88405600D01*
X164493272Y-88405600D01*
X164299611Y-88444122D01*
X164117186Y-88519685D01*
X163953007Y-88629385D01*
X163813385Y-88769007D01*
X163703685Y-88933186D01*
X163628122Y-89115611D01*
X163610381Y-89204800D01*
X162417570Y-89204800D01*
X162407599Y-89203818D01*
X162397628Y-89204800D01*
X162397619Y-89204800D01*
X162367766Y-89207740D01*
X162329463Y-89219360D01*
X162294162Y-89238228D01*
X162263221Y-89263621D01*
X162256859Y-89271373D01*
X157929233Y-93599000D01*
X153169969Y-93599000D01*
X152808842Y-93237874D01*
X152817366Y-93240460D01*
X152847219Y-93243400D01*
X152847229Y-93243400D01*
X152857200Y-93244382D01*
X152867171Y-93243400D01*
X157165229Y-93243400D01*
X157175200Y-93244382D01*
X157185171Y-93243400D01*
X157185181Y-93243400D01*
X157215034Y-93240460D01*
X157253337Y-93228840D01*
X157288638Y-93209972D01*
X157319579Y-93184579D01*
X157325946Y-93176821D01*
X160156628Y-90346140D01*
X160164379Y-90339779D01*
X160172675Y-90329671D01*
X160189772Y-90308839D01*
X160208640Y-90273538D01*
X160212887Y-90259538D01*
X160220260Y-90235234D01*
X160223200Y-90205381D01*
X160223200Y-90205371D01*
X160224182Y-90195400D01*
X160223200Y-90185429D01*
X160223200Y-88679367D01*
X161831368Y-87071200D01*
X163610381Y-87071200D01*
X163628122Y-87160389D01*
X163703685Y-87342814D01*
X163813385Y-87506993D01*
X163953007Y-87646615D01*
X164117186Y-87756315D01*
X164299611Y-87831878D01*
X164493272Y-87870400D01*
X164690728Y-87870400D01*
X164884389Y-87831878D01*
X165066814Y-87756315D01*
X165230993Y-87646615D01*
X165370615Y-87506993D01*
X165480315Y-87342814D01*
X165555878Y-87160389D01*
X165580354Y-87037341D01*
X166144007Y-87037341D01*
X166154411Y-87089637D01*
X166216434Y-87276097D01*
X166313642Y-87446874D01*
X166442299Y-87595405D01*
X166597461Y-87715982D01*
X166773165Y-87803972D01*
X166962659Y-87855993D01*
X167119300Y-87832220D01*
X167119300Y-86880700D01*
X167144700Y-86880700D01*
X167144700Y-87832220D01*
X167301341Y-87855993D01*
X167490835Y-87803972D01*
X167666539Y-87715982D01*
X167821701Y-87595405D01*
X167950358Y-87446874D01*
X168047566Y-87276097D01*
X168109589Y-87089637D01*
X168119993Y-87037341D01*
X168096216Y-86880700D01*
X167144700Y-86880700D01*
X167119300Y-86880700D01*
X166167784Y-86880700D01*
X166144007Y-87037341D01*
X165580354Y-87037341D01*
X165594400Y-86966728D01*
X165594400Y-86769272D01*
X165580355Y-86698659D01*
X166144007Y-86698659D01*
X166167784Y-86855300D01*
X167119300Y-86855300D01*
X167119300Y-85903780D01*
X167144700Y-85903780D01*
X167144700Y-86855300D01*
X168096216Y-86855300D01*
X168119993Y-86698659D01*
X168109589Y-86646363D01*
X168047566Y-86459903D01*
X167950358Y-86289126D01*
X167821701Y-86140595D01*
X167666539Y-86020018D01*
X167490835Y-85932028D01*
X167301341Y-85880007D01*
X167144700Y-85903780D01*
X167119300Y-85903780D01*
X166962659Y-85880007D01*
X166773165Y-85932028D01*
X166597461Y-86020018D01*
X166442299Y-86140595D01*
X166313642Y-86289126D01*
X166216434Y-86459903D01*
X166154411Y-86646363D01*
X166144007Y-86698659D01*
X165580355Y-86698659D01*
X165555878Y-86575611D01*
X165480315Y-86393186D01*
X165370615Y-86229007D01*
X165230993Y-86089385D01*
X165066814Y-85979685D01*
X164884389Y-85904122D01*
X164690728Y-85865600D01*
X164493272Y-85865600D01*
X164299611Y-85904122D01*
X164117186Y-85979685D01*
X163953007Y-86089385D01*
X163813385Y-86229007D01*
X163703685Y-86393186D01*
X163628122Y-86575611D01*
X163610381Y-86664800D01*
X161757171Y-86664800D01*
X161747200Y-86663818D01*
X161737229Y-86664800D01*
X161737219Y-86664800D01*
X161707366Y-86667740D01*
X161677978Y-86676656D01*
X161669062Y-86679360D01*
X161633761Y-86698228D01*
X161610573Y-86717259D01*
X161602821Y-86723621D01*
X161596459Y-86731373D01*
X159883374Y-88444459D01*
X159875622Y-88450821D01*
X159869260Y-88458573D01*
X159869259Y-88458574D01*
X159850228Y-88481762D01*
X159831361Y-88517063D01*
X159819741Y-88555366D01*
X159815818Y-88595200D01*
X159816801Y-88605181D01*
X159816800Y-90111232D01*
X157091033Y-92837000D01*
X152941368Y-92837000D01*
X152575985Y-92471618D01*
X152569619Y-92463861D01*
X152538678Y-92438468D01*
X152503377Y-92419600D01*
X152465074Y-92407980D01*
X152435221Y-92405040D01*
X152435211Y-92405040D01*
X152425240Y-92404058D01*
X152415269Y-92405040D01*
X152231271Y-92405040D01*
X152228674Y-92378671D01*
X152216403Y-92338219D01*
X152211475Y-92329000D01*
X152900033Y-92329000D01*
X153138259Y-92567227D01*
X153144621Y-92574979D01*
X153175562Y-92600372D01*
X153210863Y-92619240D01*
X153249166Y-92630860D01*
X153279019Y-92633800D01*
X153279028Y-92633800D01*
X153288999Y-92634782D01*
X153298970Y-92633800D01*
X156809629Y-92633800D01*
X156819600Y-92634782D01*
X156829571Y-92633800D01*
X156829581Y-92633800D01*
X156859434Y-92630860D01*
X156897737Y-92619240D01*
X156933038Y-92600372D01*
X156963979Y-92574979D01*
X156970346Y-92567221D01*
X159420028Y-90117540D01*
X159427779Y-90111179D01*
X159453172Y-90080238D01*
X159472040Y-90044937D01*
X159483660Y-90006634D01*
X159486600Y-89976781D01*
X159486600Y-89976772D01*
X159487582Y-89966801D01*
X159486600Y-89956830D01*
X159486600Y-87079167D01*
X162034569Y-84531200D01*
X163610381Y-84531200D01*
X163628122Y-84620389D01*
X163703685Y-84802814D01*
X163813385Y-84966993D01*
X163953007Y-85106615D01*
X164117186Y-85216315D01*
X164299611Y-85291878D01*
X164493272Y-85330400D01*
X164690728Y-85330400D01*
X164884389Y-85291878D01*
X165066814Y-85216315D01*
X165230993Y-85106615D01*
X165370615Y-84966993D01*
X165480315Y-84802814D01*
X165555878Y-84620389D01*
X165580354Y-84497341D01*
X166144007Y-84497341D01*
X166154411Y-84549637D01*
X166216434Y-84736097D01*
X166313642Y-84906874D01*
X166442299Y-85055405D01*
X166597461Y-85175982D01*
X166773165Y-85263972D01*
X166962659Y-85315993D01*
X167119300Y-85292220D01*
X167119300Y-84340700D01*
X167144700Y-84340700D01*
X167144700Y-85292220D01*
X167301341Y-85315993D01*
X167490835Y-85263972D01*
X167666539Y-85175982D01*
X167821701Y-85055405D01*
X167950358Y-84906874D01*
X168047566Y-84736097D01*
X168109589Y-84549637D01*
X168119993Y-84497341D01*
X168096216Y-84340700D01*
X167144700Y-84340700D01*
X167119300Y-84340700D01*
X166167784Y-84340700D01*
X166144007Y-84497341D01*
X165580354Y-84497341D01*
X165594400Y-84426728D01*
X165594400Y-84229272D01*
X165580355Y-84158659D01*
X166144007Y-84158659D01*
X166167784Y-84315300D01*
X167119300Y-84315300D01*
X167119300Y-83363780D01*
X167144700Y-83363780D01*
X167144700Y-84315300D01*
X168096216Y-84315300D01*
X168119993Y-84158659D01*
X168109589Y-84106363D01*
X168047566Y-83919903D01*
X167950358Y-83749126D01*
X167821701Y-83600595D01*
X167666539Y-83480018D01*
X167490835Y-83392028D01*
X167301341Y-83340007D01*
X167144700Y-83363780D01*
X167119300Y-83363780D01*
X166962659Y-83340007D01*
X166773165Y-83392028D01*
X166597461Y-83480018D01*
X166442299Y-83600595D01*
X166313642Y-83749126D01*
X166216434Y-83919903D01*
X166154411Y-84106363D01*
X166144007Y-84158659D01*
X165580355Y-84158659D01*
X165555878Y-84035611D01*
X165480315Y-83853186D01*
X165370615Y-83689007D01*
X165230993Y-83549385D01*
X165066814Y-83439685D01*
X164884389Y-83364122D01*
X164690728Y-83325600D01*
X164493272Y-83325600D01*
X164299611Y-83364122D01*
X164117186Y-83439685D01*
X163953007Y-83549385D01*
X163813385Y-83689007D01*
X163703685Y-83853186D01*
X163628122Y-84035611D01*
X163610381Y-84124800D01*
X161960381Y-84124800D01*
X161950400Y-84123817D01*
X161910566Y-84127740D01*
X161872262Y-84139360D01*
X161836961Y-84158228D01*
X161813773Y-84177258D01*
X161813767Y-84177264D01*
X161806021Y-84183621D01*
X161799664Y-84191367D01*
X159146774Y-86844259D01*
X159139022Y-86850621D01*
X159132660Y-86858373D01*
X159132659Y-86858374D01*
X159113628Y-86881562D01*
X159094761Y-86916863D01*
X159083141Y-86955166D01*
X159079218Y-86995000D01*
X159080201Y-87004981D01*
X159080200Y-89882632D01*
X156735433Y-92227400D01*
X153373168Y-92227400D01*
X153169967Y-92024200D01*
X156327029Y-92024200D01*
X156337000Y-92025182D01*
X156346971Y-92024200D01*
X156346981Y-92024200D01*
X156376834Y-92021260D01*
X156415137Y-92009640D01*
X156450438Y-91990772D01*
X156481379Y-91965379D01*
X156487746Y-91957621D01*
X158378628Y-90066740D01*
X158386379Y-90060379D01*
X158397365Y-90046993D01*
X158411772Y-90029439D01*
X158430639Y-89994138D01*
X158430640Y-89994137D01*
X158442260Y-89955834D01*
X158445200Y-89925981D01*
X158445200Y-89925971D01*
X158446182Y-89916000D01*
X158445200Y-89906029D01*
X158445200Y-86164767D01*
X162618768Y-81991200D01*
X163588863Y-81991200D01*
X163588863Y-82638000D01*
X163591805Y-82667876D01*
X163600520Y-82696603D01*
X163614671Y-82723078D01*
X163633716Y-82746284D01*
X163656922Y-82765329D01*
X163683397Y-82779480D01*
X163712124Y-82788195D01*
X163742000Y-82791137D01*
X165442000Y-82791137D01*
X165471876Y-82788195D01*
X165500603Y-82779480D01*
X165527078Y-82765329D01*
X165550284Y-82746284D01*
X165569329Y-82723078D01*
X165583480Y-82696603D01*
X165592195Y-82667876D01*
X165595137Y-82638000D01*
X165595137Y-81957341D01*
X166144007Y-81957341D01*
X166154411Y-82009637D01*
X166216434Y-82196097D01*
X166313642Y-82366874D01*
X166442299Y-82515405D01*
X166597461Y-82635982D01*
X166773165Y-82723972D01*
X166962659Y-82775993D01*
X167119300Y-82752220D01*
X167119300Y-81800700D01*
X167144700Y-81800700D01*
X167144700Y-82752220D01*
X167301341Y-82775993D01*
X167490835Y-82723972D01*
X167666539Y-82635982D01*
X167821701Y-82515405D01*
X167950358Y-82366874D01*
X168047566Y-82196097D01*
X168109589Y-82009637D01*
X168119993Y-81957341D01*
X168096216Y-81800700D01*
X167144700Y-81800700D01*
X167119300Y-81800700D01*
X166167784Y-81800700D01*
X166144007Y-81957341D01*
X165595137Y-81957341D01*
X165595137Y-80938000D01*
X165592195Y-80908124D01*
X165583480Y-80879397D01*
X165569329Y-80852922D01*
X165550284Y-80829716D01*
X165541857Y-80822800D01*
X166879632Y-80822800D01*
X166773165Y-80852028D01*
G37*
X166773165Y-80852028D02*
X166597461Y-80940018D01*
X166442299Y-81060595D01*
X166313642Y-81209126D01*
X166216434Y-81379903D01*
X166154411Y-81566363D01*
X166144007Y-81618659D01*
X166167784Y-81775300D01*
X167119300Y-81775300D01*
X167119300Y-81755300D01*
X167144700Y-81755300D01*
X167144700Y-81775300D01*
X168096216Y-81775300D01*
X168119993Y-81618659D01*
X168109589Y-81566363D01*
X168047566Y-81379903D01*
X167950358Y-81209126D01*
X167821701Y-81060595D01*
X167666539Y-80940018D01*
X167490835Y-80852028D01*
X167384368Y-80822800D01*
X170129200Y-80822800D01*
X170129200Y-108788200D01*
X150520400Y-108788200D01*
X150520400Y-107288534D01*
X150565130Y-107270006D01*
X150721119Y-107165777D01*
X150853777Y-107033119D01*
X150958006Y-106877130D01*
X151029800Y-106703805D01*
X151052930Y-106587519D01*
X156795396Y-106587519D01*
X156805032Y-106635965D01*
X156863844Y-106813163D01*
X156956096Y-106975483D01*
X157078242Y-107116686D01*
X157225588Y-107231347D01*
X157392472Y-107315059D01*
X157572481Y-107364605D01*
X157721300Y-107340216D01*
X157721300Y-106438700D01*
X157746700Y-106438700D01*
X157746700Y-107340216D01*
X157895519Y-107364605D01*
X158075528Y-107315059D01*
X158242412Y-107231347D01*
X158389758Y-107116686D01*
X158511904Y-106975483D01*
X158604156Y-106813163D01*
X158662968Y-106635965D01*
X158672604Y-106587519D01*
X158648212Y-106438700D01*
X157746700Y-106438700D01*
X157721300Y-106438700D01*
X156819788Y-106438700D01*
X156795396Y-106587519D01*
X151052930Y-106587519D01*
X151066400Y-106519803D01*
X151066400Y-106332197D01*
X151052931Y-106264481D01*
X156795396Y-106264481D01*
X156819788Y-106413300D01*
X157721300Y-106413300D01*
X157721300Y-105511784D01*
X157746700Y-105511784D01*
X157746700Y-106413300D01*
X158648212Y-106413300D01*
X158672604Y-106264481D01*
X158662968Y-106216035D01*
X158604156Y-106038837D01*
X158511904Y-105876517D01*
X158389758Y-105735314D01*
X158242412Y-105620653D01*
X158075528Y-105536941D01*
X157895519Y-105487395D01*
X157746700Y-105511784D01*
X157721300Y-105511784D01*
X157572481Y-105487395D01*
X157392472Y-105536941D01*
X157225588Y-105620653D01*
X157078242Y-105735314D01*
X156956096Y-105876517D01*
X156863844Y-106038837D01*
X156805032Y-106216035D01*
X156795396Y-106264481D01*
X151052931Y-106264481D01*
X151029800Y-106148195D01*
X150958006Y-105974870D01*
X150853777Y-105818881D01*
X150721119Y-105686223D01*
X150565130Y-105581994D01*
X150393400Y-105510861D01*
X150393400Y-104839137D01*
X150914000Y-104839137D01*
X150943876Y-104836195D01*
X150972603Y-104827480D01*
X150999078Y-104813329D01*
X151022284Y-104794284D01*
X151041329Y-104771078D01*
X151055480Y-104744603D01*
X151064195Y-104715876D01*
X151067137Y-104686000D01*
X151067137Y-104047519D01*
X156795396Y-104047519D01*
X156805032Y-104095965D01*
X156863844Y-104273163D01*
X156956096Y-104435483D01*
X157078242Y-104576686D01*
X157225588Y-104691347D01*
X157392472Y-104775059D01*
X157572481Y-104824605D01*
X157721300Y-104800216D01*
X157721300Y-103898700D01*
X157746700Y-103898700D01*
X157746700Y-104800216D01*
X157895519Y-104824605D01*
X158075528Y-104775059D01*
X158242412Y-104691347D01*
X158389758Y-104576686D01*
X158511904Y-104435483D01*
X158604156Y-104273163D01*
X158662968Y-104095965D01*
X158672604Y-104047519D01*
X158648212Y-103898700D01*
X157746700Y-103898700D01*
X157721300Y-103898700D01*
X156819788Y-103898700D01*
X156795396Y-104047519D01*
X151067137Y-104047519D01*
X151067137Y-103724481D01*
X156795396Y-103724481D01*
X156819788Y-103873300D01*
X157721300Y-103873300D01*
X157721300Y-102971784D01*
X157746700Y-102971784D01*
X157746700Y-103873300D01*
X158648212Y-103873300D01*
X158672604Y-103724481D01*
X158662968Y-103676035D01*
X158604156Y-103498837D01*
X158511904Y-103336517D01*
X158389758Y-103195314D01*
X158242412Y-103080653D01*
X158075528Y-102996941D01*
X157895519Y-102947395D01*
X157746700Y-102971784D01*
X157721300Y-102971784D01*
X157572481Y-102947395D01*
X157392472Y-102996941D01*
X157225588Y-103080653D01*
X157078242Y-103195314D01*
X156956096Y-103336517D01*
X156863844Y-103498837D01*
X156805032Y-103676035D01*
X156795396Y-103724481D01*
X151067137Y-103724481D01*
X151067137Y-103086000D01*
X151064195Y-103056124D01*
X151055480Y-103027397D01*
X151041329Y-103000922D01*
X151022284Y-102977716D01*
X150999078Y-102958671D01*
X150972603Y-102944520D01*
X150943876Y-102935805D01*
X150914000Y-102932863D01*
X150452904Y-102932863D01*
X150758627Y-102627141D01*
X150766379Y-102620779D01*
X150791772Y-102589838D01*
X150810640Y-102554537D01*
X150822260Y-102516234D01*
X150825200Y-102486381D01*
X150825200Y-102486372D01*
X150826182Y-102476401D01*
X150825200Y-102466430D01*
X150825200Y-98813967D01*
X153011258Y-101000026D01*
X153017621Y-101007779D01*
X153048562Y-101033172D01*
X153083863Y-101052040D01*
X153122166Y-101063660D01*
X153152019Y-101066600D01*
X153152028Y-101066600D01*
X153161999Y-101067582D01*
X153171970Y-101066600D01*
X160723233Y-101066600D01*
X163754207Y-104097574D01*
X163703685Y-104173186D01*
X163628122Y-104355611D01*
X163589600Y-104549272D01*
X163589600Y-104746728D01*
X163628122Y-104940389D01*
X163703685Y-105122814D01*
X163813385Y-105286993D01*
X163953007Y-105426615D01*
X164117186Y-105536315D01*
X164299611Y-105611878D01*
X164493272Y-105650400D01*
X164690728Y-105650400D01*
X164884389Y-105611878D01*
X165066814Y-105536315D01*
X165230993Y-105426615D01*
X165370615Y-105286993D01*
X165480315Y-105122814D01*
X165555878Y-104940389D01*
X165580354Y-104817341D01*
X166144007Y-104817341D01*
X166154411Y-104869637D01*
X166216434Y-105056097D01*
X166313642Y-105226874D01*
X166442299Y-105375405D01*
X166597461Y-105495982D01*
X166773165Y-105583972D01*
X166962659Y-105635993D01*
X167119300Y-105612220D01*
X167119300Y-104660700D01*
X167144700Y-104660700D01*
X167144700Y-105612220D01*
X167301341Y-105635993D01*
X167490835Y-105583972D01*
X167666539Y-105495982D01*
X167821701Y-105375405D01*
X167950358Y-105226874D01*
X168047566Y-105056097D01*
X168109589Y-104869637D01*
X168119993Y-104817341D01*
X168096216Y-104660700D01*
X167144700Y-104660700D01*
X167119300Y-104660700D01*
X166167784Y-104660700D01*
X166144007Y-104817341D01*
X165580354Y-104817341D01*
X165594400Y-104746728D01*
X165594400Y-104549272D01*
X165580355Y-104478659D01*
X166144007Y-104478659D01*
X166167784Y-104635300D01*
X167119300Y-104635300D01*
X167119300Y-103683780D01*
X167144700Y-103683780D01*
X167144700Y-104635300D01*
X168096216Y-104635300D01*
X168119993Y-104478659D01*
X168109589Y-104426363D01*
X168047566Y-104239903D01*
X167950358Y-104069126D01*
X167821701Y-103920595D01*
X167666539Y-103800018D01*
X167490835Y-103712028D01*
X167301341Y-103660007D01*
X167144700Y-103683780D01*
X167119300Y-103683780D01*
X166962659Y-103660007D01*
X166773165Y-103712028D01*
X166597461Y-103800018D01*
X166442299Y-103920595D01*
X166313642Y-104069126D01*
X166216434Y-104239903D01*
X166154411Y-104426363D01*
X166144007Y-104478659D01*
X165580355Y-104478659D01*
X165555878Y-104355611D01*
X165480315Y-104173186D01*
X165370615Y-104009007D01*
X165230993Y-103869385D01*
X165066814Y-103759685D01*
X164884389Y-103684122D01*
X164690728Y-103645600D01*
X164493272Y-103645600D01*
X164299611Y-103684122D01*
X164117186Y-103759685D01*
X164041574Y-103810207D01*
X160958146Y-100726779D01*
X160951779Y-100719021D01*
X160920838Y-100693628D01*
X160885537Y-100674760D01*
X160847234Y-100663140D01*
X160817381Y-100660200D01*
X160817371Y-100660200D01*
X160807400Y-100659218D01*
X160797429Y-100660200D01*
X153246168Y-100660200D01*
X151104600Y-98518633D01*
X151104600Y-97035967D01*
X153951058Y-99882426D01*
X153957421Y-99890179D01*
X153965173Y-99896541D01*
X153988361Y-99915572D01*
X154007229Y-99925656D01*
X154023663Y-99934440D01*
X154061966Y-99946060D01*
X154091819Y-99949000D01*
X154091829Y-99949000D01*
X154101800Y-99949982D01*
X154111771Y-99949000D01*
X162145633Y-99949000D01*
X163754207Y-101557574D01*
X163703685Y-101633186D01*
X163628122Y-101815611D01*
X163589600Y-102009272D01*
X163589600Y-102206728D01*
X163628122Y-102400389D01*
X163703685Y-102582814D01*
X163813385Y-102746993D01*
X163953007Y-102886615D01*
X164117186Y-102996315D01*
X164299611Y-103071878D01*
X164493272Y-103110400D01*
X164690728Y-103110400D01*
X164884389Y-103071878D01*
X165066814Y-102996315D01*
X165230993Y-102886615D01*
X165370615Y-102746993D01*
X165480315Y-102582814D01*
X165555878Y-102400389D01*
X165580354Y-102277341D01*
X166144007Y-102277341D01*
X166154411Y-102329637D01*
X166216434Y-102516097D01*
X166313642Y-102686874D01*
X166442299Y-102835405D01*
X166597461Y-102955982D01*
X166773165Y-103043972D01*
X166962659Y-103095993D01*
X167119300Y-103072220D01*
X167119300Y-102120700D01*
X167144700Y-102120700D01*
X167144700Y-103072220D01*
X167301341Y-103095993D01*
X167490835Y-103043972D01*
X167666539Y-102955982D01*
X167821701Y-102835405D01*
X167950358Y-102686874D01*
X168047566Y-102516097D01*
X168109589Y-102329637D01*
X168119993Y-102277341D01*
X168096216Y-102120700D01*
X167144700Y-102120700D01*
X167119300Y-102120700D01*
X166167784Y-102120700D01*
X166144007Y-102277341D01*
X165580354Y-102277341D01*
X165594400Y-102206728D01*
X165594400Y-102009272D01*
X165580355Y-101938659D01*
X166144007Y-101938659D01*
X166167784Y-102095300D01*
X167119300Y-102095300D01*
X167119300Y-101143780D01*
X167144700Y-101143780D01*
X167144700Y-102095300D01*
X168096216Y-102095300D01*
X168119993Y-101938659D01*
X168109589Y-101886363D01*
X168047566Y-101699903D01*
X167950358Y-101529126D01*
X167821701Y-101380595D01*
X167666539Y-101260018D01*
X167490835Y-101172028D01*
X167301341Y-101120007D01*
X167144700Y-101143780D01*
X167119300Y-101143780D01*
X166962659Y-101120007D01*
X166773165Y-101172028D01*
X166597461Y-101260018D01*
X166442299Y-101380595D01*
X166313642Y-101529126D01*
X166216434Y-101699903D01*
X166154411Y-101886363D01*
X166144007Y-101938659D01*
X165580355Y-101938659D01*
X165555878Y-101815611D01*
X165480315Y-101633186D01*
X165370615Y-101469007D01*
X165230993Y-101329385D01*
X165066814Y-101219685D01*
X164884389Y-101144122D01*
X164690728Y-101105600D01*
X164493272Y-101105600D01*
X164299611Y-101144122D01*
X164117186Y-101219685D01*
X164041574Y-101270207D01*
X162380546Y-99609179D01*
X162374179Y-99601421D01*
X162343238Y-99576028D01*
X162307937Y-99557160D01*
X162269634Y-99545540D01*
X162239781Y-99542600D01*
X162239771Y-99542600D01*
X162229800Y-99541618D01*
X162219829Y-99542600D01*
X154185968Y-99542600D01*
X153617140Y-98973772D01*
X153918776Y-98973772D01*
X153918776Y-99027654D01*
X154191693Y-99301613D01*
X154214899Y-99320658D01*
X154241375Y-99334809D01*
X154270102Y-99343523D01*
X154299977Y-99346466D01*
X154329853Y-99343523D01*
X154358580Y-99334809D01*
X154385056Y-99320658D01*
X154408262Y-99301613D01*
X154707695Y-99001137D01*
X154707695Y-98947256D01*
X154326494Y-98566055D01*
X153918776Y-98973772D01*
X153617140Y-98973772D01*
X153217979Y-98574611D01*
X153528122Y-98574611D01*
X153531065Y-98604486D01*
X153539779Y-98633213D01*
X153553930Y-98659689D01*
X153572975Y-98682895D01*
X153846934Y-98955812D01*
X153900816Y-98955812D01*
X154308533Y-98548094D01*
X154344455Y-98548094D01*
X154725656Y-98929295D01*
X154779537Y-98929295D01*
X155080013Y-98629862D01*
X155099058Y-98606656D01*
X155113209Y-98580180D01*
X155121923Y-98551453D01*
X155124866Y-98521577D01*
X155121923Y-98491702D01*
X155113209Y-98462975D01*
X155099058Y-98436499D01*
X155080013Y-98413293D01*
X154806054Y-98140376D01*
X154752172Y-98140376D01*
X154344455Y-98548094D01*
X154308533Y-98548094D01*
X153927332Y-98166893D01*
X153873451Y-98166893D01*
X153572975Y-98466326D01*
X153553930Y-98489532D01*
X153539779Y-98516008D01*
X153531065Y-98544735D01*
X153528122Y-98574611D01*
X153217979Y-98574611D01*
X150904744Y-96261377D01*
X151017180Y-96261377D01*
X151059249Y-96257234D01*
X151099701Y-96244963D01*
X151136981Y-96225036D01*
X151169658Y-96198218D01*
X151196476Y-96165541D01*
X151216403Y-96128261D01*
X151228674Y-96087809D01*
X151232817Y-96045740D01*
X151232817Y-95873940D01*
X151364973Y-95873940D01*
X152651473Y-97160440D01*
X152613960Y-97197953D01*
X152567711Y-97254308D01*
X152533345Y-97318602D01*
X152512183Y-97388365D01*
X152505037Y-97460917D01*
X152512183Y-97533469D01*
X152533345Y-97603232D01*
X152567711Y-97667526D01*
X152613960Y-97723881D01*
X152923319Y-98033240D01*
X152979674Y-98079489D01*
X153043968Y-98113855D01*
X153113731Y-98135017D01*
X153186283Y-98142163D01*
X153258835Y-98135017D01*
X153328598Y-98113855D01*
X153363777Y-98095051D01*
X153945293Y-98095051D01*
X153945293Y-98148932D01*
X154326494Y-98530133D01*
X154734212Y-98122416D01*
X154734212Y-98068534D01*
X154461295Y-97794575D01*
X154438089Y-97775530D01*
X154411613Y-97761379D01*
X154382886Y-97752665D01*
X154353011Y-97749722D01*
X154323135Y-97752665D01*
X154294408Y-97761379D01*
X154267932Y-97775530D01*
X154244726Y-97794575D01*
X153945293Y-98095051D01*
X153363777Y-98095051D01*
X153392892Y-98079489D01*
X153449247Y-98033240D01*
X153811640Y-97670847D01*
X153857889Y-97614492D01*
X153892255Y-97550198D01*
X153913417Y-97480435D01*
X153920563Y-97407883D01*
X153913417Y-97335331D01*
X153892255Y-97265568D01*
X153857889Y-97201274D01*
X153811640Y-97144919D01*
X153502281Y-96835560D01*
X153445926Y-96789311D01*
X153381632Y-96754945D01*
X153311869Y-96733783D01*
X153239317Y-96726637D01*
X153166765Y-96733783D01*
X153097002Y-96754945D01*
X153032708Y-96789311D01*
X152976353Y-96835560D01*
X152938840Y-96873073D01*
X151599886Y-95534119D01*
X151593519Y-95526361D01*
X151562578Y-95500968D01*
X151527277Y-95482100D01*
X151488974Y-95470480D01*
X151459121Y-95467540D01*
X151459111Y-95467540D01*
X151449140Y-95466558D01*
X151439169Y-95467540D01*
X151232817Y-95467540D01*
X151232817Y-95295740D01*
X151229063Y-95257623D01*
X151267180Y-95261377D01*
X151507950Y-95261377D01*
X152368140Y-96121568D01*
X152368140Y-96122569D01*
X152367158Y-96132540D01*
X152368140Y-96142511D01*
X152368140Y-96142521D01*
X152371080Y-96172374D01*
X152382700Y-96210677D01*
X152401568Y-96245978D01*
X152426962Y-96276919D01*
X152434714Y-96283281D01*
X152655658Y-96504226D01*
X152662021Y-96511979D01*
X152669773Y-96518341D01*
X152692961Y-96537372D01*
X152704880Y-96543742D01*
X152728263Y-96556240D01*
X152766566Y-96567860D01*
X152796419Y-96570800D01*
X152796428Y-96570800D01*
X152806399Y-96571782D01*
X152816370Y-96570800D01*
X153585833Y-96570800D01*
X154281258Y-97266226D01*
X154287621Y-97273979D01*
X154295373Y-97280341D01*
X154318561Y-97299372D01*
X154353862Y-97318240D01*
X154360947Y-97320389D01*
X154392166Y-97329860D01*
X154422019Y-97332800D01*
X154422029Y-97332800D01*
X154432000Y-97333782D01*
X154441971Y-97332800D01*
X162069433Y-97332800D01*
X163754207Y-99017574D01*
X163703685Y-99093186D01*
X163628122Y-99275611D01*
X163589600Y-99469272D01*
X163589600Y-99666728D01*
X163628122Y-99860389D01*
X163703685Y-100042814D01*
X163813385Y-100206993D01*
X163953007Y-100346615D01*
X164117186Y-100456315D01*
X164299611Y-100531878D01*
X164493272Y-100570400D01*
X164690728Y-100570400D01*
X164884389Y-100531878D01*
X165066814Y-100456315D01*
X165230993Y-100346615D01*
X165370615Y-100206993D01*
X165480315Y-100042814D01*
X165555878Y-99860389D01*
X165580354Y-99737341D01*
X166144007Y-99737341D01*
X166154411Y-99789637D01*
X166216434Y-99976097D01*
X166313642Y-100146874D01*
X166442299Y-100295405D01*
X166597461Y-100415982D01*
X166773165Y-100503972D01*
X166962659Y-100555993D01*
X167119300Y-100532220D01*
X167119300Y-99580700D01*
X167144700Y-99580700D01*
X167144700Y-100532220D01*
X167301341Y-100555993D01*
X167490835Y-100503972D01*
X167666539Y-100415982D01*
X167821701Y-100295405D01*
X167950358Y-100146874D01*
X168047566Y-99976097D01*
X168109589Y-99789637D01*
X168119993Y-99737341D01*
X168096216Y-99580700D01*
X167144700Y-99580700D01*
X167119300Y-99580700D01*
X166167784Y-99580700D01*
X166144007Y-99737341D01*
X165580354Y-99737341D01*
X165594400Y-99666728D01*
X165594400Y-99469272D01*
X165580355Y-99398659D01*
X166144007Y-99398659D01*
X166167784Y-99555300D01*
X167119300Y-99555300D01*
X167119300Y-98603780D01*
X167144700Y-98603780D01*
X167144700Y-99555300D01*
X168096216Y-99555300D01*
X168119993Y-99398659D01*
X168109589Y-99346363D01*
X168047566Y-99159903D01*
X167950358Y-98989126D01*
X167821701Y-98840595D01*
X167666539Y-98720018D01*
X167490835Y-98632028D01*
X167301341Y-98580007D01*
X167144700Y-98603780D01*
X167119300Y-98603780D01*
X166962659Y-98580007D01*
X166773165Y-98632028D01*
X166597461Y-98720018D01*
X166442299Y-98840595D01*
X166313642Y-98989126D01*
X166216434Y-99159903D01*
X166154411Y-99346363D01*
X166144007Y-99398659D01*
X165580355Y-99398659D01*
X165555878Y-99275611D01*
X165480315Y-99093186D01*
X165370615Y-98929007D01*
X165230993Y-98789385D01*
X165066814Y-98679685D01*
X164884389Y-98604122D01*
X164690728Y-98565600D01*
X164493272Y-98565600D01*
X164299611Y-98604122D01*
X164117186Y-98679685D01*
X164041574Y-98730207D01*
X162304346Y-96992979D01*
X162297979Y-96985221D01*
X162267038Y-96959828D01*
X162231737Y-96940960D01*
X162193434Y-96929340D01*
X162163581Y-96926400D01*
X162163571Y-96926400D01*
X162153600Y-96925418D01*
X162143629Y-96926400D01*
X154516168Y-96926400D01*
X153820745Y-96230978D01*
X153814379Y-96223221D01*
X153783438Y-96197828D01*
X153748137Y-96178960D01*
X153709834Y-96167340D01*
X153679981Y-96164400D01*
X153679971Y-96164400D01*
X153670000Y-96163418D01*
X153660029Y-96164400D01*
X152890568Y-96164400D01*
X152774540Y-96048373D01*
X152774540Y-96047371D01*
X152775522Y-96037400D01*
X152774540Y-96027429D01*
X152774540Y-96027419D01*
X152771600Y-95997566D01*
X152761043Y-95962768D01*
X152759980Y-95959262D01*
X152741112Y-95923961D01*
X152722081Y-95900773D01*
X152715719Y-95893021D01*
X152707968Y-95886660D01*
X152074051Y-95252744D01*
X152099701Y-95244963D01*
X152136981Y-95225036D01*
X152169658Y-95198218D01*
X152196476Y-95165541D01*
X152216403Y-95128261D01*
X152228674Y-95087809D01*
X152232817Y-95045740D01*
X152232817Y-94920740D01*
X152229195Y-94883962D01*
X153417658Y-96072426D01*
X153424021Y-96080179D01*
X153454962Y-96105572D01*
X153490263Y-96124440D01*
X153528566Y-96136060D01*
X153558419Y-96139000D01*
X153558428Y-96139000D01*
X153568399Y-96139982D01*
X153578370Y-96139000D01*
X159148794Y-96139000D01*
X159169962Y-96156372D01*
X159205263Y-96175240D01*
X159243566Y-96186860D01*
X159273419Y-96189800D01*
X159273428Y-96189800D01*
X159283399Y-96190782D01*
X159293370Y-96189800D01*
X163466433Y-96189800D01*
X163754207Y-96477574D01*
X163703685Y-96553186D01*
X163628122Y-96735611D01*
X163589600Y-96929272D01*
X163589600Y-97126728D01*
X163628122Y-97320389D01*
X163703685Y-97502814D01*
X163813385Y-97666993D01*
X163953007Y-97806615D01*
X164117186Y-97916315D01*
X164299611Y-97991878D01*
X164493272Y-98030400D01*
X164690728Y-98030400D01*
X164884389Y-97991878D01*
X165066814Y-97916315D01*
X165230993Y-97806615D01*
X165370615Y-97666993D01*
X165480315Y-97502814D01*
X165555878Y-97320389D01*
X165580354Y-97197341D01*
X166144007Y-97197341D01*
X166154411Y-97249637D01*
X166216434Y-97436097D01*
X166313642Y-97606874D01*
X166442299Y-97755405D01*
X166597461Y-97875982D01*
X166773165Y-97963972D01*
X166962659Y-98015993D01*
X167119300Y-97992220D01*
X167119300Y-97040700D01*
X167144700Y-97040700D01*
X167144700Y-97992220D01*
X167301341Y-98015993D01*
X167490835Y-97963972D01*
X167666539Y-97875982D01*
X167821701Y-97755405D01*
X167950358Y-97606874D01*
X168047566Y-97436097D01*
X168109589Y-97249637D01*
X168119993Y-97197341D01*
X168096216Y-97040700D01*
X167144700Y-97040700D01*
X167119300Y-97040700D01*
X166167784Y-97040700D01*
X166144007Y-97197341D01*
X165580354Y-97197341D01*
X165594400Y-97126728D01*
X165594400Y-96929272D01*
X165580355Y-96858659D01*
X166144007Y-96858659D01*
X166167784Y-97015300D01*
X167119300Y-97015300D01*
X167119300Y-96063780D01*
X167144700Y-96063780D01*
X167144700Y-97015300D01*
X168096216Y-97015300D01*
X168119993Y-96858659D01*
X168109589Y-96806363D01*
X168047566Y-96619903D01*
X167950358Y-96449126D01*
X167821701Y-96300595D01*
X167666539Y-96180018D01*
X167490835Y-96092028D01*
X167301341Y-96040007D01*
X167144700Y-96063780D01*
X167119300Y-96063780D01*
X166962659Y-96040007D01*
X166773165Y-96092028D01*
X166597461Y-96180018D01*
X166442299Y-96300595D01*
X166313642Y-96449126D01*
X166216434Y-96619903D01*
X166154411Y-96806363D01*
X166144007Y-96858659D01*
X165580355Y-96858659D01*
X165555878Y-96735611D01*
X165480315Y-96553186D01*
X165370615Y-96389007D01*
X165230993Y-96249385D01*
X165066814Y-96139685D01*
X164884389Y-96064122D01*
X164690728Y-96025600D01*
X164493272Y-96025600D01*
X164299611Y-96064122D01*
X164117186Y-96139685D01*
X164041574Y-96190207D01*
X163701345Y-95849978D01*
X163694979Y-95842221D01*
X163664038Y-95816828D01*
X163628737Y-95797960D01*
X163590434Y-95786340D01*
X163560581Y-95783400D01*
X163560571Y-95783400D01*
X163550600Y-95782418D01*
X163540629Y-95783400D01*
X159367206Y-95783400D01*
X159346038Y-95766028D01*
X159310737Y-95747160D01*
X159272434Y-95735540D01*
X159242581Y-95732600D01*
X159242571Y-95732600D01*
X159232600Y-95731618D01*
X159222629Y-95732600D01*
X153652568Y-95732600D01*
X153322368Y-95402400D01*
X163413619Y-95402400D01*
X163423600Y-95403383D01*
X163433581Y-95402400D01*
X163463434Y-95399460D01*
X163501737Y-95387840D01*
X163537038Y-95368972D01*
X163567979Y-95343579D01*
X163593372Y-95312638D01*
X163612240Y-95277337D01*
X163623860Y-95239034D01*
X163627783Y-95199200D01*
X163626800Y-95189219D01*
X163626800Y-94902367D01*
X163663461Y-94865706D01*
X163703685Y-94962814D01*
X163813385Y-95126993D01*
X163953007Y-95266615D01*
X164117186Y-95376315D01*
X164299611Y-95451878D01*
X164493272Y-95490400D01*
X164690728Y-95490400D01*
X164884389Y-95451878D01*
X165066814Y-95376315D01*
X165230993Y-95266615D01*
X165370615Y-95126993D01*
X165480315Y-94962814D01*
X165555878Y-94780389D01*
X165580354Y-94657341D01*
X166144007Y-94657341D01*
X166154411Y-94709637D01*
X166216434Y-94896097D01*
X166313642Y-95066874D01*
X166442299Y-95215405D01*
X166597461Y-95335982D01*
X166773165Y-95423972D01*
X166962659Y-95475993D01*
X167119300Y-95452220D01*
X167119300Y-94500700D01*
X167144700Y-94500700D01*
X167144700Y-95452220D01*
X167301341Y-95475993D01*
X167490835Y-95423972D01*
X167666539Y-95335982D01*
X167821701Y-95215405D01*
X167950358Y-95066874D01*
X168047566Y-94896097D01*
X168109589Y-94709637D01*
X168119993Y-94657341D01*
X168096216Y-94500700D01*
X167144700Y-94500700D01*
X167119300Y-94500700D01*
X166167784Y-94500700D01*
X166144007Y-94657341D01*
X165580354Y-94657341D01*
X165594400Y-94586728D01*
X165594400Y-94389272D01*
X165580355Y-94318659D01*
X166144007Y-94318659D01*
X166167784Y-94475300D01*
X167119300Y-94475300D01*
X167119300Y-93523780D01*
X167144700Y-93523780D01*
X167144700Y-94475300D01*
X168096216Y-94475300D01*
X168119993Y-94318659D01*
X168109589Y-94266363D01*
X168047566Y-94079903D01*
X167950358Y-93909126D01*
X167821701Y-93760595D01*
X167666539Y-93640018D01*
X167490835Y-93552028D01*
X167301341Y-93500007D01*
X167144700Y-93523780D01*
X167119300Y-93523780D01*
X166962659Y-93500007D01*
X166773165Y-93552028D01*
X166597461Y-93640018D01*
X166442299Y-93760595D01*
X166313642Y-93909126D01*
X166216434Y-94079903D01*
X166154411Y-94266363D01*
X166144007Y-94318659D01*
X165580355Y-94318659D01*
X165555878Y-94195611D01*
X165480315Y-94013186D01*
X165370615Y-93849007D01*
X165230993Y-93709385D01*
X165066814Y-93599685D01*
X164884389Y-93524122D01*
X164690728Y-93485600D01*
X164493272Y-93485600D01*
X164299611Y-93524122D01*
X164117186Y-93599685D01*
X163953007Y-93709385D01*
X163813385Y-93849007D01*
X163703685Y-94013186D01*
X163628122Y-94195611D01*
X163595669Y-94358763D01*
X163286978Y-94667455D01*
X163279221Y-94673821D01*
X163264959Y-94691200D01*
X163253828Y-94704762D01*
X163251223Y-94709637D01*
X163234960Y-94740064D01*
X163223340Y-94778367D01*
X163220400Y-94808220D01*
X163220400Y-94808229D01*
X163219418Y-94818200D01*
X163220400Y-94828172D01*
X163220400Y-94996000D01*
X153373168Y-94996000D01*
X153067702Y-94690535D01*
X153074459Y-94691200D01*
X153074468Y-94691200D01*
X153084439Y-94692182D01*
X153094410Y-94691200D01*
X158613029Y-94691200D01*
X158623000Y-94692182D01*
X158632971Y-94691200D01*
X158632981Y-94691200D01*
X158662834Y-94688260D01*
X158701137Y-94676640D01*
X158736438Y-94657772D01*
X158767379Y-94632379D01*
X158773746Y-94624621D01*
X161247168Y-92151200D01*
X163610381Y-92151200D01*
X163628122Y-92240389D01*
X163703685Y-92422814D01*
X163813385Y-92586993D01*
X163953007Y-92726615D01*
X164117186Y-92836315D01*
X164299611Y-92911878D01*
X164493272Y-92950400D01*
X164690728Y-92950400D01*
X164884389Y-92911878D01*
X165066814Y-92836315D01*
X165230993Y-92726615D01*
X165370615Y-92586993D01*
X165480315Y-92422814D01*
X165555878Y-92240389D01*
X165580354Y-92117341D01*
X166144007Y-92117341D01*
X166154411Y-92169637D01*
X166216434Y-92356097D01*
X166313642Y-92526874D01*
X166442299Y-92675405D01*
X166597461Y-92795982D01*
X166773165Y-92883972D01*
X166962659Y-92935993D01*
X167119300Y-92912220D01*
X167119300Y-91960700D01*
X167144700Y-91960700D01*
X167144700Y-92912220D01*
X167301341Y-92935993D01*
X167490835Y-92883972D01*
X167666539Y-92795982D01*
X167821701Y-92675405D01*
X167950358Y-92526874D01*
X168047566Y-92356097D01*
X168109589Y-92169637D01*
X168119993Y-92117341D01*
X168096216Y-91960700D01*
X167144700Y-91960700D01*
X167119300Y-91960700D01*
X166167784Y-91960700D01*
X166144007Y-92117341D01*
X165580354Y-92117341D01*
X165594400Y-92046728D01*
X165594400Y-91849272D01*
X165580355Y-91778659D01*
X166144007Y-91778659D01*
X166167784Y-91935300D01*
X167119300Y-91935300D01*
X167119300Y-90983780D01*
X167144700Y-90983780D01*
X167144700Y-91935300D01*
X168096216Y-91935300D01*
X168119993Y-91778659D01*
X168109589Y-91726363D01*
X168047566Y-91539903D01*
X167950358Y-91369126D01*
X167821701Y-91220595D01*
X167666539Y-91100018D01*
X167490835Y-91012028D01*
X167301341Y-90960007D01*
X167144700Y-90983780D01*
X167119300Y-90983780D01*
X166962659Y-90960007D01*
X166773165Y-91012028D01*
X166597461Y-91100018D01*
X166442299Y-91220595D01*
X166313642Y-91369126D01*
X166216434Y-91539903D01*
X166154411Y-91726363D01*
X166144007Y-91778659D01*
X165580355Y-91778659D01*
X165555878Y-91655611D01*
X165480315Y-91473186D01*
X165370615Y-91309007D01*
X165230993Y-91169385D01*
X165066814Y-91059685D01*
X164884389Y-90984122D01*
X164690728Y-90945600D01*
X164493272Y-90945600D01*
X164299611Y-90984122D01*
X164117186Y-91059685D01*
X163953007Y-91169385D01*
X163813385Y-91309007D01*
X163703685Y-91473186D01*
X163628122Y-91655611D01*
X163610381Y-91744800D01*
X161172970Y-91744800D01*
X161162999Y-91743818D01*
X161153028Y-91744800D01*
X161153019Y-91744800D01*
X161123166Y-91747740D01*
X161084863Y-91759360D01*
X161049562Y-91778228D01*
X161018621Y-91803621D01*
X161012259Y-91811373D01*
X158538833Y-94284800D01*
X153168608Y-94284800D01*
X152292837Y-93409030D01*
X152405263Y-93409030D01*
X152935063Y-93938832D01*
X152941421Y-93946579D01*
X152949167Y-93952936D01*
X152949173Y-93952942D01*
X152972362Y-93971972D01*
X153007662Y-93990840D01*
X153045966Y-94002460D01*
X153085800Y-94006383D01*
X153095781Y-94005400D01*
X158003429Y-94005400D01*
X158013400Y-94006382D01*
X158023371Y-94005400D01*
X158023381Y-94005400D01*
X158053234Y-94002460D01*
X158091537Y-93990840D01*
X158126838Y-93971972D01*
X158157779Y-93946579D01*
X158164146Y-93938821D01*
X162491768Y-89611200D01*
X163610381Y-89611200D01*
X163628122Y-89700389D01*
X163703685Y-89882814D01*
X163813385Y-90046993D01*
X163953007Y-90186615D01*
X164117186Y-90296315D01*
X164299611Y-90371878D01*
X164493272Y-90410400D01*
X164690728Y-90410400D01*
X164884389Y-90371878D01*
X165066814Y-90296315D01*
X165230993Y-90186615D01*
X165370615Y-90046993D01*
X165480315Y-89882814D01*
X165555878Y-89700389D01*
X165580354Y-89577341D01*
X166144007Y-89577341D01*
X166154411Y-89629637D01*
X166216434Y-89816097D01*
X166313642Y-89986874D01*
X166442299Y-90135405D01*
X166597461Y-90255982D01*
X166773165Y-90343972D01*
X166962659Y-90395993D01*
X167119300Y-90372220D01*
X167119300Y-89420700D01*
X167144700Y-89420700D01*
X167144700Y-90372220D01*
X167301341Y-90395993D01*
X167490835Y-90343972D01*
X167666539Y-90255982D01*
X167821701Y-90135405D01*
X167950358Y-89986874D01*
X168047566Y-89816097D01*
X168109589Y-89629637D01*
X168119993Y-89577341D01*
X168096216Y-89420700D01*
X167144700Y-89420700D01*
X167119300Y-89420700D01*
X166167784Y-89420700D01*
X166144007Y-89577341D01*
X165580354Y-89577341D01*
X165594400Y-89506728D01*
X165594400Y-89309272D01*
X165580355Y-89238659D01*
X166144007Y-89238659D01*
X166167784Y-89395300D01*
X167119300Y-89395300D01*
X167119300Y-88443780D01*
X167144700Y-88443780D01*
X167144700Y-89395300D01*
X168096216Y-89395300D01*
X168119993Y-89238659D01*
X168109589Y-89186363D01*
X168047566Y-88999903D01*
X167950358Y-88829126D01*
X167821701Y-88680595D01*
X167666539Y-88560018D01*
X167490835Y-88472028D01*
X167301341Y-88420007D01*
X167144700Y-88443780D01*
X167119300Y-88443780D01*
X166962659Y-88420007D01*
X166773165Y-88472028D01*
X166597461Y-88560018D01*
X166442299Y-88680595D01*
X166313642Y-88829126D01*
X166216434Y-88999903D01*
X166154411Y-89186363D01*
X166144007Y-89238659D01*
X165580355Y-89238659D01*
X165555878Y-89115611D01*
X165480315Y-88933186D01*
X165370615Y-88769007D01*
X165230993Y-88629385D01*
X165066814Y-88519685D01*
X164884389Y-88444122D01*
X164690728Y-88405600D01*
X164493272Y-88405600D01*
X164299611Y-88444122D01*
X164117186Y-88519685D01*
X163953007Y-88629385D01*
X163813385Y-88769007D01*
X163703685Y-88933186D01*
X163628122Y-89115611D01*
X163610381Y-89204800D01*
X162417570Y-89204800D01*
X162407599Y-89203818D01*
X162397628Y-89204800D01*
X162397619Y-89204800D01*
X162367766Y-89207740D01*
X162329463Y-89219360D01*
X162294162Y-89238228D01*
X162263221Y-89263621D01*
X162256859Y-89271373D01*
X157929233Y-93599000D01*
X153169969Y-93599000D01*
X152808842Y-93237874D01*
X152817366Y-93240460D01*
X152847219Y-93243400D01*
X152847229Y-93243400D01*
X152857200Y-93244382D01*
X152867171Y-93243400D01*
X157165229Y-93243400D01*
X157175200Y-93244382D01*
X157185171Y-93243400D01*
X157185181Y-93243400D01*
X157215034Y-93240460D01*
X157253337Y-93228840D01*
X157288638Y-93209972D01*
X157319579Y-93184579D01*
X157325946Y-93176821D01*
X160156628Y-90346140D01*
X160164379Y-90339779D01*
X160172675Y-90329671D01*
X160189772Y-90308839D01*
X160208640Y-90273538D01*
X160212887Y-90259538D01*
X160220260Y-90235234D01*
X160223200Y-90205381D01*
X160223200Y-90205371D01*
X160224182Y-90195400D01*
X160223200Y-90185429D01*
X160223200Y-88679367D01*
X161831368Y-87071200D01*
X163610381Y-87071200D01*
X163628122Y-87160389D01*
X163703685Y-87342814D01*
X163813385Y-87506993D01*
X163953007Y-87646615D01*
X164117186Y-87756315D01*
X164299611Y-87831878D01*
X164493272Y-87870400D01*
X164690728Y-87870400D01*
X164884389Y-87831878D01*
X165066814Y-87756315D01*
X165230993Y-87646615D01*
X165370615Y-87506993D01*
X165480315Y-87342814D01*
X165555878Y-87160389D01*
X165580354Y-87037341D01*
X166144007Y-87037341D01*
X166154411Y-87089637D01*
X166216434Y-87276097D01*
X166313642Y-87446874D01*
X166442299Y-87595405D01*
X166597461Y-87715982D01*
X166773165Y-87803972D01*
X166962659Y-87855993D01*
X167119300Y-87832220D01*
X167119300Y-86880700D01*
X167144700Y-86880700D01*
X167144700Y-87832220D01*
X167301341Y-87855993D01*
X167490835Y-87803972D01*
X167666539Y-87715982D01*
X167821701Y-87595405D01*
X167950358Y-87446874D01*
X168047566Y-87276097D01*
X168109589Y-87089637D01*
X168119993Y-87037341D01*
X168096216Y-86880700D01*
X167144700Y-86880700D01*
X167119300Y-86880700D01*
X166167784Y-86880700D01*
X166144007Y-87037341D01*
X165580354Y-87037341D01*
X165594400Y-86966728D01*
X165594400Y-86769272D01*
X165580355Y-86698659D01*
X166144007Y-86698659D01*
X166167784Y-86855300D01*
X167119300Y-86855300D01*
X167119300Y-85903780D01*
X167144700Y-85903780D01*
X167144700Y-86855300D01*
X168096216Y-86855300D01*
X168119993Y-86698659D01*
X168109589Y-86646363D01*
X168047566Y-86459903D01*
X167950358Y-86289126D01*
X167821701Y-86140595D01*
X167666539Y-86020018D01*
X167490835Y-85932028D01*
X167301341Y-85880007D01*
X167144700Y-85903780D01*
X167119300Y-85903780D01*
X166962659Y-85880007D01*
X166773165Y-85932028D01*
X166597461Y-86020018D01*
X166442299Y-86140595D01*
X166313642Y-86289126D01*
X166216434Y-86459903D01*
X166154411Y-86646363D01*
X166144007Y-86698659D01*
X165580355Y-86698659D01*
X165555878Y-86575611D01*
X165480315Y-86393186D01*
X165370615Y-86229007D01*
X165230993Y-86089385D01*
X165066814Y-85979685D01*
X164884389Y-85904122D01*
X164690728Y-85865600D01*
X164493272Y-85865600D01*
X164299611Y-85904122D01*
X164117186Y-85979685D01*
X163953007Y-86089385D01*
X163813385Y-86229007D01*
X163703685Y-86393186D01*
X163628122Y-86575611D01*
X163610381Y-86664800D01*
X161757171Y-86664800D01*
X161747200Y-86663818D01*
X161737229Y-86664800D01*
X161737219Y-86664800D01*
X161707366Y-86667740D01*
X161677978Y-86676656D01*
X161669062Y-86679360D01*
X161633761Y-86698228D01*
X161610573Y-86717259D01*
X161602821Y-86723621D01*
X161596459Y-86731373D01*
X159883374Y-88444459D01*
X159875622Y-88450821D01*
X159869260Y-88458573D01*
X159869259Y-88458574D01*
X159850228Y-88481762D01*
X159831361Y-88517063D01*
X159819741Y-88555366D01*
X159815818Y-88595200D01*
X159816801Y-88605181D01*
X159816800Y-90111232D01*
X157091033Y-92837000D01*
X152941368Y-92837000D01*
X152575985Y-92471618D01*
X152569619Y-92463861D01*
X152538678Y-92438468D01*
X152503377Y-92419600D01*
X152465074Y-92407980D01*
X152435221Y-92405040D01*
X152435211Y-92405040D01*
X152425240Y-92404058D01*
X152415269Y-92405040D01*
X152231271Y-92405040D01*
X152228674Y-92378671D01*
X152216403Y-92338219D01*
X152211475Y-92329000D01*
X152900033Y-92329000D01*
X153138259Y-92567227D01*
X153144621Y-92574979D01*
X153175562Y-92600372D01*
X153210863Y-92619240D01*
X153249166Y-92630860D01*
X153279019Y-92633800D01*
X153279028Y-92633800D01*
X153288999Y-92634782D01*
X153298970Y-92633800D01*
X156809629Y-92633800D01*
X156819600Y-92634782D01*
X156829571Y-92633800D01*
X156829581Y-92633800D01*
X156859434Y-92630860D01*
X156897737Y-92619240D01*
X156933038Y-92600372D01*
X156963979Y-92574979D01*
X156970346Y-92567221D01*
X159420028Y-90117540D01*
X159427779Y-90111179D01*
X159453172Y-90080238D01*
X159472040Y-90044937D01*
X159483660Y-90006634D01*
X159486600Y-89976781D01*
X159486600Y-89976772D01*
X159487582Y-89966801D01*
X159486600Y-89956830D01*
X159486600Y-87079167D01*
X162034569Y-84531200D01*
X163610381Y-84531200D01*
X163628122Y-84620389D01*
X163703685Y-84802814D01*
X163813385Y-84966993D01*
X163953007Y-85106615D01*
X164117186Y-85216315D01*
X164299611Y-85291878D01*
X164493272Y-85330400D01*
X164690728Y-85330400D01*
X164884389Y-85291878D01*
X165066814Y-85216315D01*
X165230993Y-85106615D01*
X165370615Y-84966993D01*
X165480315Y-84802814D01*
X165555878Y-84620389D01*
X165580354Y-84497341D01*
X166144007Y-84497341D01*
X166154411Y-84549637D01*
X166216434Y-84736097D01*
X166313642Y-84906874D01*
X166442299Y-85055405D01*
X166597461Y-85175982D01*
X166773165Y-85263972D01*
X166962659Y-85315993D01*
X167119300Y-85292220D01*
X167119300Y-84340700D01*
X167144700Y-84340700D01*
X167144700Y-85292220D01*
X167301341Y-85315993D01*
X167490835Y-85263972D01*
X167666539Y-85175982D01*
X167821701Y-85055405D01*
X167950358Y-84906874D01*
X168047566Y-84736097D01*
X168109589Y-84549637D01*
X168119993Y-84497341D01*
X168096216Y-84340700D01*
X167144700Y-84340700D01*
X167119300Y-84340700D01*
X166167784Y-84340700D01*
X166144007Y-84497341D01*
X165580354Y-84497341D01*
X165594400Y-84426728D01*
X165594400Y-84229272D01*
X165580355Y-84158659D01*
X166144007Y-84158659D01*
X166167784Y-84315300D01*
X167119300Y-84315300D01*
X167119300Y-83363780D01*
X167144700Y-83363780D01*
X167144700Y-84315300D01*
X168096216Y-84315300D01*
X168119993Y-84158659D01*
X168109589Y-84106363D01*
X168047566Y-83919903D01*
X167950358Y-83749126D01*
X167821701Y-83600595D01*
X167666539Y-83480018D01*
X167490835Y-83392028D01*
X167301341Y-83340007D01*
X167144700Y-83363780D01*
X167119300Y-83363780D01*
X166962659Y-83340007D01*
X166773165Y-83392028D01*
X166597461Y-83480018D01*
X166442299Y-83600595D01*
X166313642Y-83749126D01*
X166216434Y-83919903D01*
X166154411Y-84106363D01*
X166144007Y-84158659D01*
X165580355Y-84158659D01*
X165555878Y-84035611D01*
X165480315Y-83853186D01*
X165370615Y-83689007D01*
X165230993Y-83549385D01*
X165066814Y-83439685D01*
X164884389Y-83364122D01*
X164690728Y-83325600D01*
X164493272Y-83325600D01*
X164299611Y-83364122D01*
X164117186Y-83439685D01*
X163953007Y-83549385D01*
X163813385Y-83689007D01*
X163703685Y-83853186D01*
X163628122Y-84035611D01*
X163610381Y-84124800D01*
X161960381Y-84124800D01*
X161950400Y-84123817D01*
X161910566Y-84127740D01*
X161872262Y-84139360D01*
X161836961Y-84158228D01*
X161813773Y-84177258D01*
X161813767Y-84177264D01*
X161806021Y-84183621D01*
X161799664Y-84191367D01*
X159146774Y-86844259D01*
X159139022Y-86850621D01*
X159132660Y-86858373D01*
X159132659Y-86858374D01*
X159113628Y-86881562D01*
X159094761Y-86916863D01*
X159083141Y-86955166D01*
X159079218Y-86995000D01*
X159080201Y-87004981D01*
X159080200Y-89882632D01*
X156735433Y-92227400D01*
X153373168Y-92227400D01*
X153169967Y-92024200D01*
X156327029Y-92024200D01*
X156337000Y-92025182D01*
X156346971Y-92024200D01*
X156346981Y-92024200D01*
X156376834Y-92021260D01*
X156415137Y-92009640D01*
X156450438Y-91990772D01*
X156481379Y-91965379D01*
X156487746Y-91957621D01*
X158378628Y-90066740D01*
X158386379Y-90060379D01*
X158397365Y-90046993D01*
X158411772Y-90029439D01*
X158430639Y-89994138D01*
X158430640Y-89994137D01*
X158442260Y-89955834D01*
X158445200Y-89925981D01*
X158445200Y-89925971D01*
X158446182Y-89916000D01*
X158445200Y-89906029D01*
X158445200Y-86164767D01*
X162618768Y-81991200D01*
X163588863Y-81991200D01*
X163588863Y-82638000D01*
X163591805Y-82667876D01*
X163600520Y-82696603D01*
X163614671Y-82723078D01*
X163633716Y-82746284D01*
X163656922Y-82765329D01*
X163683397Y-82779480D01*
X163712124Y-82788195D01*
X163742000Y-82791137D01*
X165442000Y-82791137D01*
X165471876Y-82788195D01*
X165500603Y-82779480D01*
X165527078Y-82765329D01*
X165550284Y-82746284D01*
X165569329Y-82723078D01*
X165583480Y-82696603D01*
X165592195Y-82667876D01*
X165595137Y-82638000D01*
X165595137Y-81957341D01*
X166144007Y-81957341D01*
X166154411Y-82009637D01*
X166216434Y-82196097D01*
X166313642Y-82366874D01*
X166442299Y-82515405D01*
X166597461Y-82635982D01*
X166773165Y-82723972D01*
X166962659Y-82775993D01*
X167119300Y-82752220D01*
X167119300Y-81800700D01*
X167144700Y-81800700D01*
X167144700Y-82752220D01*
X167301341Y-82775993D01*
X167490835Y-82723972D01*
X167666539Y-82635982D01*
X167821701Y-82515405D01*
X167950358Y-82366874D01*
X168047566Y-82196097D01*
X168109589Y-82009637D01*
X168119993Y-81957341D01*
X168096216Y-81800700D01*
X167144700Y-81800700D01*
X167119300Y-81800700D01*
X166167784Y-81800700D01*
X166144007Y-81957341D01*
X165595137Y-81957341D01*
X165595137Y-80938000D01*
X165592195Y-80908124D01*
X165583480Y-80879397D01*
X165569329Y-80852922D01*
X165550284Y-80829716D01*
X165541857Y-80822800D01*
X166879632Y-80822800D01*
X166773165Y-80852028D01*
G36*
X150418800Y-97239168D02*
G01*
X150418801Y-102392231D01*
X150227780Y-102583253D01*
X150256877Y-99692931D01*
X150266603Y-99689980D01*
X150293078Y-99675829D01*
X150316284Y-99656784D01*
X150335329Y-99633578D01*
X150349480Y-99607103D01*
X150358195Y-99578376D01*
X150361137Y-99548500D01*
X150360400Y-99161800D01*
X150322300Y-99123700D01*
X150262608Y-99123700D01*
X150262863Y-99098300D01*
X150322300Y-99098300D01*
X150360400Y-99060200D01*
X150361137Y-98673500D01*
X150358195Y-98643624D01*
X150349480Y-98614897D01*
X150335329Y-98588422D01*
X150316284Y-98565216D01*
X150293078Y-98546171D01*
X150268554Y-98533063D01*
X150274009Y-97991157D01*
X150298463Y-97961359D01*
X150332829Y-97897065D01*
X150353991Y-97827302D01*
X150361137Y-97754750D01*
X150361137Y-97317250D01*
X150353991Y-97244698D01*
X150332829Y-97174935D01*
X150307867Y-97128234D01*
X150418800Y-97239168D01*
G37*
X150418800Y-97239168D02*
X150418801Y-102392231D01*
X150227780Y-102583253D01*
X150256877Y-99692931D01*
X150266603Y-99689980D01*
X150293078Y-99675829D01*
X150316284Y-99656784D01*
X150335329Y-99633578D01*
X150349480Y-99607103D01*
X150358195Y-99578376D01*
X150361137Y-99548500D01*
X150360400Y-99161800D01*
X150322300Y-99123700D01*
X150262608Y-99123700D01*
X150262863Y-99098300D01*
X150322300Y-99098300D01*
X150360400Y-99060200D01*
X150361137Y-98673500D01*
X150358195Y-98643624D01*
X150349480Y-98614897D01*
X150335329Y-98588422D01*
X150316284Y-98565216D01*
X150293078Y-98546171D01*
X150268554Y-98533063D01*
X150274009Y-97991157D01*
X150298463Y-97961359D01*
X150332829Y-97897065D01*
X150353991Y-97827302D01*
X150361137Y-97754750D01*
X150361137Y-97317250D01*
X150353991Y-97244698D01*
X150332829Y-97174935D01*
X150307867Y-97128234D01*
X150418800Y-97239168D01*
G36*
X163633716Y-80829716D02*
G01*
X163614671Y-80852922D01*
X163600520Y-80879397D01*
X163591805Y-80908124D01*
X163588863Y-80938000D01*
X163588863Y-81584800D01*
X162544570Y-81584800D01*
X162534599Y-81583818D01*
X162524628Y-81584800D01*
X162524619Y-81584800D01*
X162494766Y-81587740D01*
X162456463Y-81599360D01*
X162421162Y-81618228D01*
X162390221Y-81643621D01*
X162383859Y-81651373D01*
X158105374Y-85929859D01*
X158097622Y-85936221D01*
X158091260Y-85943973D01*
X158091259Y-85943974D01*
X158072228Y-85967162D01*
X158053361Y-86002463D01*
X158041741Y-86040766D01*
X158037818Y-86080600D01*
X158038801Y-86090581D01*
X158038800Y-89831832D01*
X156252833Y-91617800D01*
X153017568Y-91617800D01*
X152871385Y-91471618D01*
X152865019Y-91463861D01*
X152834078Y-91438468D01*
X152798777Y-91419600D01*
X152760474Y-91407980D01*
X152730621Y-91405040D01*
X152730611Y-91405040D01*
X152720640Y-91404058D01*
X152710669Y-91405040D01*
X152231271Y-91405040D01*
X152228674Y-91378671D01*
X152216403Y-91338219D01*
X152196476Y-91300939D01*
X152169658Y-91268262D01*
X152136981Y-91241444D01*
X152099701Y-91221517D01*
X152059249Y-91209246D01*
X152017180Y-91205103D01*
X151267180Y-91205103D01*
X151229063Y-91208857D01*
X151232817Y-91170740D01*
X151232817Y-90998940D01*
X152952363Y-90998940D01*
X152952363Y-91188250D01*
X152959509Y-91260802D01*
X152980671Y-91330565D01*
X153015037Y-91394859D01*
X153061286Y-91451214D01*
X153117641Y-91497463D01*
X153181935Y-91531829D01*
X153251698Y-91552991D01*
X153324250Y-91560137D01*
X153761750Y-91560137D01*
X153834302Y-91552991D01*
X153904065Y-91531829D01*
X153968359Y-91497463D01*
X154024714Y-91451214D01*
X154060999Y-91407000D01*
X154527363Y-91407000D01*
X154530305Y-91436876D01*
X154539020Y-91465603D01*
X154553171Y-91492078D01*
X154572216Y-91515284D01*
X154595422Y-91534329D01*
X154621897Y-91548480D01*
X154650624Y-91557195D01*
X154680500Y-91560137D01*
X155067200Y-91559400D01*
X155105300Y-91521300D01*
X155105300Y-90944700D01*
X155130700Y-90944700D01*
X155130700Y-91521300D01*
X155168800Y-91559400D01*
X155555500Y-91560137D01*
X155585376Y-91557195D01*
X155614103Y-91548480D01*
X155640578Y-91534329D01*
X155663784Y-91515284D01*
X155682829Y-91492078D01*
X155696980Y-91465603D01*
X155705695Y-91436876D01*
X155708637Y-91407000D01*
X155707900Y-90982800D01*
X155669800Y-90944700D01*
X155130700Y-90944700D01*
X155105300Y-90944700D01*
X154566200Y-90944700D01*
X154528100Y-90982800D01*
X154527363Y-91407000D01*
X154060999Y-91407000D01*
X154070963Y-91394859D01*
X154105329Y-91330565D01*
X154126491Y-91260802D01*
X154133637Y-91188250D01*
X154133637Y-90675750D01*
X154126491Y-90603198D01*
X154105329Y-90533435D01*
X154070963Y-90469141D01*
X154061000Y-90457000D01*
X154527363Y-90457000D01*
X154528100Y-90881200D01*
X154566200Y-90919300D01*
X155105300Y-90919300D01*
X155105300Y-90342700D01*
X155130700Y-90342700D01*
X155130700Y-90919300D01*
X155669800Y-90919300D01*
X155707900Y-90881200D01*
X155708637Y-90457000D01*
X155705695Y-90427124D01*
X155696980Y-90398397D01*
X155682829Y-90371922D01*
X155663784Y-90348716D01*
X155640578Y-90329671D01*
X155614103Y-90315520D01*
X155585376Y-90306805D01*
X155555500Y-90303863D01*
X155168800Y-90304600D01*
X155130700Y-90342700D01*
X155105300Y-90342700D01*
X155067200Y-90304600D01*
X154680500Y-90303863D01*
X154650624Y-90306805D01*
X154621897Y-90315520D01*
X154595422Y-90329671D01*
X154572216Y-90348716D01*
X154553171Y-90371922D01*
X154539020Y-90398397D01*
X154530305Y-90427124D01*
X154527363Y-90457000D01*
X154061000Y-90457000D01*
X154024714Y-90412786D01*
X153968359Y-90366537D01*
X153904065Y-90332171D01*
X153834302Y-90311009D01*
X153761750Y-90303863D01*
X153324250Y-90303863D01*
X153251698Y-90311009D01*
X153181935Y-90332171D01*
X153117641Y-90366537D01*
X153061286Y-90412786D01*
X153015037Y-90469141D01*
X152980671Y-90533435D01*
X152962742Y-90592540D01*
X151232817Y-90592540D01*
X151232817Y-90420740D01*
X151228674Y-90378671D01*
X151216403Y-90338219D01*
X151196476Y-90300939D01*
X151169658Y-90268262D01*
X151136981Y-90241444D01*
X151099701Y-90221517D01*
X151080627Y-90215731D01*
X151215259Y-90081100D01*
X152522129Y-90081100D01*
X152532100Y-90082082D01*
X152542071Y-90081100D01*
X152542081Y-90081100D01*
X152571934Y-90078160D01*
X152610237Y-90066540D01*
X152645538Y-90047672D01*
X152676479Y-90022279D01*
X152682845Y-90014522D01*
X152730567Y-89966800D01*
X157099000Y-89966800D01*
X157108911Y-89965824D01*
X157118440Y-89962933D01*
X157127223Y-89958239D01*
X157134921Y-89951921D01*
X157141239Y-89944223D01*
X157145933Y-89935440D01*
X157148824Y-89925911D01*
X157149800Y-89916000D01*
X157149800Y-86254722D01*
X162834369Y-80822800D01*
X163642143Y-80822800D01*
X163633716Y-80829716D01*
G37*
X163633716Y-80829716D02*
X163614671Y-80852922D01*
X163600520Y-80879397D01*
X163591805Y-80908124D01*
X163588863Y-80938000D01*
X163588863Y-81584800D01*
X162544570Y-81584800D01*
X162534599Y-81583818D01*
X162524628Y-81584800D01*
X162524619Y-81584800D01*
X162494766Y-81587740D01*
X162456463Y-81599360D01*
X162421162Y-81618228D01*
X162390221Y-81643621D01*
X162383859Y-81651373D01*
X158105374Y-85929859D01*
X158097622Y-85936221D01*
X158091260Y-85943973D01*
X158091259Y-85943974D01*
X158072228Y-85967162D01*
X158053361Y-86002463D01*
X158041741Y-86040766D01*
X158037818Y-86080600D01*
X158038801Y-86090581D01*
X158038800Y-89831832D01*
X156252833Y-91617800D01*
X153017568Y-91617800D01*
X152871385Y-91471618D01*
X152865019Y-91463861D01*
X152834078Y-91438468D01*
X152798777Y-91419600D01*
X152760474Y-91407980D01*
X152730621Y-91405040D01*
X152730611Y-91405040D01*
X152720640Y-91404058D01*
X152710669Y-91405040D01*
X152231271Y-91405040D01*
X152228674Y-91378671D01*
X152216403Y-91338219D01*
X152196476Y-91300939D01*
X152169658Y-91268262D01*
X152136981Y-91241444D01*
X152099701Y-91221517D01*
X152059249Y-91209246D01*
X152017180Y-91205103D01*
X151267180Y-91205103D01*
X151229063Y-91208857D01*
X151232817Y-91170740D01*
X151232817Y-90998940D01*
X152952363Y-90998940D01*
X152952363Y-91188250D01*
X152959509Y-91260802D01*
X152980671Y-91330565D01*
X153015037Y-91394859D01*
X153061286Y-91451214D01*
X153117641Y-91497463D01*
X153181935Y-91531829D01*
X153251698Y-91552991D01*
X153324250Y-91560137D01*
X153761750Y-91560137D01*
X153834302Y-91552991D01*
X153904065Y-91531829D01*
X153968359Y-91497463D01*
X154024714Y-91451214D01*
X154060999Y-91407000D01*
X154527363Y-91407000D01*
X154530305Y-91436876D01*
X154539020Y-91465603D01*
X154553171Y-91492078D01*
X154572216Y-91515284D01*
X154595422Y-91534329D01*
X154621897Y-91548480D01*
X154650624Y-91557195D01*
X154680500Y-91560137D01*
X155067200Y-91559400D01*
X155105300Y-91521300D01*
X155105300Y-90944700D01*
X155130700Y-90944700D01*
X155130700Y-91521300D01*
X155168800Y-91559400D01*
X155555500Y-91560137D01*
X155585376Y-91557195D01*
X155614103Y-91548480D01*
X155640578Y-91534329D01*
X155663784Y-91515284D01*
X155682829Y-91492078D01*
X155696980Y-91465603D01*
X155705695Y-91436876D01*
X155708637Y-91407000D01*
X155707900Y-90982800D01*
X155669800Y-90944700D01*
X155130700Y-90944700D01*
X155105300Y-90944700D01*
X154566200Y-90944700D01*
X154528100Y-90982800D01*
X154527363Y-91407000D01*
X154060999Y-91407000D01*
X154070963Y-91394859D01*
X154105329Y-91330565D01*
X154126491Y-91260802D01*
X154133637Y-91188250D01*
X154133637Y-90675750D01*
X154126491Y-90603198D01*
X154105329Y-90533435D01*
X154070963Y-90469141D01*
X154061000Y-90457000D01*
X154527363Y-90457000D01*
X154528100Y-90881200D01*
X154566200Y-90919300D01*
X155105300Y-90919300D01*
X155105300Y-90342700D01*
X155130700Y-90342700D01*
X155130700Y-90919300D01*
X155669800Y-90919300D01*
X155707900Y-90881200D01*
X155708637Y-90457000D01*
X155705695Y-90427124D01*
X155696980Y-90398397D01*
X155682829Y-90371922D01*
X155663784Y-90348716D01*
X155640578Y-90329671D01*
X155614103Y-90315520D01*
X155585376Y-90306805D01*
X155555500Y-90303863D01*
X155168800Y-90304600D01*
X155130700Y-90342700D01*
X155105300Y-90342700D01*
X155067200Y-90304600D01*
X154680500Y-90303863D01*
X154650624Y-90306805D01*
X154621897Y-90315520D01*
X154595422Y-90329671D01*
X154572216Y-90348716D01*
X154553171Y-90371922D01*
X154539020Y-90398397D01*
X154530305Y-90427124D01*
X154527363Y-90457000D01*
X154061000Y-90457000D01*
X154024714Y-90412786D01*
X153968359Y-90366537D01*
X153904065Y-90332171D01*
X153834302Y-90311009D01*
X153761750Y-90303863D01*
X153324250Y-90303863D01*
X153251698Y-90311009D01*
X153181935Y-90332171D01*
X153117641Y-90366537D01*
X153061286Y-90412786D01*
X153015037Y-90469141D01*
X152980671Y-90533435D01*
X152962742Y-90592540D01*
X151232817Y-90592540D01*
X151232817Y-90420740D01*
X151228674Y-90378671D01*
X151216403Y-90338219D01*
X151196476Y-90300939D01*
X151169658Y-90268262D01*
X151136981Y-90241444D01*
X151099701Y-90221517D01*
X151080627Y-90215731D01*
X151215259Y-90081100D01*
X152522129Y-90081100D01*
X152532100Y-90082082D01*
X152542071Y-90081100D01*
X152542081Y-90081100D01*
X152571934Y-90078160D01*
X152610237Y-90066540D01*
X152645538Y-90047672D01*
X152676479Y-90022279D01*
X152682845Y-90014522D01*
X152730567Y-89966800D01*
X157099000Y-89966800D01*
X157108911Y-89965824D01*
X157118440Y-89962933D01*
X157127223Y-89958239D01*
X157134921Y-89951921D01*
X157141239Y-89944223D01*
X157145933Y-89935440D01*
X157148824Y-89925911D01*
X157149800Y-89916000D01*
X157149800Y-86254722D01*
X162834369Y-80822800D01*
X163642143Y-80822800D01*
X163633716Y-80829716D01*
G36*
X125298200Y-91440000D02*
G01*
X125299176Y-91449911D01*
X125302067Y-91459440D01*
X125306761Y-91468223D01*
X125313079Y-91475921D01*
X125320777Y-91482239D01*
X125329560Y-91486933D01*
X125339089Y-91489824D01*
X125349000Y-91490800D01*
X136271000Y-91490800D01*
X136280911Y-91489824D01*
X136290440Y-91486933D01*
X136299223Y-91482239D01*
X136306921Y-91475921D01*
X136313239Y-91468223D01*
X136317933Y-91459440D01*
X136320824Y-91449911D01*
X136321800Y-91440000D01*
X136321800Y-87172800D01*
X136458727Y-87172800D01*
X136771889Y-87485962D01*
X136771888Y-92815170D01*
X136770011Y-92834226D01*
X136777505Y-92910309D01*
X136780428Y-92919945D01*
X136799697Y-92983467D01*
X136835736Y-93050891D01*
X136884236Y-93109990D01*
X136899041Y-93122140D01*
X136994518Y-93217617D01*
X137006431Y-93232184D01*
X137021468Y-93244567D01*
X137021700Y-93244799D01*
X137036077Y-93256598D01*
X137065447Y-93280784D01*
X137065741Y-93280942D01*
X137065996Y-93281151D01*
X137099243Y-93298922D01*
X137132810Y-93316937D01*
X137133129Y-93317034D01*
X137133420Y-93317190D01*
X137169828Y-93328235D01*
X137205931Y-93339253D01*
X137206257Y-93339286D01*
X137206578Y-93339383D01*
X137244545Y-93343123D01*
X137262949Y-93344967D01*
X137263275Y-93344968D01*
X137282661Y-93346877D01*
X137301391Y-93345032D01*
X137338835Y-93345096D01*
X137293358Y-93349575D01*
X137282778Y-93350617D01*
X137273815Y-93353336D01*
X137209620Y-93372809D01*
X137142196Y-93408848D01*
X137083098Y-93457348D01*
X137070944Y-93472158D01*
X136873642Y-93669459D01*
X136858836Y-93681610D01*
X136810336Y-93740709D01*
X136774297Y-93808133D01*
X136760002Y-93855257D01*
X136752105Y-93881291D01*
X136744611Y-93957374D01*
X136746488Y-93976430D01*
X136746489Y-98899237D01*
X136321800Y-99323926D01*
X136321800Y-94869000D01*
X136320824Y-94859089D01*
X136317933Y-94849560D01*
X136313239Y-94840777D01*
X136306921Y-94833079D01*
X136299223Y-94826761D01*
X136290440Y-94822067D01*
X136280911Y-94819176D01*
X136271000Y-94818200D01*
X125349000Y-94818200D01*
X125339089Y-94819176D01*
X125329560Y-94822067D01*
X125320777Y-94826761D01*
X125313079Y-94833079D01*
X125306761Y-94840777D01*
X125302067Y-94849560D01*
X125299176Y-94859089D01*
X125298200Y-94869000D01*
X125298200Y-105791000D01*
X125299176Y-105800911D01*
X125302067Y-105810440D01*
X125306761Y-105819223D01*
X125313079Y-105826921D01*
X125320777Y-105833239D01*
X125329560Y-105837933D01*
X125339089Y-105840824D01*
X125349000Y-105841800D01*
X136271000Y-105841800D01*
X136280911Y-105840824D01*
X136290440Y-105837933D01*
X136299223Y-105833239D01*
X136306921Y-105826921D01*
X136313239Y-105819223D01*
X136317933Y-105810440D01*
X136320824Y-105800911D01*
X136321800Y-105791000D01*
X136321800Y-100421673D01*
X137395564Y-99347910D01*
X137410364Y-99335764D01*
X137458864Y-99276666D01*
X137494903Y-99209242D01*
X137517095Y-99136083D01*
X137522712Y-99079056D01*
X137524589Y-99060001D01*
X137522712Y-99040944D01*
X137522712Y-96868000D01*
X142995363Y-96868000D01*
X142998305Y-96897876D01*
X143007020Y-96926603D01*
X143021171Y-96953078D01*
X143040216Y-96976284D01*
X143063422Y-96995329D01*
X143089897Y-97009480D01*
X143118624Y-97018195D01*
X143148500Y-97021137D01*
X143535200Y-97020400D01*
X143573300Y-96982300D01*
X143573300Y-96405700D01*
X143598700Y-96405700D01*
X143598700Y-96982300D01*
X143636800Y-97020400D01*
X144023500Y-97021137D01*
X144053376Y-97018195D01*
X144082103Y-97009480D01*
X144108578Y-96995329D01*
X144131784Y-96976284D01*
X144150829Y-96953078D01*
X144164980Y-96926603D01*
X144173695Y-96897876D01*
X144176637Y-96868000D01*
X144175900Y-96443800D01*
X144137800Y-96405700D01*
X143598700Y-96405700D01*
X143573300Y-96405700D01*
X143034200Y-96405700D01*
X142996100Y-96443800D01*
X142995363Y-96868000D01*
X137522712Y-96868000D01*
X137522712Y-95918000D01*
X142995363Y-95918000D01*
X142996100Y-96342200D01*
X143034200Y-96380300D01*
X143573300Y-96380300D01*
X143573300Y-95803700D01*
X143598700Y-95803700D01*
X143598700Y-96380300D01*
X144137800Y-96380300D01*
X144175900Y-96342200D01*
X144176637Y-95918000D01*
X144173695Y-95888124D01*
X144164980Y-95859397D01*
X144150829Y-95832922D01*
X144131784Y-95809716D01*
X144108578Y-95790671D01*
X144082103Y-95776520D01*
X144053376Y-95767805D01*
X144023500Y-95764863D01*
X143636800Y-95765600D01*
X143598700Y-95803700D01*
X143573300Y-95803700D01*
X143535200Y-95765600D01*
X143148500Y-95764863D01*
X143118624Y-95767805D01*
X143089897Y-95776520D01*
X143063422Y-95790671D01*
X143040216Y-95809716D01*
X143021171Y-95832922D01*
X143007020Y-95859397D01*
X142998305Y-95888124D01*
X142995363Y-95918000D01*
X137522712Y-95918000D01*
X137522712Y-95090000D01*
X143023016Y-95090000D01*
X143025958Y-95119876D01*
X143034673Y-95148603D01*
X143048824Y-95175078D01*
X143067869Y-95198284D01*
X143091075Y-95217329D01*
X143117550Y-95231480D01*
X143146277Y-95240195D01*
X143176153Y-95243137D01*
X143562853Y-95242400D01*
X143600953Y-95204300D01*
X143600953Y-94627700D01*
X143626353Y-94627700D01*
X143626353Y-95204300D01*
X143664453Y-95242400D01*
X144051153Y-95243137D01*
X144081029Y-95240195D01*
X144109756Y-95231480D01*
X144136231Y-95217329D01*
X144159437Y-95198284D01*
X144178482Y-95175078D01*
X144192633Y-95148603D01*
X144201348Y-95119876D01*
X144204290Y-95090000D01*
X144203553Y-94665800D01*
X144165453Y-94627700D01*
X143626353Y-94627700D01*
X143600953Y-94627700D01*
X143061853Y-94627700D01*
X143023753Y-94665800D01*
X143023016Y-95090000D01*
X137522712Y-95090000D01*
X137522712Y-94121224D01*
X139570779Y-94121224D01*
X139573470Y-94121720D01*
X139608817Y-94121224D01*
X139625300Y-94121224D01*
X139628038Y-94120954D01*
X139630767Y-94120916D01*
X139647021Y-94119085D01*
X139682327Y-94115607D01*
X139683833Y-94115150D01*
X139705376Y-94114243D01*
X139737225Y-94106503D01*
X139769298Y-94099654D01*
X139791886Y-94089924D01*
X139808591Y-94084079D01*
X139832328Y-94077599D01*
X139861672Y-94062957D01*
X139891387Y-94049157D01*
X139911245Y-94034645D01*
X139926245Y-94025220D01*
X139947933Y-94013627D01*
X139973283Y-93992823D01*
X139999190Y-93972750D01*
X140015314Y-93954190D01*
X140027840Y-93941664D01*
X140046404Y-93925536D01*
X140066483Y-93899621D01*
X140087281Y-93874278D01*
X140098873Y-93852590D01*
X140106765Y-93840031D01*
X140114657Y-93852591D01*
X140126250Y-93874279D01*
X140147054Y-93899629D01*
X140167127Y-93925536D01*
X140185687Y-93941660D01*
X140198213Y-93954186D01*
X140214341Y-93972750D01*
X140240256Y-93992829D01*
X140265599Y-94013627D01*
X140287287Y-94025219D01*
X140302286Y-94034644D01*
X140322144Y-94049157D01*
X140351876Y-94062965D01*
X140381203Y-94077599D01*
X140404933Y-94084077D01*
X140421653Y-94089927D01*
X140444234Y-94099654D01*
X140476304Y-94106502D01*
X140508155Y-94114243D01*
X140529699Y-94115150D01*
X140531205Y-94115607D01*
X140566511Y-94119085D01*
X140582765Y-94120916D01*
X140585494Y-94120954D01*
X140588232Y-94121224D01*
X140604715Y-94121224D01*
X140633164Y-94121623D01*
X140633164Y-94325950D01*
X140643497Y-94430867D01*
X140674101Y-94531752D01*
X140723797Y-94624728D01*
X140790678Y-94706222D01*
X140872172Y-94773103D01*
X140965148Y-94822799D01*
X141066033Y-94853403D01*
X141170950Y-94863736D01*
X141683450Y-94863736D01*
X141788367Y-94853403D01*
X141889252Y-94822799D01*
X141982228Y-94773103D01*
X142063722Y-94706222D01*
X142130603Y-94624728D01*
X142180299Y-94531752D01*
X142210903Y-94430867D01*
X142221236Y-94325950D01*
X142221236Y-94140000D01*
X143023016Y-94140000D01*
X143023753Y-94564200D01*
X143061853Y-94602300D01*
X143600953Y-94602300D01*
X143600953Y-94025700D01*
X143626353Y-94025700D01*
X143626353Y-94602300D01*
X144165453Y-94602300D01*
X144203553Y-94564200D01*
X144204290Y-94140000D01*
X144201348Y-94110124D01*
X144192633Y-94081397D01*
X144178482Y-94054922D01*
X144159437Y-94031716D01*
X144136231Y-94012671D01*
X144109756Y-93998520D01*
X144081029Y-93989805D01*
X144051153Y-93986863D01*
X143664453Y-93987600D01*
X143626353Y-94025700D01*
X143600953Y-94025700D01*
X143562853Y-93987600D01*
X143176153Y-93986863D01*
X143146277Y-93989805D01*
X143117550Y-93998520D01*
X143091075Y-94012671D01*
X143067869Y-94031716D01*
X143048824Y-94054922D01*
X143034673Y-94081397D01*
X143025958Y-94110124D01*
X143023016Y-94140000D01*
X142221236Y-94140000D01*
X142221236Y-93888450D01*
X142218520Y-93860874D01*
X144221200Y-93860874D01*
X144221200Y-100330000D01*
X144222176Y-100339911D01*
X144225067Y-100349440D01*
X144229761Y-100358223D01*
X144236079Y-100365921D01*
X144243777Y-100372239D01*
X144252560Y-100376933D01*
X144262089Y-100379824D01*
X144272000Y-100380800D01*
X150190200Y-100380800D01*
X150190200Y-102387345D01*
X149866363Y-102711183D01*
X149852313Y-102722714D01*
X149840783Y-102736763D01*
X149840779Y-102736767D01*
X149826981Y-102753580D01*
X149815997Y-102766964D01*
X149314000Y-102766964D01*
X149251759Y-102773094D01*
X149191910Y-102791249D01*
X149136753Y-102820731D01*
X149088407Y-102860407D01*
X149048731Y-102908753D01*
X149019249Y-102963910D01*
X149001094Y-103023759D01*
X148994964Y-103086000D01*
X148994964Y-104686000D01*
X149001094Y-104748241D01*
X149019249Y-104808090D01*
X149048731Y-104863247D01*
X149088407Y-104911593D01*
X149136753Y-104951269D01*
X149191910Y-104980751D01*
X149251759Y-104998906D01*
X149314000Y-105005036D01*
X149669500Y-105005036D01*
X149669500Y-105400544D01*
X149584665Y-105435684D01*
X149401635Y-105557981D01*
X149245981Y-105713635D01*
X149123684Y-105896665D01*
X149039445Y-106100037D01*
X148996500Y-106315936D01*
X148996500Y-106536064D01*
X149039445Y-106751963D01*
X149123684Y-106955335D01*
X149245981Y-107138365D01*
X149401635Y-107294019D01*
X149542500Y-107388142D01*
X149542501Y-109598933D01*
X149442381Y-109629304D01*
X149345083Y-109681311D01*
X149259800Y-109751300D01*
X149189811Y-109836583D01*
X149137804Y-109933881D01*
X149105778Y-110039456D01*
X149094964Y-110149250D01*
X149094964Y-110636750D01*
X149105778Y-110746544D01*
X149137804Y-110852119D01*
X149189811Y-110949417D01*
X149259800Y-111034700D01*
X149345083Y-111104689D01*
X149442381Y-111156696D01*
X149547956Y-111188722D01*
X149657750Y-111199536D01*
X150190200Y-111199536D01*
X150190200Y-111461464D01*
X149657750Y-111461464D01*
X149547956Y-111472278D01*
X149442381Y-111504304D01*
X149345083Y-111556311D01*
X149259800Y-111626300D01*
X149189811Y-111711583D01*
X149137804Y-111808881D01*
X149105778Y-111914456D01*
X149094964Y-112024250D01*
X149094964Y-112511750D01*
X149105778Y-112621544D01*
X149137804Y-112727119D01*
X149189811Y-112824417D01*
X149212612Y-112852200D01*
X123240800Y-112852200D01*
X123240800Y-87172800D01*
X125298200Y-87172800D01*
X125298200Y-91440000D01*
G37*
X125298200Y-91440000D02*
X125299176Y-91449911D01*
X125302067Y-91459440D01*
X125306761Y-91468223D01*
X125313079Y-91475921D01*
X125320777Y-91482239D01*
X125329560Y-91486933D01*
X125339089Y-91489824D01*
X125349000Y-91490800D01*
X136271000Y-91490800D01*
X136280911Y-91489824D01*
X136290440Y-91486933D01*
X136299223Y-91482239D01*
X136306921Y-91475921D01*
X136313239Y-91468223D01*
X136317933Y-91459440D01*
X136320824Y-91449911D01*
X136321800Y-91440000D01*
X136321800Y-87172800D01*
X136458727Y-87172800D01*
X136771889Y-87485962D01*
X136771888Y-92815170D01*
X136770011Y-92834226D01*
X136777505Y-92910309D01*
X136780428Y-92919945D01*
X136799697Y-92983467D01*
X136835736Y-93050891D01*
X136884236Y-93109990D01*
X136899041Y-93122140D01*
X136994518Y-93217617D01*
X137006431Y-93232184D01*
X137021468Y-93244567D01*
X137021700Y-93244799D01*
X137036077Y-93256598D01*
X137065447Y-93280784D01*
X137065741Y-93280942D01*
X137065996Y-93281151D01*
X137099243Y-93298922D01*
X137132810Y-93316937D01*
X137133129Y-93317034D01*
X137133420Y-93317190D01*
X137169828Y-93328235D01*
X137205931Y-93339253D01*
X137206257Y-93339286D01*
X137206578Y-93339383D01*
X137244545Y-93343123D01*
X137262949Y-93344967D01*
X137263275Y-93344968D01*
X137282661Y-93346877D01*
X137301391Y-93345032D01*
X137338835Y-93345096D01*
X137293358Y-93349575D01*
X137282778Y-93350617D01*
X137273815Y-93353336D01*
X137209620Y-93372809D01*
X137142196Y-93408848D01*
X137083098Y-93457348D01*
X137070944Y-93472158D01*
X136873642Y-93669459D01*
X136858836Y-93681610D01*
X136810336Y-93740709D01*
X136774297Y-93808133D01*
X136760002Y-93855257D01*
X136752105Y-93881291D01*
X136744611Y-93957374D01*
X136746488Y-93976430D01*
X136746489Y-98899237D01*
X136321800Y-99323926D01*
X136321800Y-94869000D01*
X136320824Y-94859089D01*
X136317933Y-94849560D01*
X136313239Y-94840777D01*
X136306921Y-94833079D01*
X136299223Y-94826761D01*
X136290440Y-94822067D01*
X136280911Y-94819176D01*
X136271000Y-94818200D01*
X125349000Y-94818200D01*
X125339089Y-94819176D01*
X125329560Y-94822067D01*
X125320777Y-94826761D01*
X125313079Y-94833079D01*
X125306761Y-94840777D01*
X125302067Y-94849560D01*
X125299176Y-94859089D01*
X125298200Y-94869000D01*
X125298200Y-105791000D01*
X125299176Y-105800911D01*
X125302067Y-105810440D01*
X125306761Y-105819223D01*
X125313079Y-105826921D01*
X125320777Y-105833239D01*
X125329560Y-105837933D01*
X125339089Y-105840824D01*
X125349000Y-105841800D01*
X136271000Y-105841800D01*
X136280911Y-105840824D01*
X136290440Y-105837933D01*
X136299223Y-105833239D01*
X136306921Y-105826921D01*
X136313239Y-105819223D01*
X136317933Y-105810440D01*
X136320824Y-105800911D01*
X136321800Y-105791000D01*
X136321800Y-100421673D01*
X137395564Y-99347910D01*
X137410364Y-99335764D01*
X137458864Y-99276666D01*
X137494903Y-99209242D01*
X137517095Y-99136083D01*
X137522712Y-99079056D01*
X137524589Y-99060001D01*
X137522712Y-99040944D01*
X137522712Y-96868000D01*
X142995363Y-96868000D01*
X142998305Y-96897876D01*
X143007020Y-96926603D01*
X143021171Y-96953078D01*
X143040216Y-96976284D01*
X143063422Y-96995329D01*
X143089897Y-97009480D01*
X143118624Y-97018195D01*
X143148500Y-97021137D01*
X143535200Y-97020400D01*
X143573300Y-96982300D01*
X143573300Y-96405700D01*
X143598700Y-96405700D01*
X143598700Y-96982300D01*
X143636800Y-97020400D01*
X144023500Y-97021137D01*
X144053376Y-97018195D01*
X144082103Y-97009480D01*
X144108578Y-96995329D01*
X144131784Y-96976284D01*
X144150829Y-96953078D01*
X144164980Y-96926603D01*
X144173695Y-96897876D01*
X144176637Y-96868000D01*
X144175900Y-96443800D01*
X144137800Y-96405700D01*
X143598700Y-96405700D01*
X143573300Y-96405700D01*
X143034200Y-96405700D01*
X142996100Y-96443800D01*
X142995363Y-96868000D01*
X137522712Y-96868000D01*
X137522712Y-95918000D01*
X142995363Y-95918000D01*
X142996100Y-96342200D01*
X143034200Y-96380300D01*
X143573300Y-96380300D01*
X143573300Y-95803700D01*
X143598700Y-95803700D01*
X143598700Y-96380300D01*
X144137800Y-96380300D01*
X144175900Y-96342200D01*
X144176637Y-95918000D01*
X144173695Y-95888124D01*
X144164980Y-95859397D01*
X144150829Y-95832922D01*
X144131784Y-95809716D01*
X144108578Y-95790671D01*
X144082103Y-95776520D01*
X144053376Y-95767805D01*
X144023500Y-95764863D01*
X143636800Y-95765600D01*
X143598700Y-95803700D01*
X143573300Y-95803700D01*
X143535200Y-95765600D01*
X143148500Y-95764863D01*
X143118624Y-95767805D01*
X143089897Y-95776520D01*
X143063422Y-95790671D01*
X143040216Y-95809716D01*
X143021171Y-95832922D01*
X143007020Y-95859397D01*
X142998305Y-95888124D01*
X142995363Y-95918000D01*
X137522712Y-95918000D01*
X137522712Y-95090000D01*
X143023016Y-95090000D01*
X143025958Y-95119876D01*
X143034673Y-95148603D01*
X143048824Y-95175078D01*
X143067869Y-95198284D01*
X143091075Y-95217329D01*
X143117550Y-95231480D01*
X143146277Y-95240195D01*
X143176153Y-95243137D01*
X143562853Y-95242400D01*
X143600953Y-95204300D01*
X143600953Y-94627700D01*
X143626353Y-94627700D01*
X143626353Y-95204300D01*
X143664453Y-95242400D01*
X144051153Y-95243137D01*
X144081029Y-95240195D01*
X144109756Y-95231480D01*
X144136231Y-95217329D01*
X144159437Y-95198284D01*
X144178482Y-95175078D01*
X144192633Y-95148603D01*
X144201348Y-95119876D01*
X144204290Y-95090000D01*
X144203553Y-94665800D01*
X144165453Y-94627700D01*
X143626353Y-94627700D01*
X143600953Y-94627700D01*
X143061853Y-94627700D01*
X143023753Y-94665800D01*
X143023016Y-95090000D01*
X137522712Y-95090000D01*
X137522712Y-94121224D01*
X139570779Y-94121224D01*
X139573470Y-94121720D01*
X139608817Y-94121224D01*
X139625300Y-94121224D01*
X139628038Y-94120954D01*
X139630767Y-94120916D01*
X139647021Y-94119085D01*
X139682327Y-94115607D01*
X139683833Y-94115150D01*
X139705376Y-94114243D01*
X139737225Y-94106503D01*
X139769298Y-94099654D01*
X139791886Y-94089924D01*
X139808591Y-94084079D01*
X139832328Y-94077599D01*
X139861672Y-94062957D01*
X139891387Y-94049157D01*
X139911245Y-94034645D01*
X139926245Y-94025220D01*
X139947933Y-94013627D01*
X139973283Y-93992823D01*
X139999190Y-93972750D01*
X140015314Y-93954190D01*
X140027840Y-93941664D01*
X140046404Y-93925536D01*
X140066483Y-93899621D01*
X140087281Y-93874278D01*
X140098873Y-93852590D01*
X140106765Y-93840031D01*
X140114657Y-93852591D01*
X140126250Y-93874279D01*
X140147054Y-93899629D01*
X140167127Y-93925536D01*
X140185687Y-93941660D01*
X140198213Y-93954186D01*
X140214341Y-93972750D01*
X140240256Y-93992829D01*
X140265599Y-94013627D01*
X140287287Y-94025219D01*
X140302286Y-94034644D01*
X140322144Y-94049157D01*
X140351876Y-94062965D01*
X140381203Y-94077599D01*
X140404933Y-94084077D01*
X140421653Y-94089927D01*
X140444234Y-94099654D01*
X140476304Y-94106502D01*
X140508155Y-94114243D01*
X140529699Y-94115150D01*
X140531205Y-94115607D01*
X140566511Y-94119085D01*
X140582765Y-94120916D01*
X140585494Y-94120954D01*
X140588232Y-94121224D01*
X140604715Y-94121224D01*
X140633164Y-94121623D01*
X140633164Y-94325950D01*
X140643497Y-94430867D01*
X140674101Y-94531752D01*
X140723797Y-94624728D01*
X140790678Y-94706222D01*
X140872172Y-94773103D01*
X140965148Y-94822799D01*
X141066033Y-94853403D01*
X141170950Y-94863736D01*
X141683450Y-94863736D01*
X141788367Y-94853403D01*
X141889252Y-94822799D01*
X141982228Y-94773103D01*
X142063722Y-94706222D01*
X142130603Y-94624728D01*
X142180299Y-94531752D01*
X142210903Y-94430867D01*
X142221236Y-94325950D01*
X142221236Y-94140000D01*
X143023016Y-94140000D01*
X143023753Y-94564200D01*
X143061853Y-94602300D01*
X143600953Y-94602300D01*
X143600953Y-94025700D01*
X143626353Y-94025700D01*
X143626353Y-94602300D01*
X144165453Y-94602300D01*
X144203553Y-94564200D01*
X144204290Y-94140000D01*
X144201348Y-94110124D01*
X144192633Y-94081397D01*
X144178482Y-94054922D01*
X144159437Y-94031716D01*
X144136231Y-94012671D01*
X144109756Y-93998520D01*
X144081029Y-93989805D01*
X144051153Y-93986863D01*
X143664453Y-93987600D01*
X143626353Y-94025700D01*
X143600953Y-94025700D01*
X143562853Y-93987600D01*
X143176153Y-93986863D01*
X143146277Y-93989805D01*
X143117550Y-93998520D01*
X143091075Y-94012671D01*
X143067869Y-94031716D01*
X143048824Y-94054922D01*
X143034673Y-94081397D01*
X143025958Y-94110124D01*
X143023016Y-94140000D01*
X142221236Y-94140000D01*
X142221236Y-93888450D01*
X142218520Y-93860874D01*
X144221200Y-93860874D01*
X144221200Y-100330000D01*
X144222176Y-100339911D01*
X144225067Y-100349440D01*
X144229761Y-100358223D01*
X144236079Y-100365921D01*
X144243777Y-100372239D01*
X144252560Y-100376933D01*
X144262089Y-100379824D01*
X144272000Y-100380800D01*
X150190200Y-100380800D01*
X150190200Y-102387345D01*
X149866363Y-102711183D01*
X149852313Y-102722714D01*
X149840783Y-102736763D01*
X149840779Y-102736767D01*
X149826981Y-102753580D01*
X149815997Y-102766964D01*
X149314000Y-102766964D01*
X149251759Y-102773094D01*
X149191910Y-102791249D01*
X149136753Y-102820731D01*
X149088407Y-102860407D01*
X149048731Y-102908753D01*
X149019249Y-102963910D01*
X149001094Y-103023759D01*
X148994964Y-103086000D01*
X148994964Y-104686000D01*
X149001094Y-104748241D01*
X149019249Y-104808090D01*
X149048731Y-104863247D01*
X149088407Y-104911593D01*
X149136753Y-104951269D01*
X149191910Y-104980751D01*
X149251759Y-104998906D01*
X149314000Y-105005036D01*
X149669500Y-105005036D01*
X149669500Y-105400544D01*
X149584665Y-105435684D01*
X149401635Y-105557981D01*
X149245981Y-105713635D01*
X149123684Y-105896665D01*
X149039445Y-106100037D01*
X148996500Y-106315936D01*
X148996500Y-106536064D01*
X149039445Y-106751963D01*
X149123684Y-106955335D01*
X149245981Y-107138365D01*
X149401635Y-107294019D01*
X149542500Y-107388142D01*
X149542501Y-109598933D01*
X149442381Y-109629304D01*
X149345083Y-109681311D01*
X149259800Y-109751300D01*
X149189811Y-109836583D01*
X149137804Y-109933881D01*
X149105778Y-110039456D01*
X149094964Y-110149250D01*
X149094964Y-110636750D01*
X149105778Y-110746544D01*
X149137804Y-110852119D01*
X149189811Y-110949417D01*
X149259800Y-111034700D01*
X149345083Y-111104689D01*
X149442381Y-111156696D01*
X149547956Y-111188722D01*
X149657750Y-111199536D01*
X150190200Y-111199536D01*
X150190200Y-111461464D01*
X149657750Y-111461464D01*
X149547956Y-111472278D01*
X149442381Y-111504304D01*
X149345083Y-111556311D01*
X149259800Y-111626300D01*
X149189811Y-111711583D01*
X149137804Y-111808881D01*
X149105778Y-111914456D01*
X149094964Y-112024250D01*
X149094964Y-112511750D01*
X149105778Y-112621544D01*
X149137804Y-112727119D01*
X149189811Y-112824417D01*
X149212612Y-112852200D01*
X123240800Y-112852200D01*
X123240800Y-87172800D01*
X125298200Y-87172800D01*
X125298200Y-91440000D01*
G36*
X144221200Y-87409073D02*
G01*
X144221200Y-88418351D01*
X144188552Y-88400901D01*
X144087667Y-88370297D01*
X143982750Y-88359964D01*
X143545250Y-88359964D01*
X143440333Y-88370297D01*
X143339448Y-88400901D01*
X143246472Y-88450597D01*
X143164978Y-88517478D01*
X143098097Y-88598972D01*
X143048401Y-88691948D01*
X143017797Y-88792833D01*
X143007464Y-88897750D01*
X143007464Y-89410250D01*
X143017797Y-89515167D01*
X143048401Y-89616052D01*
X143098097Y-89709028D01*
X143164978Y-89790522D01*
X143246472Y-89857403D01*
X143339448Y-89907099D01*
X143440333Y-89937703D01*
X143545250Y-89948036D01*
X143982750Y-89948036D01*
X144087667Y-89937703D01*
X144188552Y-89907099D01*
X144221200Y-89889649D01*
X144221200Y-91304604D01*
X144215980Y-91287397D01*
X144201829Y-91260922D01*
X144182784Y-91237716D01*
X144159578Y-91218671D01*
X144133103Y-91204520D01*
X144104376Y-91195805D01*
X144074500Y-91192863D01*
X143687800Y-91193600D01*
X143649700Y-91231700D01*
X143649700Y-91808300D01*
X143669700Y-91808300D01*
X143669700Y-91833700D01*
X143649700Y-91833700D01*
X143649700Y-92410300D01*
X143687800Y-92448400D01*
X144074500Y-92449137D01*
X144104376Y-92446195D01*
X144133103Y-92437480D01*
X144159578Y-92423329D01*
X144182784Y-92404284D01*
X144201829Y-92381078D01*
X144215980Y-92354603D01*
X144221200Y-92337396D01*
X144221200Y-92676726D01*
X142221236Y-92676726D01*
X142221236Y-92313450D01*
X142219518Y-92296000D01*
X143046363Y-92296000D01*
X143049305Y-92325876D01*
X143058020Y-92354603D01*
X143072171Y-92381078D01*
X143091216Y-92404284D01*
X143114422Y-92423329D01*
X143140897Y-92437480D01*
X143169624Y-92446195D01*
X143199500Y-92449137D01*
X143586200Y-92448400D01*
X143624300Y-92410300D01*
X143624300Y-91833700D01*
X143085200Y-91833700D01*
X143047100Y-91871800D01*
X143046363Y-92296000D01*
X142219518Y-92296000D01*
X142210903Y-92208533D01*
X142180299Y-92107648D01*
X142130603Y-92014672D01*
X142063722Y-91933178D01*
X141982228Y-91866297D01*
X141889252Y-91816601D01*
X141788367Y-91785997D01*
X141683450Y-91775664D01*
X141170950Y-91775664D01*
X141066033Y-91785997D01*
X140965148Y-91816601D01*
X140872172Y-91866297D01*
X140790678Y-91933178D01*
X140723797Y-92014672D01*
X140674101Y-92107648D01*
X140643497Y-92208533D01*
X140633164Y-92313450D01*
X140633164Y-92574456D01*
X137548112Y-92569226D01*
X137548112Y-91346000D01*
X143046363Y-91346000D01*
X143047100Y-91770200D01*
X143085200Y-91808300D01*
X143624300Y-91808300D01*
X143624300Y-91231700D01*
X143586200Y-91193600D01*
X143199500Y-91192863D01*
X143169624Y-91195805D01*
X143140897Y-91204520D01*
X143114422Y-91218671D01*
X143091216Y-91237716D01*
X143072171Y-91260922D01*
X143058020Y-91287397D01*
X143049305Y-91316124D01*
X143046363Y-91346000D01*
X137548112Y-91346000D01*
X137548112Y-89629000D01*
X141598363Y-89629000D01*
X141601305Y-89658876D01*
X141610020Y-89687603D01*
X141624171Y-89714078D01*
X141643216Y-89737284D01*
X141666422Y-89756329D01*
X141692897Y-89770480D01*
X141721624Y-89779195D01*
X141751500Y-89782137D01*
X142138200Y-89781400D01*
X142176300Y-89743300D01*
X142176300Y-89166700D01*
X142201700Y-89166700D01*
X142201700Y-89743300D01*
X142239800Y-89781400D01*
X142626500Y-89782137D01*
X142656376Y-89779195D01*
X142685103Y-89770480D01*
X142711578Y-89756329D01*
X142734784Y-89737284D01*
X142753829Y-89714078D01*
X142767980Y-89687603D01*
X142776695Y-89658876D01*
X142779637Y-89629000D01*
X142778900Y-89204800D01*
X142740800Y-89166700D01*
X142201700Y-89166700D01*
X142176300Y-89166700D01*
X141637200Y-89166700D01*
X141599100Y-89204800D01*
X141598363Y-89629000D01*
X137548112Y-89629000D01*
X137548112Y-88679000D01*
X141598363Y-88679000D01*
X141599100Y-89103200D01*
X141637200Y-89141300D01*
X142176300Y-89141300D01*
X142176300Y-88564700D01*
X142201700Y-88564700D01*
X142201700Y-89141300D01*
X142740800Y-89141300D01*
X142778900Y-89103200D01*
X142779637Y-88679000D01*
X142776695Y-88649124D01*
X142767980Y-88620397D01*
X142753829Y-88593922D01*
X142734784Y-88570716D01*
X142711578Y-88551671D01*
X142685103Y-88537520D01*
X142656376Y-88528805D01*
X142626500Y-88525863D01*
X142239800Y-88526600D01*
X142201700Y-88564700D01*
X142176300Y-88564700D01*
X142138200Y-88526600D01*
X141751500Y-88525863D01*
X141721624Y-88528805D01*
X141692897Y-88537520D01*
X141666422Y-88551671D01*
X141643216Y-88570716D01*
X141624171Y-88593922D01*
X141610020Y-88620397D01*
X141601305Y-88649124D01*
X141598363Y-88679000D01*
X137548112Y-88679000D01*
X137548112Y-87344256D01*
X137549989Y-87325200D01*
X137542495Y-87249116D01*
X137533267Y-87218697D01*
X137520303Y-87175958D01*
X137518615Y-87172800D01*
X143984927Y-87172800D01*
X144221200Y-87409073D01*
G37*
X144221200Y-87409073D02*
X144221200Y-88418351D01*
X144188552Y-88400901D01*
X144087667Y-88370297D01*
X143982750Y-88359964D01*
X143545250Y-88359964D01*
X143440333Y-88370297D01*
X143339448Y-88400901D01*
X143246472Y-88450597D01*
X143164978Y-88517478D01*
X143098097Y-88598972D01*
X143048401Y-88691948D01*
X143017797Y-88792833D01*
X143007464Y-88897750D01*
X143007464Y-89410250D01*
X143017797Y-89515167D01*
X143048401Y-89616052D01*
X143098097Y-89709028D01*
X143164978Y-89790522D01*
X143246472Y-89857403D01*
X143339448Y-89907099D01*
X143440333Y-89937703D01*
X143545250Y-89948036D01*
X143982750Y-89948036D01*
X144087667Y-89937703D01*
X144188552Y-89907099D01*
X144221200Y-89889649D01*
X144221200Y-91304604D01*
X144215980Y-91287397D01*
X144201829Y-91260922D01*
X144182784Y-91237716D01*
X144159578Y-91218671D01*
X144133103Y-91204520D01*
X144104376Y-91195805D01*
X144074500Y-91192863D01*
X143687800Y-91193600D01*
X143649700Y-91231700D01*
X143649700Y-91808300D01*
X143669700Y-91808300D01*
X143669700Y-91833700D01*
X143649700Y-91833700D01*
X143649700Y-92410300D01*
X143687800Y-92448400D01*
X144074500Y-92449137D01*
X144104376Y-92446195D01*
X144133103Y-92437480D01*
X144159578Y-92423329D01*
X144182784Y-92404284D01*
X144201829Y-92381078D01*
X144215980Y-92354603D01*
X144221200Y-92337396D01*
X144221200Y-92676726D01*
X142221236Y-92676726D01*
X142221236Y-92313450D01*
X142219518Y-92296000D01*
X143046363Y-92296000D01*
X143049305Y-92325876D01*
X143058020Y-92354603D01*
X143072171Y-92381078D01*
X143091216Y-92404284D01*
X143114422Y-92423329D01*
X143140897Y-92437480D01*
X143169624Y-92446195D01*
X143199500Y-92449137D01*
X143586200Y-92448400D01*
X143624300Y-92410300D01*
X143624300Y-91833700D01*
X143085200Y-91833700D01*
X143047100Y-91871800D01*
X143046363Y-92296000D01*
X142219518Y-92296000D01*
X142210903Y-92208533D01*
X142180299Y-92107648D01*
X142130603Y-92014672D01*
X142063722Y-91933178D01*
X141982228Y-91866297D01*
X141889252Y-91816601D01*
X141788367Y-91785997D01*
X141683450Y-91775664D01*
X141170950Y-91775664D01*
X141066033Y-91785997D01*
X140965148Y-91816601D01*
X140872172Y-91866297D01*
X140790678Y-91933178D01*
X140723797Y-92014672D01*
X140674101Y-92107648D01*
X140643497Y-92208533D01*
X140633164Y-92313450D01*
X140633164Y-92574456D01*
X137548112Y-92569226D01*
X137548112Y-91346000D01*
X143046363Y-91346000D01*
X143047100Y-91770200D01*
X143085200Y-91808300D01*
X143624300Y-91808300D01*
X143624300Y-91231700D01*
X143586200Y-91193600D01*
X143199500Y-91192863D01*
X143169624Y-91195805D01*
X143140897Y-91204520D01*
X143114422Y-91218671D01*
X143091216Y-91237716D01*
X143072171Y-91260922D01*
X143058020Y-91287397D01*
X143049305Y-91316124D01*
X143046363Y-91346000D01*
X137548112Y-91346000D01*
X137548112Y-89629000D01*
X141598363Y-89629000D01*
X141601305Y-89658876D01*
X141610020Y-89687603D01*
X141624171Y-89714078D01*
X141643216Y-89737284D01*
X141666422Y-89756329D01*
X141692897Y-89770480D01*
X141721624Y-89779195D01*
X141751500Y-89782137D01*
X142138200Y-89781400D01*
X142176300Y-89743300D01*
X142176300Y-89166700D01*
X142201700Y-89166700D01*
X142201700Y-89743300D01*
X142239800Y-89781400D01*
X142626500Y-89782137D01*
X142656376Y-89779195D01*
X142685103Y-89770480D01*
X142711578Y-89756329D01*
X142734784Y-89737284D01*
X142753829Y-89714078D01*
X142767980Y-89687603D01*
X142776695Y-89658876D01*
X142779637Y-89629000D01*
X142778900Y-89204800D01*
X142740800Y-89166700D01*
X142201700Y-89166700D01*
X142176300Y-89166700D01*
X141637200Y-89166700D01*
X141599100Y-89204800D01*
X141598363Y-89629000D01*
X137548112Y-89629000D01*
X137548112Y-88679000D01*
X141598363Y-88679000D01*
X141599100Y-89103200D01*
X141637200Y-89141300D01*
X142176300Y-89141300D01*
X142176300Y-88564700D01*
X142201700Y-88564700D01*
X142201700Y-89141300D01*
X142740800Y-89141300D01*
X142778900Y-89103200D01*
X142779637Y-88679000D01*
X142776695Y-88649124D01*
X142767980Y-88620397D01*
X142753829Y-88593922D01*
X142734784Y-88570716D01*
X142711578Y-88551671D01*
X142685103Y-88537520D01*
X142656376Y-88528805D01*
X142626500Y-88525863D01*
X142239800Y-88526600D01*
X142201700Y-88564700D01*
X142176300Y-88564700D01*
X142138200Y-88526600D01*
X141751500Y-88525863D01*
X141721624Y-88528805D01*
X141692897Y-88537520D01*
X141666422Y-88551671D01*
X141643216Y-88570716D01*
X141624171Y-88593922D01*
X141610020Y-88620397D01*
X141601305Y-88649124D01*
X141598363Y-88679000D01*
X137548112Y-88679000D01*
X137548112Y-87344256D01*
X137549989Y-87325200D01*
X137542495Y-87249116D01*
X137533267Y-87218697D01*
X137520303Y-87175958D01*
X137518615Y-87172800D01*
X143984927Y-87172800D01*
X144221200Y-87409073D01*
G04 #@! TD*
M02*
