M48
; DRILL file {KiCad (5.1.6)-1} date 10/21/20 16:41:58
; FORMAT={2:4/ absolute / inch / suppress trailing zeros}
; #@! TF.CreationDate,2020-10-21T16:41:58-04:00
; #@! TF.GenerationSoftware,Kicad,Pcbnew,(5.1.6)-1
; #@! TF.FileFunction,Plated,1,4,PTH
FMAT,2
INCH,LZ
T1C0.0079
T2C0.0080
T3C0.0315
T4C0.0394
T5C0.0500
T6C0.0600
%
G90
G05
T1
X058348Y-036312
X058348Y-036706
X058348Y-0371
X058742Y-036312
X058742Y-036706
X058742Y-0371
X059136Y-036312
X059136Y-036706
X059136Y-0371
T2
X0535Y-03625
X0535Y-037
X05425Y-0335
X05425Y-0395
X05475Y-03425
X05475Y-035
X05475Y-03575
X05475Y-0375
X05475Y-03825
X05475Y-039
X0548Y-029
X0548Y-0294
X0548Y-0298
X0548Y-0303
X0548Y-0308
X0553Y-029
X0553Y-0294
X0553Y-0298
X0553Y-0303
X0553Y-0308
X05575Y-03575
X05575Y-0375
X05585Y-0349
X05585Y-03525
X05625Y-029
X05625Y-02975
X05625Y-0305
X05625Y-03125
X05625Y-032
X05625Y-03275
X05625Y-0335
X05635Y-0359
X05635Y-03625
X0565Y-0373
X0565Y-03765
X0565Y-038
X05705Y-0474
X05715Y-03795
X057161Y-037239
X05717Y-03615
X05725Y-029
X05725Y-02975
X05725Y-0305
X05725Y-03125
X05725Y-032
X05735Y-0474
X0575Y-03275
X0575Y-0335
X0577Y-0474
X0578Y-0357
X0578Y-03595
X058Y-0377
X058Y-0379
X05815Y-0474
X0582Y-029
X0582Y-0294
X0582Y-0298
X0582Y-0303
X0582Y-0308
X05825Y-04075
X05825Y-04175
X05825Y-04325
X0583Y-0384
X05835Y-0391
X05845Y-0355
X05845Y-03575
X05865Y-0391
X05865Y-0474
X0587Y-029
X0587Y-0294
X0587Y-0298
X0587Y-0303
X0587Y-0308
X05875Y-04
X05895Y-0384
X05895Y-0391
X05895Y-0442
X0591Y-0474
X05925Y-0442
X0596Y-0474
X0597Y-029
X0597Y-0294
X0597Y-0298
X0597Y-0303
X0597Y-0308
X05975Y-03875
X05975Y-04025
X05975Y-041
X05975Y-04225
X06015Y-0351
X0602Y-029
X0602Y-0294
X0602Y-0298
X0602Y-0303
X0602Y-0308
X06025Y-03925
X06025Y-0474
X06032Y-03836
X060425Y-035775
X0605Y-033
X0607Y-0474
X06075Y-0395
X06075Y-04
X0608Y-03505
X0608Y-0388
X06105Y-03575
X0611Y-03505
X0611Y-0388
X06115Y-0474
X0612Y-04335
X0612Y-0436
X06125Y-02925
X06125Y-03
X06125Y-03075
X06125Y-0315
X06125Y-03225
X06125Y-038
X0613Y-03575
X0614Y-03505
X0615Y-0335
X06175Y-0385
X06175Y-039
X06175Y-0395
X06175Y-04
X0621Y-0367
X06225Y-02925
X06225Y-03
X06225Y-03075
X06225Y-0315
X06225Y-03225
X06225Y-0335
X06225Y-038
X0625Y-03475
X06275Y-039
X06275Y-0395
X0628Y-0366
X063Y-03275
X063Y-0335
X063Y-0345
X063Y-03725
X063Y-0385
X063Y-04
X0631Y-029
X0631Y-0294
X0631Y-0298
X0631Y-0303
X0631Y-0308
X06325Y-035
X06325Y-0355
X0635Y-03675
X0635Y-038
X0636Y-029
X0636Y-0294
X0636Y-0298
X0636Y-0303
X0636Y-0308
X06375Y-032
X06375Y-039
X064Y-03275
X064Y-0335
X064Y-034
X064Y-0345
X064Y-035
X064Y-03575
X064Y-03725
X064Y-03975
X064Y-041
T3
X0591Y-0409
X0591Y-0419
X0621Y-0409
X0621Y-0419
T4
X0561Y-0455
X0571Y-0455
X0581Y-0455
X0591Y-0455
X0601Y-0455
X0611Y-0455
X0648Y-0322
X0648Y-0332
X0648Y-0342
X0648Y-0352
X0648Y-0362
X0648Y-0372
X0648Y-0382
X0648Y-0392
X0648Y-0402
X0648Y-0412
X0658Y-0322
X0658Y-0332
X0658Y-0342
X0658Y-0352
X0658Y-0362
X0658Y-0372
X0658Y-0382
X0658Y-0392
X0658Y-0402
X0658Y-0412
T5
X0515Y-0395
X0515Y-033815
T6
X05025Y-03825
X05025Y-04075
X05275Y-03825
X05275Y-04075
X05025Y-032565
X05025Y-035065
X05275Y-032565
X05275Y-035065
T0
M30
