G04 #@! TF.GenerationSoftware,KiCad,Pcbnew,5.1.5+dfsg1-2build2*
G04 #@! TF.CreationDate,2020-11-26T02:38:28-05:00*
G04 #@! TF.ProjectId,SAR_pcb,5341525f-7063-4622-9e6b-696361645f70,rev?*
G04 #@! TF.SameCoordinates,Original*
G04 #@! TF.FileFunction,Copper,L4,Bot*
G04 #@! TF.FilePolarity,Positive*
%FSLAX46Y46*%
G04 Gerber Fmt 4.6, Leading zero omitted, Abs format (unit mm)*
G04 Created by KiCad (PCBNEW 5.1.5+dfsg1-2build2) date 2020-11-26 02:38:28*
%MOMM*%
%LPD*%
G04 APERTURE LIST*
G04 #@! TA.AperFunction,SMDPad,CuDef*
%ADD10R,2.286000X5.842000*%
G04 #@! TD*
G04 #@! TA.AperFunction,ComponentPad*
%ADD11C,3.810000*%
G04 #@! TD*
G04 #@! TA.AperFunction,ComponentPad*
%ADD12C,3.556000*%
G04 #@! TD*
G04 #@! TA.AperFunction,ComponentPad*
%ADD13R,1.700000X1.700000*%
G04 #@! TD*
G04 #@! TA.AperFunction,ComponentPad*
%ADD14O,1.700000X1.700000*%
G04 #@! TD*
G04 #@! TA.AperFunction,ComponentPad*
%ADD15R,1.600000X1.600000*%
G04 #@! TD*
G04 #@! TA.AperFunction,ComponentPad*
%ADD16O,1.600000X1.600000*%
G04 #@! TD*
G04 #@! TA.AperFunction,ViaPad*
%ADD17C,0.500000*%
G04 #@! TD*
G04 #@! TA.AperFunction,Conductor*
%ADD18C,0.100000*%
G04 #@! TD*
G04 #@! TA.AperFunction,ViaPad*
%ADD19C,0.457200*%
G04 #@! TD*
G04 APERTURE END LIST*
D10*
G04 #@! TO.P,J10,2*
G04 #@! TO.N,GND*
X152273000Y-75996021D03*
X160909000Y-75996021D03*
G04 #@! TD*
G04 #@! TO.P,J9,2*
G04 #@! TO.N,GND*
X139827000Y-75984100D03*
X148463000Y-75984100D03*
G04 #@! TD*
D11*
G04 #@! TO.P,J1,2*
G04 #@! TO.N,GND*
X127635000Y-82715100D03*
D12*
G04 #@! TO.P,J1,1*
G04 #@! TO.N,VIN-*
X130810000Y-85890100D03*
D11*
G04 #@! TO.P,J1,2*
G04 #@! TO.N,GND*
X133985000Y-82715100D03*
X127635000Y-89065100D03*
X133985000Y-89065100D03*
G04 #@! TD*
G04 #@! TO.P,J2,2*
G04 #@! TO.N,GND*
X133985000Y-103505000D03*
X127635000Y-103505000D03*
X133985000Y-97155000D03*
D12*
G04 #@! TO.P,J2,1*
G04 #@! TO.N,VIN+*
X130810000Y-100330000D03*
D11*
G04 #@! TO.P,J2,2*
G04 #@! TO.N,GND*
X127635000Y-97155000D03*
G04 #@! TD*
D13*
G04 #@! TO.P,J3,1*
G04 #@! TO.N,D0*
X164592000Y-81788000D03*
D14*
G04 #@! TO.P,J3,2*
G04 #@! TO.N,GND*
X167132000Y-81788000D03*
G04 #@! TO.P,J3,3*
G04 #@! TO.N,D1*
X164592000Y-84328000D03*
G04 #@! TO.P,J3,4*
G04 #@! TO.N,GND*
X167132000Y-84328000D03*
G04 #@! TO.P,J3,5*
G04 #@! TO.N,D2*
X164592000Y-86868000D03*
G04 #@! TO.P,J3,6*
G04 #@! TO.N,GND*
X167132000Y-86868000D03*
G04 #@! TO.P,J3,7*
G04 #@! TO.N,D3*
X164592000Y-89408000D03*
G04 #@! TO.P,J3,8*
G04 #@! TO.N,GND*
X167132000Y-89408000D03*
G04 #@! TO.P,J3,9*
G04 #@! TO.N,D4*
X164592000Y-91948000D03*
G04 #@! TO.P,J3,10*
G04 #@! TO.N,GND*
X167132000Y-91948000D03*
G04 #@! TO.P,J3,11*
G04 #@! TO.N,D5*
X164592000Y-94488000D03*
G04 #@! TO.P,J3,12*
G04 #@! TO.N,GND*
X167132000Y-94488000D03*
G04 #@! TO.P,J3,13*
G04 #@! TO.N,D6*
X164592000Y-97028000D03*
G04 #@! TO.P,J3,14*
G04 #@! TO.N,GND*
X167132000Y-97028000D03*
G04 #@! TO.P,J3,15*
G04 #@! TO.N,D7*
X164592000Y-99568000D03*
G04 #@! TO.P,J3,16*
G04 #@! TO.N,GND*
X167132000Y-99568000D03*
G04 #@! TO.P,J3,17*
G04 #@! TO.N,D8*
X164592000Y-102108000D03*
G04 #@! TO.P,J3,18*
G04 #@! TO.N,GND*
X167132000Y-102108000D03*
G04 #@! TO.P,J3,19*
G04 #@! TO.N,D9*
X164592000Y-104648000D03*
G04 #@! TO.P,J3,20*
G04 #@! TO.N,GND*
X167132000Y-104648000D03*
G04 #@! TD*
D13*
G04 #@! TO.P,J4,1*
G04 #@! TO.N,VDD*
X155194000Y-115570000D03*
D14*
G04 #@! TO.P,J4,2*
G04 #@! TO.N,GND*
X152654000Y-115570000D03*
G04 #@! TO.P,J4,3*
G04 #@! TO.N,VDDPST*
X150114000Y-115570000D03*
G04 #@! TO.P,J4,4*
G04 #@! TO.N,GND*
X147574000Y-115570000D03*
G04 #@! TO.P,J4,5*
G04 #@! TO.N,VREF*
X145034000Y-115570000D03*
G04 #@! TO.P,J4,6*
G04 #@! TO.N,GND*
X142494000Y-115570000D03*
G04 #@! TD*
D15*
G04 #@! TO.P,SW1,1*
G04 #@! TO.N,RST*
X150114000Y-103886000D03*
D16*
G04 #@! TO.P,SW1,3*
G04 #@! TO.N,GND*
X157734000Y-106426000D03*
G04 #@! TO.P,SW1,2*
G04 #@! TO.N,RST*
X150114000Y-106426000D03*
G04 #@! TO.P,SW1,4*
G04 #@! TO.N,GND*
X157734000Y-103886000D03*
G04 #@! TD*
D17*
G04 #@! TO.N,GND*
G04 #@! TO.C,U2*
X148204680Y-92233240D03*
X149204680Y-92233240D03*
X150204680Y-92233240D03*
X148204680Y-93233240D03*
X149204680Y-93233240D03*
X150204680Y-93233240D03*
X148204680Y-94233240D03*
X149204680Y-94233240D03*
X150204680Y-94233240D03*
G04 #@! TA.AperFunction,Conductor*
D18*
G36*
X150229184Y-91984444D02*
G01*
X150253453Y-91988044D01*
X150277251Y-91994005D01*
X150300351Y-92002270D01*
X150322529Y-92012760D01*
X150343573Y-92025373D01*
X150363278Y-92039987D01*
X150381457Y-92056463D01*
X150397933Y-92074642D01*
X150412547Y-92094347D01*
X150425160Y-92115391D01*
X150435650Y-92137569D01*
X150443915Y-92160669D01*
X150449876Y-92184467D01*
X150453476Y-92208736D01*
X150454680Y-92233240D01*
X150454680Y-94233240D01*
X150453476Y-94257744D01*
X150449876Y-94282013D01*
X150443915Y-94305811D01*
X150435650Y-94328911D01*
X150425160Y-94351089D01*
X150412547Y-94372133D01*
X150397933Y-94391838D01*
X150381457Y-94410017D01*
X150363278Y-94426493D01*
X150343573Y-94441107D01*
X150322529Y-94453720D01*
X150300351Y-94464210D01*
X150277251Y-94472475D01*
X150253453Y-94478436D01*
X150229184Y-94482036D01*
X150204680Y-94483240D01*
X148204680Y-94483240D01*
X148180176Y-94482036D01*
X148155907Y-94478436D01*
X148132109Y-94472475D01*
X148109009Y-94464210D01*
X148086831Y-94453720D01*
X148065787Y-94441107D01*
X148046082Y-94426493D01*
X148027903Y-94410017D01*
X148011427Y-94391838D01*
X147996813Y-94372133D01*
X147984200Y-94351089D01*
X147973710Y-94328911D01*
X147965445Y-94305811D01*
X147959484Y-94282013D01*
X147955884Y-94257744D01*
X147954680Y-94233240D01*
X147954680Y-92233240D01*
X147955884Y-92208736D01*
X147959484Y-92184467D01*
X147965445Y-92160669D01*
X147973710Y-92137569D01*
X147984200Y-92115391D01*
X147996813Y-92094347D01*
X148011427Y-92074642D01*
X148027903Y-92056463D01*
X148046082Y-92039987D01*
X148065787Y-92025373D01*
X148086831Y-92012760D01*
X148109009Y-92002270D01*
X148132109Y-91994005D01*
X148155907Y-91988044D01*
X148180176Y-91984444D01*
X148204680Y-91983240D01*
X150204680Y-91983240D01*
X150229184Y-91984444D01*
G37*
G04 #@! TD.AperFunction*
G04 #@! TD*
D19*
G04 #@! TO.N,VDD*
X145161000Y-96393000D03*
X149733000Y-97536000D03*
X153479500Y-90868500D03*
X145212000Y-91821000D03*
G04 #@! TO.N,GND*
X155321000Y-120396000D03*
X150114000Y-120396000D03*
X145669000Y-120396000D03*
X144907000Y-120396000D03*
X155067000Y-90805000D03*
X155956000Y-89027000D03*
X154432000Y-89027000D03*
X154432000Y-98552000D03*
X149733000Y-99314000D03*
X148209000Y-99314000D03*
X141859000Y-89535000D03*
X143510000Y-96520000D03*
X143510000Y-94742000D03*
X155448000Y-110744000D03*
X155448000Y-110109000D03*
X161544000Y-74676000D03*
X160274000Y-78232000D03*
X161544000Y-78232000D03*
X161544000Y-75692000D03*
X161544000Y-73660000D03*
X160274000Y-74676000D03*
X161544000Y-76962000D03*
X160274000Y-76962000D03*
X160274000Y-73660000D03*
X160274000Y-75692000D03*
X152908000Y-74676000D03*
X151638000Y-78232000D03*
X152908000Y-78232000D03*
X152908000Y-75692000D03*
X152908000Y-73660000D03*
X151638000Y-74676000D03*
X152908000Y-76962000D03*
X151638000Y-76962000D03*
X151638000Y-73660000D03*
X151638000Y-75692000D03*
X149098000Y-74676000D03*
X147828000Y-78232000D03*
X149098000Y-78232000D03*
X149098000Y-75692000D03*
X149098000Y-73660000D03*
X147828000Y-74676000D03*
X149098000Y-76962000D03*
X147828000Y-76962000D03*
X147828000Y-73660000D03*
X147828000Y-75692000D03*
X140462000Y-78232000D03*
X139192000Y-78232000D03*
X139192000Y-76962000D03*
X140462000Y-76962000D03*
X140462000Y-75692000D03*
X139192000Y-75692000D03*
X140462000Y-74676000D03*
X139192000Y-74676000D03*
X140462000Y-73660000D03*
X139192000Y-73660000D03*
X148463000Y-90805000D03*
X146812000Y-90678000D03*
X146812000Y-91313000D03*
X148463000Y-90170000D03*
X147320000Y-95758000D03*
X147320000Y-96266000D03*
X143510000Y-95631000D03*
X141859000Y-88646000D03*
X143129000Y-91186000D03*
X143129000Y-92075000D03*
X148971000Y-99314000D03*
X155194000Y-98552000D03*
X155194000Y-89027000D03*
X155702000Y-90805000D03*
X146558000Y-120396000D03*
X147701000Y-120396000D03*
X148971000Y-120396000D03*
X151384000Y-120396000D03*
X153035000Y-120396000D03*
X154178000Y-120396000D03*
X139065000Y-86995000D03*
X137795000Y-85090000D03*
X151765000Y-102235000D03*
X151765000Y-104140000D03*
X151765000Y-107315000D03*
X154305000Y-101600000D03*
X156845000Y-101600000D03*
X160020000Y-101600000D03*
X162560000Y-104140000D03*
X151765000Y-98425000D03*
X153035000Y-99695000D03*
X154305000Y-100330000D03*
X156845000Y-100330000D03*
X159385000Y-100330000D03*
X162560000Y-100965000D03*
X156845000Y-99060000D03*
X159385000Y-99060000D03*
X161925000Y-99060000D03*
X156845000Y-97790000D03*
X160020000Y-97790000D03*
X155575000Y-96520000D03*
X158115000Y-96520000D03*
X161290000Y-96520000D03*
X160020000Y-94615000D03*
X162560000Y-94615000D03*
X161290000Y-93345000D03*
X162560000Y-90805000D03*
X160655000Y-88900000D03*
X160655000Y-90170000D03*
X162560000Y-88900000D03*
X162560000Y-87630000D03*
X162560000Y-85090000D03*
X162560000Y-86360000D03*
X160020000Y-87630000D03*
X162560000Y-83185000D03*
X160020000Y-85090000D03*
X158750000Y-88265000D03*
X159512000Y-92964000D03*
X157734000Y-93218000D03*
X158115000Y-85090000D03*
X160020000Y-83185000D03*
X161925000Y-81280000D03*
X155575000Y-74295000D03*
X155575000Y-76200000D03*
X155575000Y-78105000D03*
X155575000Y-80010000D03*
X155575000Y-81915000D03*
X142875000Y-85090000D03*
X146050000Y-85090000D03*
X153670000Y-83820000D03*
X156210000Y-85090000D03*
X149225000Y-101600000D03*
X147955000Y-103505000D03*
X147955000Y-106045000D03*
X147955000Y-109855000D03*
X158115000Y-74295000D03*
X158115000Y-76200000D03*
X158115000Y-78105000D03*
X158115000Y-80010000D03*
X158115000Y-81915000D03*
X142875000Y-73660000D03*
X145415000Y-73660000D03*
X142875000Y-75565000D03*
X145415000Y-75565000D03*
X142875000Y-77470000D03*
X145415000Y-77470000D03*
X145415000Y-79375000D03*
X142875000Y-79375000D03*
X142875000Y-81280000D03*
X145415000Y-81280000D03*
X142875000Y-83185000D03*
X146050000Y-83185000D03*
X139065000Y-88900000D03*
X139065000Y-90805000D03*
X141605000Y-90805000D03*
X139065000Y-95250000D03*
X141605000Y-95250000D03*
X139065000Y-97155000D03*
X139065000Y-99060000D03*
X137795000Y-100330000D03*
X135890000Y-92075000D03*
X135890000Y-93980000D03*
G04 #@! TO.N,VDDPST*
X150495000Y-112268000D03*
X149733000Y-112268000D03*
X148082000Y-97536000D03*
X153212800Y-97434400D03*
X152781000Y-89154000D03*
G04 #@! TO.N,VREF*
X145188653Y-94587347D03*
G04 #@! TD*
M02*
